<svg width="340" height="158" viewBox="0 0 340 158" fill="none" xmlns="http://www.w3.org/2000/svg">
<g filter="url(#filter0_d)">
<mask id="path-1-outside-1" maskUnits="userSpaceOnUse" x="4.80322" y="0" width="331" height="150" fill="black">
<rect fill="white" x="4.80322" width="331" height="150"/>
<path d="M84.0032 103C84.0032 113.8 80.6699 123.867 74.0032 133.2C66.6699 143.467 57.8699 148.6 47.6032 148.6C32.5366 148.6 21.3366 140.667 14.0032 124.8C8.53656 112.933 5.80322 98.4 5.80322 81.2C5.80322 62.1333 8.66989 45.3333 14.4032 30.8C22.2699 10.9333 34.0032 1 49.6032 1C57.3366 1 64.4032 3.6 70.8032 8.80001C77.3366 14 80.6032 20.3333 80.6032 27.8C80.6032 32.2 78.8032 36.6667 75.2032 41.2C71.7366 45.7333 67.8699 48 63.6032 48C60.2699 48 57.0699 46.6 54.0032 43.8C51.0699 41 49.6032 37.9333 49.6032 34.6C49.6032 28.6 52.4699 25.6 58.2032 25.6C61.5366 25.6 64.4032 26.8 66.8032 29.2V32.8C66.1366 33.7333 65.0699 34.2 63.6032 34.2C62.0032 34.2 60.4032 33.1333 58.8032 31L56.0032 32.6V38.8C57.7366 40.6667 59.9366 41.6 62.6032 41.6C69.6699 41.6 73.2032 37.1333 73.2032 28.2C73.2032 23.4 70.9366 18.9333 66.4032 14.8C62.0032 10.5333 57.3366 8.4 52.4032 8.4C37.7366 8.4 27.2032 17.6667 20.8032 36.2C16.5366 48.6 14.4032 63.9333 14.4032 82.2C14.4032 97.1333 16.4699 109.533 20.6032 119.4C26.3366 133.133 35.6699 140 48.6032 140C57.6699 140 64.6032 135.533 69.4032 126.6C73.4032 119.4 75.4032 110.867 75.4032 101C75.4032 91.9333 72.4032 84.0667 66.4032 77.4C60.4032 70.6 52.8699 67.2 43.8032 67.2C38.3366 67.2 33.4699 69 29.2032 72.6C25.0699 76.2 23.0032 80.6667 23.0032 86C23.0032 88.8 23.9366 91.4 25.8032 93.8C27.6699 96.0667 29.9366 97.2 32.6032 97.2C35.0032 97.2 37.4699 95.2 40.0032 91.2C39.8699 90.2667 38.9366 89.0667 37.2032 87.6C36.8032 87.8667 35.6032 88.6667 33.6032 90C31.6032 91.2 30.2699 91.8 29.6032 91.8C28.8032 91.8 28.4032 90.9333 28.4032 89.2C28.4032 87.7333 29.3366 86.0667 31.2032 84.2C33.2032 82.2 34.9366 81.2 36.4032 81.2C38.8032 81.2 40.8699 82.2667 42.6032 84.4C44.4699 86.5333 45.4032 88.8667 45.4032 91.4C45.4032 94.6 44.1366 97.4667 41.6032 100C39.2032 102.4 36.4032 103.6 33.2032 103.6C28.2699 103.6 24.2032 101.267 21.0032 96.6C18.0699 92.4667 16.6032 87.8667 16.6032 82.8C16.6032 76.8 19.8699 71.4 26.4032 66.6C32.4032 62.0667 38.5366 59.8 44.8032 59.8C55.6032 59.8 64.9366 64.4 72.8032 73.6C80.2699 82.2667 84.0032 92.0667 84.0032 103Z"/>
<path d="M167.402 103C167.402 113.8 164.068 123.867 157.402 133.2C150.068 143.467 141.268 148.6 131.002 148.6C115.935 148.6 104.735 140.667 97.4017 124.8C91.935 112.933 89.2017 98.4 89.2017 81.2C89.2017 62.1333 92.0683 45.3333 97.8017 30.8C105.668 10.9333 117.402 1 133.002 1C140.735 1 147.802 3.6 154.202 8.80001C160.735 14 164.002 20.3333 164.002 27.8C164.002 32.2 162.202 36.6667 158.602 41.2C155.135 45.7333 151.268 48 147.002 48C143.668 48 140.468 46.6 137.402 43.8C134.468 41 133.002 37.9333 133.002 34.6C133.002 28.6 135.868 25.6 141.602 25.6C144.935 25.6 147.802 26.8 150.202 29.2V32.8C149.535 33.7333 148.468 34.2 147.002 34.2C145.402 34.2 143.802 33.1333 142.202 31L139.402 32.6V38.8C141.135 40.6667 143.335 41.6 146.002 41.6C153.068 41.6 156.602 37.1333 156.602 28.2C156.602 23.4 154.335 18.9333 149.802 14.8C145.402 10.5333 140.735 8.4 135.802 8.4C121.135 8.4 110.602 17.6667 104.202 36.2C99.935 48.6 97.8017 63.9333 97.8017 82.2C97.8017 97.1333 99.8683 109.533 104.002 119.4C109.735 133.133 119.068 140 132.002 140C141.068 140 148.002 135.533 152.802 126.6C156.802 119.4 158.802 110.867 158.802 101C158.802 91.9333 155.802 84.0667 149.802 77.4C143.802 70.6 136.268 67.2 127.202 67.2C121.735 67.2 116.868 69 112.602 72.6C108.468 76.2 106.402 80.6667 106.402 86C106.402 88.8 107.335 91.4 109.202 93.8C111.068 96.0667 113.335 97.2 116.002 97.2C118.402 97.2 120.868 95.2 123.402 91.2C123.268 90.2667 122.335 89.0667 120.602 87.6C120.202 87.8667 119.002 88.6667 117.002 90C115.002 91.2 113.668 91.8 113.002 91.8C112.202 91.8 111.802 90.9333 111.802 89.2C111.802 87.7333 112.735 86.0667 114.602 84.2C116.602 82.2 118.335 81.2 119.802 81.2C122.202 81.2 124.268 82.2667 126.002 84.4C127.868 86.5333 128.802 88.8667 128.802 91.4C128.802 94.6 127.535 97.4667 125.002 100C122.602 102.4 119.802 103.6 116.602 103.6C111.668 103.6 107.602 101.267 104.402 96.6C101.468 92.4667 100.002 87.8667 100.002 82.8C100.002 76.8 103.268 71.4 109.802 66.6C115.802 62.0667 121.935 59.8 128.202 59.8C139.002 59.8 148.335 64.4 156.202 73.6C163.668 82.2667 167.402 92.0667 167.402 103Z"/>
<path d="M250.8 103C250.8 113.8 247.467 123.867 240.8 133.2C233.467 143.467 224.667 148.6 214.4 148.6C199.333 148.6 188.133 140.667 180.8 124.8C175.333 112.933 172.6 98.4 172.6 81.2C172.6 62.1333 175.467 45.3333 181.2 30.8C189.067 10.9333 200.8 1 216.4 1C224.133 1 231.2 3.6 237.6 8.80001C244.133 14 247.4 20.3333 247.4 27.8C247.4 32.2 245.6 36.6667 242 41.2C238.533 45.7333 234.667 48 230.4 48C227.067 48 223.867 46.6 220.8 43.8C217.867 41 216.4 37.9333 216.4 34.6C216.4 28.6 219.267 25.6 225 25.6C228.333 25.6 231.2 26.8 233.6 29.2V32.8C232.933 33.7333 231.867 34.2 230.4 34.2C228.8 34.2 227.2 33.1333 225.6 31L222.8 32.6V38.8C224.533 40.6667 226.733 41.6 229.4 41.6C236.467 41.6 240 37.1333 240 28.2C240 23.4 237.733 18.9333 233.2 14.8C228.8 10.5333 224.133 8.4 219.2 8.4C204.533 8.4 194 17.6667 187.6 36.2C183.333 48.6 181.2 63.9333 181.2 82.2C181.2 97.1333 183.267 109.533 187.4 119.4C193.133 133.133 202.467 140 215.4 140C224.467 140 231.4 135.533 236.2 126.6C240.2 119.4 242.2 110.867 242.2 101C242.2 91.9333 239.2 84.0667 233.2 77.4C227.2 70.6 219.667 67.2 210.6 67.2C205.133 67.2 200.267 69 196 72.6C191.867 76.2 189.8 80.6667 189.8 86C189.8 88.8 190.733 91.4 192.6 93.8C194.467 96.0667 196.733 97.2 199.4 97.2C201.8 97.2 204.267 95.2 206.8 91.2C206.667 90.2667 205.733 89.0667 204 87.6C203.6 87.8667 202.4 88.6667 200.4 90C198.4 91.2 197.067 91.8 196.4 91.8C195.6 91.8 195.2 90.9333 195.2 89.2C195.2 87.7333 196.133 86.0667 198 84.2C200 82.2 201.733 81.2 203.2 81.2C205.6 81.2 207.667 82.2667 209.4 84.4C211.267 86.5333 212.2 88.8667 212.2 91.4C212.2 94.6 210.933 97.4667 208.4 100C206 102.4 203.2 103.6 200 103.6C195.067 103.6 191 101.267 187.8 96.6C184.867 92.4667 183.4 87.8667 183.4 82.8C183.4 76.8 186.667 71.4 193.2 66.6C199.2 62.0667 205.333 59.8 211.6 59.8C222.4 59.8 231.733 64.4 239.6 73.6C247.067 82.2667 250.8 92.0667 250.8 103Z"/>
<path d="M334.199 103C334.199 113.8 330.865 123.867 324.199 133.2C316.865 143.467 308.065 148.6 297.799 148.6C282.732 148.6 271.532 140.667 264.199 124.8C258.732 112.933 255.999 98.4 255.999 81.2C255.999 62.1333 258.865 45.3333 264.599 30.8C272.465 10.9333 284.199 1 299.799 1C307.532 1 314.599 3.6 320.999 8.80001C327.532 14 330.799 20.3333 330.799 27.8C330.799 32.2 328.999 36.6667 325.399 41.2C321.932 45.7333 318.065 48 313.799 48C310.465 48 307.265 46.6 304.199 43.8C301.265 41 299.799 37.9333 299.799 34.6C299.799 28.6 302.665 25.6 308.399 25.6C311.732 25.6 314.599 26.8 316.999 29.2V32.8C316.332 33.7333 315.265 34.2 313.799 34.2C312.199 34.2 310.599 33.1333 308.999 31L306.199 32.6V38.8C307.932 40.6667 310.132 41.6 312.799 41.6C319.865 41.6 323.399 37.1333 323.399 28.2C323.399 23.4 321.132 18.9333 316.599 14.8C312.199 10.5333 307.532 8.4 302.599 8.4C287.932 8.4 277.399 17.6667 270.999 36.2C266.732 48.6 264.599 63.9333 264.599 82.2C264.599 97.1333 266.665 109.533 270.799 119.4C276.532 133.133 285.865 140 298.799 140C307.865 140 314.799 135.533 319.599 126.6C323.599 119.4 325.599 110.867 325.599 101C325.599 91.9333 322.599 84.0667 316.599 77.4C310.599 70.6 303.065 67.2 293.999 67.2C288.532 67.2 283.665 69 279.399 72.6C275.265 76.2 273.199 80.6667 273.199 86C273.199 88.8 274.132 91.4 275.999 93.8C277.865 96.0667 280.132 97.2 282.799 97.2C285.199 97.2 287.665 95.2 290.199 91.2C290.065 90.2667 289.132 89.0667 287.399 87.6C286.999 87.8667 285.799 88.6667 283.799 90C281.799 91.2 280.465 91.8 279.799 91.8C278.999 91.8 278.599 90.9333 278.599 89.2C278.599 87.7333 279.532 86.0667 281.399 84.2C283.399 82.2 285.132 81.2 286.599 81.2C288.999 81.2 291.065 82.2667 292.799 84.4C294.665 86.5333 295.599 88.8667 295.599 91.4C295.599 94.6 294.332 97.4667 291.799 100C289.399 102.4 286.599 103.6 283.399 103.6C278.465 103.6 274.399 101.267 271.199 96.6C268.265 92.4667 266.799 87.8667 266.799 82.8C266.799 76.8 270.065 71.4 276.599 66.6C282.599 62.0667 288.732 59.8 294.999 59.8C305.799 59.8 315.132 64.4 322.999 73.6C330.465 82.2667 334.199 92.0667 334.199 103Z"/>
</mask>
<path d="M84.0032 103C84.0032 113.8 80.6699 123.867 74.0032 133.2C66.6699 143.467 57.8699 148.6 47.6032 148.6C32.5366 148.6 21.3366 140.667 14.0032 124.8C8.53656 112.933 5.80322 98.4 5.80322 81.2C5.80322 62.1333 8.66989 45.3333 14.4032 30.8C22.2699 10.9333 34.0032 1 49.6032 1C57.3366 1 64.4032 3.6 70.8032 8.80001C77.3366 14 80.6032 20.3333 80.6032 27.8C80.6032 32.2 78.8032 36.6667 75.2032 41.2C71.7366 45.7333 67.8699 48 63.6032 48C60.2699 48 57.0699 46.6 54.0032 43.8C51.0699 41 49.6032 37.9333 49.6032 34.6C49.6032 28.6 52.4699 25.6 58.2032 25.6C61.5366 25.6 64.4032 26.8 66.8032 29.2V32.8C66.1366 33.7333 65.0699 34.2 63.6032 34.2C62.0032 34.2 60.4032 33.1333 58.8032 31L56.0032 32.6V38.8C57.7366 40.6667 59.9366 41.6 62.6032 41.6C69.6699 41.6 73.2032 37.1333 73.2032 28.2C73.2032 23.4 70.9366 18.9333 66.4032 14.8C62.0032 10.5333 57.3366 8.4 52.4032 8.4C37.7366 8.4 27.2032 17.6667 20.8032 36.2C16.5366 48.6 14.4032 63.9333 14.4032 82.2C14.4032 97.1333 16.4699 109.533 20.6032 119.4C26.3366 133.133 35.6699 140 48.6032 140C57.6699 140 64.6032 135.533 69.4032 126.6C73.4032 119.4 75.4032 110.867 75.4032 101C75.4032 91.9333 72.4032 84.0667 66.4032 77.4C60.4032 70.6 52.8699 67.2 43.8032 67.2C38.3366 67.2 33.4699 69 29.2032 72.6C25.0699 76.2 23.0032 80.6667 23.0032 86C23.0032 88.8 23.9366 91.4 25.8032 93.8C27.6699 96.0667 29.9366 97.2 32.6032 97.2C35.0032 97.2 37.4699 95.2 40.0032 91.2C39.8699 90.2667 38.9366 89.0667 37.2032 87.6C36.8032 87.8667 35.6032 88.6667 33.6032 90C31.6032 91.2 30.2699 91.8 29.6032 91.8C28.8032 91.8 28.4032 90.9333 28.4032 89.2C28.4032 87.7333 29.3366 86.0667 31.2032 84.2C33.2032 82.2 34.9366 81.2 36.4032 81.2C38.8032 81.2 40.8699 82.2667 42.6032 84.4C44.4699 86.5333 45.4032 88.8667 45.4032 91.4C45.4032 94.6 44.1366 97.4667 41.6032 100C39.2032 102.4 36.4032 103.6 33.2032 103.6C28.2699 103.6 24.2032 101.267 21.0032 96.6C18.0699 92.4667 16.6032 87.8667 16.6032 82.8C16.6032 76.8 19.8699 71.4 26.4032 66.6C32.4032 62.0667 38.5366 59.8 44.8032 59.8C55.6032 59.8 64.9366 64.4 72.8032 73.6C80.2699 82.2667 84.0032 92.0667 84.0032 103Z" fill="white"/>
<path d="M167.402 103C167.402 113.8 164.068 123.867 157.402 133.2C150.068 143.467 141.268 148.6 131.002 148.6C115.935 148.6 104.735 140.667 97.4017 124.8C91.935 112.933 89.2017 98.4 89.2017 81.2C89.2017 62.1333 92.0683 45.3333 97.8017 30.8C105.668 10.9333 117.402 1 133.002 1C140.735 1 147.802 3.6 154.202 8.80001C160.735 14 164.002 20.3333 164.002 27.8C164.002 32.2 162.202 36.6667 158.602 41.2C155.135 45.7333 151.268 48 147.002 48C143.668 48 140.468 46.6 137.402 43.8C134.468 41 133.002 37.9333 133.002 34.6C133.002 28.6 135.868 25.6 141.602 25.6C144.935 25.6 147.802 26.8 150.202 29.2V32.8C149.535 33.7333 148.468 34.2 147.002 34.2C145.402 34.2 143.802 33.1333 142.202 31L139.402 32.6V38.8C141.135 40.6667 143.335 41.6 146.002 41.6C153.068 41.6 156.602 37.1333 156.602 28.2C156.602 23.4 154.335 18.9333 149.802 14.8C145.402 10.5333 140.735 8.4 135.802 8.4C121.135 8.4 110.602 17.6667 104.202 36.2C99.935 48.6 97.8017 63.9333 97.8017 82.2C97.8017 97.1333 99.8683 109.533 104.002 119.4C109.735 133.133 119.068 140 132.002 140C141.068 140 148.002 135.533 152.802 126.6C156.802 119.4 158.802 110.867 158.802 101C158.802 91.9333 155.802 84.0667 149.802 77.4C143.802 70.6 136.268 67.2 127.202 67.2C121.735 67.2 116.868 69 112.602 72.6C108.468 76.2 106.402 80.6667 106.402 86C106.402 88.8 107.335 91.4 109.202 93.8C111.068 96.0667 113.335 97.2 116.002 97.2C118.402 97.2 120.868 95.2 123.402 91.2C123.268 90.2667 122.335 89.0667 120.602 87.6C120.202 87.8667 119.002 88.6667 117.002 90C115.002 91.2 113.668 91.8 113.002 91.8C112.202 91.8 111.802 90.9333 111.802 89.2C111.802 87.7333 112.735 86.0667 114.602 84.2C116.602 82.2 118.335 81.2 119.802 81.2C122.202 81.2 124.268 82.2667 126.002 84.4C127.868 86.5333 128.802 88.8667 128.802 91.4C128.802 94.6 127.535 97.4667 125.002 100C122.602 102.4 119.802 103.6 116.602 103.6C111.668 103.6 107.602 101.267 104.402 96.6C101.468 92.4667 100.002 87.8667 100.002 82.8C100.002 76.8 103.268 71.4 109.802 66.6C115.802 62.0667 121.935 59.8 128.202 59.8C139.002 59.8 148.335 64.4 156.202 73.6C163.668 82.2667 167.402 92.0667 167.402 103Z" fill="white"/>
<path d="M250.8 103C250.8 113.8 247.467 123.867 240.8 133.2C233.467 143.467 224.667 148.6 214.4 148.6C199.333 148.6 188.133 140.667 180.8 124.8C175.333 112.933 172.6 98.4 172.6 81.2C172.6 62.1333 175.467 45.3333 181.2 30.8C189.067 10.9333 200.8 1 216.4 1C224.133 1 231.2 3.6 237.6 8.80001C244.133 14 247.4 20.3333 247.4 27.8C247.4 32.2 245.6 36.6667 242 41.2C238.533 45.7333 234.667 48 230.4 48C227.067 48 223.867 46.6 220.8 43.8C217.867 41 216.4 37.9333 216.4 34.6C216.4 28.6 219.267 25.6 225 25.6C228.333 25.6 231.2 26.8 233.6 29.2V32.8C232.933 33.7333 231.867 34.2 230.4 34.2C228.8 34.2 227.2 33.1333 225.6 31L222.8 32.6V38.8C224.533 40.6667 226.733 41.6 229.4 41.6C236.467 41.6 240 37.1333 240 28.2C240 23.4 237.733 18.9333 233.2 14.8C228.8 10.5333 224.133 8.4 219.2 8.4C204.533 8.4 194 17.6667 187.6 36.2C183.333 48.6 181.2 63.9333 181.2 82.2C181.2 97.1333 183.267 109.533 187.4 119.4C193.133 133.133 202.467 140 215.4 140C224.467 140 231.4 135.533 236.2 126.6C240.2 119.4 242.2 110.867 242.2 101C242.2 91.9333 239.2 84.0667 233.2 77.4C227.2 70.6 219.667 67.2 210.6 67.2C205.133 67.2 200.267 69 196 72.6C191.867 76.2 189.8 80.6667 189.8 86C189.8 88.8 190.733 91.4 192.6 93.8C194.467 96.0667 196.733 97.2 199.4 97.2C201.8 97.2 204.267 95.2 206.8 91.2C206.667 90.2667 205.733 89.0667 204 87.6C203.6 87.8667 202.4 88.6667 200.4 90C198.4 91.2 197.067 91.8 196.4 91.8C195.6 91.8 195.2 90.9333 195.2 89.2C195.2 87.7333 196.133 86.0667 198 84.2C200 82.2 201.733 81.2 203.2 81.2C205.6 81.2 207.667 82.2667 209.4 84.4C211.267 86.5333 212.2 88.8667 212.2 91.4C212.2 94.6 210.933 97.4667 208.4 100C206 102.4 203.2 103.6 200 103.6C195.067 103.6 191 101.267 187.8 96.6C184.867 92.4667 183.4 87.8667 183.4 82.8C183.4 76.8 186.667 71.4 193.2 66.6C199.2 62.0667 205.333 59.8 211.6 59.8C222.4 59.8 231.733 64.4 239.6 73.6C247.067 82.2667 250.8 92.0667 250.8 103Z" fill="white"/>
<path d="M334.199 103C334.199 113.8 330.865 123.867 324.199 133.2C316.865 143.467 308.065 148.6 297.799 148.6C282.732 148.6 271.532 140.667 264.199 124.8C258.732 112.933 255.999 98.4 255.999 81.2C255.999 62.1333 258.865 45.3333 264.599 30.8C272.465 10.9333 284.199 1 299.799 1C307.532 1 314.599 3.6 320.999 8.80001C327.532 14 330.799 20.3333 330.799 27.8C330.799 32.2 328.999 36.6667 325.399 41.2C321.932 45.7333 318.065 48 313.799 48C310.465 48 307.265 46.6 304.199 43.8C301.265 41 299.799 37.9333 299.799 34.6C299.799 28.6 302.665 25.6 308.399 25.6C311.732 25.6 314.599 26.8 316.999 29.2V32.8C316.332 33.7333 315.265 34.2 313.799 34.2C312.199 34.2 310.599 33.1333 308.999 31L306.199 32.6V38.8C307.932 40.6667 310.132 41.6 312.799 41.6C319.865 41.6 323.399 37.1333 323.399 28.2C323.399 23.4 321.132 18.9333 316.599 14.8C312.199 10.5333 307.532 8.4 302.599 8.4C287.932 8.4 277.399 17.6667 270.999 36.2C266.732 48.6 264.599 63.9333 264.599 82.2C264.599 97.1333 266.665 109.533 270.799 119.4C276.532 133.133 285.865 140 298.799 140C307.865 140 314.799 135.533 319.599 126.6C323.599 119.4 325.599 110.867 325.599 101C325.599 91.9333 322.599 84.0667 316.599 77.4C310.599 70.6 303.065 67.2 293.999 67.2C288.532 67.2 283.665 69 279.399 72.6C275.265 76.2 273.199 80.6667 273.199 86C273.199 88.8 274.132 91.4 275.999 93.8C277.865 96.0667 280.132 97.2 282.799 97.2C285.199 97.2 287.665 95.2 290.199 91.2C290.065 90.2667 289.132 89.0667 287.399 87.6C286.999 87.8667 285.799 88.6667 283.799 90C281.799 91.2 280.465 91.8 279.799 91.8C278.999 91.8 278.599 90.9333 278.599 89.2C278.599 87.7333 279.532 86.0667 281.399 84.2C283.399 82.2 285.132 81.2 286.599 81.2C288.999 81.2 291.065 82.2667 292.799 84.4C294.665 86.5333 295.599 88.8667 295.599 91.4C295.599 94.6 294.332 97.4667 291.799 100C289.399 102.4 286.599 103.6 283.399 103.6C278.465 103.6 274.399 101.267 271.199 96.6C268.265 92.4667 266.799 87.8667 266.799 82.8C266.799 76.8 270.065 71.4 276.599 66.6C282.599 62.0667 288.732 59.8 294.999 59.8C305.799 59.8 315.132 64.4 322.999 73.6C330.465 82.2667 334.199 92.0667 334.199 103Z" fill="white"/>
<path d="M84.0032 103C84.0032 113.8 80.6699 123.867 74.0032 133.2C66.6699 143.467 57.8699 148.6 47.6032 148.6C32.5366 148.6 21.3366 140.667 14.0032 124.8C8.53656 112.933 5.80322 98.4 5.80322 81.2C5.80322 62.1333 8.66989 45.3333 14.4032 30.8C22.2699 10.9333 34.0032 1 49.6032 1C57.3366 1 64.4032 3.6 70.8032 8.80001C77.3366 14 80.6032 20.3333 80.6032 27.8C80.6032 32.2 78.8032 36.6667 75.2032 41.2C71.7366 45.7333 67.8699 48 63.6032 48C60.2699 48 57.0699 46.6 54.0032 43.8C51.0699 41 49.6032 37.9333 49.6032 34.6C49.6032 28.6 52.4699 25.6 58.2032 25.6C61.5366 25.6 64.4032 26.8 66.8032 29.2V32.8C66.1366 33.7333 65.0699 34.2 63.6032 34.2C62.0032 34.2 60.4032 33.1333 58.8032 31L56.0032 32.6V38.8C57.7366 40.6667 59.9366 41.6 62.6032 41.6C69.6699 41.6 73.2032 37.1333 73.2032 28.2C73.2032 23.4 70.9366 18.9333 66.4032 14.8C62.0032 10.5333 57.3366 8.4 52.4032 8.4C37.7366 8.4 27.2032 17.6667 20.8032 36.2C16.5366 48.6 14.4032 63.9333 14.4032 82.2C14.4032 97.1333 16.4699 109.533 20.6032 119.4C26.3366 133.133 35.6699 140 48.6032 140C57.6699 140 64.6032 135.533 69.4032 126.6C73.4032 119.4 75.4032 110.867 75.4032 101C75.4032 91.9333 72.4032 84.0667 66.4032 77.4C60.4032 70.6 52.8699 67.2 43.8032 67.2C38.3366 67.2 33.4699 69 29.2032 72.6C25.0699 76.2 23.0032 80.6667 23.0032 86C23.0032 88.8 23.9366 91.4 25.8032 93.8C27.6699 96.0667 29.9366 97.2 32.6032 97.2C35.0032 97.2 37.4699 95.2 40.0032 91.2C39.8699 90.2667 38.9366 89.0667 37.2032 87.6C36.8032 87.8667 35.6032 88.6667 33.6032 90C31.6032 91.2 30.2699 91.8 29.6032 91.8C28.8032 91.8 28.4032 90.9333 28.4032 89.2C28.4032 87.7333 29.3366 86.0667 31.2032 84.2C33.2032 82.2 34.9366 81.2 36.4032 81.2C38.8032 81.2 40.8699 82.2667 42.6032 84.4C44.4699 86.5333 45.4032 88.8667 45.4032 91.4C45.4032 94.6 44.1366 97.4667 41.6032 100C39.2032 102.4 36.4032 103.6 33.2032 103.6C28.2699 103.6 24.2032 101.267 21.0032 96.6C18.0699 92.4667 16.6032 87.8667 16.6032 82.8C16.6032 76.8 19.8699 71.4 26.4032 66.6C32.4032 62.0667 38.5366 59.8 44.8032 59.8C55.6032 59.8 64.9366 64.4 72.8032 73.6C80.2699 82.2667 84.0032 92.0667 84.0032 103Z" stroke="black" stroke-width="2" mask="url(#path-1-outside-1)"/>
<path d="M167.402 103C167.402 113.8 164.068 123.867 157.402 133.2C150.068 143.467 141.268 148.6 131.002 148.6C115.935 148.6 104.735 140.667 97.4017 124.8C91.935 112.933 89.2017 98.4 89.2017 81.2C89.2017 62.1333 92.0683 45.3333 97.8017 30.8C105.668 10.9333 117.402 1 133.002 1C140.735 1 147.802 3.6 154.202 8.80001C160.735 14 164.002 20.3333 164.002 27.8C164.002 32.2 162.202 36.6667 158.602 41.2C155.135 45.7333 151.268 48 147.002 48C143.668 48 140.468 46.6 137.402 43.8C134.468 41 133.002 37.9333 133.002 34.6C133.002 28.6 135.868 25.6 141.602 25.6C144.935 25.6 147.802 26.8 150.202 29.2V32.8C149.535 33.7333 148.468 34.2 147.002 34.2C145.402 34.2 143.802 33.1333 142.202 31L139.402 32.6V38.8C141.135 40.6667 143.335 41.6 146.002 41.6C153.068 41.6 156.602 37.1333 156.602 28.2C156.602 23.4 154.335 18.9333 149.802 14.8C145.402 10.5333 140.735 8.4 135.802 8.4C121.135 8.4 110.602 17.6667 104.202 36.2C99.935 48.6 97.8017 63.9333 97.8017 82.2C97.8017 97.1333 99.8683 109.533 104.002 119.4C109.735 133.133 119.068 140 132.002 140C141.068 140 148.002 135.533 152.802 126.6C156.802 119.4 158.802 110.867 158.802 101C158.802 91.9333 155.802 84.0667 149.802 77.4C143.802 70.6 136.268 67.2 127.202 67.2C121.735 67.2 116.868 69 112.602 72.6C108.468 76.2 106.402 80.6667 106.402 86C106.402 88.8 107.335 91.4 109.202 93.8C111.068 96.0667 113.335 97.2 116.002 97.2C118.402 97.2 120.868 95.2 123.402 91.2C123.268 90.2667 122.335 89.0667 120.602 87.6C120.202 87.8667 119.002 88.6667 117.002 90C115.002 91.2 113.668 91.8 113.002 91.8C112.202 91.8 111.802 90.9333 111.802 89.2C111.802 87.7333 112.735 86.0667 114.602 84.2C116.602 82.2 118.335 81.2 119.802 81.2C122.202 81.2 124.268 82.2667 126.002 84.4C127.868 86.5333 128.802 88.8667 128.802 91.4C128.802 94.6 127.535 97.4667 125.002 100C122.602 102.4 119.802 103.6 116.602 103.6C111.668 103.6 107.602 101.267 104.402 96.6C101.468 92.4667 100.002 87.8667 100.002 82.8C100.002 76.8 103.268 71.4 109.802 66.6C115.802 62.0667 121.935 59.8 128.202 59.8C139.002 59.8 148.335 64.4 156.202 73.6C163.668 82.2667 167.402 92.0667 167.402 103Z" stroke="black" stroke-width="2" mask="url(#path-1-outside-1)"/>
<path d="M250.8 103C250.8 113.8 247.467 123.867 240.8 133.2C233.467 143.467 224.667 148.6 214.4 148.6C199.333 148.6 188.133 140.667 180.8 124.8C175.333 112.933 172.6 98.4 172.6 81.2C172.6 62.1333 175.467 45.3333 181.2 30.8C189.067 10.9333 200.8 1 216.4 1C224.133 1 231.2 3.6 237.6 8.80001C244.133 14 247.4 20.3333 247.4 27.8C247.4 32.2 245.6 36.6667 242 41.2C238.533 45.7333 234.667 48 230.4 48C227.067 48 223.867 46.6 220.8 43.8C217.867 41 216.4 37.9333 216.4 34.6C216.4 28.6 219.267 25.6 225 25.6C228.333 25.6 231.2 26.8 233.6 29.2V32.8C232.933 33.7333 231.867 34.2 230.4 34.2C228.8 34.2 227.2 33.1333 225.6 31L222.8 32.6V38.8C224.533 40.6667 226.733 41.6 229.4 41.6C236.467 41.6 240 37.1333 240 28.2C240 23.4 237.733 18.9333 233.2 14.8C228.8 10.5333 224.133 8.4 219.2 8.4C204.533 8.4 194 17.6667 187.6 36.2C183.333 48.6 181.2 63.9333 181.2 82.2C181.2 97.1333 183.267 109.533 187.4 119.4C193.133 133.133 202.467 140 215.4 140C224.467 140 231.4 135.533 236.2 126.6C240.2 119.4 242.2 110.867 242.2 101C242.2 91.9333 239.2 84.0667 233.2 77.4C227.2 70.6 219.667 67.2 210.6 67.2C205.133 67.2 200.267 69 196 72.6C191.867 76.2 189.8 80.6667 189.8 86C189.8 88.8 190.733 91.4 192.6 93.8C194.467 96.0667 196.733 97.2 199.4 97.2C201.8 97.2 204.267 95.2 206.8 91.2C206.667 90.2667 205.733 89.0667 204 87.6C203.6 87.8667 202.4 88.6667 200.4 90C198.4 91.2 197.067 91.8 196.4 91.8C195.6 91.8 195.2 90.9333 195.2 89.2C195.2 87.7333 196.133 86.0667 198 84.2C200 82.2 201.733 81.2 203.2 81.2C205.6 81.2 207.667 82.2667 209.4 84.4C211.267 86.5333 212.2 88.8667 212.2 91.4C212.2 94.6 210.933 97.4667 208.4 100C206 102.4 203.2 103.6 200 103.6C195.067 103.6 191 101.267 187.8 96.6C184.867 92.4667 183.4 87.8667 183.4 82.8C183.4 76.8 186.667 71.4 193.2 66.6C199.2 62.0667 205.333 59.8 211.6 59.8C222.4 59.8 231.733 64.4 239.6 73.6C247.067 82.2667 250.8 92.0667 250.8 103Z" stroke="black" stroke-width="2" mask="url(#path-1-outside-1)"/>
<path d="M334.199 103C334.199 113.8 330.865 123.867 324.199 133.2C316.865 143.467 308.065 148.6 297.799 148.6C282.732 148.6 271.532 140.667 264.199 124.8C258.732 112.933 255.999 98.4 255.999 81.2C255.999 62.1333 258.865 45.3333 264.599 30.8C272.465 10.9333 284.199 1 299.799 1C307.532 1 314.599 3.6 320.999 8.80001C327.532 14 330.799 20.3333 330.799 27.8C330.799 32.2 328.999 36.6667 325.399 41.2C321.932 45.7333 318.065 48 313.799 48C310.465 48 307.265 46.6 304.199 43.8C301.265 41 299.799 37.9333 299.799 34.6C299.799 28.6 302.665 25.6 308.399 25.6C311.732 25.6 314.599 26.8 316.999 29.2V32.8C316.332 33.7333 315.265 34.2 313.799 34.2C312.199 34.2 310.599 33.1333 308.999 31L306.199 32.6V38.8C307.932 40.6667 310.132 41.6 312.799 41.6C319.865 41.6 323.399 37.1333 323.399 28.2C323.399 23.4 321.132 18.9333 316.599 14.8C312.199 10.5333 307.532 8.4 302.599 8.4C287.932 8.4 277.399 17.6667 270.999 36.2C266.732 48.6 264.599 63.9333 264.599 82.2C264.599 97.1333 266.665 109.533 270.799 119.4C276.532 133.133 285.865 140 298.799 140C307.865 140 314.799 135.533 319.599 126.6C323.599 119.4 325.599 110.867 325.599 101C325.599 91.9333 322.599 84.0667 316.599 77.4C310.599 70.6 303.065 67.2 293.999 67.2C288.532 67.2 283.665 69 279.399 72.6C275.265 76.2 273.199 80.6667 273.199 86C273.199 88.8 274.132 91.4 275.999 93.8C277.865 96.0667 280.132 97.2 282.799 97.2C285.199 97.2 287.665 95.2 290.199 91.2C290.065 90.2667 289.132 89.0667 287.399 87.6C286.999 87.8667 285.799 88.6667 283.799 90C281.799 91.2 280.465 91.8 279.799 91.8C278.999 91.8 278.599 90.9333 278.599 89.2C278.599 87.7333 279.532 86.0667 281.399 84.2C283.399 82.2 285.132 81.2 286.599 81.2C288.999 81.2 291.065 82.2667 292.799 84.4C294.665 86.5333 295.599 88.8667 295.599 91.4C295.599 94.6 294.332 97.4667 291.799 100C289.399 102.4 286.599 103.6 283.399 103.6C278.465 103.6 274.399 101.267 271.199 96.6C268.265 92.4667 266.799 87.8667 266.799 82.8C266.799 76.8 270.065 71.4 276.599 66.6C282.599 62.0667 288.732 59.8 294.999 59.8C305.799 59.8 315.132 64.4 322.999 73.6C330.465 82.2667 334.199 92.0667 334.199 103Z" stroke="black" stroke-width="2" mask="url(#path-1-outside-1)"/>
</g>
<defs>
<filter id="filter0_d" x="0.803223" y="0" width="338.395" height="157.6" filterUnits="userSpaceOnUse" color-interpolation-filters="sRGB">
<feFlood flood-opacity="0" result="BackgroundImageFix"/>
<feColorMatrix in="SourceAlpha" type="matrix" values="0 0 0 0 0 0 0 0 0 0 0 0 0 0 0 0 0 0 127 0" result="hardAlpha"/>
<feOffset dy="4"/>
<feGaussianBlur stdDeviation="2"/>
<feComposite in2="hardAlpha" operator="out"/>
<feColorMatrix type="matrix" values="0 0 0 0 0 0 0 0 0 0 0 0 0 0 0 0 0 0 0.25 0"/>
<feBlend mode="normal" in2="BackgroundImageFix" result="effect1_dropShadow"/>
<feBlend mode="normal" in="SourceGraphic" in2="effect1_dropShadow" result="shape"/>
</filter>
</defs>
</svg>
