<svg width="245" height="151" viewBox="0 0 245 151" fill="none" xmlns="http://www.w3.org/2000/svg">
<g filter="url(#filter0_d_132:390)">
<path fill-rule="evenodd" clip-rule="evenodd" d="M62.3296 64.5341C63.631 63.138 64.745 61.9289 65.3303 61.2868C68.8829 57.371 78.8891 48.7162 83.7862 40.3383C87.5246 33.9478 88.3089 27.6991 82.8919 23.2443C77.9683 19.1953 70.7068 19.8807 62.7845 23.5923C45.7341 31.5805 25.3154 53.2488 20.8407 61.3884C20.3526 62.2772 20.6759 63.3911 21.5661 63.8797C22.4522 64.3663 23.5667 64.0447 24.0548 63.1558C28.3508 55.3459 47.9774 34.5796 64.3459 26.9103C70.7442 23.9136 76.5864 22.8038 80.5631 26.0754C84.4893 29.3024 83.3285 33.8526 80.6183 38.4852C75.854 46.6397 66.0708 55.0119 62.6096 58.8227C60.4411 61.2129 51.9128 70.0948 51.3656 71.0322C50.6795 72.2055 51.3561 73.0325 51.5985 73.2872C51.7861 73.4849 52.7851 74.4103 54.1456 73.4477C73.5523 59.734 112.849 52.1212 147.829 58.3542C182.502 64.5321 213.002 84.4193 215.163 126.031C215.217 127.042 216.081 127.82 217.091 127.771C218.102 127.718 218.881 126.856 218.826 125.845C216.561 82.2451 184.796 61.2174 148.472 54.7449C117.858 49.289 84.0553 54.2506 62.3296 64.5341Z" fill="#FFDD00"/>
<path fill-rule="evenodd" clip-rule="evenodd" d="M216.589 123.792C213.686 120.584 210.897 117.298 207.743 114.314C199.341 106.36 188.927 99.8725 177.741 96.7621C176.761 96.4921 175.752 97.0644 175.481 98.0367C175.211 99.0152 175.785 100.024 176.759 100.296C187.378 103.242 197.249 109.428 205.219 116.974C208.827 120.392 211.954 124.215 215.331 127.85C215.501 128.029 216.92 129.653 217.314 129.914C218.227 130.526 218.996 130.198 219.332 130C219.615 129.838 219.915 129.577 220.139 129.141C220.322 128.783 220.507 128.021 220.539 126.949C220.65 123.515 219.76 115.469 219.754 114.132C219.681 98.8168 222.186 84.5587 224.448 69.4813C224.595 68.48 223.904 67.5435 222.904 67.3917C221.903 67.2399 220.971 67.9311 220.82 68.9304C218.528 84.1986 216.011 98.6408 216.088 114.143C216.089 115.061 216.376 120.147 216.589 123.792Z" fill="#FFDD00"/>
</g>
<defs>
<filter id="filter0_d_132:390" x="0.613281" y="0.495361" width="243.855" height="149.772" filterUnits="userSpaceOnUse" color-interpolation-filters="sRGB">
<feFlood flood-opacity="0" result="BackgroundImageFix"/>
<feColorMatrix in="SourceAlpha" type="matrix" values="0 0 0 0 0 0 0 0 0 0 0 0 0 0 0 0 0 0 127 0" result="hardAlpha"/>
<feOffset/>
<feGaussianBlur stdDeviation="10"/>
<feComposite in2="hardAlpha" operator="out"/>
<feColorMatrix type="matrix" values="0 0 0 0 1 0 0 0 0 0.866667 0 0 0 0 0 0 0 0 1 0"/>
<feBlend mode="normal" in2="BackgroundImageFix" result="effect1_dropShadow_132:390"/>
<feBlend mode="normal" in="SourceGraphic" in2="effect1_dropShadow_132:390" result="shape"/>
</filter>
</defs>
</svg>
