<svg width="201" height="121" viewBox="0 0 201 121" fill="none" xmlns="http://www.w3.org/2000/svg">
<path d="M94.1809 49.8297C94.1809 49.8297 106.754 58.6074 123.598 56.7095C140.441 54.8116 122.649 37.4936 122.649 37.4936C122.649 37.4936 142.102 50.0669 148.982 66.9105C155.862 83.7541 140.204 83.0424 140.204 83.0424C140.204 83.0424 155.15 87.0754 156.573 69.2829C158.234 51.7276 114.583 4.04361 114.583 4.04361C114.583 4.04361 143.288 26.818 174.129 34.6467C204.969 42.4755 200.462 84.2286 200.462 84.2286C200.462 84.2286 197.378 55.0489 184.567 55.0489C171.756 55.0489 195.242 75.451 178.636 105.105C178.636 105.105 184.092 78.7722 171.756 80.6701C159.183 82.8052 177.45 109.138 136.171 117.441C136.171 117.441 148.745 109.85 141.39 103.919C134.273 98.2254 60.2565 120.288 60.2565 120.288C60.2565 120.288 68.7969 113.408 65.9501 111.748C63.1033 110.087 55.0373 120.288 55.0373 120.288C55.0373 120.288 78.2862 79.7212 38.431 89.4477C38.431 89.4477 80.1841 56.235 7.59057 50.0669C7.59057 50.0669 66.899 29.4276 0.236328 0.0106083C0.236328 0.0106083 52.4277 -1.41278 78.049 28.7159C78.049 28.7159 31.5512 53.151 115.769 76.1626C115.769 76.8743 104.856 74.2647 94.1809 49.8297Z" fill="url(#paint0_linear_132:601)"/>
<path opacity="0.65" d="M0 0.722686C66.6627 30.1397 7.35424 50.779 7.35424 50.779C79.9477 56.9471 38.1946 90.1597 38.1946 90.1597C78.0499 80.4332 54.801 121 54.801 121C54.801 121 62.8669 110.799 65.7137 112.46C68.5605 114.12 60.0201 121 60.0201 121C60.0201 121 134.037 98.7002 141.154 104.631C148.271 110.325 135.935 118.153 135.935 118.153C177.451 109.85 159.184 83.28 171.52 81.3821C184.093 79.247 178.4 105.817 178.4 105.817C194.769 76.163 171.52 55.7609 184.331 55.7609C197.141 55.7609 200.225 84.9407 200.225 84.9407C200.225 84.9407 204.733 43.1875 173.892 35.3588C160.844 32.0375 148.271 26.1067 138.07 20.4131C142.815 23.2599 152.067 28.9535 163.454 37.2567C180.298 49.5928 180.298 80.196 174.604 79.2471C168.91 78.2981 167.487 69.046 167.487 69.046C167.487 69.046 163.691 99.8864 150.406 100.598C137.121 101.073 136.884 85.1779 136.884 85.1779C135.223 95.3789 97.9775 112.934 87.302 105.343C76.6265 97.7513 110.076 84.2289 110.076 84.2289C110.076 84.2289 70.4584 99.1747 60.0201 88.7364C49.5818 78.2981 85.1669 76.8747 85.1669 76.8747C85.1669 76.8747 35.5851 65.9619 32.7382 43.8992C30.3659 25.3949 56.4616 19.9386 64.7648 18.7525C38.1946 -0.226235 0 0.722686 0 0.722686Z" fill="#634277"/>
<path opacity="0.65" d="M114.11 82.8052C125.023 79.7211 134.038 82.5679 140.206 83.0424C140.206 83.0424 145.662 83.2796 148.746 80.1956C143.053 85.4147 125.972 78.7722 125.972 78.7722C135.936 80.9073 140.68 78.5349 140.68 78.5349C140.68 78.5349 139.731 74.7392 145.662 76.1626C151.356 77.586 148.509 65.4871 148.509 65.2498C146.137 60.0307 142.341 55.0488 138.545 51.0158C138.308 51.4903 138.071 52.4392 137.834 53.8626C137.122 65.4871 136.41 66.1988 136.41 66.1988C137.834 65.9616 137.834 65.4871 137.834 65.4871C137.834 70.2318 130.954 70.2318 130.954 70.2318C133.563 70.2318 134.512 67.1477 134.512 67.1477C134.512 67.1477 133.089 70.7062 119.329 68.8083C105.57 66.9105 94.1826 50.0669 94.1826 50.0669C104.621 73.553 115.059 76.8743 115.771 77.1115C105.807 74.2647 97.5039 71.6551 90.8613 68.8083C115.059 78.7722 114.11 82.8052 114.11 82.8052Z" fill="#634277"/>
<g filter="url(#filter0_d_132:601)">
<path d="M116.482 68.5713C116.482 68.5713 138.782 72.6042 140.68 78.5351C140.68 78.5351 132.852 81.1447 116.482 68.5713Z" fill="#FFDD00"/>
</g>
<g filter="url(#filter1_d_132:601)">
<path d="M138.781 64.7753C138.781 62.6402 138.781 60.0307 139.256 56.4722C139.256 56.4722 149.457 66.436 148.271 73.3158C147.559 77.586 144.949 76.637 142.814 74.5019C140.205 71.8924 139.018 68.3339 138.781 64.7753Z" fill="#FFDD00"/>
</g>
<path opacity="0.3" d="M72.1195 30.614C72.1195 30.614 55.5132 36.3076 56.6993 48.6437C58.1227 60.9799 90.6237 68.5714 90.6237 68.5714C41.5164 48.1693 77.5759 29.4278 77.5759 29.4278C73.7802 24.9204 69.5099 21.3619 64.7653 18.2778C74.7291 26.581 72.1195 30.614 72.1195 30.614Z" fill="url(#paint1_linear_132:601)"/>
<path opacity="0.3" d="M122.65 62.6401C137.358 61.6912 130.241 48.1688 130.004 47.6943C131.665 51.9645 131.19 55.9976 123.599 56.7093C106.755 58.6071 94.1816 49.8294 94.1816 49.8294C94.1816 49.8294 107.704 63.589 122.65 62.6401Z" fill="url(#paint2_linear_132:601)"/>
<path opacity="0.3" d="M178.637 68.5713C178.4 58.8447 174.367 44.3734 164.166 36.7819C153.016 28.4787 143.764 22.7852 138.782 19.9384C133.326 16.8543 128.581 14.0075 124.785 11.3979C139.731 22.7852 167.962 45.7969 178.637 68.5713Z" fill="url(#paint3_linear_132:601)"/>
<defs>
<filter id="filter0_d_132:601" x="112.482" y="64.5713" width="32.1973" height="18.1885" filterUnits="userSpaceOnUse" color-interpolation-filters="sRGB">
<feFlood flood-opacity="0" result="BackgroundImageFix"/>
<feColorMatrix in="SourceAlpha" type="matrix" values="0 0 0 0 0 0 0 0 0 0 0 0 0 0 0 0 0 0 127 0" result="hardAlpha"/>
<feOffset/>
<feGaussianBlur stdDeviation="2"/>
<feComposite in2="hardAlpha" operator="out"/>
<feColorMatrix type="matrix" values="0 0 0 0 1 0 0 0 0 0.866667 0 0 0 0 0 0 0 0 1 0"/>
<feBlend mode="normal" in2="BackgroundImageFix" result="effect1_dropShadow_132:601"/>
<feBlend mode="normal" in="SourceGraphic" in2="effect1_dropShadow_132:601" result="shape"/>
</filter>
<filter id="filter1_d_132:601" x="134.781" y="52.4722" width="17.5859" height="27.8394" filterUnits="userSpaceOnUse" color-interpolation-filters="sRGB">
<feFlood flood-opacity="0" result="BackgroundImageFix"/>
<feColorMatrix in="SourceAlpha" type="matrix" values="0 0 0 0 0 0 0 0 0 0 0 0 0 0 0 0 0 0 127 0" result="hardAlpha"/>
<feOffset/>
<feGaussianBlur stdDeviation="2"/>
<feComposite in2="hardAlpha" operator="out"/>
<feColorMatrix type="matrix" values="0 0 0 0 1 0 0 0 0 0.866667 0 0 0 0 0 0 0 0 1 0"/>
<feBlend mode="normal" in2="BackgroundImageFix" result="effect1_dropShadow_132:601"/>
<feBlend mode="normal" in="SourceGraphic" in2="effect1_dropShadow_132:601" result="shape"/>
</filter>
<linearGradient id="paint0_linear_132:601" x1="144.407" y1="-1.38717" x2="38.5336" y2="104.486" gradientUnits="userSpaceOnUse">
<stop stop-color="#243D5B"/>
<stop offset="0.4854" stop-color="#182C45"/>
<stop offset="0.8284" stop-color="#13243B"/>
</linearGradient>
<linearGradient id="paint1_linear_132:601" x1="83.4526" y1="38.0966" x2="56.2635" y2="65.2857" gradientUnits="userSpaceOnUse">
<stop stop-color="#6A72BB"/>
<stop offset="0.1074" stop-color="#666DB4"/>
<stop offset="0.269" stop-color="#5A619F"/>
<stop offset="0.4648" stop-color="#474C7D"/>
<stop offset="0.6872" stop-color="#2C304E"/>
<stop offset="0.9292" stop-color="#0B0B13"/>
<stop offset="1"/>
</linearGradient>
<linearGradient id="paint2_linear_132:601" x1="124.008" y1="43.1122" x2="94.8916" y2="72.2288" gradientUnits="userSpaceOnUse">
<stop stop-color="#6A72BB"/>
<stop offset="0.1074" stop-color="#666DB4"/>
<stop offset="0.269" stop-color="#5A619F"/>
<stop offset="0.4648" stop-color="#474C7D"/>
<stop offset="0.6872" stop-color="#2C304E"/>
<stop offset="0.9292" stop-color="#0B0B13"/>
<stop offset="1"/>
</linearGradient>
<linearGradient id="paint3_linear_132:601" x1="168.721" y1="22.9254" x2="138.931" y2="52.715" gradientUnits="userSpaceOnUse">
<stop stop-color="#6A72BB"/>
<stop offset="0.1074" stop-color="#666DB4"/>
<stop offset="0.269" stop-color="#5A619F"/>
<stop offset="0.4648" stop-color="#474C7D"/>
<stop offset="0.6872" stop-color="#2C304E"/>
<stop offset="0.9292" stop-color="#0B0B13"/>
<stop offset="1"/>
</linearGradient>
</defs>
</svg>
