<svg width="209" height="263" viewBox="0 0 209 263" fill="none" xmlns="http://www.w3.org/2000/svg">
<path d="M0.00025826 42.8504C5.27441 43.5601 10.5081 45.6618 15.0259 48.4396C23.0909 53.8279 29.0944 63.0581 27.6751 73.6064C27.4675 75.969 26.8382 78.459 25.6601 80.6543C26.0818 80.5271 26.2089 80.9487 26.6306 80.8215C28.9933 81.0291 31.0616 81.7856 33.6785 82.8365C41.5294 85.9893 48.5835 92.6023 51.5482 100.909C53.6228 106.263 53.2948 112.802 51.7418 118.331C57.0561 117.648 62.3302 118.358 66.5534 121.685C73.0991 126.611 77.1213 136.899 76.0367 145.506C84.6842 145.198 94.4359 150.078 98.833 157.032C102.046 161.584 101.757 166.73 101.048 172.005C106.657 170.773 113.323 171.523 118.135 173.752C126.113 177.327 132.03 184.743 134.573 193.176C135.208 195.285 135.55 197.942 135.764 200.177C135.891 200.599 135.891 200.599 136.018 201.021C138.127 200.385 140.784 200.044 143.019 199.83C153.353 199.014 161.927 206.089 166.833 214.73C169.624 219.408 171.277 224.89 171.537 230.331C172.039 227.42 173.09 224.803 173.72 222.313C178.546 204.757 183.499 187.623 185.836 169.438C186.673 164.585 187.383 159.311 188.641 154.332C188.474 155.302 177.042 155.529 176.071 155.362C153.924 155.14 132.018 146.565 114.449 132.543C116.47 130.093 117.943 127.349 118.867 124.31C119.583 123.634 120.172 122.536 120.594 122.409C121.604 121.185 122.615 119.96 123.204 118.862C124.088 117.216 124.549 115.696 125.011 114.177C123.579 115.529 121.598 116.587 119.489 117.222C119.148 114.565 117.836 111.74 116.357 109.886C114.878 108.032 112.134 106.56 109.223 106.058C109.979 103.99 110.863 102.343 112.717 100.864C111.03 101.373 109.343 101.881 107.657 102.39C106.392 102.771 104.832 103.701 103.694 104.505C103.273 104.632 102.135 105.435 101.418 106.111C98.3395 106.58 95.515 107.891 92.8176 109.625C80.3893 91.2916 73.5229 68.5212 75.1369 46.4139C75.3042 45.4434 76.0476 34.1791 77.3126 33.7976C72.4199 34.353 67.1058 35.0356 62.0859 35.1693C44.0747 36.4603 26.1503 39.565 8.35318 43.0916C5.60906 41.619 3.07911 42.382 0.00025826 42.8504ZM113.291 119.551C114.095 120.689 112.662 122.041 111.437 121.031C110.634 119.893 112.488 118.413 113.291 119.551ZM106.277 111.546C107.081 112.684 105.648 114.036 104.423 113.025C103.62 111.887 105.053 110.535 106.277 111.546Z" fill="#11222B"/>
</svg>
