<svg width="312" height="121" viewBox="0 0 312 121" fill="none" xmlns="http://www.w3.org/2000/svg">
<path d="M0.000135764 113.678C3.23396 110.943 8.02836 108.997 12.2211 107.782C22.2236 103.985 32.8654 101.202 43.4885 102.32C52.8706 103.155 61.914 107.386 68.6453 114.127C77.5572 107.477 89.0264 104.882 100.157 105.682C111.194 106.895 121.704 112.327 129.075 120.082C128.661 119.988 136.464 114.388 136.971 114.069C140.017 112.159 143.796 110.85 147.068 109.86C154.024 107.973 161.658 108.844 168.502 111.271C169.649 111.966 171.209 112.756 172.356 113.451C172.77 113.545 173.503 114.146 174.237 114.747C174.425 113.922 174.613 113.097 174.707 112.684C174.989 111.447 175.778 109.891 176.474 108.747C180.046 102.617 186.006 97.465 192.323 94.5643C195.689 93.1611 199.374 92.2647 202.965 91.7808C203.886 91.5567 213.043 91.4727 212.949 91.8853C213.738 80.7813 219.172 70.3014 227.03 62.544C235.303 54.8808 246.001 49.9401 257.319 49.9148C258.56 40.6495 263.204 31.7257 269.954 25.0176C277.719 17.6727 288.229 13.5572 298.137 10.1727C302.33 8.95792 307.03 7.42476 311.355 7.54198C293.023 2.06357 273.525 -0.208473 254.836 1.60968C243.649 2.96696 233.101 5.33786 223.005 9.54757C218.681 18.9783 213.21 27.7138 207.645 36.8618C204.167 42.5793 200.782 47.8841 195.744 52.8121C193.337 55.7358 190.517 58.5653 187.377 60.888C187.377 60.888 187.377 60.8879 186.87 61.2062C182.62 64.5781 178.052 67.4433 173.577 69.8958C173.257 69.389 173.032 68.4696 172.712 67.9627C171.753 66.4423 170.286 65.2401 168.82 64.038C169.102 62.8003 169.064 61.0558 168.745 60.549C168.387 58.2977 166.789 55.7635 164.401 54.7855C164.852 56.6243 164.796 58.7814 163.499 60.6558C163.405 61.0684 163.405 61.0684 162.897 61.3868C160.415 60.8214 157.84 60.6686 155.489 61.4351C153.139 62.2017 151.015 63.8876 149.718 65.762C149.304 65.6678 149.304 65.6677 148.89 65.5735C146.916 64.6897 145.543 63.0751 144.678 61.1421C143.287 63.4291 143.551 66.0931 144.735 68.5329C145.055 69.0398 146.014 70.5602 147.16 71.2555C146.691 73.3184 146.22 75.3812 146.352 76.7131C146.578 77.6325 146.484 78.0452 146.71 78.9646C141.276 79.8966 135.522 80.3219 129.863 80.3345C125.952 80.3116 122.136 79.876 118.413 79.0279C111.607 78.3452 105.59 76.1064 99.1594 73.7734C89.514 70.274 79.549 66.2679 70.5992 61.6249C59.9575 64.4084 49.8608 68.6181 40.2157 74.6666C24.7986 85.0421 11.2995 98.4584 0.000135764 113.678ZM163.555 68.0467C165.398 67.5985 166.075 70.3567 164.233 70.8049C162.39 71.2531 161.619 68.9075 163.555 68.0467ZM155.997 70.6647C157.84 70.2165 158.517 72.9747 156.674 73.423C154.832 73.8712 154.061 71.5255 155.997 70.6647Z" fill="#11222B"/>
</svg>
