<svg width="413" height="466" viewBox="0 0 413 466" fill="none" xmlns="http://www.w3.org/2000/svg">
<path opacity="0.36" d="M344.065 461.86C345.71 461.312 350.096 460.215 350.096 460.215C350.096 460.215 346.258 460.763 343.517 461.037C343.243 461.312 342.969 461.312 342.695 461.586L344.065 461.86ZM183.435 421.543C185.08 422.092 186.45 422.641 187.273 423.189C186.45 422.641 185.08 422.092 183.435 421.543ZM265.669 422.641C265.669 422.641 236.887 419.349 199.608 422.366C200.704 422.366 201.801 422.092 202.897 422.092C232.776 423.189 245.933 422.641 245.933 422.641C247.578 422.641 249.222 422.915 250.867 422.915C253.06 422.092 259.09 422.366 265.669 422.641Z" fill="#838BC5"/>
<path d="M375.04 405.088C375.04 405.088 373.944 419.898 345.436 418.801C316.654 417.704 347.081 392.472 349.273 393.02C351.466 393.569 375.04 405.088 375.04 405.088Z" fill="#0B1723"/>
<path d="M370.654 397.408C370.654 397.408 377.507 444.307 370.654 453.358C363.801 462.409 365.72 437.177 365.72 437.177C365.72 437.177 359.142 452.261 347.903 453.358C336.664 454.729 350.096 442.388 350.096 442.388C350.096 442.388 343.791 447.324 341.872 445.953C339.68 444.582 349.822 419.075 349.273 417.704C348.725 416.333 349.273 396.037 349.273 396.037L370.654 397.408Z" fill="#A1B9CE"/>
<path d="M323.781 274.264C323.781 274.264 370.928 321.711 375.04 405.087C375.04 405.087 358.593 387.535 332.278 416.881C305.964 446.501 323.781 274.264 323.781 274.264Z" fill="#0D1B28"/>
<path d="M71.5974 33.7344C54.6025 89.4099 59.8106 133.018 74.6127 166.478C69.1304 160.993 62.0035 156.056 57.6177 160.17C49.3943 168.124 94.3488 228.187 104.491 211.732C137.933 247.934 177.953 262.196 177.953 262.196L145.06 311.289L124.501 329.665L114.359 323.083C-28.7278 180.74 71.5974 33.7344 71.5974 33.7344Z" fill="url(#paint0_linear)"/>
<path opacity="0.3" d="M71.5975 33.7344C54.6025 89.4099 59.8106 133.018 74.6127 166.478C69.1304 160.993 62.0035 156.056 57.6177 160.17C49.3943 168.124 94.3488 228.187 104.491 211.732C137.933 247.934 177.953 262.196 177.953 262.196L159.862 289.348C156.846 287.977 153.557 286.331 150.268 284.411C-16.3927 195.276 71.5975 33.7344 71.5975 33.7344Z" fill="url(#paint1_linear)"/>
<path d="M329.537 0C329.537 0 331.73 4.66248 335.294 5.21101C338.857 5.75954 339.68 14.2617 339.68 14.2617C339.68 14.2617 321.588 34.283 326.796 44.4307C332.004 54.5785 376.959 62.5322 374.218 67.1946C371.477 71.8571 368.461 126.436 401.355 162.364C401.355 162.364 372.847 219.96 371.203 247.386C371.203 247.386 333.101 242.175 321.314 261.922C321.314 261.922 335.02 252.597 321.314 273.441C321.314 273.441 327.893 264.939 325.974 281.12C325.974 281.12 368.736 375.467 342.421 448.97L364.898 464.877C364.898 464.877 168.085 465.7 148.075 464.877C128.065 464.054 117.1 456.923 0.0541077 458.569C0.0541077 458.569 153.009 454.455 33.4958 447.599C33.4958 447.599 122.034 443.759 56.5213 442.113L183.984 437.999C183.984 437.999 174.39 420.172 202.349 430.046C202.349 430.046 191.111 394.391 204.268 416.332C204.268 416.332 192.755 383.421 216.877 370.805C240.725 358.189 263.476 305.53 257.172 281.943C251.141 258.357 265.395 261.922 265.395 261.922C265.395 261.922 231.131 242.723 188.644 266.31C188.644 266.31 177.131 239.432 166.715 234.221C156.024 229.01 123.131 214.749 127.791 183.208C132.451 151.668 136.288 142.069 132.999 119.305C129.709 96.5409 151.09 49.6418 205.364 39.2197C259.639 28.7977 242.096 19.747 267.588 14.536C292.806 9.32497 320.766 12.3419 329.537 0Z" fill="url(#paint2_linear)"/>
<path opacity="0.28" d="M148.074 464.603C128.064 463.78 117.1 456.649 0.0535278 458.295C0.0535278 458.295 153.008 454.181 33.4953 447.324C33.4953 447.324 122.034 443.484 56.5208 441.839L183.983 437.725C183.983 437.725 174.389 419.898 202.349 429.771C202.349 429.771 191.11 394.117 204.267 416.058C204.267 416.058 192.755 383.146 216.877 370.53C240.724 357.914 263.476 305.256 257.171 281.669C251.141 258.082 265.395 261.648 265.395 261.648C265.395 261.648 231.13 242.449 188.643 266.036C188.643 266.036 177.13 239.158 166.714 233.947C156.298 228.736 123.13 214.474 127.79 182.934C132.45 151.394 136.288 141.794 132.998 119.03C129.709 96.5408 151.09 49.3674 205.364 38.9454C259.638 28.5234 242.095 19.4727 267.587 14.2617C290.339 9.59918 315.009 11.519 326.248 3.01685C317.75 11.2448 292.806 33.4601 262.379 43.6079C224.552 56.224 173.019 89.1357 190.288 160.17C207.557 231.204 296.095 227.365 299.11 264.116C299.11 264.116 299.659 284.686 304.867 267.407L304.593 252.871L306.511 52.6586L327.07 17.5528C327.07 17.5528 334.745 14.2617 324.877 34.2829C314.735 54.3042 364.897 70.2115 364.897 70.2115C364.897 70.2115 358.867 106.689 377.781 139.6C377.781 139.6 372.847 151.668 389.293 172.238L369.283 239.706C369.283 239.706 315.009 240.255 313.09 262.47C311.171 284.686 321.588 261.922 321.588 261.922C321.588 261.922 317.476 293.736 288.146 272.344C288.146 272.344 305.963 303.061 321.588 273.441C321.588 273.441 312.542 319.517 283.212 278.652C253.608 238.061 296.918 309.37 275.537 352.703C254.156 396.037 214.135 465.974 336.938 448.421C336.938 448.421 308.43 460.215 255.801 453.358C255.801 453.358 304.867 471.734 342.694 448.695L365.172 464.603C365.172 464.603 168.085 465.426 148.074 464.603Z" fill="#634277"/>
<path d="M329.475 15.0612C320.978 13.6898 309.465 35.6309 250.805 55.6522C192.145 75.6735 183.099 151.919 211.881 187.299C240.663 222.679 300.693 222.679 307.272 264.915C307.272 264.915 307.82 244.071 338.521 238.586C369.496 233.101 373.881 228.713 381.008 200.738C388.135 173.037 391.15 178.248 381.008 160.421C370.866 142.868 375.252 137.657 375.252 137.657C375.252 137.657 354.968 91.855 359.353 77.5933C364.013 63.3316 328.927 56.7493 323.171 47.15C317.688 37.5508 337.424 16.4325 329.475 15.0612Z" fill="#04090F"/>
<g filter="url(#filter0_d)">
<path d="M293.861 149.088C299.338 143.165 274.816 123.011 268.837 131.221C263.236 139.351 285.986 157.701 293.861 149.088Z" fill="#FFDD00"/>
</g>
<g filter="url(#filter1_d)">
<path d="M322.717 148.065C321.431 142.9 339.395 131.274 342.944 138.276C346.218 145.289 324.317 154.315 322.717 148.065Z" fill="#FFDD00"/>
</g>
<path d="M275.811 284.686C275.811 284.686 275.263 263.842 265.395 261.648C255.527 259.454 247.304 256.711 250.593 277.555C253.882 298.399 259.913 344.75 257.446 366.691C255.253 388.632 280.197 354.349 280.197 354.349C280.197 354.349 282.938 294.285 275.811 284.686Z" fill="url(#paint3_linear)"/>
<path d="M278.004 310.192C278.004 310.192 322.136 323.906 313.913 354.075L282.664 363.4C282.664 363.4 274.441 321.163 278.004 310.192Z" fill="#0B1723"/>
<path d="M409.852 393.294C409.852 393.294 328.166 309.37 310.897 303.61C310.897 303.61 309.252 308.273 303.77 308.821C303.77 308.821 298.836 319.243 303.77 326.648C303.77 326.648 350.369 368.062 387.923 429.497L409.852 393.294Z" fill="#83330D"/>
<path d="M114.358 322.808C114.358 322.808 127.79 331.311 136.013 302.513C144.237 273.441 182.064 254.791 182.064 254.791C182.613 254.791 182.887 255.065 183.435 255.065C186.724 261.099 188.643 265.762 188.643 265.762C193.577 263.019 198.237 261.099 202.623 259.453C232.501 265.213 245.658 262.47 245.658 262.47C248.948 263.019 252.511 264.39 256.349 266.036C261.831 268.504 267.862 272.07 273.892 275.909C280.471 280.298 286.775 284.96 291.709 288.525C293.354 290.171 294.999 291.268 296.643 292.365C299.659 294.834 301.577 296.205 301.577 296.205L297.192 320.066C297.192 320.066 290.613 313.483 280.197 305.53C274.166 300.593 266.491 295.382 258.268 290.445C241.547 280.298 221.537 272.344 203.171 274.812C161.232 280.846 154.379 327.745 143.689 334.053C132.724 340.361 111.617 328.019 111.617 328.019L114.358 322.808Z" fill="url(#paint4_linear)"/>
<path opacity="0.28" d="M303.77 326.923C298.836 319.518 303.77 309.096 303.77 309.096C309.253 308.547 310.897 303.885 310.897 303.885C312.542 304.433 314.735 305.804 317.476 307.45C310.623 308.821 306.786 314.581 318.847 332.408C343.517 369.159 379.974 382.872 388.745 400.425C392.309 407.282 394.502 412.219 396.146 415.51L387.649 429.497C350.37 368.337 303.77 326.923 303.77 326.923Z" fill="#634277"/>
<path opacity="0.28" d="M273.892 276.184C280.471 280.572 286.775 285.234 291.709 288.8C293.354 290.445 294.999 291.542 296.643 292.639C299.659 295.108 301.577 296.479 301.577 296.479L297.192 320.34C297.192 320.34 290.613 313.758 280.197 305.804C274.166 300.867 266.491 295.656 258.268 290.72C241.547 280.572 221.537 272.618 203.171 275.087C161.232 281.12 154.379 328.019 143.689 334.327C132.724 340.636 111.617 328.294 111.617 328.294L114.358 322.808C114.358 322.808 127.79 331.311 136.013 302.513C144.237 273.441 182.064 254.791 182.064 254.791C182.613 254.791 182.887 255.065 183.435 255.065C186.724 261.099 188.643 265.762 188.643 265.762C193.577 263.019 198.237 261.099 202.623 259.453C202.623 259.453 204.542 270.15 228.115 267.407C251.963 264.39 269.78 298.125 276.907 289.348C284.034 280.572 252.511 264.939 251.689 264.665C253.059 265.213 254.704 265.762 256.075 266.584C262.105 269.053 268.136 272.618 273.892 276.184Z" fill="#634277"/>
<path d="M409.852 393.294C404.644 389.455 383.812 422.092 387.923 429.497C392.035 437.176 419.994 400.699 409.852 393.294Z" fill="#44170D"/>
<path d="M317.476 307.45L310.897 303.884C310.897 303.884 310.075 310.467 303.771 309.095C303.771 309.095 300.481 321.163 303.771 326.922L315.283 337.893C315.283 337.893 316.654 347.767 301.304 347.492C285.953 347.218 282.39 312.935 278.004 310.192C273.618 307.45 267.314 293.462 278.278 287.154C288.968 280.846 296.644 279.201 302.674 288.526C302.674 288.526 311.446 290.72 309.801 294.285C309.527 294.011 320.766 296.479 317.476 307.45Z" fill="url(#paint5_linear)"/>
<path opacity="0.28" d="M303.77 309.095C303.77 309.095 300.481 321.163 303.77 326.922L315.283 337.893C315.283 337.893 316.654 347.766 301.303 347.492C285.953 347.218 282.39 312.935 278.004 310.192C274.44 307.998 269.506 297.85 274.166 290.994C273.892 291.817 271.425 298.673 281.019 292.091C289.517 286.057 299.659 287.703 302.4 288.251C302.4 288.251 302.4 288.251 302.4 288.525C274.989 289.074 279.923 302.239 291.709 297.576C303.496 292.639 309.527 294.559 309.527 294.559C309.527 294.559 296.918 295.656 292.532 299.77C288.146 303.884 295.821 325.551 298.836 323.357C302.126 320.889 300.755 305.804 300.755 305.804C308.156 306.078 308.704 300.867 312.816 301.964C316.928 303.061 317.476 307.724 317.476 307.724L310.897 304.159C310.897 303.61 310.349 310.467 303.77 309.095Z" fill="#634277"/>
<path opacity="0.28" d="M370.654 453.358C363.801 462.409 365.72 437.177 365.72 437.177C365.72 437.177 359.141 452.261 347.903 453.358C336.664 454.729 350.096 442.388 350.096 442.388C350.096 442.388 343.791 447.324 341.872 445.953C339.679 444.582 349.822 419.075 349.273 417.704C348.999 417.155 348.999 414.413 348.999 411.121C348.999 411.121 349.273 411.396 349.273 411.67C350.37 418.527 358.045 432.788 362.705 434.434C367.365 436.079 367.365 427.852 365.446 420.172C363.527 412.493 362.705 403.168 362.705 403.168C367.913 404.265 371.476 413.316 373.669 423.463C374.218 436.079 373.943 449.244 370.654 453.358Z" fill="#634277"/>
<path opacity="0.28" d="M366.268 431.417C366.817 428.674 366.268 424.56 365.172 420.446C363.253 412.767 362.431 403.442 362.431 403.442C362.431 403.442 371.477 418.527 365.72 437.177C365.72 437.177 366.268 434.16 366.268 431.417Z" fill="#634277"/>
<path opacity="0.28" d="M358.593 431.417C356.4 433.611 353.659 437.177 350.096 442.388C350.096 442.388 354.207 435.531 355.852 427.852C356.674 428.949 357.497 430.32 358.593 431.417Z" fill="#634277"/>
<path d="M313.913 354.075C313.913 354.075 275.811 339.813 278.004 310.192C278.004 310.192 270.603 351.058 264.572 354.075C258.816 357.092 252.511 376.29 262.105 386.712C271.699 397.134 313.913 354.075 313.913 354.075Z" fill="url(#paint6_linear)"/>
<defs>
<filter id="filter0_d" x="244.053" y="106" width="73.9766" height="69.333" filterUnits="userSpaceOnUse" color-interpolation-filters="sRGB">
<feFlood flood-opacity="0" result="BackgroundImageFix"/>
<feColorMatrix in="SourceAlpha" type="matrix" values="0 0 0 0 0 0 0 0 0 0 0 0 0 0 0 0 0 0 127 0" result="hardAlpha"/>
<feOffset/>
<feGaussianBlur stdDeviation="10"/>
<feComposite in2="hardAlpha" operator="out"/>
<feColorMatrix type="matrix" values="0 0 0 0 1 0 0 0 0 0.866667 0 0 0 0 0 0 0 0 1 0"/>
<feBlend mode="normal" in2="BackgroundImageFix" result="effect1_dropShadow"/>
<feBlend mode="normal" in="SourceGraphic" in2="effect1_dropShadow" result="shape"/>
</filter>
<filter id="filter1_d" x="302.255" y="115.931" width="61.3804" height="54.3826" filterUnits="userSpaceOnUse" color-interpolation-filters="sRGB">
<feFlood flood-opacity="0" result="BackgroundImageFix"/>
<feColorMatrix in="SourceAlpha" type="matrix" values="0 0 0 0 0 0 0 0 0 0 0 0 0 0 0 0 0 0 127 0" result="hardAlpha"/>
<feOffset/>
<feGaussianBlur stdDeviation="10"/>
<feComposite in2="hardAlpha" operator="out"/>
<feColorMatrix type="matrix" values="0 0 0 0 1 0 0 0 0 0.866667 0 0 0 0 0 0 0 0 1 0"/>
<feBlend mode="normal" in2="BackgroundImageFix" result="effect1_dropShadow"/>
<feBlend mode="normal" in="SourceGraphic" in2="effect1_dropShadow" result="shape"/>
</filter>
<linearGradient id="paint0_linear" x1="107.711" y1="329.59" x2="107.711" y2="33.8504" gradientUnits="userSpaceOnUse">
<stop stop-color="#838DA9"/>
<stop offset="0.203" stop-color="#8790AC"/>
<stop offset="0.3987" stop-color="#929AB3"/>
<stop offset="0.5916" stop-color="#A6ABC1"/>
<stop offset="0.7826" stop-color="#C1C2D3"/>
<stop offset="0.9708" stop-color="#E4E0EB"/>
<stop offset="1" stop-color="#EAE5EF"/>
</linearGradient>
<linearGradient id="paint1_linear" x1="113.166" y1="329.59" x2="113.166" y2="33.8496" gradientUnits="userSpaceOnUse">
<stop stop-color="#6A72BB"/>
<stop offset="0.3358" stop-color="#464B7B"/>
<stop offset="1"/>
</linearGradient>
<linearGradient id="paint2_linear" x1="427.962" y1="97.3148" x2="33.3689" y2="491.691" gradientUnits="userSpaceOnUse">
<stop stop-color="#243D5B"/>
<stop offset="0.2612" stop-color="#1C324C"/>
<stop offset="0.5" stop-color="#13243B"/>
</linearGradient>
<linearGradient id="paint3_linear" x1="265.551" y1="424.586" x2="265.551" y2="256.271" gradientUnits="userSpaceOnUse">
<stop offset="0.1919" stop-color="#243D5B"/>
<stop offset="0.7576" stop-color="#13243B"/>
</linearGradient>
<linearGradient id="paint4_linear" x1="301.565" y1="295.676" x2="111.661" y2="295.676" gradientUnits="userSpaceOnUse">
<stop stop-color="#83330D"/>
<stop offset="0.1481" stop-color="#752D0D"/>
<stop offset="0.4787" stop-color="#5A210D"/>
<stop offset="0.7733" stop-color="#4A1A0D"/>
<stop offset="1" stop-color="#44170D"/>
</linearGradient>
<linearGradient id="paint5_linear" x1="314.438" y1="296.312" x2="280.228" y2="330.504" gradientUnits="userSpaceOnUse">
<stop stop-color="#EAE5EF"/>
<stop offset="0.0192454" stop-color="#E7E3EE"/>
<stop offset="0.28" stop-color="#C9D1E0"/>
<stop offset="0.5348" stop-color="#B3C4D6"/>
<stop offset="0.7787" stop-color="#A6BCD0"/>
<stop offset="1" stop-color="#A1B9CE"/>
</linearGradient>
<linearGradient id="paint6_linear" x1="297.976" y1="330.039" x2="216.692" y2="411.278" gradientUnits="userSpaceOnUse">
<stop offset="0.1717" stop-color="#243D5B"/>
<stop offset="0.2502" stop-color="#213956"/>
<stop offset="0.6013" stop-color="#172A42"/>
<stop offset="0.8416" stop-color="#13243B"/>
</linearGradient>
</defs>
</svg>
