<svg width="376" height="579" viewBox="0 0 376 579" fill="none" xmlns="http://www.w3.org/2000/svg">
<path d="M292.255 545.903C273.454 438.17 252.945 332.146 227.309 226.122C275.164 215.862 326.436 207.312 376 203.892C369.164 183.371 369.164 159.43 367.455 137.199C319.6 152.59 271.745 164.56 222.182 174.821C208.509 125.229 189.709 51.6963 188 0.394531C164.073 7.23477 138.436 12.3649 114.509 17.4951C131.6 65.3768 148.691 137.199 150.4 188.501C107.673 193.631 41.0182 200.471 0 200.471C3.41818 219.282 8.5454 238.093 11.9636 256.903C51.2727 251.773 114.509 239.803 153.818 227.832C179.455 344.116 203.382 462.111 229.018 578.395C254.655 571.554 271.745 563.004 292.255 545.903Z" fill="url(#paint0_linear_1:3857)"/>
<path d="M192.736 65.7748C267.904 65.7748 327.698 127.305 327.698 200.799C327.698 276.003 266.196 335.824 192.736 335.824C117.567 335.824 57.7733 274.294 57.7733 200.799C57.7733 125.596 117.567 65.7748 192.736 65.7748ZM192.736 305.059C249.112 305.059 296.947 258.911 296.947 200.799C296.947 144.397 250.821 96.54 192.736 96.54C136.359 96.54 88.5241 142.688 88.5241 200.799C88.5241 258.911 136.359 305.059 192.736 305.059Z" fill="url(#paint1_linear_1:3857)"/>
<defs>
<linearGradient id="paint0_linear_1:3857" x1="188" y1="0.394531" x2="188" y2="578.395" gradientUnits="userSpaceOnUse">
<stop offset="0.421875" stop-color="#01050B"/>
<stop offset="1" stop-color="#01050B" stop-opacity="0"/>
</linearGradient>
<linearGradient id="paint1_linear_1:3857" x1="188" y1="0.394531" x2="188" y2="578.395" gradientUnits="userSpaceOnUse">
<stop offset="0.421875" stop-color="#01050B"/>
<stop offset="1" stop-color="#01050B" stop-opacity="0"/>
</linearGradient>
</defs>
</svg>
