<svg width="265" height="207" viewBox="0 0 265 207" fill="none" xmlns="http://www.w3.org/2000/svg">
<g filter="url(#filter0_d)">
<path fill-rule="evenodd" clip-rule="evenodd" d="M62.3294 97.5341C63.6307 96.138 64.7447 94.9289 65.3301 94.2868C68.8826 90.371 78.8888 81.7162 83.786 73.3383C87.5243 66.9478 88.3086 60.6991 82.8916 56.2443C77.9681 52.1953 70.7066 52.8807 62.7842 56.5923C45.7338 64.5805 25.3151 86.2488 20.8404 94.3884C20.3524 95.2772 20.6756 96.3911 21.5659 96.8797C22.4519 97.3663 23.5665 97.0447 24.0545 96.1558C28.3506 88.3459 47.9772 67.5796 64.3457 59.9103C70.7439 56.9136 76.5862 55.8038 80.5629 59.0754C84.4891 62.3024 83.3283 66.8526 80.6181 71.4852C75.8538 79.6397 66.0705 88.0119 62.6094 91.8227C60.4408 94.2129 51.9126 103.095 51.3653 104.032C50.6792 105.205 51.3558 106.033 51.5982 106.287C51.7858 106.485 52.7849 107.41 54.1453 106.448C73.552 92.734 112.848 85.1212 147.829 91.3542C182.502 97.5321 213.002 117.419 215.163 159.031C215.217 160.042 216.081 160.82 217.091 160.771C218.102 160.718 218.881 159.856 218.826 158.845C216.561 115.245 184.795 94.2174 148.471 87.7449C117.858 82.289 84.055 87.2506 62.3294 97.5341Z" fill="#FFDD00"/>
<path fill-rule="evenodd" clip-rule="evenodd" d="M216.589 156.792C213.686 153.584 210.897 150.298 207.743 147.314C199.341 139.36 188.927 132.872 177.74 129.762C176.761 129.492 175.752 130.064 175.48 131.037C175.211 132.015 175.785 133.024 176.759 133.296C187.378 136.242 197.248 142.428 205.219 149.974C208.827 153.392 211.954 157.215 215.33 160.85C215.501 161.029 216.92 162.653 217.314 162.914C218.227 163.526 218.995 163.198 219.332 163C219.615 162.838 219.914 162.577 220.139 162.141C220.321 161.783 220.507 161.021 220.539 159.949C220.65 156.515 219.76 148.469 219.754 147.132C219.681 131.817 222.186 117.559 224.448 102.481C224.595 101.48 223.904 100.543 222.903 100.392C221.903 100.24 220.97 100.931 220.82 101.93C218.528 117.199 216.011 131.641 216.088 147.143C216.089 148.061 216.376 153.147 216.589 156.792Z" fill="#FFDD00"/>
</g>
<defs>
<filter id="filter0_d" x="0.000793457" y="0.395752" width="264.771" height="206.134" filterUnits="userSpaceOnUse" color-interpolation-filters="sRGB">
<feFlood flood-opacity="0" result="BackgroundImageFix"/>
<feColorMatrix in="SourceAlpha" type="matrix" values="0 0 0 0 0 0 0 0 0 0 0 0 0 0 0 0 0 0 127 0" result="hardAlpha"/>
<feOffset/>
<feGaussianBlur stdDeviation="10"/>
<feComposite in2="hardAlpha" operator="out"/>
<feColorMatrix type="matrix" values="0 0 0 0 1 0 0 0 0 0.866667 0 0 0 0 0 0 0 0 1 0"/>
<feBlend mode="normal" in2="BackgroundImageFix" result="effect1_dropShadow"/>
<feBlend mode="normal" in="SourceGraphic" in2="effect1_dropShadow" result="shape"/>
</filter>
</defs>
</svg>
