<svg width="1920" height="412" viewBox="0 0 1920 412" fill="none" xmlns="http://www.w3.org/2000/svg">
<path opacity="0.05" d="M1920 318.379C1833.65 323.31 1745.63 309.276 1659.75 323.082C1594.77 333.55 1530.94 360.024 1465.49 354.411C1438.95 352.135 1407.23 337.798 1404.94 307.835C1403.06 282.575 1423.69 263.004 1442.98 250.032C1462.26 237.061 1484.5 222.876 1489.48 198.146C1495.05 170.383 1474.63 143.302 1451.17 132.758C1427.72 122.214 1401.72 123.276 1376.72 119.938C1315.71 111.898 1270.28 72.073 1206.99 75.8658C1154.44 78.9759 1101.89 82.1619 1049.28 85.272C1015.01 87.3202 950.23 90.3544 944.249 141.633C941.158 168.335 960.511 190.94 969.381 215.973C993.84 285.002 936.119 341.06 878.263 340.529C834.787 340.15 794.739 318.151 753.144 306.697C691.727 289.705 625.472 295.774 567.281 323.689C531.936 340.605 497.531 352.59 461.85 366.775C428.454 380.05 399.963 397.801 363.812 404.324C298.497 416.082 232.041 410.241 166.189 404.324C110.752 399.318 55.1141 394.387 -0.0537132 384.753L-0.0537186 323.689C10.0929 324.068 20.441 328.316 30.3188 332.337C146.232 379.443 269.066 397.952 390.152 386.422C401.509 385.36 416.493 378.609 414.881 364.196C413.805 354.335 405.339 349.253 398.014 345.915C385.785 340.377 373.018 336.509 361.057 330.213C347.282 323.006 323.965 300.325 356.151 299.642C363.341 299.491 370.33 302.146 377.184 304.573C405.272 314.207 439.81 324.372 468.234 311.704C484.495 304.421 498.943 292.967 514.062 283.182C559.553 253.825 606.59 258.832 657.054 262.776C717.867 267.479 778.074 278.934 838.886 283.561C849.974 284.395 861.666 285.002 871.611 279.465C908.77 258.983 869.662 221.89 846.815 216.049C785.331 200.422 714.708 210.359 665.387 166.059C629.235 133.517 686.553 121.38 707.451 122.821C749.113 125.628 798.098 137.916 838.55 123.124C869.46 111.822 892.105 84.9686 920.999 69.7215C952.111 53.3365 987.658 48.7092 1021.66 52.1227C1073.4 57.4327 1119.63 72.3006 1169.76 48.7092C1205.91 31.7173 1248.24 -9.70031 1290.04 2.66429C1311.21 8.96037 1314.3 27.9245 1318.4 48.9367C1322.29 68.887 1330.42 87.396 1344.13 98.9262C1373.9 124.035 1395.87 98.3193 1422.21 82.086C1447.21 66.763 1476.78 72.9074 1504.06 80.0379C1538.46 89.1406 1574.28 114.932 1559.83 161.128C1552.64 184.037 1535.91 201.181 1519.11 216.352C1502.31 231.523 1484.44 246.315 1473.42 267.176C1469.38 274.837 1466.43 284.774 1470.73 292.284C1473.82 297.67 1479.6 299.946 1485.04 301.69C1507.35 308.821 1530.53 312.462 1553.72 312.538C1572.19 312.614 1593.23 308.669 1603.17 291.071C1617.42 265.886 1600.89 226.365 1620.11 205.808C1631.8 193.367 1651.49 196.022 1664.45 206.642C1677.42 217.338 1685.35 233.875 1693.01 249.805C1700.67 265.734 1709.07 282.119 1722.58 291.981C1738.64 303.663 1759 303.89 1778.08 302.677C1826.26 299.491 1874.04 289.022 1919.8 271.651L1919.8 318.379L1920 318.379Z" fill="white"/>
</svg>
