<svg width="287" height="199" viewBox="0 0 287 199" fill="none" xmlns="http://www.w3.org/2000/svg">
<g filter="url(#filter0_d)">
<path fill-rule="evenodd" clip-rule="evenodd" d="M135.755 153.998C163.663 169.164 195.583 180.305 227.23 178.122C238.745 177.329 249.404 173.999 260.347 170.689C261.115 170.458 261.552 169.642 261.322 168.868C261.088 168.094 260.274 167.655 259.503 167.89C248.771 171.135 238.323 174.427 227.03 175.204C195.832 177.356 164.385 166.277 136.899 151.295L137.094 150.853C139.232 146.052 137.908 139.047 134.415 131.694C129.41 121.154 120.091 109.829 111.704 103.574C107.935 100.764 104.323 98.978 101.344 98.6046C99.0219 98.312 97.0298 98.8356 95.4906 100.229C92.2127 103.201 92.3278 108.27 94.9264 114.149C100.358 126.444 116.31 142.634 124.961 147.827C127.664 149.448 130.412 151.041 133.202 152.593C132.849 153.447 132.5 154.283 132.124 155.079C131.045 157.347 129.721 159.329 127.168 160.688C123.188 162.801 118.417 163.167 113.535 162.62C105.916 161.762 98.0278 158.655 92.2204 155.988C59.8786 141.129 43.8612 115.357 35.271 89.4853C26.6002 63.3555 25.4641 37.1024 22.8962 21.6162C22.7657 20.8194 22.0134 20.2843 21.2189 20.4152C20.4243 20.5461 19.887 21.3006 20.0213 22.0974C22.6045 37.6837 23.7752 64.1061 32.5074 90.4092C41.3202 116.97 57.8059 143.393 91.0036 158.648C97.0528 161.427 105.275 164.634 113.208 165.527C118.701 166.143 124.056 165.65 128.535 163.271C132.554 161.135 134.15 157.801 135.755 153.998ZM134.335 149.879L134.434 149.659C136.304 145.464 134.837 139.381 131.782 132.953C126.973 122.825 118.025 111.935 109.961 105.922C107.198 103.859 104.553 102.377 102.227 101.753C100.308 101.241 98.6419 101.315 97.4482 102.4C96.3159 103.42 95.8668 104.825 95.886 106.461C95.9051 108.382 96.5423 110.588 97.5902 112.963C102.81 124.777 118.144 140.328 126.458 145.317C129.041 146.865 131.667 148.389 134.335 149.879Z" fill="#FFDD00"/>
<path fill-rule="evenodd" clip-rule="evenodd" d="M264.047 166.163C263.921 166.79 263.495 167.58 263.026 168.423C261.913 170.432 260.328 172.572 259.622 173.612C259.169 174.281 259.345 175.19 260.009 175.644C260.677 176.098 261.583 175.925 262.036 175.255C262.9 173.981 265.007 171.125 266.139 168.758C266.746 167.487 267.06 166.313 266.991 165.47C266.876 164.034 265.744 163.137 263.498 163.191C260.842 163.257 255.91 164.592 251.78 162.987C251.032 162.695 250.183 163.072 249.895 163.823C249.604 164.577 249.976 165.424 250.728 165.717C254.666 167.245 259.257 166.509 262.347 166.202C262.934 166.144 263.633 166.151 264.047 166.163Z" fill="#FFDD00"/>
</g>
<defs>
<filter id="filter0_d" x="0.000732422" y="0.395508" width="287" height="198" filterUnits="userSpaceOnUse" color-interpolation-filters="sRGB">
<feFlood flood-opacity="0" result="BackgroundImageFix"/>
<feColorMatrix in="SourceAlpha" type="matrix" values="0 0 0 0 0 0 0 0 0 0 0 0 0 0 0 0 0 0 127 0" result="hardAlpha"/>
<feOffset/>
<feGaussianBlur stdDeviation="10"/>
<feComposite in2="hardAlpha" operator="out"/>
<feColorMatrix type="matrix" values="0 0 0 0 1 0 0 0 0 0.866667 0 0 0 0 0 0 0 0 1 0"/>
<feBlend mode="normal" in2="BackgroundImageFix" result="effect1_dropShadow"/>
<feBlend mode="normal" in="SourceGraphic" in2="effect1_dropShadow" result="shape"/>
</filter>
</defs>
</svg>
