<svg width="236" height="208" viewBox="0 0 236 208" fill="none" xmlns="http://www.w3.org/2000/svg">
<g filter="url(#filter0_d)">
<path fill-rule="evenodd" clip-rule="evenodd" d="M188.423 27.1718C187.019 49.1386 176.509 69.025 161.422 86.0255C138.636 111.699 105.407 130.801 76.9216 140.533C59.0196 146.652 44.8629 144.807 26.1531 146.909C25.3954 146.994 24.8501 147.677 24.9356 148.435C25.0189 149.19 25.704 149.738 26.4596 149.649C45.3883 147.524 59.7033 149.334 77.8151 143.145C106.697 133.276 140.379 113.889 163.486 87.8569C178.99 70.3879 189.733 49.9232 191.177 27.3484C191.226 26.5878 190.652 25.9321 189.891 25.8832C189.13 25.8343 188.472 26.4112 188.423 27.1718Z" fill="#FFDD00"/>
<path fill-rule="evenodd" clip-rule="evenodd" d="M22.4835 150.865C22.5509 150.861 22.9995 150.826 23.3778 150.837C24.9467 150.871 27.6866 151.182 31.1199 151.78C42.6345 153.797 61.9096 159.048 70.9258 168.705C71.4461 169.262 72.3185 169.291 72.8755 168.77C73.4325 168.25 73.4656 167.378 72.9454 166.821C63.5642 156.773 43.5756 151.159 31.5945 149.063C29.9896 148.783 28.5264 148.561 27.2536 148.403C30.7659 146.666 34.3158 145.022 37.8936 143.414C48.1949 138.79 56.1484 132.655 63.5676 124.031C64.0646 123.456 63.9988 122.582 63.421 122.087C62.8461 121.59 61.9718 121.656 61.477 122.233C54.3345 130.533 46.6797 136.444 36.7649 140.897C32.09 142.999 27.4564 145.166 22.8975 147.508C22.4438 147.741 21.2713 148.36 21.1206 148.472C20.2606 149.113 20.585 149.963 20.666 150.147C20.7044 150.236 21.2456 151.314 22.4835 150.865ZM21.6364 148.24C21.6025 148.253 21.5664 148.263 21.5297 148.278C21.5588 148.264 21.5948 148.254 21.6364 148.24Z" fill="#FFDD00"/>
</g>
<defs>
<filter id="filter0_d" x="-0.000183105" y="0.395508" width="235.501" height="206.688" filterUnits="userSpaceOnUse" color-interpolation-filters="sRGB">
<feFlood flood-opacity="0" result="BackgroundImageFix"/>
<feColorMatrix in="SourceAlpha" type="matrix" values="0 0 0 0 0 0 0 0 0 0 0 0 0 0 0 0 0 0 127 0" result="hardAlpha"/>
<feOffset/>
<feGaussianBlur stdDeviation="10"/>
<feComposite in2="hardAlpha" operator="out"/>
<feColorMatrix type="matrix" values="0 0 0 0 1 0 0 0 0 0.866667 0 0 0 0 0 0 0 0 1 0"/>
<feBlend mode="normal" in2="BackgroundImageFix" result="effect1_dropShadow"/>
<feBlend mode="normal" in="SourceGraphic" in2="effect1_dropShadow" result="shape"/>
</filter>
</defs>
</svg>
