<svg width="241" height="301" viewBox="0 0 241 301" fill="none" xmlns="http://www.w3.org/2000/svg">
<path d="M98.4943 197.962C98.4943 197.962 60.7059 79.7212 113.122 120.191C113.122 120.191 116.048 37.5445 50.2227 16.8219C50.2227 16.8219 94.8373 46.0774 72.6519 84.5971C50.4665 123.117 0.244629 94.1051 0.244629 94.1051C0.244629 94.1051 102.639 160.905 44.3716 187.723C44.3716 187.723 103.37 223.561 95.8125 256.717C95.8125 256.717 116.535 236.726 119.217 299.869C119.217 299.869 126.043 274.758 125.068 299.625C125.068 299.625 140.183 223.804 151.398 263.787C151.398 263.787 146.766 216.003 203.814 188.698C203.814 188.698 135.795 172.607 240.627 88.0102C240.627 88.0102 193.818 111.658 175.534 88.7416C157.493 66.0686 220.636 0 220.636 0C220.636 0 148.229 39.9825 145.547 116.778C145.547 116.778 196.744 83.6219 145.547 199.912C145.547 199.912 145.547 179.434 139.208 193.086C139.208 193.086 142.134 181.872 130.431 155.785C130.431 155.785 135.307 182.847 129.213 185.772C117.51 191.136 121.411 152.128 121.411 152.128C121.411 152.128 101.42 173.582 107.759 198.937C107.759 198.693 103.614 176.02 98.4943 197.962Z" fill="url(#paint0_linear)"/>
<path opacity="0.65" d="M161.88 98.9813C139.451 74.3579 194.061 19.5039 194.305 19.5039C173.339 38.5199 147.253 71.1885 145.546 116.535C145.546 116.535 196.743 83.3783 145.546 199.669C145.546 199.669 145.546 179.19 139.207 192.843C139.207 192.843 139.939 189.673 138.964 182.603C138.476 185.285 137.501 187.967 135.55 188.942C130.674 191.624 126.774 192.843 126.774 192.843C128.48 193.33 129.212 193.086 129.212 193.086C124.336 196.012 120.679 193.086 120.679 193.086C122.629 193.818 124.823 192.843 124.823 192.843C121.898 193.086 112.877 188.21 112.877 188.21C107.27 170.901 121.41 151.641 121.41 151.641C121.41 151.641 102.394 171.876 107.27 196.256C107.514 197.475 107.758 198.45 107.758 198.45C107.514 197.719 107.514 196.987 107.27 196.256C106.295 192.843 104.588 186.504 102.15 188.698C107.758 186.016 107.026 218.441 89.7168 202.838C72.4073 187.235 56.5606 185.529 56.5606 185.529C98.0059 160.662 47.5402 107.514 47.5402 107.514C47.5402 107.514 89.9606 94.3491 88.4978 64.1185C87.0351 34.1316 49.9781 16.5783 49.9781 16.5783C49.9781 16.5783 94.5927 45.8338 72.4073 84.3535C50.2219 122.873 0 93.8616 0 93.8616C0 93.8616 102.638 160.905 44.3708 187.723C44.3708 187.723 103.369 223.561 95.8117 256.717C95.8117 256.717 107.27 245.746 114.096 265.738C116.534 272.808 118.485 283.535 119.216 300.113C119.216 300.113 126.042 275.002 125.067 299.869C125.067 299.869 130.918 270.37 137.988 257.936C139.207 255.986 140.183 254.523 141.401 253.548C144.815 250.866 148.228 253.06 151.153 264.031C151.153 264.031 151.153 263.056 151.153 261.105C148.715 249.647 147.253 235.994 149.691 224.048C154.81 197.719 190.161 186.992 190.161 186.992C190.161 186.992 163.099 185.041 170.169 155.298C176.752 127.749 197.231 114.584 200.156 112.878C197.962 114.097 182.359 121.167 161.88 98.9813ZM142.133 243.796C142.133 243.796 141.402 252.329 137.257 258.667C133.844 262.081 129.456 265.494 126.286 263.056C120.435 258.667 110.683 243.308 111.902 229.656C113.121 216.003 115.315 216.247 115.315 216.247C115.315 216.247 123.117 226.243 137.013 212.102C136.769 212.346 145.058 231.119 142.133 243.796Z" fill="#634277"/>
<g filter="url(#filter0_d)">
<path d="M123.604 204.301C123.604 204.301 122.629 192.355 116.047 191.624C109.708 190.892 109.22 196.012 109.22 196.012C109.22 196.012 117.997 217.222 123.604 204.301Z" fill="#FFDD00"/>
</g>
<g filter="url(#filter1_d)">
<path d="M127.993 204.057C127.993 204.057 128.237 193.817 130.918 192.355C133.844 190.892 136.038 194.549 136.038 194.549C136.038 194.549 131.894 216.49 127.993 204.057Z" fill="#FFDD00"/>
</g>
<path opacity="0.3" d="M129.212 185.529C117.509 190.892 121.41 151.885 121.41 151.885C121.41 151.885 106.295 196.256 129.212 185.529Z" fill="url(#paint1_linear)"/>
<path opacity="0.3" d="M106.295 108.733C102.882 106.295 92.1547 112.39 92.1547 112.39C96.543 110.44 103.126 112.39 113.121 120.191C113.121 120.191 115.071 64.3622 79.2335 32.9126C103.857 60.2177 106.295 108.733 106.295 108.733Z" fill="url(#paint2_linear)"/>
<path opacity="0.3" d="M220.635 0C220.635 0 206.495 7.80146 190.404 23.1606C190.161 23.6482 151.397 72.6511 180.409 93.3737C178.702 92.1548 177.24 90.692 175.777 88.9854C157.492 66.0686 220.635 0 220.635 0Z" fill="url(#paint3_linear)"/>
<path opacity="0.3" d="M204.057 188.698C204.057 188.698 136.038 172.607 240.87 88.01C240.87 88.01 220.879 98.737 200.644 112.39C180.409 126.042 148.471 178.214 204.057 188.698Z" fill="url(#paint4_linear)"/>
<path opacity="0.3" d="M136.769 212.346C122.873 226.73 115.072 216.491 115.072 216.491C115.072 216.491 118.728 226.974 128.237 225.267C136.038 224.048 141.401 236.726 140.914 249.403C141.645 246.234 141.889 243.796 141.889 243.796C145.058 231.118 136.769 212.346 136.769 212.346Z" fill="url(#paint5_linear)"/>
<defs>
<filter id="filter0_d" x="105.22" y="187.552" width="22.384" height="24.922" filterUnits="userSpaceOnUse" color-interpolation-filters="sRGB">
<feFlood flood-opacity="0" result="BackgroundImageFix"/>
<feColorMatrix in="SourceAlpha" type="matrix" values="0 0 0 0 0 0 0 0 0 0 0 0 0 0 0 0 0 0 127 0" result="hardAlpha"/>
<feOffset/>
<feGaussianBlur stdDeviation="2"/>
<feComposite in2="hardAlpha" operator="out"/>
<feColorMatrix type="matrix" values="0 0 0 0 1 0 0 0 0 0.866667 0 0 0 0 0 0 0 0 1 0"/>
<feBlend mode="normal" in2="BackgroundImageFix" result="effect1_dropShadow"/>
<feBlend mode="normal" in="SourceGraphic" in2="effect1_dropShadow" result="shape"/>
</filter>
<filter id="filter1_d" x="123.993" y="188.009" width="16.0453" height="23.8621" filterUnits="userSpaceOnUse" color-interpolation-filters="sRGB">
<feFlood flood-opacity="0" result="BackgroundImageFix"/>
<feColorMatrix in="SourceAlpha" type="matrix" values="0 0 0 0 0 0 0 0 0 0 0 0 0 0 0 0 0 0 127 0" result="hardAlpha"/>
<feOffset/>
<feGaussianBlur stdDeviation="2"/>
<feComposite in2="hardAlpha" operator="out"/>
<feColorMatrix type="matrix" values="0 0 0 0 1 0 0 0 0 0.866667 0 0 0 0 0 0 0 0 1 0"/>
<feBlend mode="normal" in2="BackgroundImageFix" result="effect1_dropShadow"/>
<feBlend mode="normal" in="SourceGraphic" in2="effect1_dropShadow" result="shape"/>
</filter>
<linearGradient id="paint0_linear" x1="29.9403" y1="178.567" x2="255.449" y2="98.9808" gradientUnits="userSpaceOnUse">
<stop offset="0.1716" stop-color="#13243B"/>
<stop offset="0.5146" stop-color="#182C45"/>
<stop offset="1" stop-color="#243D5B"/>
</linearGradient>
<linearGradient id="paint1_linear" x1="131.223" y1="156.015" x2="110.841" y2="198.629" gradientUnits="userSpaceOnUse">
<stop stop-color="#6A72BB"/>
<stop offset="0.1074" stop-color="#666DB4"/>
<stop offset="0.269" stop-color="#5A619F"/>
<stop offset="0.4648" stop-color="#474C7D"/>
<stop offset="0.6872" stop-color="#2C304E"/>
<stop offset="0.9292" stop-color="#0B0B13"/>
<stop offset="1"/>
</linearGradient>
<linearGradient id="paint2_linear" x1="108.769" y1="50.0659" x2="70.627" y2="129.813" gradientUnits="userSpaceOnUse">
<stop stop-color="#6A72BB"/>
<stop offset="0.1074" stop-color="#666DB4"/>
<stop offset="0.269" stop-color="#5A619F"/>
<stop offset="0.4648" stop-color="#474C7D"/>
<stop offset="0.6872" stop-color="#2C304E"/>
<stop offset="0.9292" stop-color="#0B0B13"/>
<stop offset="1"/>
</linearGradient>
<linearGradient id="paint3_linear" x1="213.387" y1="-3.52909" x2="165.555" y2="96.4771" gradientUnits="userSpaceOnUse">
<stop stop-color="#6A72BB"/>
<stop offset="0.1074" stop-color="#666DB4"/>
<stop offset="0.269" stop-color="#5A619F"/>
<stop offset="0.4648" stop-color="#474C7D"/>
<stop offset="0.6872" stop-color="#2C304E"/>
<stop offset="0.9292" stop-color="#0B0B13"/>
<stop offset="1"/>
</linearGradient>
<linearGradient id="paint4_linear" x1="228.573" y1="85.863" x2="177.321" y2="193.021" gradientUnits="userSpaceOnUse">
<stop stop-color="#6A72BB"/>
<stop offset="0.1074" stop-color="#666DB4"/>
<stop offset="0.269" stop-color="#5A619F"/>
<stop offset="0.4648" stop-color="#474C7D"/>
<stop offset="0.6872" stop-color="#2C304E"/>
<stop offset="0.9292" stop-color="#0B0B13"/>
<stop offset="1"/>
</linearGradient>
<linearGradient id="paint5_linear" x1="137.748" y1="212.891" x2="124.082" y2="241.466" gradientUnits="userSpaceOnUse">
<stop stop-color="#6A72BB"/>
<stop offset="0.1074" stop-color="#666DB4"/>
<stop offset="0.269" stop-color="#5A619F"/>
<stop offset="0.4648" stop-color="#474C7D"/>
<stop offset="0.6872" stop-color="#2C304E"/>
<stop offset="0.9292" stop-color="#0B0B13"/>
<stop offset="1"/>
</linearGradient>
</defs>
</svg>
