<svg width="1920" height="411" viewBox="0 0 1920 411" fill="none" xmlns="http://www.w3.org/2000/svg">
<path opacity="0.05" d="M-0.0536051 92.7454C86.2931 87.8147 174.319 101.848 260.196 88.0423C325.174 77.5741 389.01 51.1002 454.459 56.7136C481.001 58.9893 512.718 73.3262 515.003 103.29C516.884 128.55 496.255 148.121 476.97 161.092C457.684 174.064 435.443 188.249 430.47 212.978C424.893 240.741 445.32 267.822 468.772 278.366C492.223 288.91 518.228 287.848 543.225 291.186C604.239 299.227 649.663 339.051 712.961 335.259C765.508 332.149 818.056 328.963 870.67 325.852C904.94 323.804 969.717 320.77 975.697 269.491C978.788 242.79 959.436 220.184 950.566 195.152C926.107 126.122 983.828 70.0645 1041.68 70.5955C1085.16 70.9748 1125.21 92.9732 1166.8 104.427C1228.22 121.419 1294.47 115.351 1352.67 87.4356C1388.01 70.5197 1422.41 58.5344 1458.1 44.3492C1491.49 31.0743 1519.98 13.3239 1556.13 6.80027C1621.45 -4.95747 1687.91 0.883486 1753.76 6.8003C1809.19 11.8068 1864.83 16.7375 1920 26.3713L1920 87.4357C1909.85 87.0565 1899.51 82.8085 1889.63 78.7881C1773.71 31.6812 1650.88 13.1722 1529.79 24.7024C1518.44 25.7644 1503.45 32.5156 1505.07 46.9283C1506.14 56.7897 1514.61 61.8721 1521.93 65.2097C1534.16 70.7473 1546.93 74.616 1558.89 80.912C1572.66 88.1184 1595.98 110.799 1563.8 111.482C1556.61 111.634 1549.62 108.979 1542.76 106.552C1514.67 96.9178 1480.14 86.753 1451.71 99.421C1435.45 106.703 1421 118.158 1405.88 127.943C1360.39 157.299 1313.36 152.293 1262.89 148.348C1202.08 143.645 1141.87 132.191 1081.06 127.564C1069.97 126.729 1058.28 126.122 1048.34 131.66C1011.18 152.141 1050.28 189.235 1073.13 195.076C1134.62 210.702 1205.24 200.765 1254.56 245.065C1290.71 277.608 1233.39 289.745 1212.5 288.304C1170.83 285.497 1121.85 273.208 1081.4 288C1050.49 299.303 1027.84 326.156 998.947 341.403C967.835 357.788 932.289 362.415 898.287 359.002C846.547 353.692 800.316 338.824 750.188 362.415C714.036 379.407 671.703 420.825 629.907 408.46C608.741 402.164 605.65 383.2 601.551 362.188C597.653 342.237 589.523 323.728 575.815 312.198C546.047 287.09 524.074 312.805 497.733 329.038C472.736 344.361 443.17 338.217 415.889 331.086C381.484 321.984 345.669 296.192 360.116 249.996C367.306 227.087 384.038 209.944 400.837 194.772C417.636 179.601 435.51 164.809 446.53 143.949C450.562 136.287 453.518 126.35 449.218 118.84C446.127 113.454 440.348 111.179 434.905 109.434C412.596 102.303 389.413 98.6623 366.231 98.5864C347.752 98.5105 326.72 102.455 316.775 120.054C302.529 145.238 319.059 184.759 299.841 205.316C288.149 217.757 268.461 215.102 255.492 204.482C242.523 193.786 234.594 177.25 226.934 161.32C219.274 145.39 210.874 129.005 197.368 119.143C181.308 107.462 160.948 107.234 141.864 108.448C93.6846 111.634 45.9083 122.102 0.147925 139.473L0.147933 92.7454L-0.0536051 92.7454Z" fill="white"/>
</svg>
