<svg width="1920" height="411" viewBox="0 0 1920 411" fill="none" xmlns="http://www.w3.org/2000/svg">
<path opacity="0.05" d="M8.10807e-06 317.984C86.3467 322.914 174.373 308.881 260.249 322.687C325.228 333.155 389.064 359.629 454.513 354.015C481.055 351.74 512.771 337.403 515.056 307.439C516.938 282.179 496.308 262.608 477.023 249.637C457.738 236.665 435.496 222.48 430.524 197.751C424.946 169.988 445.374 142.907 468.825 132.363C492.277 121.819 518.282 122.881 543.278 119.543C604.292 111.502 649.716 71.6776 713.015 75.4704C765.562 78.5805 818.109 81.7665 870.724 84.8766C904.993 86.9248 969.77 89.959 975.751 141.238C978.842 167.939 959.489 190.545 950.619 215.577C926.16 284.607 983.881 340.665 1041.74 340.134C1085.21 339.754 1125.26 317.756 1166.86 306.302C1228.27 289.31 1294.53 295.378 1352.72 323.294C1388.06 340.21 1422.47 352.195 1458.15 366.38C1491.55 379.655 1520.04 397.405 1556.19 403.929C1621.5 415.687 1687.96 409.846 1753.81 403.929C1809.25 398.923 1864.89 393.992 1920.05 384.358L1920.05 323.294C1909.91 323.673 1899.56 327.921 1889.68 331.941C1773.77 379.048 1650.93 397.557 1529.85 386.027C1518.49 384.965 1503.51 378.214 1505.12 363.801C1506.19 353.94 1514.66 348.857 1521.99 345.52C1534.22 339.982 1546.98 336.113 1558.94 329.817C1572.72 322.611 1596.04 299.93 1563.85 299.247C1556.66 299.095 1549.67 301.75 1542.82 304.178C1514.73 313.812 1480.19 323.976 1451.77 311.308C1435.5 304.026 1421.06 292.572 1405.94 282.786C1360.45 253.43 1313.41 258.436 1262.95 262.381C1202.13 267.084 1141.93 278.538 1081.11 283.165C1070.03 284 1058.33 284.607 1048.39 279.069C1011.23 258.588 1050.34 221.494 1073.18 215.653C1134.67 200.027 1205.29 209.964 1254.61 165.664C1290.76 133.121 1233.45 120.984 1212.55 122.426C1170.89 125.232 1121.9 137.521 1081.45 122.729C1050.54 111.426 1027.89 84.5732 999.001 69.3261C967.889 52.9411 932.342 48.3138 898.341 51.7274C846.6 57.0373 800.37 71.9052 750.241 48.3138C714.09 31.3219 671.757 -10.0957 629.961 2.2689C608.794 8.56498 605.703 27.5291 601.604 48.5414C597.707 68.4916 589.576 87.0006 575.868 98.5308C546.1 123.639 524.127 97.9239 497.787 81.6906C472.79 66.3676 443.224 72.512 415.942 79.6425C381.538 88.7453 345.723 114.536 360.17 160.733C367.36 183.642 384.091 200.785 400.89 215.957C417.689 231.128 435.563 245.92 446.584 266.78C450.615 274.442 453.572 284.379 449.271 291.889C446.18 297.275 440.401 299.55 434.959 301.295C412.65 308.426 389.467 312.067 366.284 312.143C347.806 312.218 326.773 308.274 316.828 290.675C302.583 265.491 319.113 225.97 299.895 205.413C288.203 192.972 268.515 195.627 255.546 206.247C242.577 216.943 234.648 233.479 226.987 249.409C219.327 265.339 210.928 281.724 197.421 291.585C181.361 303.267 161.001 303.495 141.918 302.281C93.7382 299.095 45.9619 288.627 0.20155 271.256L0.201546 317.984L8.10807e-06 317.984Z" fill="white"/>
</svg>
