<svg width="1920" height="411" viewBox="0 0 1920 411" fill="none" xmlns="http://www.w3.org/2000/svg">
<path opacity="0.05" d="M-0.0536051 92.7455C86.2931 87.8148 174.319 101.848 260.196 88.0424C325.174 77.5743 389.01 51.1004 454.459 56.7137C481.001 58.9894 512.718 73.3263 515.003 103.29C516.884 128.55 496.255 148.121 476.97 161.092C457.684 174.064 435.443 188.249 430.47 212.978C424.893 240.742 445.32 267.822 468.772 278.366C492.223 288.91 518.228 287.848 543.225 291.186C604.239 299.227 649.663 339.052 712.961 335.259C765.508 332.149 818.056 328.963 870.67 325.853C904.94 323.804 969.717 320.77 975.697 269.491C978.788 242.79 959.436 220.185 950.566 195.152C926.107 126.122 983.828 70.0646 1041.68 70.5956C1085.16 70.9749 1125.21 92.9733 1166.8 104.428C1228.22 121.419 1294.47 115.351 1352.67 87.4358C1388.01 70.5198 1422.41 58.5345 1458.1 44.3493C1491.49 31.0744 1519.98 13.324 1556.13 6.80039C1621.45 -4.95735 1687.91 0.883608 1753.76 6.80042C1809.19 11.807 1864.83 16.7376 1920 26.3714L1920 87.4359C1909.85 87.0566 1899.51 82.8086 1889.63 78.7882C1773.71 31.6813 1650.88 13.1724 1529.79 24.7025C1518.44 25.7645 1503.45 32.5157 1505.07 46.9284C1506.14 56.7898 1514.61 61.8722 1521.93 65.2099C1534.16 70.7474 1546.93 74.6161 1558.89 80.9122C1572.66 88.1185 1595.98 110.8 1563.8 111.482C1556.61 111.634 1549.62 108.979 1542.76 106.552C1514.67 96.9179 1480.14 86.7531 1451.71 99.4211C1435.45 106.703 1421 118.158 1405.88 127.943C1360.39 157.3 1313.36 152.293 1262.89 148.349C1202.08 143.645 1141.87 132.191 1081.06 127.564C1069.97 126.729 1058.28 126.123 1048.34 131.66C1011.18 152.141 1050.28 189.235 1073.13 195.076C1134.62 210.703 1205.24 200.765 1254.56 245.065C1290.71 277.608 1233.39 289.745 1212.5 288.304C1170.83 285.497 1121.85 273.208 1081.4 288C1050.49 299.303 1027.84 326.156 998.947 341.403C967.835 357.788 932.289 362.415 898.287 359.002C846.547 353.692 800.316 338.824 750.188 362.415C714.036 379.407 671.703 420.825 629.907 408.46C608.741 402.164 605.65 383.2 601.551 362.188C597.653 342.238 589.523 323.729 575.815 312.198C546.047 287.09 524.074 312.805 497.733 329.038C472.736 344.362 443.17 338.217 415.889 331.087C381.484 321.984 345.669 296.193 360.116 249.996C367.306 227.087 384.038 209.944 400.837 194.773C417.636 179.601 435.51 164.809 446.53 143.949C450.562 136.287 453.518 126.35 449.218 118.84C446.127 113.454 440.348 111.179 434.905 109.434C412.596 102.303 389.413 98.6624 366.231 98.5865C347.752 98.5107 326.72 102.455 316.775 120.054C302.529 145.238 319.059 184.759 299.841 205.317C288.149 217.757 268.461 215.102 255.492 204.482C242.523 193.786 234.594 177.25 226.934 161.32C219.274 145.39 210.874 129.005 197.368 119.144C181.308 107.462 160.948 107.234 141.864 108.448C93.6846 111.634 45.9083 122.102 0.147925 139.473L0.147933 92.7455L-0.0536051 92.7455Z" fill="white"/>
</svg>
