<svg width="312" height="231" viewBox="0 0 312 231" fill="none" xmlns="http://www.w3.org/2000/svg">
<path d="M-0.000840798 168.678C3.23298 165.943 8.02738 163.997 12.2201 162.782C22.2226 158.985 32.8644 156.202 43.4875 157.32C52.8697 158.155 61.9131 162.386 68.6444 169.127C77.5562 162.477 89.0254 159.882 100.156 160.682C111.193 161.895 121.703 167.327 129.074 175.082C128.66 174.988 136.463 169.388 136.971 169.069C140.016 167.159 143.795 165.85 147.067 164.86C154.023 162.973 161.657 163.844 168.501 166.271C169.648 166.966 171.208 167.756 172.355 168.451C172.769 168.545 173.502 169.146 174.236 169.747C174.424 168.922 174.612 168.097 174.706 167.684C174.988 166.447 175.777 164.891 176.473 163.747C180.045 157.617 186.005 152.465 192.322 149.564C195.688 148.161 199.373 147.265 202.964 146.781C203.885 146.557 213.042 146.473 212.948 146.885C213.737 135.781 219.171 125.301 227.029 117.544C235.302 109.881 246 104.94 257.318 104.915C258.559 95.6495 263.203 86.7257 269.953 80.0176C277.718 72.6727 288.228 68.5572 298.136 65.1727C302.329 63.9579 307.029 62.4248 311.354 62.542C293.022 57.0636 273.524 54.7915 254.835 56.6097C243.648 57.967 233.1 60.3379 223.004 64.5476C218.68 73.9783 213.209 82.7138 207.644 91.8618C204.166 97.5793 200.781 102.884 195.743 107.812C193.336 110.736 190.516 113.565 187.376 115.888C187.376 115.888 187.376 115.888 186.869 116.206C182.619 119.578 178.051 122.443 173.576 124.896C173.256 124.389 173.031 123.47 172.711 122.963C171.752 121.442 170.285 120.24 168.819 119.038C169.101 117.8 169.063 116.056 168.744 115.549C168.386 113.298 166.788 110.763 164.4 109.785C164.851 111.624 164.795 113.781 163.498 115.656C163.404 116.068 163.404 116.068 162.896 116.387C160.414 115.821 157.839 115.669 155.488 116.435C153.138 117.202 151.014 118.888 149.717 120.762C149.303 120.668 149.303 120.668 148.889 120.573C146.915 119.69 145.542 118.075 144.677 116.142C143.286 118.429 143.55 121.093 144.734 123.533C145.054 124.04 146.013 125.56 147.16 126.255C146.69 128.318 146.219 130.381 146.351 131.713C146.577 132.633 146.483 133.045 146.709 133.965C141.275 134.897 135.521 135.322 129.862 135.335C125.951 135.312 122.135 134.876 118.412 134.028C111.606 133.345 105.589 131.106 99.1584 128.773C89.513 125.274 79.5481 121.268 70.5982 116.625C59.9565 119.408 49.8598 123.618 40.2147 129.667C24.7976 140.042 11.2985 153.458 -0.000840798 168.678ZM163.554 123.047C165.397 122.598 166.074 125.357 164.232 125.805C162.389 126.253 161.618 123.907 163.554 123.047ZM155.996 125.665C157.839 125.216 158.516 127.975 156.674 128.423C154.831 128.871 154.06 126.525 155.996 125.665Z" fill="#11161B"/>
</svg>
