<svg width="521" height="193" viewBox="0 0 521 193" fill="none" xmlns="http://www.w3.org/2000/svg">
<g filter="url(#filter0_d)">
<path fill-rule="evenodd" clip-rule="evenodd" d="M15.4125 98.6606C12.0298 98.4734 8.65167 98.2632 5.27422 98.0353C4.61435 97.9904 4.0751 98.6121 4.07066 99.4236C4.06621 100.235 4.59834 100.931 5.25821 100.976C8.29842 101.177 11.3391 101.367 14.3777 101.545C14.5494 101.694 14.8931 101.915 15.4781 102.057C33.7039 106.354 53.2979 104.262 71.8528 103.348C89.2633 103.493 106.677 103.32 124.093 102.978C122.02 103.15 119.948 103.316 117.874 103.471C117.443 103.505 116.325 103.596 116.171 103.638C115.296 103.898 115.287 104.827 115.294 105.063C115.297 105.181 115.386 106.485 116.577 106.567C129.366 107.426 142.124 106.47 154.828 105.643C159.554 105.335 164.275 105.014 168.999 104.681C170.641 104.561 174.919 104.46 175.507 104.344C176.139 104.216 176.378 103.731 176.467 103.352C186.721 102.943 196.987 102.63 207.257 102.405C209.27 102.473 211.28 102.547 213.29 102.621C235.194 103.449 257.094 104.377 278.996 105.087C266.804 105.354 254.583 105.676 242.416 106.287C239.924 106.412 237.437 106.62 234.946 106.769C233.585 106.845 230.062 106.783 229.568 106.963C228.834 107.239 228.728 107.933 228.714 108.279C228.706 108.49 228.779 109.669 230.027 110.003C253.162 116.237 276.698 118.208 300.098 120.517C306.254 121.123 312.408 121.758 318.561 122.416C303.881 122.214 289.039 121.041 274.372 120.093C274.237 119.937 274.043 119.786 273.768 119.678C273.364 119.515 272.116 119.28 269.844 118.994C269.355 118.933 268.918 119.243 268.711 119.737C265.226 119.533 261.752 119.347 258.294 119.198C246.969 118.71 235.652 118.716 224.33 118.293L221.767 118.169L221.233 118.144C219.27 118.034 216.868 117.887 215.272 117.79C214.351 117.727 211.956 117.633 211.625 117.631C210.627 117.636 210.474 118.766 210.467 118.819C210.464 118.848 210.504 120.506 211.871 120.595C212.787 120.657 216.24 120.835 221.082 121.075C222.298 121.141 223.366 121.197 224.002 121.222L224.491 121.241C239.972 121.981 264.779 123.054 271.795 122.868C294.653 124.292 317.988 126.441 340.514 124.798C341.253 124.74 341.573 124.458 341.636 124.395C341.979 124.027 342.046 123.599 342.026 123.227C342.014 122.99 341.902 122.03 340.963 121.777C340.302 121.596 335.557 121.32 333.728 121.12C322.546 119.894 311.362 118.686 300.175 117.584C280.003 115.592 259.729 113.864 239.698 109.405C240.674 109.339 241.65 109.278 242.627 109.23C254.964 108.608 267.357 108.282 279.716 108.016C318.097 107.189 357.452 111.45 395.628 108.777C396.411 108.724 396.756 108.445 396.823 108.382C397.187 108.011 397.253 107.565 397.232 107.186C397.22 106.956 397.1 105.983 396.143 105.734C395.353 105.527 389.68 105.223 387.494 105C378.767 104.11 370.033 103.213 361.301 102.576C346.887 101.527 332.446 100.699 318.012 100.119C316.774 99.7323 315.493 99.3701 314.17 99.0326C323.899 99.1647 333.625 99.3964 343.349 99.7633C383.211 101.251 423.075 103.534 462.937 106.175C479.447 107.272 496.209 109.509 512.711 109.746C513.296 109.753 514.594 109.946 515.232 109.954C515.596 109.959 515.862 109.889 515.989 109.833C516.516 109.586 516.681 109.117 516.733 108.746C516.777 108.457 516.854 107.506 515.862 106.936C494.536 94.6576 461.013 97.3263 438.998 95.3912C349.106 87.4911 259.272 87.241 169.63 89.972C133.789 91.0616 98.0397 92.1907 62.2951 94.6797C49.6103 95.5618 36.9048 96.1887 24.2969 97.8444C22.6514 98.0648 19.1676 98.225 16.9374 98.4443C16.3371 98.506 15.8148 98.5824 15.4125 98.6606ZM509.116 106.722C488.123 97.906 458.795 100.071 438.942 98.3269C349.127 90.4355 259.369 90.1822 169.803 92.91C133.988 94.0024 98.2641 95.1287 62.5439 97.6205C53.457 98.2492 44.3587 98.7531 35.2949 99.5963C47.4244 100.046 59.5554 100.302 71.7015 100.406C74.2267 100.279 76.7349 100.174 79.2175 100.112C109.709 99.3434 140.269 98.6294 170.843 98.7994C180.95 98.4858 191.058 98.1544 201.174 97.8299C220.742 96.3706 247.453 94.2694 272.062 94.6084C280.527 94.7274 288.746 95.1362 296.345 95.9636C312.007 95.9821 327.658 96.2347 343.307 96.8224C383.188 98.3066 423.07 100.597 462.956 103.241C478.26 104.255 493.778 106.258 509.116 106.722ZM317.82 103.051C308.571 102.685 299.327 102.425 290.097 102.273C285.99 102.21 281.881 102.153 277.772 102.107C280.017 102.184 282.261 102.254 284.506 102.319C295.041 102.642 305.601 102.985 316.132 103.061C316.655 103.061 317.357 103.105 318.144 103.158L317.834 103.059L317.82 103.051ZM374.814 106.671C370.302 106.244 365.788 105.841 361.274 105.515C349.559 104.665 337.826 103.954 326.092 103.407C326.377 103.639 326.529 103.857 326.599 103.994C326.805 104.382 326.843 104.757 326.802 105.094C326.778 105.303 326.718 105.549 326.577 105.78C342.688 106.326 358.819 106.915 374.814 106.671ZM301.9 99.585C300.131 99.3326 298.319 99.1047 296.469 98.9019C287.313 98.8934 278.157 98.9554 269.012 99.0775C276.01 99.1369 283.013 99.2204 290.013 99.3332C293.974 99.3973 297.936 99.4793 301.9 99.585Z" fill="black"/>
<g filter="url(#filter1_d)">
<path d="M102.551 52.7903C99.03 54.2951 95.5095 56.3013 91.9889 58.642C88.4684 60.9827 85.4508 63.4905 82.9361 66.4999C80.4214 69.3422 78.4097 72.5188 77.2362 75.6954C76.0627 78.872 75.895 82.2158 76.7332 85.5596C77.5715 88.9034 79.2479 91.9128 81.7626 94.4207C84.2773 96.9285 87.2949 98.9348 90.8154 100.439C94.336 101.944 98.3595 102.78 102.718 102.947C107.077 103.115 111.603 102.613 116.298 101.443L126.189 80.2095L134.403 120.837L115.627 109.635C109.759 110.972 104.227 111.474 98.8624 110.972C93.4978 110.471 88.636 109.301 84.2773 107.294C79.9185 105.288 76.0627 102.613 73.045 99.2692C70.0274 95.9254 67.848 92.08 66.8422 87.7331C65.6686 83.2189 65.6686 78.7048 67.1775 74.3579C68.5186 70.0109 70.8657 65.8312 74.0509 61.8186C77.2362 57.806 81.2597 54.2951 85.9537 50.9513C90.6478 47.6075 95.6771 44.7652 101.042 42.2574C102.048 40.4183 103.389 38.0776 104.73 35.5698C106.239 32.8947 107.58 30.5541 108.921 28.0462C110.262 25.7056 111.436 23.6993 112.274 22.1946C113.112 20.6899 113.615 19.8539 113.448 20.0211C113.28 20.1883 113.448 21.0242 113.448 22.6961C113.448 24.368 113.783 26.5415 113.95 29.2165C114.286 31.8916 114.453 34.901 114.789 38.2448C115.124 41.5886 115.459 45.0996 115.795 48.6106C116.13 52.1216 116.465 55.6326 116.8 58.9764C117.136 62.3202 117.303 65.3296 117.639 68.0046L102.551 52.7903Z" fill="white"/>
<path d="M133.565 72.3515L160.22 70.8468L160.891 89.2377C162.065 87.2314 163.406 84.8908 164.915 82.0486C166.423 79.2063 168.1 76.8657 169.776 74.3578C171.453 72.0172 173.297 70.0109 174.973 68.339C176.65 66.8343 178.326 66.1655 180.003 66.3327C181.176 66.4999 182.517 66.8343 183.691 67.503C185.032 68.1718 186.205 68.8405 187.211 69.6765C188.385 70.5124 189.223 71.5156 189.894 72.5187C190.564 73.6891 190.9 74.8594 191.067 76.0297C191.235 77.2 190.9 78.3704 190.397 79.7079C189.894 80.8782 189.223 82.0486 188.217 83.0517C187.211 84.0548 186.205 84.8908 185.032 85.5595C183.858 86.2283 182.685 86.5627 181.511 86.7299C179.5 86.8971 177.656 86.2283 175.979 84.7236C174.303 83.2189 173.297 81.3798 173.129 79.0391C172.123 80.0423 171.117 81.3798 169.944 83.2189C168.77 84.8908 167.597 86.7299 166.591 88.7362C165.417 90.7424 164.412 92.7487 163.573 94.755C162.735 96.7613 162.065 98.6004 161.729 100.105L162.065 108.465L191.905 123.846L131.385 116.991L153.515 111.14V81.0454L133.565 72.3515Z" fill="white"/>
<path d="M246.055 135.215C243.037 135.382 239.684 134.713 236.332 133.543C232.979 132.373 229.626 130.701 226.273 128.527C223.088 126.354 219.902 123.846 216.885 120.837C213.867 117.827 211.352 114.651 209.005 111.307C206.658 107.963 204.814 104.452 203.473 100.774C202.132 97.0956 201.294 93.5846 201.294 90.0736C201.126 87.5657 201.797 84.8907 202.803 82.2157C203.976 79.5406 205.485 77.0328 207.329 74.6921C209.341 72.3515 211.52 70.5124 214.035 69.0076C216.549 67.5029 219.064 66.4998 221.579 66.1654C224.764 65.831 228.117 66.3326 231.302 67.8373C234.487 69.342 237.673 71.1811 240.523 73.5218C243.373 75.8624 245.887 78.5375 248.067 81.3797C250.246 84.2219 251.923 87.0642 253.264 89.4048L214.538 94.0862C214.705 97.43 215.376 100.941 216.717 104.118C218.058 107.461 219.735 110.638 221.914 113.815C224.093 116.991 226.608 120.001 229.626 123.01C232.643 126.019 235.829 128.862 239.182 131.537L242.032 132.205L241.696 130.868C241.361 129.698 241.361 128.527 241.696 127.357C242.032 126.187 242.534 125.183 243.205 124.348C243.876 123.512 244.882 123.01 245.72 122.843C246.558 122.676 247.396 122.843 248.402 123.344C249.408 123.846 249.911 124.515 250.414 125.518C250.917 126.521 251.252 127.691 251.42 129.196C251.587 130.701 251.252 131.871 250.581 132.874C250.079 133.71 249.408 134.212 248.57 134.546C248.067 135.048 247.061 135.215 246.055 135.215L245.72 135.048L246.055 135.215ZM212.861 84.5563L240.523 83.2188C239.852 82.0485 238.846 81.0453 237.673 80.0422C236.499 79.0391 234.99 78.0359 233.482 77.2C231.973 76.364 230.464 75.6952 228.788 75.3609C227.111 74.8593 225.602 74.8593 224.094 75.0265C221.579 75.3609 219.399 76.364 217.555 78.0359C215.711 79.7078 214.202 81.8813 212.861 84.5563Z" fill="white"/>
<path d="M304.395 135.215C301.378 135.382 298.025 134.713 294.672 133.543C291.319 132.373 287.966 130.701 284.613 128.527C281.428 126.354 278.243 123.846 275.225 120.837C272.208 117.827 269.693 114.651 267.346 111.307C264.999 107.963 263.155 104.452 261.814 100.774C260.472 97.0956 259.634 93.5846 259.634 90.0736C259.467 87.5657 260.137 84.8907 261.143 82.2157C262.317 79.5406 263.825 77.0328 265.669 74.6921C267.681 72.3515 269.861 70.5124 272.375 69.0076C274.89 67.5029 277.405 66.4998 279.919 66.1654C283.105 65.831 286.457 66.3326 289.643 67.8373C292.828 69.342 296.013 71.1811 298.863 73.5218C301.713 75.8624 304.228 78.5375 306.407 81.3797C308.587 84.2219 310.263 87.0642 311.604 89.4048L272.878 94.0862C273.046 97.43 273.716 100.941 275.058 104.118C276.399 107.461 278.075 110.638 280.255 113.815C282.434 116.991 284.949 120.001 287.966 123.01C290.984 126.019 294.169 128.862 297.522 131.537L300.372 132.205L300.037 130.868C299.701 129.698 299.701 128.527 300.037 127.357C300.372 126.187 300.875 125.183 301.546 124.348C302.216 123.512 303.222 123.01 304.06 122.843C304.898 122.676 305.737 122.843 306.743 123.344C307.748 123.846 308.251 124.515 308.754 125.518C309.257 126.521 309.592 127.691 309.76 129.196C309.928 130.701 309.592 131.871 308.922 132.874C308.419 133.71 307.748 134.212 306.91 134.546C306.24 135.048 305.401 135.215 304.395 135.215L304.06 135.048L304.395 135.215ZM271.202 84.5563L298.863 83.2188C298.193 82.0485 297.187 81.0453 296.013 80.0422C294.84 79.0391 293.331 78.0359 291.822 77.2C290.313 76.364 288.804 75.6952 287.128 75.3609C285.452 74.8593 283.943 74.8593 282.434 75.0265C279.919 75.3609 277.74 76.364 275.896 78.0359C274.052 79.7078 272.375 81.8813 271.202 84.5563Z" fill="white"/>
<path d="M315.292 173L333.566 153.439L328.704 78.5376L308.251 70.8468L339.266 67.8374L340.272 82.3829L343.457 80.2095C345.972 78.7048 348.654 77.7016 351.504 77.0329C354.354 76.3641 357.036 76.1969 359.383 76.1969C361.227 76.3641 363.071 76.8657 364.915 77.8688C366.76 78.8719 368.436 80.3767 369.945 82.0486C371.454 83.7205 372.627 85.5595 373.465 87.5658C374.304 89.5721 374.639 91.7456 374.639 93.7519C374.471 96.2597 373.968 98.7676 373.13 101.443C372.292 104.118 371.118 106.625 369.442 108.966C367.765 111.307 365.586 113.146 363.071 114.651C360.557 116.155 357.371 116.824 353.683 116.824C351.001 116.824 348.319 116.155 345.636 114.985L342.619 112.979L345.301 151.098L366.089 160.795L315.292 173ZM351.504 108.632C353.516 108.632 355.192 108.297 356.533 107.461C357.874 106.793 358.88 105.79 359.718 104.619C360.557 103.449 361.06 102.279 361.563 100.774C361.898 99.4363 362.065 98.0988 362.065 96.9285C362.065 95.9253 361.73 94.9222 361.227 93.7519C360.724 92.7487 360.054 91.7456 359.215 90.9096C358.377 90.0737 357.539 89.4049 356.366 88.9033C355.192 88.4018 354.354 88.0674 353.348 88.0674C351.336 87.9002 349.324 88.4018 346.977 89.0705C344.63 89.9065 342.954 91.0768 341.613 92.5815L340.775 93.9191L341.445 102.446L341.78 103.282C342.954 104.786 344.295 106.124 345.972 106.96C347.983 107.963 349.827 108.465 351.504 108.632Z" fill="white"/>
<path d="M422.418 94.0864L412.024 75.1939C406.659 75.8627 402.803 77.2002 400.791 78.8721C398.612 80.7112 397.606 83.0519 397.438 86.0613C397.271 87.3988 397.606 88.5691 398.277 89.5723C398.947 90.5754 399.786 91.5785 400.791 92.4145C401.797 93.2504 403.138 93.9192 404.647 94.588C406.156 95.2567 407.665 95.9255 409.341 96.4271C411.185 97.263 413.03 98.2661 414.706 99.4365C416.382 100.607 417.724 102.112 418.897 103.616C420.071 105.121 420.909 106.793 421.412 108.632C421.915 110.304 422.082 112.143 421.915 113.982C421.579 116.49 420.574 118.831 418.897 121.004C417.221 123.177 415.209 125.017 412.862 126.521C410.515 128.026 408 129.363 405.318 130.534C402.635 131.537 399.953 132.373 397.438 132.874L383.859 143.742V108.799L400.121 123.512C401.63 123.846 402.971 123.846 404.48 123.512C405.821 123.177 407.162 122.843 408.335 122.174C409.509 121.506 410.515 120.502 411.185 119.332C411.856 118.162 412.359 116.824 412.359 115.152C412.359 112.644 412.024 110.137 410.85 107.629C409.844 105.121 407.665 103.115 404.815 101.777C403.138 100.941 401.294 99.938 399.115 98.9349C397.103 97.9318 395.091 96.7614 393.415 95.5911C391.739 94.4208 390.23 92.9161 389.056 91.4114C387.883 89.9066 387.38 88.2347 387.547 86.2285C387.547 83.5534 388.386 81.0456 390.062 78.8721C391.571 76.5314 393.583 74.6923 396.097 73.0204C398.612 71.3485 401.294 70.011 404.312 69.1751C407.33 68.1719 410.347 67.8376 413.532 67.8376L428.788 51.6201L422.418 94.0864Z" fill="white"/>
</g>
<g filter="url(#filter2_d)">
<path d="M102.551 52.7903C99.03 54.2951 95.5095 56.3013 91.9889 58.642C88.4684 60.9827 85.4508 63.4905 82.9361 66.4999C80.4214 69.3422 78.4097 72.5188 77.2362 75.6954C76.0627 78.872 75.895 82.2158 76.7332 85.5596C77.5715 88.9034 79.2479 91.9128 81.7626 94.4207C84.2773 96.9285 87.2949 98.9348 90.8154 100.439C94.336 101.944 98.3595 102.78 102.718 102.947C107.077 103.115 111.603 102.613 116.298 101.443L126.189 80.2095L134.403 120.837L115.627 109.635C109.759 110.972 104.227 111.474 98.8624 110.972C93.4978 110.471 88.636 109.301 84.2773 107.294C79.9185 105.288 76.0627 102.613 73.045 99.2692C70.0274 95.9254 67.848 92.08 66.8422 87.7331C65.6686 83.2189 65.6686 78.7048 67.1775 74.3579C68.5186 70.0109 70.8657 65.8312 74.0509 61.8186C77.2362 57.806 81.2597 54.2951 85.9537 50.9513C90.6478 47.6075 95.6771 44.7652 101.042 42.2574C102.048 40.4183 103.389 38.0776 104.73 35.5698C106.239 32.8947 107.58 30.5541 108.921 28.0462C110.262 25.7056 111.436 23.6993 112.274 22.1946C113.112 20.6899 113.615 19.8539 113.448 20.0211C113.28 20.1883 113.448 21.0242 113.448 22.6961C113.448 24.368 113.783 26.5415 113.95 29.2165C114.286 31.8916 114.453 34.901 114.789 38.2448C115.124 41.5886 115.459 45.0996 115.795 48.6106C116.13 52.1216 116.465 55.6326 116.8 58.9764C117.136 62.3202 117.303 65.3296 117.639 68.0046L102.551 52.7903Z" fill="#FFDD00"/>
<path d="M133.565 72.3515L160.22 70.8468L160.891 89.2377C162.065 87.2314 163.406 84.8908 164.915 82.0486C166.423 79.2063 168.1 76.8657 169.776 74.3578C171.453 72.0172 173.297 70.0109 174.973 68.339C176.65 66.8343 178.326 66.1655 180.003 66.3327C181.176 66.4999 182.517 66.8343 183.691 67.503C185.032 68.1718 186.205 68.8405 187.211 69.6765C188.385 70.5124 189.223 71.5156 189.894 72.5187C190.564 73.6891 190.9 74.8594 191.067 76.0297C191.235 77.2 190.9 78.3704 190.397 79.7079C189.894 80.8782 189.223 82.0486 188.217 83.0517C187.211 84.0548 186.205 84.8908 185.032 85.5595C183.858 86.2283 182.685 86.5627 181.511 86.7299C179.5 86.8971 177.656 86.2283 175.979 84.7236C174.303 83.2189 173.297 81.3798 173.129 79.0391C172.123 80.0423 171.117 81.3798 169.944 83.2189C168.77 84.8908 167.597 86.7299 166.591 88.7362C165.417 90.7424 164.412 92.7487 163.573 94.755C162.735 96.7613 162.065 98.6004 161.729 100.105L162.065 108.465L191.905 123.846L131.385 116.991L153.515 111.14V81.0454L133.565 72.3515Z" fill="#FFDD00"/>
<path d="M246.055 135.215C243.037 135.382 239.684 134.713 236.332 133.543C232.979 132.373 229.626 130.701 226.273 128.527C223.088 126.354 219.902 123.846 216.885 120.837C213.867 117.827 211.352 114.651 209.005 111.307C206.658 107.963 204.814 104.452 203.473 100.774C202.132 97.0956 201.294 93.5846 201.294 90.0736C201.126 87.5657 201.797 84.8907 202.803 82.2157C203.976 79.5406 205.485 77.0328 207.329 74.6921C209.341 72.3515 211.52 70.5124 214.035 69.0076C216.549 67.5029 219.064 66.4998 221.579 66.1654C224.764 65.831 228.117 66.3326 231.302 67.8373C234.487 69.342 237.673 71.1811 240.523 73.5218C243.373 75.8624 245.887 78.5375 248.067 81.3797C250.246 84.2219 251.923 87.0642 253.264 89.4048L214.538 94.0862C214.705 97.43 215.376 100.941 216.717 104.118C218.058 107.461 219.735 110.638 221.914 113.815C224.093 116.991 226.608 120.001 229.626 123.01C232.643 126.019 235.829 128.862 239.182 131.537L242.032 132.205L241.696 130.868C241.361 129.698 241.361 128.527 241.696 127.357C242.032 126.187 242.534 125.183 243.205 124.348C243.876 123.512 244.882 123.01 245.72 122.843C246.558 122.676 247.396 122.843 248.402 123.344C249.408 123.846 249.911 124.515 250.414 125.518C250.917 126.521 251.252 127.691 251.42 129.196C251.587 130.701 251.252 131.871 250.581 132.874C250.079 133.71 249.408 134.212 248.57 134.546C248.067 135.048 247.061 135.215 246.055 135.215L245.72 135.048L246.055 135.215ZM212.861 84.5563L240.523 83.2188C239.852 82.0485 238.846 81.0453 237.673 80.0422C236.499 79.0391 234.99 78.0359 233.482 77.2C231.973 76.364 230.464 75.6952 228.788 75.3609C227.111 74.8593 225.602 74.8593 224.094 75.0265C221.579 75.3609 219.399 76.364 217.555 78.0359C215.711 79.7078 214.202 81.8813 212.861 84.5563Z" fill="#FFDD00"/>
<path d="M304.395 135.215C301.378 135.382 298.025 134.713 294.672 133.543C291.319 132.373 287.966 130.701 284.613 128.527C281.428 126.354 278.243 123.846 275.225 120.837C272.208 117.827 269.693 114.651 267.346 111.307C264.999 107.963 263.155 104.452 261.814 100.774C260.472 97.0956 259.634 93.5846 259.634 90.0736C259.467 87.5657 260.137 84.8907 261.143 82.2157C262.317 79.5406 263.825 77.0328 265.669 74.6921C267.681 72.3515 269.861 70.5124 272.375 69.0076C274.89 67.5029 277.405 66.4998 279.919 66.1654C283.105 65.831 286.457 66.3326 289.643 67.8373C292.828 69.342 296.013 71.1811 298.863 73.5218C301.713 75.8624 304.228 78.5375 306.407 81.3797C308.587 84.2219 310.263 87.0642 311.604 89.4048L272.878 94.0862C273.046 97.43 273.716 100.941 275.058 104.118C276.399 107.461 278.075 110.638 280.255 113.815C282.434 116.991 284.949 120.001 287.966 123.01C290.984 126.019 294.169 128.862 297.522 131.537L300.372 132.205L300.037 130.868C299.701 129.698 299.701 128.527 300.037 127.357C300.372 126.187 300.875 125.183 301.546 124.348C302.216 123.512 303.222 123.01 304.06 122.843C304.898 122.676 305.737 122.843 306.743 123.344C307.748 123.846 308.251 124.515 308.754 125.518C309.257 126.521 309.592 127.691 309.76 129.196C309.928 130.701 309.592 131.871 308.922 132.874C308.419 133.71 307.748 134.212 306.91 134.546C306.24 135.048 305.401 135.215 304.395 135.215L304.06 135.048L304.395 135.215ZM271.202 84.5563L298.863 83.2188C298.193 82.0485 297.187 81.0453 296.013 80.0422C294.84 79.0391 293.331 78.0359 291.822 77.2C290.313 76.364 288.804 75.6952 287.128 75.3609C285.452 74.8593 283.943 74.8593 282.434 75.0265C279.919 75.3609 277.74 76.364 275.896 78.0359C274.052 79.7078 272.375 81.8813 271.202 84.5563Z" fill="#FFDD00"/>
<path d="M315.292 173L333.566 153.439L328.704 78.5376L308.251 70.8468L339.266 67.8374L340.272 82.3829L343.457 80.2095C345.972 78.7048 348.654 77.7016 351.504 77.0329C354.354 76.3641 357.036 76.1969 359.383 76.1969C361.227 76.3641 363.071 76.8657 364.915 77.8688C366.76 78.8719 368.436 80.3767 369.945 82.0486C371.454 83.7205 372.627 85.5595 373.465 87.5658C374.304 89.5721 374.639 91.7456 374.639 93.7519C374.471 96.2597 373.968 98.7676 373.13 101.443C372.292 104.118 371.118 106.625 369.442 108.966C367.765 111.307 365.586 113.146 363.071 114.651C360.557 116.155 357.371 116.824 353.683 116.824C351.001 116.824 348.319 116.155 345.636 114.985L342.619 112.979L345.301 151.098L366.089 160.795L315.292 173ZM351.504 108.632C353.516 108.632 355.192 108.297 356.533 107.461C357.874 106.793 358.88 105.79 359.718 104.619C360.557 103.449 361.06 102.279 361.563 100.774C361.898 99.4363 362.065 98.0988 362.065 96.9285C362.065 95.9253 361.73 94.9222 361.227 93.7519C360.724 92.7487 360.054 91.7456 359.215 90.9096C358.377 90.0737 357.539 89.4049 356.366 88.9033C355.192 88.4018 354.354 88.0674 353.348 88.0674C351.336 87.9002 349.324 88.4018 346.977 89.0705C344.63 89.9065 342.954 91.0768 341.613 92.5815L340.775 93.9191L341.445 102.446L341.78 103.282C342.954 104.786 344.295 106.124 345.972 106.96C347.983 107.963 349.827 108.465 351.504 108.632Z" fill="#FFDD00"/>
<path d="M422.418 94.0864L412.024 75.1939C406.659 75.8627 402.803 77.2002 400.791 78.8721C398.612 80.7112 397.606 83.0519 397.438 86.0613C397.271 87.3988 397.606 88.5691 398.277 89.5723C398.947 90.5754 399.786 91.5785 400.791 92.4145C401.797 93.2504 403.138 93.9192 404.647 94.588C406.156 95.2567 407.665 95.9255 409.341 96.4271C411.185 97.263 413.03 98.2661 414.706 99.4365C416.382 100.607 417.724 102.112 418.897 103.616C420.071 105.121 420.909 106.793 421.412 108.632C421.915 110.304 422.082 112.143 421.915 113.982C421.579 116.49 420.574 118.831 418.897 121.004C417.221 123.177 415.209 125.017 412.862 126.521C410.515 128.026 408 129.363 405.318 130.534C402.635 131.537 399.953 132.373 397.438 132.874L383.859 143.742V108.799L400.121 123.512C401.63 123.846 402.971 123.846 404.48 123.512C405.821 123.177 407.162 122.843 408.335 122.174C409.509 121.506 410.515 120.502 411.185 119.332C411.856 118.162 412.359 116.824 412.359 115.152C412.359 112.644 412.024 110.137 410.85 107.629C409.844 105.121 407.665 103.115 404.815 101.777C403.138 100.941 401.294 99.938 399.115 98.9349C397.103 97.9318 395.091 96.7614 393.415 95.5911C391.739 94.4208 390.23 92.9161 389.056 91.4114C387.883 89.9066 387.38 88.2347 387.547 86.2285C387.547 83.5534 388.386 81.0456 390.062 78.8721C391.571 76.5314 393.583 74.6923 396.097 73.0204C398.612 71.3485 401.294 70.011 404.312 69.1751C407.33 68.1719 410.347 67.8376 413.532 67.8376L428.788 51.6201L422.418 94.0864Z" fill="#FFDD00"/>
</g>
</g>
<defs>
<filter id="filter0_d" x="0" y="20" width="521" height="161" filterUnits="userSpaceOnUse" color-interpolation-filters="sRGB">
<feFlood flood-opacity="0" result="BackgroundImageFix"/>
<feColorMatrix in="SourceAlpha" type="matrix" values="0 0 0 0 0 0 0 0 0 0 0 0 0 0 0 0 0 0 127 0" result="hardAlpha"/>
<feOffset dy="4"/>
<feGaussianBlur stdDeviation="2"/>
<feComposite in2="hardAlpha" operator="out"/>
<feColorMatrix type="matrix" values="0 0 0 0 0 0 0 0 0 0 0 0 0 0 0 0 0 0 0.25 0"/>
<feBlend mode="normal" in2="BackgroundImageFix" result="effect1_dropShadow"/>
<feBlend mode="normal" in="SourceGraphic" in2="effect1_dropShadow" result="shape"/>
</filter>
<filter id="filter1_d" x="66" y="20" width="365.788" height="156" filterUnits="userSpaceOnUse" color-interpolation-filters="sRGB">
<feFlood flood-opacity="0" result="BackgroundImageFix"/>
<feColorMatrix in="SourceAlpha" type="matrix" values="0 0 0 0 0 0 0 0 0 0 0 0 0 0 0 0 0 0 127 0" result="hardAlpha"/>
<feOffset dx="3" dy="3"/>
<feComposite in2="hardAlpha" operator="out"/>
<feColorMatrix type="matrix" values="0 0 0 0 1 0 0 0 0 0.537255 0 0 0 0 0 0 0 0 1 0"/>
<feBlend mode="normal" in2="BackgroundImageFix" result="effect1_dropShadow"/>
<feBlend mode="normal" in="SourceGraphic" in2="effect1_dropShadow" result="shape"/>
</filter>
<filter id="filter2_d" x="46" y="0" width="402.788" height="193" filterUnits="userSpaceOnUse" color-interpolation-filters="sRGB">
<feFlood flood-opacity="0" result="BackgroundImageFix"/>
<feColorMatrix in="SourceAlpha" type="matrix" values="0 0 0 0 0 0 0 0 0 0 0 0 0 0 0 0 0 0 127 0" result="hardAlpha"/>
<feOffset/>
<feGaussianBlur stdDeviation="10"/>
<feComposite in2="hardAlpha" operator="out"/>
<feColorMatrix type="matrix" values="0 0 0 0 1 0 0 0 0 0.866667 0 0 0 0 0 0 0 0 1 0"/>
<feBlend mode="normal" in2="BackgroundImageFix" result="effect1_dropShadow"/>
<feBlend mode="normal" in="SourceGraphic" in2="effect1_dropShadow" result="shape"/>
</filter>
</defs>
</svg>
