<svg width="376" height="578" viewBox="0 0 376 578" fill="none" xmlns="http://www.w3.org/2000/svg">
<path d="M292.255 545.509C273.454 437.775 252.945 331.752 227.309 225.728C275.164 215.467 326.436 206.917 376 203.497C369.164 182.976 369.164 159.035 367.455 136.805C319.6 152.195 271.745 164.166 222.182 174.426C208.509 124.834 189.709 51.3018 188 0C164.073 6.84024 138.436 11.9704 114.509 17.1006C131.6 64.9822 148.691 136.805 150.4 188.106C107.673 193.237 41.0182 200.077 0 200.077C3.41818 218.888 8.5454 237.698 11.9636 256.509C51.2727 251.379 114.509 239.408 153.818 227.438C179.455 343.722 203.382 461.716 229.018 578C254.655 571.16 271.745 562.609 292.255 545.509Z" fill="#11161B"/>
<path d="M192.736 65.3803C267.904 65.3803 327.698 126.911 327.698 200.405C327.698 275.608 266.196 335.429 192.736 335.429C117.567 335.429 57.7733 273.899 57.7733 200.405C57.7733 125.201 117.567 65.3803 192.736 65.3803ZM192.736 304.664C249.112 304.664 296.947 258.517 296.947 200.405C296.947 144.002 250.821 96.1455 192.736 96.1455C136.359 96.1455 88.5241 142.293 88.5241 200.405C88.5241 258.517 136.359 304.664 192.736 304.664Z" fill="#11161B"/>
</svg>
