<svg width="20" height="14" viewBox="0 0 20 14" fill="none" xmlns="http://www.w3.org/2000/svg">
<path fill-rule="evenodd" clip-rule="evenodd" d="M13.4949 12.601C13.9895 13.2199 14.5829 13.9202 14.5829 13.9202C18.2262 13.8062 19.6275 11.4447 19.6275 11.4447C19.6275 6.20066 17.2536 1.95003 17.2536 1.95003C14.8797 0.191146 12.6212 0.240004 12.6212 0.240004L12.3904 0.500578C15.1929 1.34745 16.4952 2.56889 16.4952 2.56889C14.7808 1.64059 13.0993 1.18459 11.5331 1.00544C10.3462 0.875155 9.20871 0.907727 8.2031 1.03801C8.11675 1.03801 8.04297 1.05043 7.95981 1.06441C7.94771 1.06645 7.93541 1.06852 7.92285 1.07059C7.34586 1.11944 5.94461 1.33116 4.18068 2.0966C3.57072 2.37346 3.20804 2.56889 3.20804 2.56889C3.20804 2.56889 4.57632 1.2823 7.54369 0.435435L7.37883 0.240004C7.37883 0.240004 5.12034 0.191146 2.74645 1.95003C2.74645 1.95003 0.372559 6.20066 0.372559 11.4447C0.372559 11.4447 1.75733 13.8062 5.40059 13.9202C5.40059 13.9202 6.01055 13.1873 6.50511 12.5685C4.41147 11.9496 3.62017 10.6467 3.62017 10.6467C3.62017 10.6467 3.78503 10.7607 4.08176 10.9236C4.09825 10.9399 4.11473 10.9562 4.1477 10.9724C4.17243 10.9887 4.19716 11.0009 4.22189 11.0131C4.24662 11.0254 4.27134 11.0376 4.29607 11.0539C4.70821 11.2819 5.12034 11.461 5.4995 11.6076C6.1754 11.8682 6.98319 12.1287 7.92285 12.3079C9.15925 12.5359 10.61 12.6173 12.1926 12.3242C12.9674 12.1939 13.7587 11.9659 14.5829 11.6239C15.1599 11.4122 15.8029 11.1027 16.4788 10.663C16.4788 10.663 15.6545 11.9985 13.4949 12.601ZM13.3512 6.61017C12.419 6.61017 11.683 7.44857 11.683 8.47142C11.683 9.49427 12.4353 10.3327 13.3512 10.3327C14.2835 10.3327 15.0195 9.49427 15.0195 8.47142C15.0195 7.44857 14.2835 6.61017 13.3512 6.61017ZM7.38153 6.61045C6.44927 6.61045 5.71328 7.44885 5.71328 8.4717C5.71328 9.49455 6.46563 10.3329 7.38153 10.3329C8.31379 10.3329 9.04979 9.49455 9.04979 8.4717C9.06614 7.44885 8.31379 6.61045 7.38153 6.61045Z" fill="#5A5471"/>
</svg>
