<svg width="32" height="39" viewBox="0 0 32 39" fill="none" xmlns="http://www.w3.org/2000/svg">
<path d="M12.5796 16.7143C13.6462 16.7143 14.5102 17.55 14.4907 18.5714C14.4907 19.5929 13.648 20.4286 12.5796 20.4286C11.5307 20.4286 10.6667 19.5929 10.6667 18.5714C10.6667 17.55 11.5111 16.7143 12.5796 16.7143ZM19.4204 16.7143C20.4889 16.7143 21.3333 17.55 21.3333 18.5714C21.3333 19.5929 20.4889 20.4286 19.4204 20.4286C18.3716 20.4286 17.5093 19.5929 17.5093 18.5714C17.5093 17.55 18.352 16.7143 19.4204 16.7143ZM28.2507 0C30.3182 0 32 1.794 32 4.017V39L28.0693 35.295L25.856 33.111L23.5147 30.7896L24.4853 34.398H3.74933C1.68178 34.398 0 32.604 0 30.381V4.017C0 1.794 1.68178 0 3.74933 0H28.2489H28.2507ZM21.1929 25.467C25.2338 25.3314 26.7893 22.503 26.7893 22.503C26.7893 16.224 24.1547 11.1336 24.1547 11.1336C21.5236 9.02943 19.0169 9.087 19.0169 9.087L18.7609 9.399C21.8702 10.413 23.3138 11.8764 23.3138 11.8764C21.6161 10.8773 19.7451 10.2409 17.8098 10.0044C16.5821 9.85958 15.3421 9.87205 14.1173 10.0416C14.0071 10.0416 13.9147 10.062 13.8062 10.0806C13.1662 10.14 11.6107 10.3926 9.65511 11.31C8.97956 11.6406 8.576 11.8764 8.576 11.8764C8.576 11.8764 10.0942 10.335 13.3849 9.321L13.2018 9.087C13.2018 9.087 10.6969 9.02943 8.064 11.1354C8.064 11.1354 5.43111 16.224 5.43111 22.503C5.43111 22.503 6.96711 25.3296 11.008 25.467C11.008 25.467 11.6836 24.5904 12.2347 23.8494C9.91111 23.1066 9.03467 21.5466 9.03467 21.5466C9.03467 21.5466 9.216 21.684 9.54489 21.879C9.56267 21.8976 9.58044 21.918 9.61778 21.9366C9.67289 21.9774 9.728 21.996 9.78311 22.035C10.24 22.308 10.6969 22.5216 11.1164 22.698C11.8667 23.01 12.7627 23.322 13.8062 23.5374C15.3695 23.8575 16.9767 23.8638 18.5422 23.556C19.4541 23.386 20.3437 23.1049 21.1929 22.7184C21.8329 22.464 22.5458 22.0926 23.296 21.567C23.296 21.567 22.3822 23.166 19.9858 23.8884C20.5351 24.6294 21.1947 25.467 21.1947 25.467H21.1929Z" fill="white"/>
</svg>
