<svg width="415" height="357" viewBox="0 0 415 357" fill="none" xmlns="http://www.w3.org/2000/svg">
<g clip-path="url(#clip0)">
<path d="M22.4131 74.3446L19.5211 311.138L13.7372 313.551L10.8452 74.3446H22.4131Z" fill="url(#paint0_linear)"/>
<path d="M247.265 272.759H147.009L20.0029 268.172L16.6288 273.483V285.552H246.542L247.265 272.759Z" fill="url(#paint1_linear)"/>
<path opacity="0.5" d="M10.8452 74.3446L11.5682 101.379L21.6901 131.31L22.4131 75.3101L10.8452 74.3446Z" fill="url(#paint2_linear)"/>
<path d="M20.0029 268.172L16.6288 273.483L172.555 276.862H247.265V272.759L160.505 273.241L20.0029 268.172Z" fill="url(#paint3_linear)"/>
<path d="M62.66 81.8271L61.937 269.62L57.8401 272.517L57.1171 80.6202L62.66 81.8271Z" fill="url(#paint4_linear)"/>
<path d="M57.8398 272.517L50.8508 271.31L47.9588 78.6896L57.1168 80.6206L57.8398 272.517Z" fill="url(#paint5_linear)"/>
<path opacity="0.5" d="M47.9591 86.4137C47.9591 86.4137 50.851 89.0689 54.466 96.0689C58.081 103.069 62.419 142.896 62.419 142.896L62.66 81.8275C62.66 81.8275 50.1281 79.1723 47.7181 78.6896L47.9591 86.4137Z" fill="url(#paint6_linear)"/>
<path d="M51.3329 63.4827L53.7429 55.0344L53.0199 49.9654L48.9229 48.5171C48.9229 48.5171 52.0559 36.4482 54.7069 30.4137C54.7069 30.4137 58.8038 40.793 59.7678 48.5171L55.9118 49.724V55.2758L58.0808 64.2068L51.3329 63.4827Z" fill="url(#paint7_linear)"/>
<path opacity="0.5" d="M60.0089 48.5172C60.0089 48.5172 53.02 49 48.923 48.5172L53.02 49.9655C53.02 49.9655 54.948 49.9655 56.153 49.7241L60.0089 48.5172Z" fill="url(#paint8_linear)"/>
<path opacity="0.5" d="M53.0199 49.9654L55.6709 48.5171C55.6709 48.5171 55.4299 33.793 54.9479 30.4137C54.9479 30.4137 58.8039 40.793 60.0089 48.5171L56.1529 49.724V55.2758L53.7429 55.0344L53.0199 49.9654Z" fill="url(#paint9_linear)"/>
<path d="M2.89206 57.6894L5.78404 47.3101L5.06103 41.2756L9.25064e-05 39.5859C9.25064e-05 39.5859 3.61507 24.8618 7.23004 17.379C7.23004 17.379 12.05 30.1721 13.496 39.5859L8.91702 41.0342V47.7928L11.568 58.8963L2.89206 57.6894Z" fill="url(#paint10_linear)"/>
<path opacity="0.5" d="M13.496 39.5858C13.496 39.5858 5.06106 40.0686 9.25064e-05 39.5858L5.06103 41.2755C5.06103 41.2755 7.47103 41.2755 8.91702 40.7927L13.496 39.5858Z" fill="url(#paint11_linear)"/>
<path opacity="0.5" d="M4.82001 41.2756L7.95297 39.5859C7.95297 39.5859 7.71195 21.4825 6.98896 17.379C6.98896 17.379 11.5679 30.1721 13.2549 39.5859L8.67593 41.0342V47.7928L5.543 47.5514L4.82001 41.2756Z" fill="url(#paint12_linear)"/>
<path d="M91.3384 71.4479L93.7484 62.9996L93.0254 57.9306L88.9285 56.4824C88.9285 56.4824 92.0614 44.4134 94.7124 38.3789C94.7124 38.3789 98.8093 48.7582 99.7733 56.4824L95.9174 57.6893V63.241L98.0863 72.172L91.3384 71.4479Z" fill="url(#paint13_linear)"/>
<path opacity="0.5" d="M100.015 56.4824C100.015 56.4824 93.0257 56.9652 88.9287 56.4824L93.0257 57.9307C93.0257 57.9307 94.9537 57.9307 96.1587 57.6893L100.015 56.4824Z" fill="url(#paint14_linear)"/>
<path opacity="0.5" d="M93.0257 57.9306L95.6767 56.4824C95.6767 56.4824 95.4357 41.7582 94.9537 38.3789C94.9537 38.3789 98.8097 48.7582 100.015 56.4824L96.1587 57.6893V63.241L93.7487 62.9996L93.0257 57.9306Z" fill="url(#paint15_linear)"/>
<path d="M138.333 90.5171L140.743 82.0688L140.02 76.9998L135.923 75.5516C135.923 75.5516 139.056 63.4826 141.707 57.4481C141.707 57.4481 145.804 67.8274 146.768 75.5516L142.912 76.7585V82.3102L145.081 91.2412L138.333 90.5171Z" fill="url(#paint16_linear)"/>
<path opacity="0.5" d="M146.768 75.5516C146.768 75.5516 139.779 76.0344 135.682 75.5516L139.779 76.9999C139.779 76.9999 141.707 76.9999 142.912 76.7585L146.768 75.5516Z" fill="url(#paint17_linear)"/>
<path opacity="0.5" d="M140.021 76.9999L142.671 75.5516C142.671 75.5516 142.43 60.8274 141.948 57.4481C141.948 57.4481 145.804 67.8274 147.009 75.5516L143.153 76.7585V82.3102L140.743 82.0688L140.021 76.9999Z" fill="url(#paint18_linear)"/>
<path d="M184.123 117.551L186.533 109.103L185.81 104.034L181.713 102.586C181.713 102.586 184.846 90.5169 187.497 84.4824C187.497 84.4824 191.594 94.8617 192.558 102.586L188.702 103.793V109.344L191.112 118.276L184.123 117.551Z" fill="url(#paint19_linear)"/>
<path opacity="0.5" d="M192.558 102.586C192.558 102.586 185.569 103.069 181.472 102.586L185.569 104.034C185.569 104.034 187.497 104.034 188.702 103.793L192.558 102.586Z" fill="url(#paint20_linear)"/>
<path opacity="0.5" d="M185.81 104.034L188.461 102.586C188.461 102.586 188.22 87.8617 187.738 84.4824C187.738 84.4824 191.594 94.8617 192.799 102.586L188.943 103.793V109.344L186.533 109.103L185.81 104.034Z" fill="url(#paint21_linear)"/>
<path d="M227.503 126.482L229.913 118.034L229.19 112.965L225.093 111.517C225.093 111.517 228.226 99.4479 230.877 93.4135C230.877 93.4135 234.974 103.793 235.938 111.517L232.082 112.724V118.276L234.251 127.207L227.503 126.482Z" fill="url(#paint22_linear)"/>
<path opacity="0.5" d="M235.938 111.517C235.938 111.517 228.949 112 224.852 111.517L228.949 112.965C228.949 112.965 230.877 112.965 232.082 112.724L235.938 111.517Z" fill="url(#paint23_linear)"/>
<path opacity="0.5" d="M229.19 112.965L231.841 111.517C231.841 111.517 231.6 96.7928 231.118 93.4135C231.118 93.4135 234.974 103.793 236.179 111.517L232.323 112.724V118.276L229.913 118.034L229.19 112.965Z" fill="url(#paint24_linear)"/>
<path d="M57.5988 240.172L54.4658 229.552L55.4298 146.034L57.1168 105.241L57.5988 240.172Z" fill="url(#paint25_linear)"/>
<path d="M102.907 82.7931L101.943 270.586L97.8456 273.483L97.1227 81.5862L102.907 82.7931Z" fill="url(#paint26_linear)"/>
<path d="M97.8455 273.483L90.8565 272.034L87.9645 79.6549L97.1225 81.5859L97.8455 273.483Z" fill="url(#paint27_linear)"/>
<path opacity="0.5" d="M87.9646 87.1375C87.9646 87.1375 90.8566 89.7926 94.4716 96.7926C98.0865 103.793 102.424 143.62 102.424 143.62L102.665 82.5513C102.665 82.5513 90.1336 79.8961 87.7236 79.4133L87.9646 87.1375Z" fill="url(#paint28_linear)"/>
<path d="M97.8455 240.896L94.4715 230.276L95.4355 147L97.1225 105.965L97.8455 240.896Z" fill="url(#paint29_linear)"/>
<path d="M148.696 95.5862L147.973 273.483L144.358 276.138L143.635 94.3793L148.696 95.5862Z" fill="url(#paint30_linear)"/>
<path d="M144.358 276.137L138.092 274.931L135.441 92.6892L143.635 94.3789L144.358 276.137Z" fill="url(#paint31_linear)"/>
<path opacity="0.5" d="M135.441 99.9308C135.441 99.9308 138.092 102.345 141.225 109.103C144.358 115.62 148.214 153.517 148.214 153.517L148.455 95.8273C148.455 95.8273 137.128 93.4135 135.2 92.9308L135.441 99.9308Z" fill="url(#paint32_linear)"/>
<path d="M144.117 243.551L141.226 232.931L142.19 149.655L143.636 108.62L144.117 243.551Z" fill="url(#paint33_linear)"/>
<path d="M192.317 123.586L191.594 273.724L187.979 276.138L187.256 122.621L192.317 123.586Z" fill="url(#paint34_linear)"/>
<path d="M187.979 276.138L181.713 275.172L179.062 121.172L187.256 122.62L187.979 276.138Z" fill="url(#paint35_linear)"/>
<path opacity="0.5" d="M179.062 127.207C179.062 127.207 181.713 134.931 184.846 140.724C187.979 146.276 191.835 172.586 191.835 172.586L192.076 123.827C192.076 123.827 180.749 121.655 178.821 121.414L179.062 127.207Z" fill="url(#paint36_linear)"/>
<path d="M187.738 243.551L187.256 222.793V152.069L187.497 186.586L187.738 243.551Z" fill="url(#paint37_linear)"/>
<path d="M239.312 132.517L238.589 273.482L234.974 276.138L234.251 131.31L239.312 132.517Z" fill="url(#paint38_linear)"/>
<path d="M234.974 276.138L228.708 274.931L226.057 129.62L234.251 131.31L234.974 276.138Z" fill="url(#paint39_linear)"/>
<path opacity="0.5" d="M226.057 136.862C226.057 136.862 228.708 139.517 231.841 146.034C235.215 152.793 239.071 152.069 239.071 152.069L239.312 132.517C239.312 132.517 227.985 130.103 226.057 129.62V136.862Z" fill="url(#paint40_linear)"/>
<path d="M234.974 245L232.082 234.862L234.251 202.759V154.724L234.974 245Z" fill="url(#paint41_linear)"/>
<path d="M200.752 124.793C200.752 124.793 135.442 60.1033 4.8203 56.724C4.8203 56.724 122.187 86.8964 192.317 124.31L200.752 124.793Z" fill="url(#paint42_linear)"/>
<path d="M223.647 327.31L4.82028 324.172L0.723328 56.9653C0.723328 56.9653 95.4359 49.2412 192.317 124.31L262.207 128.414V137.827L191.594 136.379C191.594 136.379 110.619 80.3791 10.8453 74.3446L16.6292 312.345L224.611 311.621L223.647 327.31Z" fill="url(#paint43_linear)"/>
<path d="M10.8451 74.3446L16.629 154L15.424 274.931L11.0861 164.138L10.8451 74.3446Z" fill="url(#paint44_linear)"/>
<path d="M19.521 311.137L13.7371 313.551L224.37 315L224.611 311.62L19.521 311.137Z" fill="url(#paint45_linear)"/>
<path d="M144.358 285.552V313.552L139.779 311.621L138.333 285.552H144.358Z" fill="url(#paint46_linear)"/>
<path d="M148.696 285.552V311.138L144.358 313.552V285.552H148.696Z" fill="url(#paint47_linear)"/>
<path d="M56.8757 285.552V313.552L52.5377 311.621L50.8507 285.552H56.8757Z" fill="url(#paint48_linear)"/>
<path d="M61.4549 285.552V311.138L56.8759 313.552V285.552H61.4549Z" fill="url(#paint49_linear)"/>
<path d="M234.251 285.552V313.552L229.672 311.621L228.226 285.552H234.251Z" fill="url(#paint50_linear)"/>
<path d="M238.589 285.552V311.138L234.251 313.552V285.552H238.589Z" fill="url(#paint51_linear)"/>
<path d="M14.46 136.862C14.46 136.862 24.1 139.758 36.6319 155.931C49.8868 173.31 46.7538 215.069 37.5959 227.62C29.4019 238.965 18.798 241.138 18.798 241.138H13.737L10.3631 137.344L14.46 136.862Z" fill="url(#paint52_linear)"/>
<path d="M1.68707 133.483C1.68707 133.483 18.316 138.793 31.812 155.931C45.3079 173.069 41.9339 215.069 32.7759 227.621C24.582 238.965 3.37406 245 3.37406 245L1.68707 133.483Z" fill="url(#paint53_linear)"/>
<path d="M16.6291 141.448L30.125 157.138L36.632 167.517L40.7289 189.241C40.7289 189.241 40.729 165.586 31.812 155.931C22.8951 146.276 16.6291 141.448 16.6291 141.448Z" fill="url(#paint54_linear)"/>
<path d="M37.8369 216.034C37.8369 216.034 34.9449 226.655 32.053 230.758C28.92 234.62 22.413 236.793 22.413 236.793C22.413 236.793 32.0529 232.207 37.8369 216.034Z" fill="url(#paint55_linear)"/>
<path d="M107.004 312.103L100.256 315L92.7847 311.862L100.015 292.069L107.004 312.103Z" fill="url(#paint56_linear)"/>
<path d="M100.256 315L100.015 292.069L107.004 312.103L100.256 315Z" fill="url(#paint57_linear)"/>
<path d="M196.896 312.103L190.148 315L182.677 311.862L189.666 292.069L196.896 312.103Z" fill="url(#paint58_linear)"/>
<path d="M190.148 315L189.666 292.069L196.896 312.103L190.148 315Z" fill="url(#paint59_linear)"/>
<path opacity="0.3" d="M35.1857 185.138C40.7287 189.241 38.5597 218.931 27.9558 222.793C17.3518 226.414 10.3629 205.896 12.2909 198.655C14.2189 191.414 29.6428 181.276 35.1857 185.138Z" fill="#9CA6CD"/>
<path opacity="0.3" d="M30.125 176.207C29.643 180.551 25.064 181.517 22.413 181.517C19.7621 181.517 13.7371 170.413 16.6291 168.241C19.762 165.827 30.366 173.551 30.125 176.207Z" fill="#9CA6CD"/>
<path opacity="0.2" d="M12.05 181.758C13.737 182.241 13.737 184.172 13.255 185.138C13.014 186.103 8.43501 187.551 7.712 186.103C7.471 184.896 11.086 181.517 12.05 181.758Z" fill="#9CA6CD"/>
<path opacity="0.2" d="M14.7009 223.517C18.0749 224.483 18.0749 228.345 17.5929 230.517C17.1109 232.689 7.47088 235.586 6.26589 232.689C4.57889 229.793 12.5319 222.793 14.7009 223.517Z" fill="#9CA6CD"/>
<path d="M333.783 84.2411L322.938 52.6204C322.938 52.6204 333.301 49.9653 339.085 41.7584L320.529 -0.000244141L300.767 43.6894C300.767 43.6894 307.997 50.448 317.396 52.3791L305.587 84.7239L333.783 84.2411Z" fill="url(#paint60_linear)"/>
<path d="M320.528 -0.000244141L326.312 44.4136C326.312 44.4136 335.952 45.1377 338.844 41.7584L320.528 -0.000244141Z" fill="url(#paint61_linear)"/>
<path d="M300.767 43.6893C300.767 43.6893 322.938 47.31 338.844 41.9996C338.844 41.9996 335.229 49.7238 322.697 52.8617L333.542 84.4824L327.758 84.7238L319.805 52.8617H317.395C317.395 52.3789 303.9 50.6893 300.767 43.6893Z" fill="url(#paint62_linear)"/>
<path d="M289.681 93.8962L291.127 77.241L332.579 75.7927L351.376 96.0686L344.629 95.1031H294.26L289.681 93.8962Z" fill="url(#paint63_linear)"/>
<path d="M332.579 95.1031V75.7927L351.376 77.7238V93.8962L344.629 95.1031H332.579Z" fill="url(#paint64_linear)"/>
<path d="M415 357L406.324 311.621H313.54L227.262 317.414L218.104 357H415Z" fill="url(#paint65_linear)"/>
<path d="M335.229 357V311.62L225.334 306.069L218.104 357H335.229Z" fill="url(#paint66_linear)"/>
<path d="M406.324 311.62L225.334 306.069L335.229 316.207L406.324 311.62Z" fill="url(#paint67_linear)"/>
<path d="M390.177 311.138L386.08 224.482L250.639 222.069L245.096 306.551L335.952 311.138H390.177Z" fill="url(#paint68_linear)"/>
<path d="M373.548 224.241L386.08 212.896L381.983 124.069L261.243 121.172L253.772 215.31L257.387 222.31L373.548 224.241Z" fill="url(#paint69_linear)"/>
<path d="M335.952 311.138L339.326 226.896L334.024 224.241L257.387 222.31L253.772 215.31L343.905 211.931L341.495 123.103H386.08L387.767 155.207L383.67 163.172L386.08 169.931V212.896L373.548 224.241L386.08 224.482L392.587 308.483L390.177 311.138H335.952Z" fill="url(#paint70_linear)"/>
<path opacity="0.5" d="M373.548 224.241L386.08 212.896L343.906 211.931L253.772 215.31L257.387 222.31L334.025 224.241H373.548Z" fill="url(#paint71_linear)"/>
<path d="M371.379 123.586L367.764 112.724L272.57 109.827V121.414L341.495 123.103L371.379 123.586Z" fill="#66547A"/>
<path d="M261.243 111.517L264.135 94.8616L381.019 92.6892V111.517L367.764 112.724H269.919L261.243 111.517Z" fill="url(#paint72_linear)"/>
<path d="M344.387 112.724V93.4133L381.019 92.6892V111.517L367.764 112.724H344.387Z" fill="url(#paint73_linear)"/>
<path d="M387.767 155.207L368.246 168.724L358.847 171.138L346.797 174.758L371.379 172.827L386.08 169.931L383.67 163.172L387.767 155.207Z" fill="#66547A"/>
<path opacity="0.57" d="M387.767 155.207L383.67 163.172L369.933 171.138L346.797 174.758L368.246 168.724L387.767 155.207Z" fill="url(#paint74_linear)"/>
<path d="M386.08 224.482L346.798 227.862L339.086 236.31L333.543 228.586L280.764 222.793L334.025 224.241L386.08 224.482Z" fill="url(#paint75_linear)"/>
<g opacity="0.3">
<path opacity="0.3" d="M336.193 176.931C337.88 182.966 339.085 189.241 337.88 195.517C336.675 201.793 332.82 207.586 327.036 210C321.975 211.931 316.191 211.207 311.371 209.035C305.105 206.138 299.562 201.31 296.67 195.035C294.742 190.931 294.019 186.345 293.778 182C293.537 173.552 296.188 164.621 302.213 158.828C307.274 153.759 316.914 149.897 323.662 153.276C330.41 155.931 334.266 170.173 336.193 176.931Z" fill="#9CA6CD"/>
<path opacity="0.3" d="M298.839 208.069C298.116 205.414 296.67 203 294.501 201.069C294.019 200.586 293.537 200.345 293.055 200.103C291.85 199.621 290.404 200.103 289.199 200.827C287.753 201.552 286.548 202.759 286.066 203.965C285.343 205.414 285.343 207.103 286.307 208.31C286.789 209.034 287.512 209.517 288.476 210C291.85 211.448 295.947 210.241 298.116 207.103L298.839 208.069Z" fill="#9CA6CD"/>
<path opacity="0.3" d="M316.673 135.172C315.227 137.827 312.817 140 310.407 141.931C302.695 147.483 291.85 150.138 283.415 145.793C281.246 144.586 279.077 142.655 278.354 140.241C277.631 136.379 280.523 132.758 283.656 130.586C288.717 127.207 294.501 125.276 300.285 123.586C302.695 122.862 305.105 122.138 307.756 122.379C315.227 122.621 320.77 127.448 316.673 135.172Z" fill="#9CA6CD"/>
<path opacity="0.3" d="M331.374 97.0346C326.795 96.0691 322.216 95.1036 317.396 96.0691C316.191 96.3105 314.745 96.5519 313.781 97.276C312.817 98.0002 312.094 99.2071 312.094 100.655C312.094 101.379 312.576 102.104 312.817 102.586C314.986 105.724 319.083 106.69 322.698 107.414C324.385 107.897 326.313 108.138 328 108.621C329.928 109.104 332.097 109.345 334.025 109.345C335.953 109.104 338.122 108.379 339.327 106.931C344.147 101.379 335.471 98.0002 331.374 97.0346Z" fill="#9CA6CD"/>
<path opacity="0.3" d="M313.54 107.897C313.54 109.104 312.094 109.586 311.13 109.828C303.9 111.035 296.188 109.828 289.681 106.207C288.235 105.483 286.789 104.517 286.548 102.828C286.548 102.104 286.548 101.379 287.03 100.655C289.681 94.6208 297.152 95.3449 301.972 97.7587C305.105 99.207 313.54 104.517 313.54 107.897Z" fill="#9CA6CD"/>
<path opacity="0.3" d="M284.379 105.724C283.656 105 282.21 105.242 281.969 106.207C281.487 107.173 282.21 108.379 283.174 108.621C284.138 108.862 285.343 108.621 285.825 107.655C285.584 107.173 285.102 106.448 284.861 105.966L284.379 105.724Z" fill="#9CA6CD"/>
<path opacity="0.3" d="M293.778 162.448C290.645 164.621 286.307 164.621 282.933 162.931C282.21 162.69 281.487 162.207 281.246 161.483C280.764 161 280.523 160.276 280.282 159.552C279.077 153.276 286.307 149.172 291.85 150.138C297.634 151.345 298.357 159.069 293.778 162.448Z" fill="#9CA6CD"/>
<path opacity="0.3" d="M366.077 205.414C359.088 203.965 353.545 197.448 353.545 190.207C353.304 179.103 368.969 174.759 374.271 184.414C378.368 192.379 378.85 208.069 366.077 205.414Z" fill="#9CA6CD"/>
<path opacity="0.3" d="M357.402 131.31C361.017 133.724 363.186 138.31 362.463 142.655C361.981 144.827 361.017 146.758 359.33 147.965C357.643 149.172 355.233 149.896 353.305 148.931C351.618 148.207 350.413 146.758 349.449 145.31C347.039 140.965 347.28 134.931 350.654 131.551C351.377 130.827 352.1 130.345 353.064 130.103C354.51 129.862 355.956 130.345 356.92 131.31C358.607 132.517 359.812 133.965 360.776 135.655L357.402 131.31Z" fill="#9CA6CD"/>
<path opacity="0.3" d="M354.268 151.586C353.304 151.586 352.34 151.586 351.376 152.069C349.93 152.793 349.448 154.483 348.966 156.172C348.484 158.103 347.761 160.517 349.207 161.965C349.93 162.69 350.894 162.931 351.617 163.172C356.196 164.621 366.318 165.345 367.523 158.586C368.487 152.31 358.365 151.586 354.268 151.586Z" fill="#9CA6CD"/>
<path opacity="0.3" d="M355.956 96.7931C354.992 96.7931 354.028 96.7931 353.064 97.2759C351.618 98 351.136 99.6896 350.654 101.379C350.172 103.31 349.69 105.724 350.895 107.172C351.618 107.897 352.582 108.138 353.305 108.379C357.884 109.828 368.005 110.552 369.21 103.793C369.933 97.7586 359.812 96.7931 355.956 96.7931Z" fill="#9CA6CD"/>
<path opacity="0.3" d="M370.174 132.758C370.897 133.241 370.415 134.689 369.451 134.931C368.487 135.172 367.523 134.207 367.523 133.241C367.764 132.034 369.692 131.552 370.174 132.758Z" fill="#9CA6CD"/>
<path opacity="0.3" d="M288.958 193.345C289.199 193.345 289.681 193.586 289.922 193.586C290.163 192.621 290.404 191.897 290.404 190.931C290.163 188.517 288.235 186.586 286.066 186.345C283.656 186.103 281.487 188.034 281.246 190.448C281.005 192.379 282.21 194.069 283.897 194.793C285.825 195.517 287.994 194.793 288.958 193.345Z" fill="#9CA6CD"/>
<path opacity="0.3" d="M376.681 101.621C376.922 101.621 377.404 101.862 377.645 101.862C377.886 100.897 378.127 100.172 378.127 99.2068C377.886 96.793 375.958 94.862 373.789 94.6206C371.379 94.3793 369.21 96.3103 368.969 98.7241C368.728 100.655 369.933 102.345 371.62 103.069C373.548 103.552 375.717 103.069 376.681 101.621Z" fill="#9CA6CD"/>
<path opacity="0.3" d="M327.277 241.138C331.133 249.345 332.097 259 329.687 267.69C327.759 274.69 323.662 281.207 317.155 284.103C313.299 285.793 308.961 286.034 305.105 285.069C296.429 283.138 289.199 275.896 287.03 267.448C284.62 258.759 286.789 249.345 292.332 242.345C294.983 238.965 298.357 235.828 302.695 234.621C307.756 233.172 312.817 234.621 317.878 234.621C322.457 234.379 325.108 236.552 327.277 241.138Z" fill="#9CA6CD"/>
<path opacity="0.3" d="M291.127 225.448C291.85 224.483 293.296 224.242 294.501 224.483C295.706 224.724 296.67 225.448 297.875 225.931C298.839 226.414 299.803 227.138 300.526 228.104C301.249 229.069 301.49 230.276 301.008 231.242C300.285 232.448 298.839 232.69 297.634 232.69C294.983 232.931 292.091 232.69 289.44 232.448C287.994 232.207 286.548 231.724 286.066 230.517C285.343 228.828 286.789 227.138 288.235 226.173C289.44 225.207 291.127 224.483 292.573 224.966L291.127 225.448Z" fill="#9CA6CD"/>
<path opacity="0.3" d="M286.789 235.828C287.994 236.552 288.717 237.759 288.476 238.966C288.476 239.69 288.235 240.173 287.753 240.655C286.548 242.104 283.897 242.345 282.451 240.897C281.005 239.448 281.005 236.793 282.451 235.586C283.897 234.379 286.548 234.621 287.753 236.069L286.789 235.828Z" fill="#9CA6CD"/>
<path opacity="0.3" d="M288.716 277.345C285.824 273.483 282.692 269.862 278.354 267.69C274.257 265.517 269.196 264.552 264.617 266.241C258.351 268.414 254.977 274.69 252.085 280.724C249.916 285.31 247.988 290.862 251.121 294.965C252.567 296.896 254.495 297.862 256.664 298.586C262.448 300.517 268.955 300.276 275.221 299.793C280.282 299.552 292.331 300.759 295.946 296.172C299.079 291.345 291.367 281.207 288.716 277.345Z" fill="#9CA6CD"/>
<path opacity="0.3" d="M278.595 257.069C279.318 256.586 278.595 255.621 278.113 255.138C276.667 254.414 274.498 254.655 273.775 256.103C273.052 257.31 273.534 258.759 274.498 259.724C275.462 260.448 276.908 260.69 278.113 260.207C279.077 259.724 279.8 258.759 279.8 257.793L278.595 257.069Z" fill="#9CA6CD"/>
<path opacity="0.3" d="M327.518 289.655C324.626 287.724 321.011 287.241 317.637 288.207C315.468 288.931 313.299 290.379 312.094 292.552C310.407 295.931 311.371 300.035 313.781 302.931C317.878 307.276 327.518 308.724 332.097 304.138C336.435 299.793 331.615 292.31 327.518 289.655Z" fill="#9CA6CD"/>
<path opacity="0.3" d="M380.778 272.517C380.055 276.862 378.609 281.207 375.235 283.862C371.861 286.517 367.041 287 362.703 286.034C351.858 283.379 344.146 272.517 342.941 261.172C342.459 257.552 342.7 253.931 343.905 250.552C346.074 244.758 351.135 240.172 357.16 238.724C376.922 234.379 383.188 257.552 380.778 272.517Z" fill="#9CA6CD"/>
<path opacity="0.3" d="M361.016 293.517C360.534 291.586 358.606 290.138 356.919 289.172C355.956 288.69 354.992 288.448 354.028 288.207C351.618 287.965 348.967 289.896 348.485 292.31C347.762 294.724 348.967 297.379 350.895 299.069C353.305 301 356.919 301 359.088 299.069C361.257 297.138 361.498 293.276 359.329 291.345L361.016 293.517Z" fill="#9CA6CD"/>
<path opacity="0.3" d="M382.224 295.448C380.537 294.483 378.609 293.276 376.681 293.517C374.512 293.759 372.825 295.448 371.861 297.138C371.379 298.103 370.897 299.069 370.897 300.034C370.656 302.931 372.825 305.345 375.476 306.552C378.127 307.517 381.019 307.517 383.911 307.517C393.069 307.034 386.803 298.345 382.224 295.448Z" fill="#9CA6CD"/>
<path opacity="0.3" d="M369.933 325.862C365.113 327.069 360.293 329.483 356.919 333.345C354.509 336.241 352.581 340.103 353.545 343.724C354.268 346.379 355.955 348.31 358.124 350C363.185 353.621 369.692 353.862 375.958 354.103C384.875 354.103 408.493 353.862 401.504 339.62C395.961 328.034 381.742 323.207 369.933 325.862Z" fill="#9CA6CD"/>
<path opacity="0.3" d="M286.307 326.828C288.958 329.241 291.368 332.621 290.645 336C289.922 339.621 286.548 341.793 283.174 343C279.318 344.207 275.221 344.448 271.365 344.207C264.135 343.724 256.905 341.552 250.639 337.931C247.265 336 243.891 333.345 243.168 329.483C241.24 317.897 256.664 317.655 264.135 317.897C272.57 318.138 280.041 321.035 286.307 326.828Z" fill="#9CA6CD"/>
<path opacity="0.3" d="M299.562 325.138C301.008 325.138 302.213 326.345 302.454 327.552C302.695 329 301.972 330.448 300.767 330.931C299.321 331.655 297.634 331.172 296.188 330.448C293.778 329.483 291.368 327.552 291.609 324.897C291.609 324.173 291.85 323.69 292.332 323.207C292.814 322.966 293.537 322.966 294.26 323.207C296.188 323.69 297.875 324.414 299.562 325.379V325.138Z" fill="#9CA6CD"/>
<path opacity="0.3" d="M328.964 131.552C330.41 131.552 331.615 132.759 331.856 133.965C332.097 135.414 331.374 136.862 330.169 137.345C328.723 138.069 327.036 137.586 325.59 136.862C323.18 135.896 320.77 133.965 321.011 131.31C321.011 130.586 321.252 130.103 321.734 129.621C322.216 129.379 322.939 129.379 323.662 129.621C325.59 130.103 327.277 130.827 328.964 131.793V131.552Z" fill="#9CA6CD"/>
<path opacity="0.3" d="M238.107 343.724C239.071 344.448 240.517 343.483 240.276 342.276C240.276 341.069 239.312 340.345 238.348 339.621C235.215 337.69 231.118 337.448 227.744 338.896C227.021 339.379 226.057 339.862 225.575 340.586C224.37 342.276 225.093 344.931 226.78 346.379C228.467 347.828 230.636 348.31 232.805 348.552C235.215 348.793 238.107 348.552 239.071 346.138C239.794 344.448 238.83 342.759 238.107 341.069V343.724Z" fill="#9CA6CD"/>
</g>
<g opacity="0.2">
<path opacity="0.2" d="M278.354 177.896C277.872 175.965 277.149 173.793 275.944 172.103C274.98 170.655 273.775 168.965 272.088 168.482C270.883 168 269.678 168 268.473 168.241C265.822 168.482 263.171 168.965 261.243 170.655C258.833 173.069 258.592 177.172 260.52 180.069C262.448 182.965 266.063 184.413 269.437 183.931C271.847 183.689 279.077 181.275 278.354 177.896Z" fill="#9CA6CD"/>
<path opacity="0.2" d="M356.92 206.62C356.679 205.896 356.438 205.172 355.956 204.448C355.715 203.965 355.233 203.241 354.51 203C354.028 202.758 353.546 202.758 353.064 202.758C352.1 202.758 350.895 203 350.172 203.724C349.208 204.689 349.208 206.137 349.931 207.344C350.654 208.31 352.1 209.034 353.305 208.793C354.269 208.793 357.161 207.827 356.92 206.62Z" fill="#9CA6CD"/>
<path opacity="0.2" d="M279.077 169.207C279.8 168.965 279.8 168 279.559 167.275C279.559 167.034 279.318 166.793 279.077 166.551C278.354 165.827 277.39 166.551 276.667 167.034C276.185 167.517 275.703 168 275.703 168.482C275.703 169.207 276.426 169.931 277.149 170.172C277.872 170.172 278.595 169.689 279.077 168.965V169.207Z" fill="#9CA6CD"/>
<path opacity="0.2" d="M324.626 83.5168C325.349 83.2754 325.349 82.3099 325.108 81.5858C325.108 81.3444 324.867 81.103 324.626 80.8617C323.903 80.1375 322.939 80.8617 322.216 81.3444C321.734 81.8272 321.252 82.3099 321.252 82.7927C321.252 83.5168 321.975 84.241 322.698 84.4823C323.421 84.4823 324.144 83.9996 324.626 83.2754V83.5168Z" fill="#9CA6CD"/>
<path opacity="0.2" d="M313.781 85.4479C314.504 85.2065 314.504 84.241 314.263 83.5168C314.263 83.2754 314.022 83.0341 313.781 82.7927C313.058 82.0685 312.094 82.7927 311.371 83.2754C310.889 83.7582 310.407 84.241 310.407 84.7237C310.407 85.4479 311.13 86.172 311.853 86.4134C312.576 86.4134 313.299 85.9306 313.781 85.2065V85.4479Z" fill="#9CA6CD"/>
<path opacity="0.2" d="M301.49 131.069C302.213 130.827 302.213 129.862 301.972 129.138C301.972 128.896 301.731 128.655 301.49 128.413C300.767 127.689 299.803 128.413 299.08 128.896C298.598 129.379 298.116 129.862 298.116 130.344C298.116 131.069 298.839 131.793 299.562 132.034C300.285 132.034 301.008 131.551 301.49 130.827V131.069Z" fill="#9CA6CD"/>
<path opacity="0.2" d="M265.34 258.275C265.822 259.241 266.304 260.448 266.063 261.413C265.581 262.861 263.894 263.586 262.448 263.586C260.52 263.586 258.351 262.861 257.387 261.172C257.146 260.689 256.905 259.965 256.664 259.482C256.182 257.31 256.664 252.482 259.797 252.241C262.448 251.999 264.376 256.344 265.34 258.275Z" fill="#9CA6CD"/>
<path opacity="0.2" d="M261.966 184.172C261.725 184.896 260.761 185.138 260.038 184.655C259.556 184.172 259.797 182.965 260.52 182.965C261.484 182.482 262.207 183.206 261.966 184.172Z" fill="#9CA6CD"/>
</g>
<path opacity="0.5" d="M392.587 308.483L336.193 307.517L245.096 306.552L335.229 311.62L390.177 311.138L392.587 308.483Z" fill="url(#paint76_linear)"/>
<path d="M344.869 315.483L335.229 323.207L326.071 315.483H344.869Z" fill="#B6C6EF"/>
<path d="M341.495 123.103L335.471 123.586L341.495 181.517L338.845 211.931H343.905L341.495 123.103Z" fill="url(#paint77_linear)"/>
<path d="M333.542 228.586L335.47 242.103L332.337 304.138L336.193 307.517L339.085 236.31L333.542 228.586Z" fill="url(#paint78_linear)"/>
<path d="M344.387 112.724V93.4135L340.772 94.8617C340.772 94.8617 341.977 105.241 341.977 106.931C341.977 108.62 340.772 112 340.772 112L344.387 112.724Z" fill="url(#paint79_linear)"/>
<path d="M253.772 215.31L256.664 210.965L338.845 208.31L343.905 211.931L253.772 215.31Z" fill="url(#paint80_linear)"/>
<path d="M261.243 111.517L272.57 109.827L341.254 110.793L344.387 112.724H269.919L261.243 111.517Z" fill="url(#paint81_linear)"/>
</g>
<defs>
<linearGradient id="paint0_linear" x1="16.612" y1="313.54" x2="16.612" y2="74.2797" gradientUnits="userSpaceOnUse">
<stop stop-color="#402F3F"/>
<stop offset="1" stop-color="#574361"/>
</linearGradient>
<linearGradient id="paint1_linear" x1="131.994" y1="285.615" x2="131.994" y2="268.105" gradientUnits="userSpaceOnUse">
<stop stop-color="#5E5A6A"/>
<stop offset="1" stop-color="#74647D"/>
</linearGradient>
<linearGradient id="paint2_linear" x1="16.6067" y1="131.228" x2="16.6067" y2="74.2797" gradientUnits="userSpaceOnUse">
<stop stop-color="#6B99FF"/>
<stop offset="1" stop-color="#A46D95"/>
</linearGradient>
<linearGradient id="paint3_linear" x1="131.994" y1="276.86" x2="131.994" y2="268.105" gradientUnits="userSpaceOnUse">
<stop stop-color="#74717F"/>
<stop offset="1" stop-color="#8F8296"/>
</linearGradient>
<linearGradient id="paint4_linear" x1="59.901" y1="272.482" x2="59.901" y2="80.5785" gradientUnits="userSpaceOnUse">
<stop stop-color="#402F3F"/>
<stop offset="1" stop-color="#574361"/>
</linearGradient>
<linearGradient id="paint5_linear" x1="52.8805" y1="272.483" x2="52.8805" y2="78.796" gradientUnits="userSpaceOnUse">
<stop stop-color="#5E5A6A"/>
<stop offset="1" stop-color="#74647D"/>
</linearGradient>
<linearGradient id="paint6_linear" x1="55.3486" y1="142.851" x2="55.3486" y2="78.796" gradientUnits="userSpaceOnUse">
<stop stop-color="#6B99FF"/>
<stop offset="1" stop-color="#A46D95"/>
</linearGradient>
<linearGradient id="paint7_linear" x1="54.5266" y1="64.349" x2="54.5266" y2="30.4192" gradientUnits="userSpaceOnUse">
<stop stop-color="#5E5A6A"/>
<stop offset="1" stop-color="#74647D"/>
</linearGradient>
<linearGradient id="paint8_linear" x1="54.5267" y1="50.057" x2="54.5267" y2="48.62" gradientUnits="userSpaceOnUse">
<stop stop-color="#6B99FF"/>
<stop offset="1" stop-color="#A46D95"/>
</linearGradient>
<linearGradient id="paint9_linear" x1="56.5725" y1="55.3255" x2="56.5725" y2="30.4192" gradientUnits="userSpaceOnUse">
<stop stop-color="#6B99FF"/>
<stop offset="1" stop-color="#A46D95"/>
</linearGradient>
<linearGradient id="paint10_linear" x1="6.6497" y1="58.7594" x2="6.6497" y2="17.1736" gradientUnits="userSpaceOnUse">
<stop stop-color="#5E5A6A"/>
<stop offset="1" stop-color="#74647D"/>
</linearGradient>
<linearGradient id="paint11_linear" x1="6.6497" y1="41.2424" x2="6.6497" y2="39.4813" gradientUnits="userSpaceOnUse">
<stop stop-color="#6B99FF"/>
<stop offset="1" stop-color="#A46D95"/>
</linearGradient>
<linearGradient id="paint12_linear" x1="9.15674" y1="47.6999" x2="9.15674" y2="17.1736" gradientUnits="userSpaceOnUse">
<stop stop-color="#6B99FF"/>
<stop offset="1" stop-color="#A46D95"/>
</linearGradient>
<linearGradient id="paint13_linear" x1="94.5531" y1="72.29" x2="94.5531" y2="38.3603" gradientUnits="userSpaceOnUse">
<stop stop-color="#5E5A6A"/>
<stop offset="1" stop-color="#74647D"/>
</linearGradient>
<linearGradient id="paint14_linear" x1="94.5534" y1="57.9983" x2="94.5534" y2="56.5614" gradientUnits="userSpaceOnUse">
<stop stop-color="#6B99FF"/>
<stop offset="1" stop-color="#A46D95"/>
</linearGradient>
<linearGradient id="paint15_linear" x1="96.599" y1="63.2668" x2="96.599" y2="38.3603" gradientUnits="userSpaceOnUse">
<stop stop-color="#6B99FF"/>
<stop offset="1" stop-color="#A46D95"/>
</linearGradient>
<linearGradient id="paint16_linear" x1="141.344" y1="91.2446" x2="141.344" y2="57.3149" gradientUnits="userSpaceOnUse">
<stop stop-color="#5E5A6A"/>
<stop offset="1" stop-color="#74647D"/>
</linearGradient>
<linearGradient id="paint17_linear" x1="141.344" y1="76.9526" x2="141.344" y2="75.5157" gradientUnits="userSpaceOnUse">
<stop stop-color="#6B99FF"/>
<stop offset="1" stop-color="#A46D95"/>
</linearGradient>
<linearGradient id="paint18_linear" x1="143.389" y1="82.2211" x2="143.389" y2="57.3149" gradientUnits="userSpaceOnUse">
<stop stop-color="#6B99FF"/>
<stop offset="1" stop-color="#A46D95"/>
</linearGradient>
<linearGradient id="paint19_linear" x1="187.143" y1="118.388" x2="187.143" y2="84.4588" gradientUnits="userSpaceOnUse">
<stop stop-color="#5E5A6A"/>
<stop offset="1" stop-color="#74647D"/>
</linearGradient>
<linearGradient id="paint20_linear" x1="187.143" y1="104.097" x2="187.143" y2="102.66" gradientUnits="userSpaceOnUse">
<stop stop-color="#6B99FF"/>
<stop offset="1" stop-color="#A46D95"/>
</linearGradient>
<linearGradient id="paint21_linear" x1="189.189" y1="109.365" x2="189.189" y2="84.4588" gradientUnits="userSpaceOnUse">
<stop stop-color="#6B99FF"/>
<stop offset="1" stop-color="#A46D95"/>
</linearGradient>
<linearGradient id="paint22_linear" x1="230.525" y1="127.339" x2="230.525" y2="93.4089" gradientUnits="userSpaceOnUse">
<stop stop-color="#5E5A6A"/>
<stop offset="1" stop-color="#74647D"/>
</linearGradient>
<linearGradient id="paint23_linear" x1="230.525" y1="113.047" x2="230.525" y2="111.61" gradientUnits="userSpaceOnUse">
<stop stop-color="#6B99FF"/>
<stop offset="1" stop-color="#A46D95"/>
</linearGradient>
<linearGradient id="paint24_linear" x1="232.571" y1="118.315" x2="232.571" y2="93.4089" gradientUnits="userSpaceOnUse">
<stop stop-color="#6B99FF"/>
<stop offset="1" stop-color="#A46D95"/>
</linearGradient>
<linearGradient id="paint25_linear" x1="56.1149" y1="240.066" x2="56.1149" y2="105.139" gradientUnits="userSpaceOnUse">
<stop stop-color="#74717F"/>
<stop offset="1" stop-color="#8F8296"/>
</linearGradient>
<linearGradient id="paint26_linear" x1="99.9274" y1="273.374" x2="99.9274" y2="81.4703" gradientUnits="userSpaceOnUse">
<stop stop-color="#402F3F"/>
<stop offset="1" stop-color="#574361"/>
</linearGradient>
<linearGradient id="paint27_linear" x1="92.9067" y1="273.374" x2="92.9067" y2="79.6873" gradientUnits="userSpaceOnUse">
<stop stop-color="#5E5A6A"/>
<stop offset="1" stop-color="#74647D"/>
</linearGradient>
<linearGradient id="paint28_linear" x1="95.3746" y1="143.742" x2="95.3746" y2="79.6871" gradientUnits="userSpaceOnUse">
<stop stop-color="#6B99FF"/>
<stop offset="1" stop-color="#A46D95"/>
</linearGradient>
<linearGradient id="paint29_linear" x1="96.1411" y1="240.958" x2="96.1411" y2="106.03" gradientUnits="userSpaceOnUse">
<stop stop-color="#74717F"/>
<stop offset="1" stop-color="#8F8296"/>
</linearGradient>
<linearGradient id="paint30_linear" x1="146.181" y1="276.085" x2="146.181" y2="94.4225" gradientUnits="userSpaceOnUse">
<stop stop-color="#402F3F"/>
<stop offset="1" stop-color="#574361"/>
</linearGradient>
<linearGradient id="paint31_linear" x1="139.862" y1="276.085" x2="139.862" y2="92.7343" gradientUnits="userSpaceOnUse">
<stop stop-color="#5E5A6A"/>
<stop offset="1" stop-color="#74647D"/>
</linearGradient>
<linearGradient id="paint32_linear" x1="142.083" y1="153.371" x2="142.083" y2="92.7345" gradientUnits="userSpaceOnUse">
<stop stop-color="#6B99FF"/>
<stop offset="1" stop-color="#A46D95"/>
</linearGradient>
<linearGradient id="paint33_linear" x1="142.773" y1="243.669" x2="142.773" y2="108.741" gradientUnits="userSpaceOnUse">
<stop stop-color="#74717F"/>
<stop offset="1" stop-color="#8F8296"/>
</linearGradient>
<linearGradient id="paint34_linear" x1="189.731" y1="276.085" x2="189.731" y2="122.639" gradientUnits="userSpaceOnUse">
<stop stop-color="#402F3F"/>
<stop offset="1" stop-color="#574361"/>
</linearGradient>
<linearGradient id="paint35_linear" x1="183.412" y1="276.085" x2="183.412" y2="121.213" gradientUnits="userSpaceOnUse">
<stop stop-color="#5E5A6A"/>
<stop offset="1" stop-color="#74647D"/>
</linearGradient>
<linearGradient id="paint36_linear" x1="185.634" y1="172.432" x2="185.634" y2="121.213" gradientUnits="userSpaceOnUse">
<stop stop-color="#6B99FF"/>
<stop offset="1" stop-color="#A46D95"/>
</linearGradient>
<linearGradient id="paint37_linear" x1="187.448" y1="243.669" x2="187.448" y2="152.093" gradientUnits="userSpaceOnUse">
<stop stop-color="#74717F"/>
<stop offset="1" stop-color="#8F8296"/>
</linearGradient>
<linearGradient id="paint38_linear" x1="236.844" y1="276.085" x2="236.844" y2="131.254" gradientUnits="userSpaceOnUse">
<stop stop-color="#402F3F"/>
<stop offset="1" stop-color="#574361"/>
</linearGradient>
<linearGradient id="paint39_linear" x1="230.525" y1="276.085" x2="230.525" y2="129.548" gradientUnits="userSpaceOnUse">
<stop stop-color="#5E5A6A"/>
<stop offset="1" stop-color="#74647D"/>
</linearGradient>
<linearGradient id="paint40_linear" x1="232.746" y1="152.093" x2="232.746" y2="129.548" gradientUnits="userSpaceOnUse">
<stop stop-color="#6B99FF"/>
<stop offset="1" stop-color="#A46D95"/>
</linearGradient>
<linearGradient id="paint41_linear" x1="233.436" y1="245.075" x2="233.436" y2="154.748" gradientUnits="userSpaceOnUse">
<stop stop-color="#74717F"/>
<stop offset="1" stop-color="#8F8296"/>
</linearGradient>
<linearGradient id="paint42_linear" x1="102.803" y1="124.744" x2="102.803" y2="56.6398" gradientUnits="userSpaceOnUse">
<stop stop-color="#402F3F"/>
<stop offset="1" stop-color="#574361"/>
</linearGradient>
<linearGradient id="paint43_linear" x1="131.442" y1="327.404" x2="131.442" y2="56.64" gradientUnits="userSpaceOnUse">
<stop stop-color="#5E5A6A"/>
<stop offset="1" stop-color="#74647D"/>
</linearGradient>
<linearGradient id="paint44_linear" x1="13.7474" y1="274.83" x2="13.7474" y2="74.2797" gradientUnits="userSpaceOnUse">
<stop stop-color="#74717F"/>
<stop offset="1" stop-color="#8F8296"/>
</linearGradient>
<linearGradient id="paint45_linear" x1="119.157" y1="315.002" x2="119.157" y2="311.094" gradientUnits="userSpaceOnUse">
<stop stop-color="#74717F"/>
<stop offset="1" stop-color="#8F8296"/>
</linearGradient>
<linearGradient id="paint46_linear" x1="141.301" y1="313.54" x2="141.301" y2="285.615" gradientUnits="userSpaceOnUse">
<stop stop-color="#5E5A6A"/>
<stop offset="1" stop-color="#74647D"/>
</linearGradient>
<linearGradient id="paint47_linear" x1="148.768" y1="299.577" x2="144.326" y2="299.577" gradientUnits="userSpaceOnUse">
<stop stop-color="#402F3F"/>
<stop offset="1" stop-color="#574361"/>
</linearGradient>
<linearGradient id="paint48_linear" x1="53.8938" y1="313.54" x2="53.8938" y2="285.615" gradientUnits="userSpaceOnUse">
<stop stop-color="#5E5A6A"/>
<stop offset="1" stop-color="#74647D"/>
</linearGradient>
<linearGradient id="paint49_linear" x1="61.3611" y1="299.577" x2="56.9191" y2="299.577" gradientUnits="userSpaceOnUse">
<stop stop-color="#402F3F"/>
<stop offset="1" stop-color="#574361"/>
</linearGradient>
<linearGradient id="paint50_linear" x1="231.215" y1="313.54" x2="231.215" y2="285.615" gradientUnits="userSpaceOnUse">
<stop stop-color="#5E5A6A"/>
<stop offset="1" stop-color="#74647D"/>
</linearGradient>
<linearGradient id="paint51_linear" x1="238.683" y1="299.577" x2="234.24" y2="299.577" gradientUnits="userSpaceOnUse">
<stop stop-color="#402F3F"/>
<stop offset="1" stop-color="#574361"/>
</linearGradient>
<linearGradient id="paint52_linear" x1="27.8562" y1="241.145" x2="27.8562" y2="136.916" gradientUnits="userSpaceOnUse">
<stop stop-color="#402F3F"/>
<stop offset="1" stop-color="#574361"/>
</linearGradient>
<linearGradient id="paint53_linear" x1="21.26" y1="245.098" x2="21.26" y2="133.473" gradientUnits="userSpaceOnUse">
<stop stop-color="#5E5A6A"/>
<stop offset="1" stop-color="#74647D"/>
</linearGradient>
<linearGradient id="paint54_linear" x1="28.6817" y1="189.285" x2="28.6817" y2="141.475" gradientUnits="userSpaceOnUse">
<stop stop-color="#74717F"/>
<stop offset="1" stop-color="#8F8296"/>
</linearGradient>
<linearGradient id="paint55_linear" x1="30.0377" y1="236.784" x2="30.0377" y2="216.097" gradientUnits="userSpaceOnUse">
<stop stop-color="#74717F"/>
<stop offset="1" stop-color="#8F8296"/>
</linearGradient>
<linearGradient id="paint56_linear" x1="99.9272" y1="315.003" x2="99.9272" y2="292.186" gradientUnits="userSpaceOnUse">
<stop stop-color="#5E5A6A"/>
<stop offset="1" stop-color="#74647D"/>
</linearGradient>
<linearGradient id="paint57_linear" x1="103.46" y1="315.003" x2="103.46" y2="292.186" gradientUnits="userSpaceOnUse">
<stop stop-color="#402F3F"/>
<stop offset="1" stop-color="#574361"/>
</linearGradient>
<linearGradient id="paint58_linear" x1="189.731" y1="315.003" x2="189.731" y2="292.186" gradientUnits="userSpaceOnUse">
<stop stop-color="#5E5A6A"/>
<stop offset="1" stop-color="#74647D"/>
</linearGradient>
<linearGradient id="paint59_linear" x1="193.264" y1="315.003" x2="193.264" y2="292.186" gradientUnits="userSpaceOnUse">
<stop stop-color="#402F3F"/>
<stop offset="1" stop-color="#574361"/>
</linearGradient>
<linearGradient id="paint60_linear" x1="330.095" y1="85.5958" x2="302.22" y2="6.46704" gradientUnits="userSpaceOnUse">
<stop stop-color="#A290C7"/>
<stop offset="1" stop-color="#989BBB"/>
</linearGradient>
<linearGradient id="paint61_linear" x1="333.121" y1="44.5043" x2="317.789" y2="0.9821" gradientUnits="userSpaceOnUse">
<stop stop-color="#707997"/>
<stop offset="1" stop-color="#AC8FA1"/>
</linearGradient>
<linearGradient id="paint62_linear" x1="334.414" y1="84.0742" x2="318.022" y2="37.5455" gradientUnits="userSpaceOnUse">
<stop stop-color="#596383"/>
<stop offset="1" stop-color="#7E5D70"/>
</linearGradient>
<linearGradient id="paint63_linear" x1="324.299" y1="105.581" x2="311.757" y2="69.9797" gradientUnits="userSpaceOnUse">
<stop stop-color="#B5A7D3"/>
<stop offset="1" stop-color="#989BBB"/>
</linearGradient>
<linearGradient id="paint64_linear" x1="345.372" y1="96.0713" x2="337.595" y2="73.9971" gradientUnits="userSpaceOnUse">
<stop stop-color="#596383"/>
<stop offset="1" stop-color="#7E5D70"/>
</linearGradient>
<linearGradient id="paint65_linear" x1="330.523" y1="386.73" x2="297.357" y2="292.584" gradientUnits="userSpaceOnUse">
<stop stop-color="#596383"/>
<stop offset="1" stop-color="#7E5D70"/>
</linearGradient>
<linearGradient id="paint66_linear" x1="290.141" y1="372.852" x2="262.056" y2="293.129" gradientUnits="userSpaceOnUse">
<stop stop-color="#707997"/>
<stop offset="1" stop-color="#AC8FA1"/>
</linearGradient>
<linearGradient id="paint67_linear" x1="326.655" y1="339.751" x2="304.912" y2="278.032" gradientUnits="userSpaceOnUse">
<stop stop-color="#939BB6"/>
<stop offset="1" stop-color="#D4B8CB"/>
</linearGradient>
<linearGradient id="paint68_linear" x1="338.077" y1="329.458" x2="294.778" y2="206.549" gradientUnits="userSpaceOnUse">
<stop stop-color="#707997"/>
<stop offset="1" stop-color="#AC8FA1"/>
</linearGradient>
<linearGradient id="paint69_linear" x1="340.973" y1="235.74" x2="296.282" y2="108.881" gradientUnits="userSpaceOnUse">
<stop stop-color="#9682BF"/>
<stop offset="1" stop-color="#989BBB"/>
</linearGradient>
<linearGradient id="paint70_linear" x1="371.956" y1="317.523" x2="307.636" y2="134.943" gradientUnits="userSpaceOnUse">
<stop stop-color="#596383"/>
<stop offset="1" stop-color="#7E5D70"/>
</linearGradient>
<linearGradient id="paint71_linear" x1="386.075" y1="218.035" x2="253.688" y2="218.035" gradientUnits="userSpaceOnUse">
<stop stop-color="#6B99FF"/>
<stop offset="1" stop-color="#A46D95"/>
</linearGradient>
<linearGradient id="paint72_linear" x1="330.717" y1="129.276" x2="312.564" y2="77.7474" gradientUnits="userSpaceOnUse">
<stop stop-color="#A290C7"/>
<stop offset="1" stop-color="#989BBB"/>
</linearGradient>
<linearGradient id="paint73_linear" x1="367.529" y1="116.308" x2="357.793" y2="88.6731" gradientUnits="userSpaceOnUse">
<stop stop-color="#596383"/>
<stop offset="1" stop-color="#7E5D70"/>
</linearGradient>
<linearGradient id="paint74_linear" x1="387.782" y1="164.979" x2="346.697" y2="164.979" gradientUnits="userSpaceOnUse">
<stop stop-color="#764370"/>
<stop offset="1" stop-color="#BB9FB2"/>
</linearGradient>
<linearGradient id="paint75_linear" x1="386.075" y1="229.541" x2="280.866" y2="229.541" gradientUnits="userSpaceOnUse">
<stop stop-color="#AB9DCD"/>
<stop offset="1" stop-color="#879CD3"/>
</linearGradient>
<linearGradient id="paint76_linear" x1="392.524" y1="309.191" x2="245.208" y2="309.191" gradientUnits="userSpaceOnUse">
<stop stop-color="#6B99FF"/>
<stop offset="1" stop-color="#A46D95"/>
</linearGradient>
<linearGradient id="paint77_linear" x1="343.969" y1="167.531" x2="335.458" y2="167.531" gradientUnits="userSpaceOnUse">
<stop stop-color="#98A1D9"/>
<stop offset="1" stop-color="#A4A2D3"/>
</linearGradient>
<linearGradient id="paint78_linear" x1="339.057" y1="268.105" x2="332.344" y2="268.105" gradientUnits="userSpaceOnUse">
<stop stop-color="#AB9DCD"/>
<stop offset="1" stop-color="#879CD3"/>
</linearGradient>
<linearGradient id="paint79_linear" x1="344.451" y1="103.03" x2="340.897" y2="103.03" gradientUnits="userSpaceOnUse">
<stop stop-color="#98A1D9"/>
<stop offset="1" stop-color="#A4A2D3"/>
</linearGradient>
<linearGradient id="paint80_linear" x1="343.969" y1="211.902" x2="253.688" y2="211.902" gradientUnits="userSpaceOnUse">
<stop stop-color="#656E8D"/>
<stop offset="1" stop-color="#846579"/>
</linearGradient>
<linearGradient id="paint81_linear" x1="344.451" y1="111.273" x2="261.319" y2="111.273" gradientUnits="userSpaceOnUse">
<stop stop-color="#656E8D"/>
<stop offset="1" stop-color="#846579"/>
</linearGradient>
<clipPath id="clip0">
<rect width="415" height="357" fill="white" transform="matrix(-1 0 0 1 415 -0.000244141)"/>
</clipPath>
</defs>
</svg>
