<svg width="248" height="415" viewBox="0 0 248 415" fill="none" xmlns="http://www.w3.org/2000/svg">
<path d="M93.9392 55.1825L77.1554 57.1866V39.9017L62.7513 40.7785C62.7513 40.7785 59.9958 30.633 61.2483 21.3643L73.3978 19.6108L86.0483 19.9866L85.5473 4.20474C85.5473 4.20474 88.5534 2.2007 92.3109 0.196655L93.9392 16.6047V55.1825Z" fill="url(#paint0_linear_708:26)"/>
<path d="M120.117 55.1824H93.9388V53.1783L93.4378 36.3945L93.1873 30.7581L92.9368 19.8612V18.3581L92.3105 0.196533H112.601L115.107 18.9844L117.486 36.3945L119.866 53.1783L120.117 54.9319V55.1824Z" fill="url(#paint1_linear_708:26)"/>
<path d="M139.031 14.9762L135.774 36.3944H75.9035L73.3984 19.4853H76.2792L92.9378 19.861L107.718 20.1115H108.469L115.108 18.9843L139.031 14.9762Z" fill="url(#paint2_linear_708:26)"/>
<path d="M73.3984 19.4853L114.857 17.2307L114.607 14.9762H139.031L108.469 20.1115L73.3984 19.4853Z" fill="#B6C6EF"/>
<path d="M77.156 39.9016L93.4388 36.2692H75.9035L62.752 40.6531L77.156 39.9016Z" fill="#655775"/>
<path d="M70.7676 19.861L74.1494 24.6206L78.0322 20.1115L82.7918 18.9843L73.3979 19.4853L70.7676 19.861Z" fill="#B6C6EF"/>
<g opacity="0.3">
<path opacity="0.3" d="M107.843 20.3623C107.968 23.9946 105.463 27.5017 102.206 29.2552C99.4508 30.633 96.3195 31.0088 93.3134 30.7583C92.6872 30.7583 92.0609 30.633 91.4347 30.5078C88.8044 30.0068 73.0225 23.9946 76.4044 19.4855L93.063 19.8613V18.3583C97.071 18.3583 101.204 18.3583 105.338 18.3583C106.214 18.3583 107.216 18.4835 107.717 19.235C107.843 19.4855 107.968 19.8613 107.968 20.1118C107.717 20.2371 107.843 20.3623 107.843 20.3623Z" fill="#ACB6CD"/>
</g>
<path d="M93.4391 36.2692L117.488 36.3945L93.4391 39.5258L77.1562 39.9016L93.4391 36.2692Z" fill="url(#paint3_linear_708:26)"/>
<path d="M105.963 52.5521V52.8026V55.0571L105.838 65.8288L105.712 71.2147L104.209 186.823L104.084 193.211L103.959 203.732L103.207 256.839L102.706 296.043H24.5488L29.9347 147.744L30.0599 143.861L34.068 138.475L30.3104 135.97L30.4357 133.716L30.9367 118.685C30.9367 118.685 31.1872 117.182 31.8135 114.552C34.3185 104.532 42.5852 78.6046 64.6296 62.3218C65.1306 62.0713 65.5064 61.946 66.0074 61.6955C73.8983 57.9379 84.0438 54.8066 93.9387 53.3036C98.0721 52.5521 102.08 52.3016 105.963 52.5521Z" fill="url(#paint4_linear_708:26)"/>
<path d="M195.644 296.043H52.3555V123.194C52.3555 123.194 62.7514 67.9579 96.5696 55.1822C99.4504 54.0549 102.582 53.3034 105.964 52.9276C107.091 52.8024 108.218 52.6771 109.345 52.6771C112.978 52.5519 116.485 52.8024 119.867 53.3034C136.525 55.9337 148.925 66.3296 157.943 78.4791C169.341 93.8852 175.228 112.047 177.483 120.313C178.234 123.194 178.61 124.823 178.61 124.823L178.735 125.699L181.741 155.635L186.751 205.61L183.871 211.497L192.764 217.259L195.644 296.043Z" fill="url(#paint5_linear_708:26)"/>
<path d="M175.478 296.043H67.8862L65.2559 127.954C65.2559 127.954 65.6316 124.071 68.0114 117.683C70.0155 112.172 73.5225 104.908 79.6599 96.6409C86.0478 87.9985 94.4397 80.6086 104.836 77.7278C107.967 76.851 111.224 76.35 114.981 76.35C149.426 76.35 159.696 110.669 162.327 122.944C162.828 125.574 163.078 127.328 163.078 127.328L175.478 296.043Z" fill="url(#paint6_linear_708:26)"/>
<path d="M229.463 336.75H10.3965C10.647 334.12 10.8975 331.364 11.2733 328.609C11.649 325.602 12.15 322.471 12.5258 319.59C14.5298 306.94 17.1601 296.168 17.1601 296.168L139.908 301.804L156.942 300.677L177.108 299.299L199.277 297.796L215.936 296.669L222.073 296.293C225.455 306.063 229.463 336.75 229.463 336.75Z" fill="url(#paint7_linear_708:26)"/>
<path d="M67.2617 298.298V336.75H229.464C229.464 336.75 223.326 299.174 220.696 290.407L144.167 296.043L67.2617 298.298Z" fill="url(#paint8_linear_708:26)"/>
<path d="M17.1602 296.043L33.8187 294.665L75.1521 296.043L220.695 290.282L141.16 298.298H67.2612L17.1602 296.043Z" fill="url(#paint9_linear_708:26)"/>
<path d="M163.078 290.281L68.0114 295.918L65.2559 127.954C65.2559 127.954 66.5084 114.302 79.5346 96.641C135.898 49.2956 151.68 133.089 151.68 133.089L163.078 290.281Z" fill="url(#paint10_linear_708:26)"/>
<path d="M73.1465 240.306C73.1465 240.306 142.161 233.417 169.215 238.176V292.411L73.1465 296.043V240.306Z" fill="url(#paint11_linear_708:26)"/>
<path d="M73.1465 240.306L80.9121 244.69C80.9121 244.69 82.5404 281.013 84.294 296.419L73.2717 296.043C73.1465 295.918 73.7727 249.324 73.1465 240.306Z" fill="url(#paint12_linear_708:26)"/>
<path d="M80.7871 244.564C103.583 238.051 130.763 234.544 169.09 238.051L162.953 234.92C162.953 234.92 119.991 230.035 73.0215 240.18L80.7871 244.564Z" fill="url(#paint13_linear_708:26)"/>
<path d="M103.333 106.786C80.2862 112.924 84.2943 152.754 84.2943 152.754L95.1912 154.758L97.3205 176.051C98.6983 176.176 101.955 177.178 103.583 177.178L101.955 162.023L103.583 177.178C107.215 177.178 108.593 177.554 111.599 177.429C111.85 177.429 116.985 177.178 117.236 177.053L118.739 170.039V177.93L116.359 178.18C118.989 178.055 124.876 177.304 124.876 177.304L126.254 151.502L133.644 148.746C138.278 133.59 126.504 100.649 103.333 106.786ZM91.4337 144.237C88.5529 139.352 91.3084 126.827 94.1892 125.95C97.07 125.073 104.961 129.332 104.585 133.59C104.209 137.849 93.8135 148.12 91.4337 144.237ZM117.236 149.372C116.359 150.249 110.472 149.372 110.472 149.372L109.971 152.629L108.844 149.748C108.844 149.748 102.581 150.374 102.581 149.748C102.581 148.495 106.339 139.978 108.844 138.601C111.349 137.223 118.112 148.495 117.236 149.372ZM126.003 142.233C124.125 144.613 117.486 139.603 115.106 133.716C114.104 131.336 117.611 126.075 121.745 125.95C125.878 125.825 127.882 139.853 126.003 142.233Z" fill="url(#paint14_linear_708:26)"/>
<path d="M109.721 106.035C86.6749 112.172 90.6829 152.003 90.6829 152.003L101.58 154.007L103.709 177.178C105.087 177.304 106.715 177.304 108.344 177.429V161.146L111.725 177.429C115.358 177.429 118.99 177.429 121.996 177.304C122.247 177.304 122.497 177.304 122.748 177.304L125.127 169.287V177.178L125.002 177.304C127.632 177.178 129.261 177.178 129.261 177.178V152.003L140.032 147.869C140.408 136.221 132.768 99.8976 109.721 106.035ZM97.6971 143.485C94.8163 138.601 97.5718 126.075 100.453 125.199C103.333 124.322 111.224 128.58 110.849 132.839C110.473 137.098 100.077 147.368 97.6971 143.485ZM123.499 148.496C122.622 149.372 116.735 148.496 116.735 148.496L115.608 144.487L115.107 148.871C115.107 148.871 108.845 149.498 108.845 148.871C108.845 147.619 112.602 139.102 115.107 137.724C117.737 136.471 124.376 147.619 123.499 148.496ZM132.392 141.356C130.513 143.736 122.121 140.605 119.742 134.593C118.74 132.213 124 125.073 128.133 124.948C132.142 124.948 134.271 138.976 132.392 141.356Z" fill="url(#paint15_linear_708:26)"/>
<path d="M191.136 216.257L187.754 214.128L175.479 209.619L167.839 205.235L157.192 208.993L128.384 202.48L106.214 194.964L104.085 193.211L92.3113 183.692L65.2568 162.774L52.3557 141.356L29.9355 147.744L30.0608 143.861L34.0689 138.475L30.3113 135.97L30.4366 133.591L52.3557 135.469L65.5073 144.362L65.7578 158.265L102.582 186.197L104.21 186.823L109.346 189.078L133.018 202.48L156.942 205.611L168.59 202.48L186.626 205.611L183.746 211.498L191.136 216.257Z" fill="#655775"/>
<path opacity="0.3" d="M73.1486 240.306L67.2617 247.069L67.888 296.043H75.1526L73.1486 240.306Z" fill="url(#paint16_linear_708:26)"/>
<path d="M183.746 211.498L167.213 204.233L167.839 205.235L182.869 214.128L192.639 217.259L183.746 211.498Z" fill="#ACB6CD"/>
<path d="M157.191 208.992L153.809 206.738L140.032 204.233L129.135 201.853L91.4336 181.687L65.2559 162.774L106.213 194.964L128.383 202.479L157.191 208.992Z" fill="#ACB6CD"/>
<path d="M34.0689 138.475L41.083 141.356H52.3557L29.9355 147.744L30.0608 143.861L34.0689 138.475Z" fill="url(#paint17_linear_708:26)"/>
<path opacity="0.5" d="M30.4358 133.591L30.3105 135.97L34.0681 138.475L41.0823 141.356H52.355L61.6237 144.362H65.5065L52.355 135.469L30.4358 133.591Z" fill="url(#paint18_linear_708:26)"/>
<path opacity="0.5" d="M156.941 205.611L157.192 208.993L167.212 204.233L183.745 211.498L186.626 205.611L168.59 202.479L156.941 205.611Z" fill="url(#paint19_linear_708:26)"/>
<path d="M171.721 202.98L168.84 180.31L167.212 172.168L164.707 147.744L168.59 202.479L171.721 202.98Z" fill="#7B739D"/>
<path d="M52.3549 296.043L53.7326 281.013L57.7407 256.714L53.7326 231.037L52.3549 189.077L50.6013 233.792L48.973 247.946L46.8438 265.356L52.2296 279.76L52.3549 296.043Z" fill="#7B739D"/>
<path d="M46.8438 265.356L51.1023 266.108L57.7407 256.714L53.9831 279.76H52.2296L46.8438 265.356Z" fill="#909EB4"/>
<path opacity="0.7" d="M50.6013 233.792L53.7326 231.037L57.7407 256.714L51.1023 266.108L46.8438 265.356L50.6013 233.792Z" fill="url(#paint20_linear_708:26)"/>
<path d="M63.3789 90.3783L67.6375 80.2328L72.1466 75.348L79.5365 66.7056L73.3991 78.3541L69.7668 86.6207L63.3789 90.3783Z" fill="#B6C6EF"/>
<path d="M59.4942 99.2712L55.6113 105.033V110.043L59.4942 104.031V99.2712Z" fill="#B6C6EF"/>
<path d="M67.2617 298.298V326.605L71.2698 303.182V298.423L67.2617 298.298Z" fill="#8A94AE"/>
<path d="M73.1465 240.306L80.7869 244.564L88.0515 242.56L73.1465 240.306Z" fill="#ACB6CD"/>
<path d="M124 99.2714L130.889 90.3785L143.414 86.9967L152.057 78.3542L146.545 90.128L133.018 92.5078L124 99.2714Z" fill="#655775"/>
<path opacity="0.5" d="M152.056 78.3542L145.042 88.625L130.889 90.3785L143.414 86.9967L152.056 78.3542Z" fill="url(#paint21_linear_708:26)"/>
<path d="M133.018 92.5078L145.042 88.625L152.056 78.3542L146.545 90.128L133.018 92.5078Z" fill="#ACB6CD"/>
<path opacity="0.3" d="M24.5488 268.863L52.3549 290.532L67.6357 290.407L74.9003 291.659L83.5428 290.407C83.5428 290.407 158.945 290.407 169.09 281.138V288.403L175.478 284.896L195.644 288.403L195.143 291.534L84.169 296.544L52.3549 296.168H24.5488V268.863Z" fill="url(#paint22_linear_708:26)"/>
<path opacity="0.3" d="M17.1601 296.043C17.1601 296.043 16.6591 310.698 19.9157 323.599C19.9157 323.599 57.8672 333.243 67.6369 333.243C77.5318 333.243 189.508 324.976 205.289 322.221C221.071 319.465 225.33 312.451 225.33 312.451L229.463 336.875L176.481 337.877L58.6187 336.875H10.3965C10.3965 336.75 14.4046 303.934 17.1601 296.043Z" fill="url(#paint23_linear_708:26)"/>
<path d="M241.737 336.625L248 361.55H0V336.625H67.2606L172.222 333.118L188.505 336.5L241.737 336.625Z" fill="url(#paint24_linear_708:26)"/>
<path d="M58.6176 336.625L55.4863 361.425H247.999L241.737 336.625L188.505 336.374L172.222 332.993C172.222 333.118 65.3813 336.625 58.6176 336.625Z" fill="url(#paint25_linear_708:26)"/>
<path d="M58.6172 336.625C58.6172 336.625 190.759 338.879 241.736 336.625L184.872 335.623L172.221 332.993L58.6172 336.625Z" fill="url(#paint26_linear_708:26)"/>
<path d="M172.223 333.118V361.55H178.36L184.873 335.748L172.223 333.118Z" fill="url(#paint27_linear_708:26)"/>
<path opacity="0.3" d="M121.495 71.841C122.748 72.843 124.376 73.4693 125.879 74.0956C130.889 76.2249 136.15 78.3542 141.536 78.8552C142.788 78.9804 144.041 78.9804 145.043 78.3542C146.045 77.6026 146.546 76.2249 146.421 74.9723C146.295 73.7198 145.794 72.4673 145.168 71.34C140.91 63.6996 133.269 57.437 124.752 55.3077C119.742 54.0552 118.489 55.0572 117.613 60.0673C117.112 64.2006 117.738 68.9602 121.495 71.841Z" fill="#ACB6CD"/>
<path opacity="0.3" d="M145.794 82.3622C148.049 82.1117 150.303 83.1137 151.556 84.8672C151.932 85.3682 152.182 86.1198 151.932 86.746C151.681 87.1218 151.305 87.3723 150.93 87.4975C148.425 88.2491 145.544 86.3703 145.168 83.74L145.794 82.3622Z" fill="#ACB6CD"/>
<path opacity="0.3" d="M177.359 120.314C168.967 116.181 162.078 109.166 158.07 100.649C156.567 97.3926 155.439 93.7603 155.439 90.128C155.439 87.1219 155.815 81.3603 157.569 78.73C157.569 78.6047 157.694 78.6047 157.819 78.4795C169.217 93.7603 175.104 111.922 177.359 120.314Z" fill="#ACB6CD"/>
<path opacity="0.3" d="M181.616 155.635C179.612 157.639 176.856 159.017 173.975 158.516C172.848 158.391 171.846 158.015 171.095 157.138C170.093 156.011 170.093 154.633 169.466 153.255C168.965 152.128 168.089 151.627 167.588 150.625C165.959 147.869 165.959 143.485 165.458 140.354C165.208 138.475 164.832 118.56 164.832 118.56C168.965 119.813 172.848 121.692 176.481 124.071C177.232 124.572 177.984 125.199 178.735 125.7L181.616 155.635Z" fill="#ACB6CD"/>
<path opacity="0.3" d="M64.5046 97.643C64.3793 98.2692 64.3793 99.0207 64.7551 99.3965C65.3814 99.8975 66.2581 99.647 67.0096 99.146C79.6602 92.1318 91.5591 83.9904 102.456 74.5965C103.834 73.4692 105.212 72.2167 105.838 70.5884C107.09 67.5823 105.462 64.0753 102.707 62.3217C96.444 58.3137 86.9248 61.946 82.04 66.7056C76.9046 71.7157 72.0197 77.7278 68.8884 83.9904C66.8844 88.3743 65.3814 93.0086 64.5046 97.643Z" fill="#ACB6CD"/>
<path opacity="0.3" d="M101.455 57.5622C101.205 57.5622 101.33 57.1865 101.581 57.0612C102.583 56.8107 103.71 57.1865 104.211 58.0632C104.336 58.1885 104.336 58.439 104.336 58.5643C104.336 58.94 103.96 59.0653 103.585 59.1905C102.708 59.441 101.706 59.6915 100.954 59.1905C100.203 58.6895 99.9522 57.437 100.704 56.936L101.455 57.5622Z" fill="#ACB6CD"/>
<path opacity="0.3" d="M89.8061 202.98C91.6849 200.6 94.691 198.596 98.4486 197.845C101.455 197.219 104.586 197.469 107.717 197.845C112.602 198.346 117.737 199.348 121.245 201.853C123.875 203.732 125.253 206.237 126.004 208.742C126.255 209.493 126.38 210.245 126.255 210.996C125.754 213 123.123 214.253 120.618 215.255C116.861 216.633 112.978 217.76 108.719 218.261C104.586 218.762 100.077 218.386 96.3193 217.134C92.5617 215.881 89.4304 213.376 88.5536 210.621C87.6768 208.116 87.9273 205.235 89.8061 202.98Z" fill="#ACB6CD"/>
<path opacity="0.5" d="M67.8872 183.065C68.1377 186.948 68.6387 190.831 69.1397 194.714C69.5154 197.97 70.1417 201.227 71.5195 204.233C72.3962 205.861 73.6488 207.489 75.4023 207.865C77.0306 208.241 78.6589 207.489 80.1619 206.738C83.4185 205.11 86.4245 202.98 89.0548 200.601C89.8064 199.849 90.5579 199.223 91.0589 198.221C91.5599 197.219 91.5599 196.091 91.5599 194.964C91.1841 189.328 88.0528 184.067 83.7942 180.184C80.2872 176.928 75.7781 174.298 71.3942 172.544C68.5134 171.417 68.3882 172.92 68.0124 175.675C67.5114 178.18 67.6367 180.685 67.8872 183.065Z" fill="#ACB6CD"/>
<path opacity="0.3" d="M59.9969 201.728C59.4959 207.865 57.3666 214.253 52.3565 217.76C53.7343 206.487 51.4797 194.964 51.104 183.566C51.104 181.687 50.3525 176.051 53.2333 176.803C55.3626 177.304 56.9908 182.314 57.7423 184.067C59.8716 189.704 60.4979 195.841 59.9969 201.728Z" fill="#ACB6CD"/>
<path opacity="0.3" d="M62.0007 100.775C62.0007 100.399 61.3744 100.649 61.1239 100.9C59.7462 102.904 58.8694 105.409 58.7441 107.789C58.7441 108.164 58.7441 108.54 58.8694 108.916C58.9946 109.166 59.3704 109.417 59.6209 109.542C62.0007 110.669 65.2573 108.791 65.7583 106.16C66.2593 103.53 64.2553 100.775 61.6249 100.023L62.0007 100.775Z" fill="#ACB6CD"/>
<path opacity="0.3" d="M69.7662 66.3299C69.7662 67.4572 69.14 68.4592 68.6389 69.4612C65.2571 75.8491 61.8753 82.237 58.4935 88.6249C57.4915 90.6289 56.3642 92.6329 54.7359 94.3865C52.7319 96.3905 50.2268 97.7683 47.847 99.2713C44.5905 101.401 41.7097 103.906 38.9541 106.661C37.5763 108.039 33.5682 114.176 31.6895 114.552C34.1945 104.532 42.4612 78.6046 64.5056 62.3218C65.0066 62.0713 65.3824 61.9461 65.8834 61.6956C68.1379 62.1966 69.8915 64.0754 69.7662 66.3299Z" fill="#ACB6CD"/>
<path opacity="0.3" d="M40.5812 109.792C40.0802 109.667 40.3307 108.916 40.5812 108.54C42.5853 106.035 45.2156 104.031 48.2216 102.904C48.7227 102.778 49.2237 102.528 49.7247 102.653C51.1025 102.778 51.7287 104.532 51.7287 105.91C51.9792 109.918 50.1004 114.051 46.8439 116.431C45.7166 117.308 44.2136 118.059 42.7105 117.683C41.0822 117.308 40.0802 115.805 39.7045 114.302C39.3287 112.673 39.7045 111.045 40.0802 109.542L40.5812 109.792Z" fill="#ACB6CD"/>
<path opacity="0.5" d="M144.165 229.534C145.167 230.661 146.295 231.663 147.672 232.29C149.05 232.916 150.678 233.166 152.056 232.415C153.434 231.788 154.311 230.285 154.937 228.908C156.816 224.148 155.939 218.386 152.683 214.504C149.301 210.496 143.915 208.617 138.905 207.114C131.515 204.859 134.02 211.623 135.648 215.881C137.527 221.017 140.408 225.651 144.165 229.534Z" fill="#ACB6CD"/>
<path opacity="0.3" d="M138.654 192.71C139.03 191.833 139.907 191.081 140.909 191.081C141.911 191.081 142.913 191.708 143.289 192.584C143.915 194.213 142.287 196.217 140.533 195.841C138.78 195.465 138.028 192.96 139.281 191.708L138.654 192.71Z" fill="#ACB6CD"/>
<path opacity="0.3" d="M57.8672 273.873C58.2429 272.997 59.1197 272.245 60.1217 272.245C61.1238 272.245 62.1258 272.871 62.5015 273.748C63.1278 275.376 61.4995 277.38 59.746 277.005C57.9924 276.629 57.2409 274.124 58.4935 272.871L57.8672 273.873Z" fill="#ACB6CD"/>
<path opacity="0.3" d="M81.916 207.239C82.2918 206.362 83.1685 205.611 84.1706 205.611C85.1726 205.611 86.1746 206.237 86.5504 207.114C87.1766 208.742 85.5483 210.746 83.7948 210.37C82.0413 209.995 81.2898 207.49 82.5423 206.237L81.916 207.239Z" fill="#ACB6CD"/>
<path opacity="0.3" d="M179.486 229.033C180.363 226.152 181.365 223.146 183.494 220.891C183.87 220.516 184.371 220.14 184.872 220.14C185.498 220.265 185.748 221.017 185.999 221.518C189.631 234.419 191.26 247.821 190.759 261.223C190.633 264.479 190.383 267.736 188.88 270.617C187.377 273.623 183.369 277.38 180.864 274.374C178.233 271.243 177.858 263.227 177.357 259.344C175.979 249.449 176.73 238.928 179.486 229.033Z" fill="#ACB6CD"/>
<path opacity="0.3" d="M87.3008 314.33C94.1897 309.695 102.081 306.815 109.972 304.811C120.743 302.055 132.392 300.803 142.913 304.31C153.434 307.817 162.703 317.085 163.329 328.233C163.329 329.235 163.329 330.237 162.828 330.988C162.327 331.865 161.325 332.366 160.448 332.867C153.434 336.124 145.418 335.748 137.778 335.497C123.123 334.996 108.343 334.871 93.8139 336.75C89.9311 337.251 85.923 337.877 82.0402 337.752C74.6503 337.376 70.3917 334.871 74.3998 327.857C77.5311 322.471 82.1655 317.837 87.3008 314.33Z" fill="#ACB6CD"/>
<path opacity="0.3" d="M175.855 298.423C177.608 299.174 179.236 300.302 180.238 301.93C181.24 303.558 181.24 305.813 179.988 307.191C179.111 308.067 177.859 308.568 176.731 308.819C173.35 309.57 169.843 309.32 166.586 308.318C164.206 307.566 158.069 305.186 157.192 302.431C154.687 295.542 172.473 296.92 175.855 298.423Z" fill="#ACB6CD"/>
<path opacity="0.3" d="M167.087 315.582C165.834 314.956 166.335 312.827 167.588 312.451C168.84 312.075 170.343 312.702 171.345 313.453C172.097 314.079 172.848 314.956 172.598 315.833C172.347 317.085 170.719 317.461 169.592 317.085C168.465 316.71 167.463 315.708 166.461 315.207L167.087 315.582Z" fill="#ACB6CD"/>
<path opacity="0.3" d="M48.9727 328.484C47.4697 331.114 44.5889 332.492 41.7081 333.368C36.9485 334.997 31.8132 335.999 26.803 336.374C23.5465 336.625 20.0394 336.5 17.1586 334.997C13.7768 333.243 11.898 330.989 11.1465 328.484C11.5222 325.478 12.0233 322.346 12.399 319.465C15.9061 312.576 24.0475 306.189 30.1849 305.312C34.3182 304.686 38.702 305.187 42.0839 307.566C45.7162 310.071 47.7202 314.205 49.098 318.463C50.1 321.72 50.7263 325.478 48.9727 328.484Z" fill="#ACB6CD"/>
<path opacity="0.3" d="M37.451 348.649C37.0752 348.774 36.8247 348.273 36.8247 348.023C36.8247 347.647 37.0752 347.396 37.3257 347.146C39.455 345.017 42.3358 343.013 45.0914 344.015C45.9682 344.265 46.7197 344.891 47.2207 345.518C48.7237 347.271 49.2247 350.027 48.2227 352.156C47.2207 354.285 44.5904 355.663 42.3358 355.037C39.3298 354.285 37.7015 351.029 36.5742 348.023L37.451 348.649Z" fill="#ACB6CD"/>
<path opacity="0.3" d="M51.855 338.629C51.354 339.255 50.853 340.007 50.6025 340.883C50.4773 341.76 50.7278 342.762 51.6045 343.013C52.7318 343.514 53.9843 342.261 53.7338 341.009C53.4833 339.881 52.2308 339.13 50.9783 339.255L51.855 338.629Z" fill="#ACB6CD"/>
<path opacity="0.3" d="M199.151 308.318C199.402 312.201 200.028 316.334 202.533 319.34C205.038 322.597 209.171 324.35 212.929 325.853C213.931 326.229 214.933 326.605 216.06 326.605C218.064 326.354 219.317 324.475 220.068 322.722C222.824 316.209 221.446 308.568 219.066 301.93C218.44 300.051 217.563 298.047 216.185 296.669C215.058 295.542 213.43 294.79 211.927 294.164C208.67 292.786 203.284 289.78 200.779 293.413C198.274 296.92 198.901 304.31 199.151 308.318Z" fill="#ACB6CD"/>
<path opacity="0.3" d="M193.265 300.552C193.14 301.554 192.889 302.556 193.265 303.433C193.641 304.31 194.643 305.061 195.645 304.811C196.271 304.56 196.647 303.809 196.897 303.182C197.273 302.18 197.398 301.053 197.022 300.051C196.647 299.049 195.77 298.172 194.643 298.172C193.641 298.172 192.513 299.174 192.764 300.176L193.265 300.552Z" fill="#ACB6CD"/>
<path opacity="0.3" d="M200.779 348.399C207.793 344.892 216.31 344.391 223.575 347.146C226.831 348.399 230.088 350.403 231.591 353.659C231.841 354.16 231.967 354.661 231.841 355.162C231.591 355.789 230.965 356.039 230.338 356.29C221.696 359.045 212.427 358.92 203.409 358.294C200.653 358.168 194.516 358.92 194.14 355.288C193.89 352.281 198.649 349.401 200.779 348.399Z" fill="#ACB6CD"/>
<path opacity="0.3" d="M228.585 344.516C228.961 343.388 230.338 342.637 231.466 343.138C232.593 343.639 232.969 345.267 231.967 346.019C231.34 346.52 230.464 346.394 229.837 346.019C229.211 345.643 228.71 345.017 228.209 344.39L228.585 344.516Z" fill="#ACB6CD"/>
<path opacity="0.3" d="M139.281 260.096C139.907 265.857 141.41 271.493 143.414 276.879C144.792 280.512 146.671 284.019 149.677 286.399C152.808 288.653 157.443 289.279 160.323 286.774C162.327 285.021 163.204 282.265 163.705 279.635C164.206 277.005 164.582 274.249 164.707 271.494C165.083 266.609 165.083 261.473 163.705 256.714C162.327 251.954 159.196 247.57 154.687 245.441C150.929 243.687 145.794 243.687 142.412 246.318C138.655 249.449 138.78 255.461 139.281 260.096Z" fill="#ACB6CD"/>
<path opacity="0.3" d="M131.891 271.619C130.138 270.867 129.136 268.613 129.887 266.734C130.138 265.982 130.764 265.356 131.641 265.356C132.142 265.356 132.643 265.732 133.019 266.108C134.396 267.36 135.273 269.114 135.398 270.993C135.398 271.243 135.398 271.494 135.273 271.744C134.897 272.37 133.895 272.245 133.269 271.869C132.643 271.494 132.017 270.867 131.265 270.993L131.891 271.619Z" fill="#ACB6CD"/>
<path opacity="0.3" d="M169.968 215.881C169.717 216.007 169.467 215.881 169.341 215.631C169.842 214.128 172.097 213.752 173.475 214.504C174.853 215.38 175.604 216.883 176.105 218.512C176.606 220.14 176.857 222.019 175.729 223.271C174.226 225.025 171.095 224.273 169.842 222.269C168.59 220.265 168.84 217.76 169.467 215.506L169.968 215.881Z" fill="#ACB6CD"/>
<path d="M58.6176 336.625L55.4863 361.55L64.0035 338.629L58.6176 336.625Z" fill="#8A94AE"/>
<path d="M123.124 272.496C123.249 275.251 122.999 277.255 122.373 278.508C121.746 279.76 120.494 280.512 118.74 280.512C116.987 280.637 115.484 279.635 114.482 277.631L112.352 272.12C111.35 270.116 109.847 269.114 108.094 269.239H107.718C107.468 269.239 107.468 269.239 107.342 269.239C107.593 272.621 107.593 275.627 107.468 278.257C107.969 278.257 108.47 278.257 109.096 278.382C109.722 278.382 110.474 278.508 111.35 278.508L111.1 281.013C109.847 280.888 108.219 280.762 106.34 280.888L101.581 281.013L101.455 278.257H102.207C102.833 278.257 103.71 278.257 104.712 278.257C104.712 277.255 104.837 276.003 104.712 274.5C104.712 272.997 104.587 271.243 104.461 269.239L104.336 266.609C104.211 264.605 104.086 262.726 104.086 261.223C104.086 259.72 104.086 258.342 104.211 257.215C103.835 257.34 103.334 257.465 102.833 257.591C102.332 257.716 101.581 257.841 100.954 258.092L100.328 255.336C101.581 255.085 102.833 254.835 103.835 254.71C104.962 254.584 106.09 254.459 107.092 254.459C109.221 254.334 111.1 254.334 112.853 254.584C114.607 254.835 115.985 255.211 117.237 255.712C118.49 256.213 119.492 256.964 120.118 257.841C120.87 258.718 121.245 259.595 121.245 260.722C121.245 261.724 121.12 262.601 120.619 263.477C120.243 264.354 119.617 265.106 118.74 265.857C117.989 266.609 116.987 267.11 115.985 267.736C114.857 268.237 113.73 268.613 112.603 268.989C113.354 269.114 114.231 269.991 114.983 271.619L116.736 275.877C116.987 276.629 117.362 277.13 117.613 277.506C117.863 277.881 118.239 278.007 118.74 278.007C120.243 277.881 120.87 276.378 120.744 273.498C120.744 273.247 120.744 272.871 120.619 272.496C120.619 272.12 120.619 271.744 120.494 271.619L123.124 271.494V272.496ZM118.364 260.722C118.364 259.97 118.114 259.469 117.613 258.843C117.112 258.342 116.486 257.841 115.609 257.591C114.732 257.215 113.855 256.964 112.728 256.839C111.601 256.714 110.474 256.714 109.221 256.714C108.47 256.714 107.718 256.839 106.967 256.964C106.716 257.966 106.591 259.469 106.716 261.473C106.716 261.724 106.716 262.1 106.841 262.601C106.841 263.102 106.967 263.603 106.967 264.104C106.967 264.605 107.092 265.106 107.092 265.481C107.092 265.857 107.217 266.108 107.217 266.233C108.344 266.358 109.346 266.358 110.223 266.358C111.476 266.233 112.478 266.108 113.48 265.732C114.482 265.356 115.358 264.98 116.11 264.479C116.861 263.978 117.362 263.352 117.863 262.726C118.239 262.1 118.364 261.348 118.364 260.722Z" fill="#655775"/>
<path d="M134.02 255.461C133.519 255.461 132.893 255.461 132.392 255.461C131.891 255.461 131.265 255.461 130.764 255.461C130.764 256.213 130.764 257.215 130.764 258.467C130.764 259.72 130.764 261.097 130.889 262.6C130.889 264.104 130.889 265.607 131.014 267.235C131.014 268.863 131.014 270.366 131.14 271.744C131.14 273.122 131.14 274.499 131.265 275.627C131.265 276.754 131.265 277.631 131.265 278.257C131.265 278.257 131.515 278.257 131.766 278.257L134.521 278.132L134.647 280.887C134.02 280.887 133.394 280.887 132.643 281.013C131.891 281.013 131.014 281.013 130.012 281.013H125.253L125.128 278.257L126.255 278.132C126.505 278.132 126.881 278.132 127.132 278.132C127.507 278.132 127.758 278.132 128.134 278.132H128.384C128.384 275.627 128.384 272.621 128.259 268.988C128.134 265.356 128.008 260.972 127.883 255.962C127.257 256.087 126.631 256.213 126.004 256.338C125.378 256.463 124.627 256.463 124 256.588L123.875 253.708L133.895 253.081L134.02 255.461Z" fill="#655775"/>
<path d="M153.811 259.219C153.937 260.471 153.686 261.473 153.185 262.6C152.684 263.603 152.058 264.605 151.306 265.356C150.555 266.108 149.553 266.859 148.425 267.235C147.298 267.736 146.171 267.986 144.918 268.112C143.916 268.112 143.04 268.112 142.413 267.986C142.664 269.865 142.914 272.621 143.29 276.504L147.924 276.128L148.05 278.883C147.674 278.883 147.298 278.883 146.672 279.009C146.171 279.009 145.545 279.134 144.793 279.134C144.042 279.134 143.415 279.259 142.664 279.259C141.912 279.259 141.161 279.384 140.534 279.384C139.908 279.384 139.282 279.51 138.656 279.51C138.155 279.51 137.654 279.635 137.403 279.635L137.278 276.879L140.534 276.629L140.409 273.873C140.159 270.116 139.908 266.734 139.658 263.728C139.407 260.722 139.157 258.091 138.906 255.586L136.151 255.712L136.025 252.956C136.276 252.956 136.652 252.956 137.403 252.831C138.029 252.831 138.656 252.706 139.407 252.58C140.159 252.455 140.785 252.455 141.411 252.33C142.038 252.205 142.539 252.205 142.914 252.205C144.543 252.079 145.92 252.205 147.298 252.455C148.551 252.706 149.803 253.207 150.68 253.708C151.682 254.334 152.433 255.085 152.934 255.962C153.435 257.089 153.686 258.091 153.811 259.219ZM151.181 259.72C150.93 256.463 148.425 254.96 143.541 255.336L141.787 255.461C141.662 255.461 141.662 255.586 141.537 255.837C141.537 256.087 141.411 256.338 141.411 256.714C141.411 257.089 141.411 257.465 141.411 257.841C141.411 258.217 141.411 258.718 141.411 259.093C141.411 259.845 141.537 260.471 141.537 260.972C141.537 261.473 141.662 261.974 141.662 262.475C141.662 262.976 141.787 263.477 141.787 263.853C141.787 264.354 141.912 264.855 141.912 265.356C142.288 265.356 142.539 265.481 142.914 265.481C143.29 265.481 143.666 265.481 144.167 265.481C145.169 265.481 146.171 265.231 147.048 264.98C147.924 264.73 148.676 264.229 149.302 263.853C149.928 263.352 150.429 262.851 150.68 262.099C151.181 261.223 151.306 260.471 151.181 259.72Z" fill="#655775"/>
<path d="M101.58 281.013L102.958 282.641L111.35 281.514L111.099 281.138C111.099 281.013 105.588 280.261 101.58 281.013Z" fill="#ACB6CD"/>
<path d="M115.232 278.633C115.232 278.633 116.234 280.637 118.99 280.887C121.746 281.138 122.497 278.257 122.497 278.257C122.497 278.257 121.495 280.386 118.865 280.011C116.109 279.76 115.232 278.633 115.232 278.633Z" fill="#ACB6CD"/>
<path d="M125.254 281.013L126.005 281.639L134.648 280.887L125.254 281.013Z" fill="#ACB6CD"/>
<path d="M137.402 279.76L144.041 280.136L148.425 279.259L148.049 278.883C148.049 278.883 140.158 279.009 137.402 279.76Z" fill="#ACB6CD"/>
<path d="M112.604 268.738C112.604 268.738 114.357 268.738 117.113 267.61C119.868 266.483 120.87 262.851 120.87 262.851C120.87 262.851 118.866 266.984 112.604 268.738Z" fill="#ACB6CD"/>
<path d="M142.162 267.987C142.162 267.987 143.54 269.49 146.295 269.364C149.176 269.364 151.18 265.356 151.18 265.356C151.18 265.356 147.798 268.863 142.162 267.987Z" fill="#ACB6CD"/>
<path opacity="0.3" d="M160.825 260.221L156.817 260.596L144.918 293.788C144.918 293.788 170.094 296.168 182.869 292.285L160.825 260.221Z" fill="#68164D"/>
<path d="M160.073 292.286C160.073 292.286 162.578 274.75 161.826 269.74C161.075 264.73 158.945 257.09 158.945 257.09C158.945 257.09 173.85 259.47 177.107 260.722C177.107 260.722 182.117 281.639 182.994 292.411C182.869 292.286 163.329 295.793 160.073 292.286Z" fill="url(#paint28_linear_708:26)"/>
<path d="M158.945 256.964C158.945 256.964 160.073 263.979 158.945 268.488C158.945 268.488 159.196 271.87 161.951 271.243C161.951 271.243 162.703 266.734 164.707 265.732C166.711 264.73 172.974 263.603 176.731 267.36C180.489 271.118 178.359 266.734 178.359 266.734C178.359 266.734 180.238 266.859 180.864 265.857C181.491 264.855 176.982 260.722 176.982 260.722C176.982 260.722 172.222 261.474 168.715 261.849C165.208 262.1 158.945 256.964 158.945 256.964Z" fill="url(#paint29_linear_708:26)"/>
<path d="M158.945 256.964C158.945 256.964 161.45 261.098 167.087 263.227C172.723 265.356 177.107 260.597 177.107 260.597C177.107 260.597 166.961 255.211 158.945 256.964Z" fill="#FFE6B2"/>
<path d="M167.963 260.221C167.963 260.221 170.844 249.199 174.727 245.316L176.981 246.694C176.981 246.694 169.341 254.334 168.84 260.471L167.963 260.221Z" fill="url(#paint30_linear_708:26)"/>
<path opacity="0.3" d="M161.701 277.13C161.701 277.13 161.075 284.77 163.329 288.778C165.584 292.787 176.23 291.785 179.236 289.781C182.242 287.776 179.737 273.498 179.737 273.498C179.737 273.498 182.743 288.528 182.743 292.286C182.743 292.286 166.21 295.166 159.947 292.286C160.073 292.286 161.576 279.134 161.701 277.13Z" fill="url(#paint31_linear_708:26)"/>
<path opacity="0.3" d="M77.4067 252.455L73.1482 256.964L62.627 296.419C62.627 296.419 83.1684 299.926 93.4391 296.043L77.4067 252.455Z" fill="#68164D"/>
<path d="M76.0293 297.17C76.0293 297.17 78.5343 277.881 78.6596 269.364C78.6596 260.847 77.4071 252.455 77.4071 252.455C77.4071 252.455 86.4253 251.578 91.5606 254.334C91.5606 254.334 93.1889 285.647 93.4394 296.043C93.3141 295.918 82.2919 298.172 76.0293 297.17Z" fill="url(#paint32_linear_708:26)"/>
<path d="M77.4062 252.455C77.4062 252.455 78.4083 264.73 77.4062 268.738C77.4062 268.738 78.6588 269.991 79.6608 267.36C80.6628 264.73 77.9073 255.962 81.4143 254.209C84.9214 252.455 84.5456 257.841 88.178 258.467C91.8103 259.094 91.5598 254.209 91.5598 254.209C91.5598 254.209 83.9194 250.451 77.4062 252.455Z" fill="url(#paint33_linear_708:26)"/>
<path d="M77.4062 252.455C77.4062 252.455 88.8042 254.585 91.5598 254.334C91.4345 254.209 87.3012 248.572 77.4062 252.455Z" fill="#FFE6B2"/>
<path d="M84.6719 251.829L89.3062 244.063H91.4355L86.1749 252.455L84.6719 251.829Z" fill="url(#paint34_linear_708:26)"/>
<path opacity="0.3" d="M78.5352 273.498C78.5352 273.498 78.5352 289.405 79.6625 291.659C80.6645 293.914 89.3069 295.041 90.5595 293.914C91.812 292.661 92.6888 275.752 92.6888 275.752C92.6888 275.752 93.9413 294.164 93.4403 296.043C93.4403 296.043 82.5433 298.673 76.1554 297.296C76.0302 297.17 78.2847 277.506 78.5352 273.498Z" fill="url(#paint35_linear_708:26)"/>
<path d="M105.963 335.247L129.886 330.613L141.535 322.722L150.177 318.463L133.769 331.865L132.516 334.496L105.963 335.247Z" fill="#655775"/>
<path opacity="0.5" d="M105.963 335.247L125.252 334.621L132.642 331.49L140.908 324.851L142.912 323.348L150.177 318.463L140.908 322.847L129.886 330.613L105.963 335.247Z" fill="url(#paint36_linear_708:26)"/>
<path d="M93.9395 56.1844L108.343 52.4268C108.343 52.4268 127.883 50.4228 136.525 58.8147H120.117L109.346 54.5561C109.346 54.6814 100.828 56.5602 93.9395 56.1844Z" fill="#B6C6EF"/>
<path d="M140.031 61.0693L145.167 66.7056L153.684 73.0935C153.684 73.0935 148.298 64.9521 140.031 61.0693Z" fill="#B6C6EF"/>
<path opacity="0.57" d="M162.327 122.944L151.805 133.09C151.805 133.09 126.379 88.8755 93.4377 95.5139C70.3912 100.148 65.3811 127.328 65.2559 127.829L68.0114 117.558C70.0155 112.047 73.5225 104.783 79.6599 96.5159C86.0478 87.8735 94.4397 80.4836 104.836 77.6028C107.967 76.726 111.224 76.225 114.981 76.225C149.3 76.3502 159.696 110.669 162.327 122.944Z" fill="url(#paint37_linear_708:26)"/>
<path fill-rule="evenodd" clip-rule="evenodd" d="M130.984 399.55L123.921 411.102C118.784 419.446 92.4589 413.028 64.2073 396.983C35.9558 380.937 16.6933 360.399 21.83 352.056L28.8929 340.503C62.9232 359.757 96.9535 379.654 130.984 399.55Z" fill="url(#paint38_linear_708:26)"/>
<path opacity="0.5" fill-rule="evenodd" clip-rule="evenodd" d="M23.1144 361.683L30.1773 350.13C28.251 346.279 27.6089 342.428 28.8931 340.503L21.8302 352.056C20.546 354.623 21.1881 357.832 23.1144 361.683Z" fill="url(#paint39_linear_708:26)"/>
<path fill-rule="evenodd" clip-rule="evenodd" d="M42.3773 364.25L35.3145 375.802C40.4511 380.937 46.8719 385.43 54.5769 390.564L61.6398 379.012C53.9348 373.877 47.514 368.743 42.3773 364.25Z" fill="url(#paint40_linear_708:26)"/>
<path opacity="0.5" fill-rule="evenodd" clip-rule="evenodd" d="M93.7426 396.34L86.6797 407.893C92.4584 410.46 98.2371 412.386 103.374 413.028L110.437 401.475C105.3 400.191 100.163 398.266 93.7426 396.34Z" fill="url(#paint41_linear_708:26)"/>
<path opacity="0.5" fill-rule="evenodd" clip-rule="evenodd" d="M118.784 402.759L111.721 414.311C118.142 414.953 122.636 413.669 124.562 411.102L131.625 399.549C129.699 402.117 125.204 403.4 118.784 402.759Z" fill="url(#paint42_linear_708:26)"/>
<path fill-rule="evenodd" clip-rule="evenodd" d="M87.9637 355.266C116.215 371.311 134.836 391.207 129.699 399.551C124.562 407.894 98.237 401.476 69.9855 385.431C41.7339 369.386 23.1135 349.489 28.2502 341.146C33.3868 332.802 60.3542 339.22 87.9637 355.266Z" fill="#E26F80"/>
<path fill-rule="evenodd" clip-rule="evenodd" d="M88.606 354.623C116.858 370.669 136.12 391.207 130.983 399.55C125.847 407.894 99.5214 401.476 71.2699 385.43C43.0183 369.385 23.7558 348.847 28.8925 340.503C33.3871 332.16 60.3545 338.578 88.606 354.623Z" fill="url(#paint43_radial_708:26)"/>
<path fill-rule="evenodd" clip-rule="evenodd" d="M36.5976 343.711C35.9555 346.279 36.5976 348.846 37.8818 351.413C39.808 353.98 41.7342 355.906 43.6605 357.831C52.0075 366.175 62.9229 373.877 73.8383 380.295C84.1116 386.071 96.3112 391.848 107.869 395.057C110.437 395.698 113.647 396.34 116.858 396.982C120.71 397.624 124.563 395.698 126.489 391.848L132.91 380.295C138.689 370.026 139.973 359.115 138.046 347.562C138.046 346.279 137.404 344.995 137.404 344.353V343.07L36.5976 343.711Z" fill="url(#paint44_radial_708:26)"/>
<path fill-rule="evenodd" clip-rule="evenodd" d="M136.762 342.428C137.404 343.712 136.762 344.353 136.762 345.637C134.836 354.622 121.994 355.906 112.363 355.264C96.9533 353.981 86.0379 362.324 70.628 362.324C57.7863 362.966 36.5977 357.19 36.5977 344.353C36.5977 342.428 37.8818 341.144 39.166 339.861C45.5868 334.726 60.3547 328.95 71.9121 325.741C87.3221 321.89 102.732 319.964 109.795 319.964C118.142 319.323 133.552 334.726 136.762 342.428Z" fill="url(#paint45_radial_708:26)"/>
<path fill-rule="evenodd" clip-rule="evenodd" d="M113.648 289.158C116.858 293.65 117.5 296.859 117.5 299.427C117.5 300.71 117.5 302.636 118.142 303.278C118.785 303.919 120.711 302.636 121.995 301.994C123.921 300.069 127.774 299.427 132.91 300.069C138.689 300.71 144.468 300.069 150.247 300.069C156.025 300.069 161.804 298.785 167.583 296.859C175.288 294.292 182.351 289.158 188.129 283.381L110.438 282.74C111.08 285.307 112.364 287.232 113.648 289.158Z" fill="url(#paint46_radial_708:26)"/>
<path opacity="0.5" fill-rule="evenodd" clip-rule="evenodd" d="M118.142 334.727C115.574 335.369 113.648 336.652 112.364 337.936C107.869 344.996 129.058 356.548 134.194 346.921C134.836 345.638 134.836 343.712 133.552 341.787C132.268 339.861 130.984 337.936 129.058 336.652C125.847 333.443 123.279 333.443 118.142 334.727Z" fill="url(#paint47_radial_708:26)"/>
<path fill-rule="evenodd" clip-rule="evenodd" d="M152.173 263.485C170.151 263.485 189.414 273.112 189.414 280.172C189.414 287.232 171.435 291.725 149.605 291.725C127.132 291.725 109.796 286.591 109.796 280.172C109.154 273.754 133.553 263.485 152.173 263.485Z" fill="url(#paint48_radial_708:26)"/>
<path opacity="0.5" fill-rule="evenodd" clip-rule="evenodd" d="M179.141 272.471C186.203 279.531 180.425 284.665 172.72 287.232C163.089 290.442 148.321 291.725 138.689 291.725C141.9 291.725 145.11 292.367 148.963 292.367C171.436 292.367 188.772 287.232 188.772 280.814C188.772 275.68 175.93 267.978 161.162 265.411C167.583 266.053 175.288 268.62 179.141 272.471Z" fill="url(#paint49_radial_708:26)"/>
<path fill-rule="evenodd" clip-rule="evenodd" d="M130.984 300.068C151.531 304.56 172.078 300.71 184.919 286.59C164.373 302.635 130.984 300.068 130.984 300.068Z" fill="white"/>
<path fill-rule="evenodd" clip-rule="evenodd" d="M125.848 318.681C139.973 334.084 144.468 353.98 136.763 371.309C141.9 346.92 125.848 318.681 125.848 318.681Z" fill="white"/>
<path opacity="0.75" fill-rule="evenodd" clip-rule="evenodd" d="M92.4589 380.296C93.7431 380.938 94.3851 381.58 93.7431 382.863C93.101 383.505 92.4589 384.147 91.1747 383.505C89.8906 382.863 89.2485 381.58 89.8906 380.938C90.5326 380.296 91.8168 379.654 92.4589 380.296Z" fill="#F9B233"/>
<path opacity="0.75" fill-rule="evenodd" clip-rule="evenodd" d="M104.658 334.084C104.658 334.726 104.658 335.368 105.942 335.368C106.584 335.368 107.227 335.368 107.227 334.726C107.227 334.084 106.584 333.443 105.942 333.443C105.3 333.443 104.658 333.443 104.658 334.084Z" fill="#F9B233"/>
<path opacity="0.75" fill-rule="evenodd" clip-rule="evenodd" d="M104.659 344.354C105.301 343.712 106.586 344.354 107.228 344.996C107.87 345.638 108.512 346.279 107.228 346.921C106.586 347.563 105.301 346.921 104.659 346.279C104.017 345.638 104.017 344.996 104.659 344.354Z" fill="#F9B233"/>
<path fill-rule="evenodd" clip-rule="evenodd" d="M102.734 315.472C103.376 314.831 104.66 315.472 105.302 316.114C105.944 316.756 106.586 317.398 105.302 318.04C104.66 318.681 103.376 318.04 102.734 317.398C102.091 316.756 102.091 316.114 102.734 315.472Z" fill="#F9B233"/>
<path fill-rule="evenodd" clip-rule="evenodd" d="M113.007 308.412C114.291 307.771 114.933 307.771 116.217 309.054C116.859 309.696 117.502 310.98 116.217 311.621C114.933 312.263 113.649 311.621 113.007 310.98C112.365 309.696 112.365 309.054 113.007 308.412Z" fill="#C94300"/>
<path opacity="0.75" fill-rule="evenodd" clip-rule="evenodd" d="M75.7648 355.907C75.1227 355.265 75.1227 354.624 75.7648 353.982C76.4068 353.34 77.0489 353.982 77.691 353.982C78.3331 354.624 77.691 355.265 77.691 355.907C76.4068 356.549 75.7648 356.549 75.7648 355.907Z" fill="#F9B233"/>
<path opacity="0.4" fill-rule="evenodd" clip-rule="evenodd" d="M65.4924 368.102C66.1345 367.46 67.4187 366.818 68.0607 367.46C69.3449 368.102 69.3449 369.385 68.7028 370.669C68.0607 371.311 66.7766 371.311 65.4924 371.311C64.2083 370.669 64.2083 368.743 65.4924 368.102Z" fill="#F9B233"/>
<path opacity="0.75" fill-rule="evenodd" clip-rule="evenodd" d="M118.143 386.072C119.427 386.072 120.069 385.43 120.069 384.146C120.069 382.863 119.427 382.221 118.143 382.221C116.859 382.221 116.217 382.863 116.217 384.146C116.217 385.43 116.859 385.43 118.143 386.072Z" fill="#F9B233"/>
<path opacity="0.4" fill-rule="evenodd" clip-rule="evenodd" d="M102.733 386.713C104.017 386.713 104.659 386.072 104.659 385.43C104.659 384.146 104.017 383.504 102.733 383.504C102.091 383.504 100.807 384.146 100.807 385.43C100.807 386.072 101.449 386.713 102.733 386.713Z" fill="#F9B233"/>
<path opacity="0.75" fill-rule="evenodd" clip-rule="evenodd" d="M118.785 376.445C119.427 377.087 120.711 377.087 120.711 375.803C121.353 375.162 120.711 373.878 120.069 373.878C119.427 373.236 118.143 373.878 118.143 374.52C118.143 375.162 118.143 376.445 118.785 376.445Z" fill="#F9B233"/>
<path opacity="0.4" fill-rule="evenodd" clip-rule="evenodd" d="M82.8276 374.519C83.4697 375.161 84.7539 375.161 85.396 373.877C86.038 373.235 85.396 371.952 84.7539 371.31C84.1118 370.668 82.8276 371.31 82.1855 371.952C82.1855 372.593 82.1855 373.877 82.8276 374.519Z" fill="#F9B233"/>
<path opacity="0.75" fill-rule="evenodd" clip-rule="evenodd" d="M98.2387 341.145C99.5229 341.145 100.165 340.504 100.165 339.862C100.165 339.22 99.5229 337.936 98.2387 337.936C96.9546 337.936 96.3125 338.578 96.3125 339.862C96.3125 340.504 96.9546 341.145 98.2387 341.145Z" fill="#F9B233"/>
<path opacity="0.75" fill-rule="evenodd" clip-rule="evenodd" d="M109.153 393.774C109.795 393.774 111.079 393.132 111.079 392.49C111.079 391.849 110.437 390.565 109.153 390.565C108.511 390.565 107.227 391.207 107.227 392.49C107.869 393.774 108.511 393.774 109.153 393.774Z" fill="#F9B233"/>
<path opacity="0.75" fill-rule="evenodd" clip-rule="evenodd" d="M94.3859 369.385C95.0279 368.743 95.0279 368.743 95.67 369.385C96.3121 370.027 95.67 370.669 95.67 370.669C95.0279 370.669 94.3859 370.669 94.3859 370.669C93.7438 370.669 93.7438 370.027 94.3859 369.385Z" fill="#F9B233"/>
<path opacity="0.75" fill-rule="evenodd" clip-rule="evenodd" d="M100.807 374.52C100.807 375.162 100.807 376.445 101.449 376.445C102.091 376.445 103.375 376.445 103.375 375.162C103.375 374.52 103.375 373.236 102.091 373.236C101.449 373.236 100.807 373.878 100.807 374.52Z" fill="#F9B233"/>
<path opacity="0.4" fill-rule="evenodd" clip-rule="evenodd" d="M107.227 372.593C106.584 373.877 107.227 374.519 108.511 375.161C109.795 375.802 110.437 375.161 111.079 373.877C111.721 373.235 110.437 371.952 109.795 371.952C108.511 371.31 107.869 371.31 107.227 372.593Z" fill="#F9B233"/>
<path opacity="0.75" fill-rule="evenodd" clip-rule="evenodd" d="M71.2706 377.086C71.9127 377.728 72.5548 377.728 73.1969 377.086C73.8389 376.444 73.8389 375.803 73.1969 375.161C72.5548 374.519 71.9127 374.519 71.2706 375.161C70.6285 375.803 70.6285 376.444 71.2706 377.086Z" fill="#F9B233"/>
<path opacity="0.75" fill-rule="evenodd" clip-rule="evenodd" d="M114.932 366.176C113.648 366.176 113.006 364.892 113.006 363.608C113.006 362.325 114.29 361.683 115.574 361.683C116.858 361.683 117.5 362.967 117.5 364.25C117.5 366.176 116.216 366.176 114.932 366.176Z" fill="#F9B233"/>
<path opacity="0.75" fill-rule="evenodd" clip-rule="evenodd" d="M53.9347 365.533C54.5768 366.175 55.2189 366.175 55.8609 365.533C56.503 364.891 56.503 364.25 55.8609 363.608C55.2189 362.966 54.5768 362.966 53.9347 363.608C53.2926 364.25 53.2926 364.891 53.9347 365.533Z" fill="#F9B233"/>
<path opacity="0.4" fill-rule="evenodd" clip-rule="evenodd" d="M91.1757 330.875C92.4598 331.517 93.1019 332.159 92.4598 333.443C91.8178 334.085 91.1757 334.726 89.8915 334.085C88.6074 333.443 87.9653 332.159 88.6074 331.517C89.2494 330.875 89.8915 330.234 91.1757 330.875Z" fill="#F9B233"/>
<path opacity="0.75" fill-rule="evenodd" clip-rule="evenodd" d="M127.774 357.19C128.416 356.548 129.7 355.906 130.342 356.548C131.626 357.19 131.626 358.473 130.984 359.757C130.342 360.399 129.058 360.399 127.774 360.399C126.49 359.757 126.49 357.832 127.774 357.19Z" fill="#F9B233"/>
<path opacity="0.75" fill-rule="evenodd" clip-rule="evenodd" d="M84.7538 341.786C86.038 342.428 86.6801 343.07 86.038 344.354C85.3959 344.996 84.7538 345.637 83.4696 344.996C82.1855 344.354 81.5434 343.07 82.1855 342.428C82.8276 341.787 83.4696 341.786 84.7538 341.786Z" fill="#F9B233"/>
<path fill-rule="evenodd" clip-rule="evenodd" d="M117.5 314.83C118.784 315.472 119.426 316.756 119.426 318.039C118.784 319.323 117.5 319.323 116.216 319.323C114.932 318.681 114.289 317.397 114.932 316.114C114.932 314.83 116.216 314.188 117.5 314.83Z" fill="#F99900"/>
<path opacity="0.75" fill-rule="evenodd" clip-rule="evenodd" d="M129.7 369.385C130.342 368.743 130.342 368.743 130.984 369.385C131.627 370.027 130.984 370.669 130.984 370.669C130.342 370.669 129.7 370.669 129.7 370.669C129.058 370.669 129.058 370.027 129.7 369.385Z" fill="#F9B233"/>
<path opacity="0.75" fill-rule="evenodd" clip-rule="evenodd" d="M101.449 326.384C101.449 327.026 101.449 327.667 102.733 327.667C103.375 327.667 104.018 327.667 104.018 327.026C104.018 326.384 103.375 325.742 102.733 325.742C101.449 325.1 101.449 325.742 101.449 326.384Z" fill="#F9B233"/>
<path opacity="0.4" fill-rule="evenodd" clip-rule="evenodd" d="M112.363 331.518C112.363 332.159 112.363 332.801 113.647 332.801C114.29 332.801 114.932 332.801 114.932 332.159C114.932 331.518 114.29 330.876 113.647 330.876C113.005 330.876 113.005 330.876 112.363 331.518Z" fill="#F9B233"/>
<path fill-rule="evenodd" clip-rule="evenodd" d="M144.467 276.321C145.109 276.321 146.393 275.68 146.393 275.038C146.393 274.396 145.751 273.112 144.467 273.112C143.825 273.112 142.541 273.754 142.541 274.396C142.541 276.321 143.183 276.321 144.467 276.321Z" fill="#FFC82C"/>
<path fill-rule="evenodd" clip-rule="evenodd" d="M147.035 285.949C147.677 285.307 148.32 285.307 148.962 285.949C149.604 286.591 148.962 287.233 148.962 287.875C148.32 288.516 147.677 287.875 147.035 287.875C146.393 287.233 147.035 286.591 147.035 285.949Z" fill="#FFC82C"/>
<path fill-rule="evenodd" clip-rule="evenodd" d="M175.929 274.396C176.571 274.396 177.213 273.755 177.213 273.113C177.213 272.471 177.213 271.829 175.929 271.829C175.287 271.829 174.645 272.471 174.645 273.113C174.645 274.396 175.287 274.396 175.929 274.396Z" fill="#FFC82C"/>
<path opacity="0.5" fill-rule="evenodd" clip-rule="evenodd" d="M130.341 271.829C129.699 271.187 129.057 271.187 127.773 271.187C127.131 271.829 127.131 273.112 127.131 273.754C127.773 274.396 129.057 274.396 129.699 273.754C130.983 273.112 130.983 272.47 130.341 271.829Z" fill="#FFC82C"/>
<path opacity="0.5" fill-rule="evenodd" clip-rule="evenodd" d="M111.721 280.815C111.721 282.099 112.363 283.382 113.647 283.382C114.931 283.382 115.573 282.74 116.215 281.457C116.215 280.173 115.573 278.889 114.289 278.889C112.363 278.889 111.721 279.531 111.721 280.815Z" fill="#FFC82C"/>
<path opacity="0.5" fill-rule="evenodd" clip-rule="evenodd" d="M121.994 285.948C121.994 287.232 122.636 287.232 123.278 287.232C123.92 287.232 124.562 287.232 124.562 285.948C125.205 284.665 123.92 284.023 123.278 284.023C122.636 284.665 121.994 284.665 121.994 285.948Z" fill="#FFC82C"/>
<path opacity="0.5" fill-rule="evenodd" clip-rule="evenodd" d="M129.057 292.367C129.699 292.367 130.341 292.367 130.983 292.367C131.625 292.367 131.625 293.65 130.983 293.65C130.341 293.65 129.699 293.65 129.057 293.009V292.367Z" fill="#FFC82C"/>
<path opacity="0.5" fill-rule="evenodd" clip-rule="evenodd" d="M130.983 282.099C131.625 282.741 132.267 283.382 131.625 284.024C130.983 284.666 130.341 285.308 129.056 284.666C128.414 284.024 127.772 283.382 128.414 282.741C129.699 281.457 130.341 281.457 130.983 282.099Z" fill="#FFC82C"/>
<path opacity="0.5" fill-rule="evenodd" clip-rule="evenodd" d="M143.182 270.546C143.182 271.187 141.898 271.829 141.256 271.829C140.614 271.829 139.972 270.546 140.614 269.904C140.614 269.262 141.898 268.62 142.54 269.262C143.182 268.62 143.824 269.904 143.182 270.546Z" fill="#FFC82C"/>
<path opacity="0.5" fill-rule="evenodd" clip-rule="evenodd" d="M136.762 277.605C136.762 278.247 136.12 278.889 136.12 278.889C135.478 278.889 134.836 278.247 134.836 277.605C134.836 276.963 135.478 276.321 136.12 276.321C136.762 276.321 136.762 276.963 136.762 277.605Z" fill="#FFC82C"/>
<path opacity="0.5" fill-rule="evenodd" clip-rule="evenodd" d="M141.256 284.666C141.256 284.024 141.256 284.024 141.898 283.382C142.54 283.382 142.54 284.024 143.182 284.666C143.182 285.307 142.54 285.949 142.54 285.949C141.898 285.307 141.256 285.307 141.256 284.666Z" fill="#FFC82C"/>
<path opacity="0.5" fill-rule="evenodd" clip-rule="evenodd" d="M167.582 275.039C168.224 273.755 168.224 273.113 167.582 272.471C166.94 271.83 165.656 271.83 165.014 273.113C164.371 274.397 164.371 275.039 165.656 275.68C166.298 275.68 166.94 276.322 167.582 275.039Z" fill="#FFC82C"/>
<path opacity="0.8" fill-rule="evenodd" clip-rule="evenodd" d="M150.889 275.68C151.531 276.322 152.815 276.322 153.457 276.322C154.099 275.68 154.099 274.397 154.099 273.755C153.457 273.113 152.173 273.113 151.531 273.755C150.246 273.755 150.246 275.039 150.889 275.68Z" fill="#FFC82C"/>
<path opacity="0.5" fill-rule="evenodd" clip-rule="evenodd" d="M148.962 282.098C149.604 282.74 150.246 282.74 150.888 282.74C151.53 282.098 151.53 281.456 150.888 280.814C150.246 280.172 149.604 280.172 148.962 280.814C148.32 280.814 148.32 281.456 148.962 282.098Z" fill="#FFC82C"/>
<path opacity="0.5" fill-rule="evenodd" clip-rule="evenodd" d="M158.592 296.218C159.234 296.86 159.876 296.86 160.518 296.218C161.16 295.576 161.803 294.935 161.16 294.293C160.518 293.651 159.876 293.651 159.234 294.293C158.592 294.935 157.95 295.576 158.592 296.218Z" fill="#FFC82C"/>
<path opacity="0.5" fill-rule="evenodd" clip-rule="evenodd" d="M166.297 286.591C166.939 285.949 166.939 284.665 166.297 284.665C165.655 284.024 164.37 284.024 163.728 285.307C163.086 285.949 163.086 287.233 164.37 287.875C165.013 287.875 166.297 287.233 166.297 286.591Z" fill="#FFC82C"/>
<path opacity="0.8" fill-rule="evenodd" clip-rule="evenodd" d="M177.212 282.74C177.854 282.098 177.854 280.814 177.212 280.173C176.57 279.531 175.286 280.173 174.644 280.814C174.002 281.456 174.002 282.74 174.644 283.382C175.286 284.023 176.57 283.382 177.212 282.74Z" fill="#FFC82C"/>
<path opacity="0.5" fill-rule="evenodd" clip-rule="evenodd" d="M183.634 285.307C184.276 284.665 183.634 284.023 183.634 284.023C182.992 283.381 182.35 284.023 182.35 284.023C181.708 284.665 182.35 285.307 182.35 285.307C182.35 285.307 182.992 285.307 183.634 285.307Z" fill="#FFC82C"/>
<path fill-rule="evenodd" clip-rule="evenodd" d="M107.868 208.931L205.464 265.411L197.759 278.889C191.339 289.8 181.065 298.143 168.866 301.994C163.087 303.92 156.666 305.203 149.603 305.203C118.141 306.487 121.994 299.427 136.762 327.667C139.972 333.443 141.898 339.861 143.182 345.638C145.751 357.832 143.825 370.668 137.404 382.221L129.699 395.699C125.204 403.401 99.5209 397.624 72.5535 382.221C45.5861 366.817 27.6078 347.563 32.1024 339.219L39.8074 325.741C46.2282 314.83 56.5015 306.487 68.701 302.636C74.4797 300.711 80.9006 299.427 87.9635 299.427C119.425 298.143 115.573 305.203 100.805 276.963C97.5947 271.187 95.6684 264.769 94.3843 258.993C91.8159 246.156 93.1001 233.32 100.163 222.409L107.868 208.931ZM109.794 216.633L104.658 224.976C98.8788 235.246 97.5947 246.156 99.5209 257.709C100.805 263.485 102.731 269.262 105.3 274.396C107.868 279.531 110.436 284.665 113.647 289.158C120.71 299.427 117.499 305.845 104.658 304.561C98.8788 303.92 93.1001 304.561 87.3214 304.561C81.5426 304.561 75.7639 305.845 69.9852 307.77C59.0698 311.621 50.0807 318.681 44.3019 328.95L37.8811 340.503C35.9549 343.712 35.9549 347.563 38.5232 350.772C40.4494 353.339 42.3757 355.265 44.3019 357.19C52.649 365.534 63.5644 373.236 74.4797 379.654C84.753 385.43 96.9526 391.206 108.51 394.415C111.078 395.057 114.289 395.699 117.499 396.341C121.352 396.983 125.204 395.057 127.13 391.206L133.551 379.654C139.33 369.385 140.614 358.474 138.688 346.921C137.404 341.145 135.477 335.368 132.909 330.234C130.341 325.099 127.772 319.965 124.562 315.472C117.499 305.203 120.71 298.785 133.551 300.069C139.33 300.711 145.109 300.069 150.887 300.069C156.666 300.069 162.445 298.785 168.224 296.86C179.139 293.009 188.128 285.949 193.907 275.68L199.044 266.694L109.794 216.633Z" fill="url(#paint50_radial_708:26)"/>
<path opacity="0.35" fill-rule="evenodd" clip-rule="evenodd" d="M169.508 262.843C163.087 273.754 155.382 283.381 147.035 289.8C143.183 293.009 139.33 295.576 135.478 297.501C117.5 306.487 120.71 299.427 122.636 319.965C123.278 324.457 122.636 328.95 121.994 334.085C120.068 344.354 116.216 355.906 109.795 366.817C104.658 375.803 99.5214 384.788 94.3848 393.132C100.163 395.699 105.3 396.982 109.795 398.266C114.289 390.564 118.784 382.221 123.278 374.519C129.699 363.608 132.91 351.414 132.268 339.861C132.268 334.085 130.983 328.95 129.699 323.816C121.352 300.069 117.5 306.487 142.541 301.352C147.678 300.069 152.814 298.143 157.951 295.576C167.582 290.441 177.213 281.456 183.634 270.545C186.202 266.052 188.771 261.56 191.339 257.067L177.213 248.723C174.645 253.858 172.077 258.351 169.508 262.843Z" fill="url(#paint51_radial_708:26)"/>
<path fill-rule="evenodd" clip-rule="evenodd" d="M75.1225 346.921C81.5434 336.01 88.6063 325.741 95.6692 318.681C98.8796 314.831 102.09 312.263 105.3 309.696C120.068 298.785 116.216 305.203 118.142 287.233C118.784 283.382 119.426 278.889 120.71 274.396C123.279 264.769 128.415 253.858 134.836 242.947C137.404 238.455 139.973 233.962 142.541 229.469L116.858 214.066C114.29 218.558 111.721 223.051 109.153 227.544C102.732 238.455 100.164 251.291 101.448 262.844C102.09 268.62 103.374 274.396 105.3 279.531C116.216 305.203 119.426 298.143 92.4587 301.994C86.68 302.636 80.9013 304.562 75.7646 307.129C64.8492 312.263 55.8601 320.607 49.4393 331.518C44.9447 338.578 41.0922 346.279 36.5977 353.339C41.7343 359.758 49.4393 366.818 60.3547 374.519C64.8492 364.892 69.9859 355.907 75.1225 346.921Z" fill="url(#paint52_radial_708:26)" fill-opacity="0.1"/>
<path fill-rule="evenodd" clip-rule="evenodd" d="M87.323 305.203C77.6917 305.845 66.1343 312.905 58.4293 321.248C55.861 324.458 48.7981 334.085 48.156 338.577C47.5139 344.996 61.6397 353.339 63.5659 350.13C69.9868 339.861 75.1234 328.95 87.965 315.472C89.8913 313.547 92.4596 312.263 94.3858 310.338C96.9542 307.77 89.8913 305.203 87.323 305.203Z" fill="url(#paint53_radial_708:26)" fill-opacity="0.1"/>
<path fill-rule="evenodd" clip-rule="evenodd" d="M123.278 237.813C122.636 237.171 114.931 232.037 114.289 232.037C113.647 232.037 113.004 232.037 111.72 233.32C109.152 236.53 106.584 242.948 105.942 245.515C103.373 255.142 104.015 267.337 109.794 275.038C110.436 275.68 111.72 277.606 113.004 277.606C113.647 277.606 113.647 276.964 113.647 275.68C113.004 272.471 113.004 268.62 113.647 265.411C114.931 257.068 118.141 249.366 122.636 242.306C123.92 239.739 123.92 238.455 123.278 237.813Z" fill="url(#paint54_radial_708:26)" fill-opacity="0.1"/>
<path opacity="0.1" fill-rule="evenodd" clip-rule="evenodd" d="M107.729 215.45L198.262 267.437L192.484 277.064C186.705 287.333 177.074 294.393 166.158 298.244C160.38 300.169 154.601 301.453 148.18 301.453C142.401 301.453 136.623 302.095 130.844 301.453C127.634 301.453 121.855 301.453 119.929 304.662C118.002 307.871 121.213 313.005 123.139 315.573C126.349 320.065 128.918 325.2 131.486 330.334C134.054 335.469 136.623 341.245 137.265 347.022C139.191 358.574 137.907 370.127 132.128 380.396L125.707 391.949C123.781 395.799 119.929 397.725 115.434 397.083C112.224 397.083 109.655 396.441 106.445 395.158C100.024 393.232 94.2453 391.307 88.4666 388.74C82.6879 387.456 77.5512 384.889 71.7725 381.68C66.6358 378.47 61.4992 375.261 56.3625 372.052C51.2259 368.201 46.0892 364.351 41.5946 359.858C39.6684 357.932 37.7422 355.365 35.8159 352.798C33.2476 348.947 33.2476 345.096 35.1738 341.245L41.5946 329.693C47.3734 319.424 57.0046 312.364 67.92 308.513C73.6987 306.587 79.4774 305.304 85.8983 305.304C91.677 305.304 97.4557 304.662 103.234 305.304C106.445 305.304 112.224 305.304 114.15 302.095C116.076 298.886 112.866 293.751 110.939 291.184C107.729 286.691 105.161 281.557 102.592 276.422C100.024 271.288 97.4557 265.511 96.8136 259.735C94.8874 248.182 96.1716 236.63 101.95 226.361L107.729 215.45Z" fill="white"/>
<path fill-rule="evenodd" clip-rule="evenodd" d="M213.171 257.708L206.108 269.261C200.972 277.605 174.646 271.186 146.395 255.141C118.143 239.096 98.8808 218.558 104.017 210.214L111.08 198.661C145.111 217.916 179.141 237.812 213.171 257.708Z" fill="url(#paint55_linear_708:26)"/>
<path opacity="0.5" fill-rule="evenodd" clip-rule="evenodd" d="M105.302 219.841L112.365 208.289C109.796 204.438 109.796 200.587 111.081 198.661L104.018 210.214C102.734 212.781 103.376 215.99 105.302 219.841Z" fill="url(#paint56_linear_708:26)"/>
<path fill-rule="evenodd" clip-rule="evenodd" d="M123.921 222.408L117.5 233.961C122.637 238.454 129.057 243.588 136.12 248.723L143.183 237.17C135.478 232.036 129.057 226.901 123.921 222.408Z" fill="url(#paint57_linear_708:26)"/>
<path opacity="0.5" fill-rule="evenodd" clip-rule="evenodd" d="M175.93 254.499L168.867 266.052C174.646 268.619 180.425 270.544 185.561 271.186L192.624 259.634C187.488 258.35 181.709 256.424 175.93 254.499Z" fill="url(#paint58_linear_708:26)"/>
<path opacity="0.5" fill-rule="evenodd" clip-rule="evenodd" d="M200.329 260.917L193.266 272.47C199.686 273.112 204.181 271.828 206.107 269.261L213.17 257.708C211.244 260.275 206.749 261.559 200.329 260.917Z" fill="url(#paint59_linear_708:26)"/>
<path fill-rule="evenodd" clip-rule="evenodd" d="M170.151 213.424C198.403 229.47 217.023 249.366 211.887 257.709C206.75 266.053 180.425 259.635 152.173 243.589C123.921 227.544 105.301 207.648 110.438 199.304C115.574 190.961 141.9 197.379 170.151 213.424Z" fill="#E26F80"/>
<path fill-rule="evenodd" clip-rule="evenodd" d="M170.794 212.782C199.045 228.827 218.308 249.365 213.171 257.709C208.034 266.052 181.709 259.634 153.457 243.589C125.206 227.543 105.943 207.005 111.08 198.662C115.575 190.318 142.542 196.736 170.794 212.782Z" fill="url(#paint60_radial_708:26)"/>
<defs>
<linearGradient id="paint0_linear_708:26" x1="72.4262" y1="55.7242" x2="89.0549" y2="-0.775428" gradientUnits="userSpaceOnUse">
<stop stop-color="#6B618B"/>
<stop offset="1" stop-color="#8E7182"/>
</linearGradient>
<linearGradient id="paint1_linear_708:26" x1="96.2764" y1="55.9583" x2="115.526" y2="1.22974" gradientUnits="userSpaceOnUse">
<stop stop-color="#989BBB"/>
<stop offset="1" stop-color="#AC80A9"/>
</linearGradient>
<linearGradient id="paint2_linear_708:26" x1="98.7658" y1="44.3601" x2="112.411" y2="5.56685" gradientUnits="userSpaceOnUse">
<stop stop-color="#989BBB"/>
<stop offset="1" stop-color="#AC80A9"/>
</linearGradient>
<linearGradient id="paint3_linear_708:26" x1="95.2525" y1="45.1763" x2="99.4234" y2="31.0044" gradientUnits="userSpaceOnUse">
<stop stop-color="#6B618B"/>
<stop offset="1" stop-color="#8E7182"/>
</linearGradient>
<linearGradient id="paint4_linear_708:26" x1="33.9777" y1="299.314" x2="119.151" y2="57.1577" gradientUnits="userSpaceOnUse">
<stop stop-color="#495374"/>
<stop offset="1" stop-color="#8E7182"/>
</linearGradient>
<linearGradient id="paint5_linear_708:26" x1="88.4737" y1="308.692" x2="172.181" y2="70.7048" gradientUnits="userSpaceOnUse">
<stop stop-color="#7C85A2"/>
<stop offset="1" stop-color="#9F9DD1"/>
</linearGradient>
<linearGradient id="paint6_linear_708:26" x1="87.8757" y1="303.015" x2="162.661" y2="90.3929" gradientUnits="userSpaceOnUse">
<stop stop-color="#656E8D"/>
<stop offset="1" stop-color="#846579"/>
</linearGradient>
<linearGradient id="paint7_linear_708:26" x1="104.52" y1="369.802" x2="140.565" y2="267.324" gradientUnits="userSpaceOnUse">
<stop stop-color="#596383"/>
<stop offset="1" stop-color="#8E7182"/>
</linearGradient>
<linearGradient id="paint8_linear_708:26" x1="133.467" y1="359.957" x2="164.864" y2="270.693" gradientUnits="userSpaceOnUse">
<stop stop-color="#707997"/>
<stop offset="1" stop-color="#AC8FA1"/>
</linearGradient>
<linearGradient id="paint9_linear_708:26" x1="106.837" y1="327.54" x2="131.019" y2="258.789" gradientUnits="userSpaceOnUse">
<stop stop-color="#939BB6"/>
<stop offset="1" stop-color="#D4B8CB"/>
</linearGradient>
<linearGradient id="paint10_linear_708:26" x1="81.4437" y1="300.749" x2="153.659" y2="95.4336" gradientUnits="userSpaceOnUse">
<stop stop-color="#707997"/>
<stop offset="1" stop-color="#8B81A7"/>
</linearGradient>
<linearGradient id="paint11_linear_708:26" x1="106.56" y1="307.739" x2="135.231" y2="226.226" gradientUnits="userSpaceOnUse">
<stop stop-color="#7C85A2"/>
<stop offset="1" stop-color="#AC8FA1"/>
</linearGradient>
<linearGradient id="paint12_linear_708:26" x1="69.3879" y1="294.665" x2="86.8231" y2="245.095" gradientUnits="userSpaceOnUse">
<stop stop-color="#596383"/>
<stop offset="1" stop-color="#8E7182"/>
</linearGradient>
<linearGradient id="paint13_linear_708:26" x1="115.005" y1="256.639" x2="127.059" y2="222.368" gradientUnits="userSpaceOnUse">
<stop stop-color="#939BB6"/>
<stop offset="1" stop-color="#D4B8CB"/>
</linearGradient>
<linearGradient id="paint14_linear_708:26" x1="97.17" y1="175.946" x2="120.698" y2="109.054" gradientUnits="userSpaceOnUse">
<stop stop-color="#596383"/>
<stop offset="1" stop-color="#8E7182"/>
</linearGradient>
<linearGradient id="paint15_linear_708:26" x1="102.281" y1="176.664" x2="126.291" y2="108.403" gradientUnits="userSpaceOnUse">
<stop stop-color="#9A92B4"/>
<stop offset="1" stop-color="#AC8FA1"/>
</linearGradient>
<linearGradient id="paint16_linear_708:26" x1="71.2087" y1="295.989" x2="71.2087" y2="240.274" gradientUnits="userSpaceOnUse">
<stop stop-color="white"/>
<stop offset="1" stop-color="#A47A9F"/>
</linearGradient>
<linearGradient id="paint17_linear_708:26" x1="29.9229" y1="143.078" x2="52.3683" y2="143.078" gradientUnits="userSpaceOnUse">
<stop stop-color="#6F77A2"/>
<stop offset="1" stop-color="#AC8195"/>
</linearGradient>
<linearGradient id="paint18_linear_708:26" x1="30.3606" y1="138.964" x2="65.4939" y2="138.964" gradientUnits="userSpaceOnUse">
<stop stop-color="white"/>
<stop offset="1" stop-color="#A47A9F"/>
</linearGradient>
<linearGradient id="paint19_linear_708:26" x1="156.941" y1="206.995" x2="186.614" y2="206.995" gradientUnits="userSpaceOnUse">
<stop stop-color="#6DB2FF"/>
<stop offset="1" stop-color="#A47A9F"/>
</linearGradient>
<linearGradient id="paint20_linear_708:26" x1="52.3086" y1="266.093" x2="52.3086" y2="231.054" gradientUnits="userSpaceOnUse">
<stop stop-color="#75B2B5"/>
<stop offset="1" stop-color="#A47A9F"/>
</linearGradient>
<linearGradient id="paint21_linear_708:26" x1="130.929" y1="84.3938" x2="152.02" y2="84.3938" gradientUnits="userSpaceOnUse">
<stop stop-color="#6DB2FF"/>
<stop offset="1" stop-color="#A47A9F"/>
</linearGradient>
<linearGradient id="paint22_linear_708:26" x1="110.084" y1="296.394" x2="110.084" y2="268.829" gradientUnits="userSpaceOnUse">
<stop stop-color="#A47A9F"/>
<stop offset="1" stop-color="white"/>
</linearGradient>
<linearGradient id="paint23_linear_708:26" x1="119.942" y1="337.704" x2="119.942" y2="295.989" gradientUnits="userSpaceOnUse">
<stop stop-color="#A47A9F"/>
<stop offset="1" stop-color="white"/>
</linearGradient>
<linearGradient id="paint24_linear_708:26" x1="106.461" y1="398.971" x2="140.844" y2="301.214" gradientUnits="userSpaceOnUse">
<stop stop-color="#596383"/>
<stop offset="1" stop-color="#8E7182"/>
</linearGradient>
<linearGradient id="paint25_linear_708:26" x1="138.648" y1="390.785" x2="166.926" y2="310.388" gradientUnits="userSpaceOnUse">
<stop stop-color="#707997"/>
<stop offset="1" stop-color="#AC8FA1"/>
</linearGradient>
<linearGradient id="paint26_linear_708:26" x1="140.074" y1="365.334" x2="160.229" y2="308.033" gradientUnits="userSpaceOnUse">
<stop stop-color="#939BB6"/>
<stop offset="1" stop-color="#D4B8CB"/>
</linearGradient>
<linearGradient id="paint27_linear_708:26" x1="170.521" y1="360.918" x2="179.983" y2="334.016" gradientUnits="userSpaceOnUse">
<stop stop-color="#939BB6"/>
<stop offset="1" stop-color="#D4B8CB"/>
</linearGradient>
<linearGradient id="paint28_linear_708:26" x1="170.865" y1="293.829" x2="170.865" y2="256.991" gradientUnits="userSpaceOnUse">
<stop stop-color="#FF7C75"/>
<stop offset="1" stop-color="#FFAE8B"/>
</linearGradient>
<linearGradient id="paint29_linear_708:26" x1="169.931" y1="271.296" x2="169.931" y2="256.991" gradientUnits="userSpaceOnUse">
<stop offset="0.00396825" stop-color="#FFA993"/>
<stop offset="1" stop-color="#FFEB9F"/>
</linearGradient>
<linearGradient id="paint30_linear_708:26" x1="172.467" y1="260.605" x2="172.467" y2="245.353" gradientUnits="userSpaceOnUse">
<stop stop-color="#FF9A7F"/>
<stop offset="1" stop-color="#A39FC0"/>
</linearGradient>
<linearGradient id="paint31_linear_708:26" x1="168.558" y1="295.283" x2="176.625" y2="272.347" gradientUnits="userSpaceOnUse">
<stop stop-color="#A47A9F"/>
<stop offset="1" stop-color="white"/>
</linearGradient>
<linearGradient id="paint32_linear_708:26" x1="84.6889" y1="297.42" x2="84.6889" y2="252.29" gradientUnits="userSpaceOnUse">
<stop stop-color="#FF7C75"/>
<stop offset="1" stop-color="#FFAE8B"/>
</linearGradient>
<linearGradient id="paint33_linear_708:26" x1="84.4146" y1="269.001" x2="84.4146" y2="251.839" gradientUnits="userSpaceOnUse">
<stop offset="0.00396825" stop-color="#FFA993"/>
<stop offset="1" stop-color="#FFEB9F"/>
</linearGradient>
<linearGradient id="paint34_linear_708:26" x1="88.0851" y1="252.422" x2="88.0851" y2="244.098" gradientUnits="userSpaceOnUse">
<stop stop-color="#FF9A7F"/>
<stop offset="1" stop-color="#A39FC0"/>
</linearGradient>
<linearGradient id="paint35_linear_708:26" x1="80.9318" y1="298.893" x2="89.4681" y2="274.623" gradientUnits="userSpaceOnUse">
<stop stop-color="#A47A9F"/>
<stop offset="1" stop-color="white"/>
</linearGradient>
<linearGradient id="paint36_linear_708:26" x1="105.95" y1="326.864" x2="150.152" y2="326.864" gradientUnits="userSpaceOnUse">
<stop stop-color="#6DB2FF"/>
<stop offset="1" stop-color="#A47A9F"/>
</linearGradient>
<linearGradient id="paint37_linear_708:26" x1="65.2557" y1="104.745" x2="162.264" y2="104.745" gradientUnits="userSpaceOnUse">
<stop stop-color="#764370"/>
<stop offset="1" stop-color="#BB9FB2"/>
</linearGradient>
<linearGradient id="paint38_linear_708:26" x1="20.9645" y1="353.755" x2="123.305" y2="412.867" gradientUnits="userSpaceOnUse">
<stop offset="0.00743494" stop-color="#781916"/>
<stop offset="0.3086" stop-color="#963333"/>
<stop offset="1" stop-color="#450E0E"/>
</linearGradient>
<linearGradient id="paint39_linear_708:26" x1="23.3818" y1="349.57" x2="28.7676" y2="352.681" gradientUnits="userSpaceOnUse">
<stop stop-color="#616DBE"/>
<stop offset="0.6029" stop-color="#C3C7E6"/>
<stop offset="1" stop-color="white"/>
</linearGradient>
<linearGradient id="paint40_linear_708:26" x1="38.0266" y1="371.475" x2="58.4941" y2="383.297" gradientUnits="userSpaceOnUse">
<stop stop-color="#AB665D"/>
<stop offset="1" stop-color="#2B2321"/>
</linearGradient>
<linearGradient id="paint41_linear_708:26" x1="91.4398" y1="400.52" x2="106.06" y2="408.965" gradientUnits="userSpaceOnUse">
<stop stop-color="#AB665D"/>
<stop offset="1" stop-color="#2B2321"/>
</linearGradient>
<linearGradient id="paint42_linear_708:26" x1="117.492" y1="404.752" x2="125.365" y2="409.299" gradientUnits="userSpaceOnUse">
<stop stop-color="white"/>
<stop offset="0.3971" stop-color="#C3C7E6"/>
<stop offset="1" stop-color="#616DBE"/>
</linearGradient>
<radialGradient id="paint43_radial_708:26" cx="0" cy="0" r="1" gradientUnits="userSpaceOnUse" gradientTransform="translate(39.3234 400.981) rotate(29.9904) scale(80.7765 80.7596)">
<stop stop-color="#BF4444"/>
<stop offset="1" stop-color="#57172E"/>
</radialGradient>
<radialGradient id="paint44_radial_708:26" cx="0" cy="0" r="1" gradientUnits="userSpaceOnUse" gradientTransform="translate(86.6007 351.364) rotate(29.9904) scale(69.1467 69.1323)">
<stop stop-color="#FFA536"/>
<stop offset="1" stop-color="#A11300"/>
</radialGradient>
<radialGradient id="paint45_radial_708:26" cx="0" cy="0" r="1" gradientUnits="userSpaceOnUse" gradientTransform="translate(84.0313 322.518) rotate(29.9904) scale(72.6443 72.6291)">
<stop stop-color="#FFA536"/>
<stop offset="1" stop-color="#D14A00"/>
</radialGradient>
<radialGradient id="paint46_radial_708:26" cx="0" cy="0" r="1" gradientUnits="userSpaceOnUse" gradientTransform="translate(140.735 257.752) rotate(29.9904) scale(53.5647 53.5535)">
<stop stop-color="#FFA536"/>
<stop offset="1" stop-color="#A11300"/>
</radialGradient>
<radialGradient id="paint47_radial_708:26" cx="0" cy="0" r="1" gradientUnits="userSpaceOnUse" gradientTransform="translate(113.28 356.345) rotate(29.9904) scale(27.7325 27.7267)">
<stop stop-color="#CC3300"/>
<stop offset="1" stop-color="white"/>
</radialGradient>
<radialGradient id="paint48_radial_708:26" cx="0" cy="0" r="1" gradientUnits="userSpaceOnUse" gradientTransform="translate(146.127 265.909) rotate(29.9904) scale(57.6548 57.6428)">
<stop stop-color="#FFA536"/>
<stop offset="1" stop-color="#D14A00"/>
</radialGradient>
<radialGradient id="paint49_radial_708:26" cx="0" cy="0" r="1" gradientUnits="userSpaceOnUse" gradientTransform="translate(160.518 266.458) rotate(29.9904) scale(55.5427 55.5311)">
<stop stop-color="#CC3300"/>
<stop offset="1" stop-color="white"/>
</radialGradient>
<radialGradient id="paint50_radial_708:26" cx="0" cy="0" r="1" gradientUnits="userSpaceOnUse" gradientTransform="translate(86.0058 223.428) rotate(29.9904) scale(222.761 222.715)">
<stop stop-color="#CCF0EF"/>
<stop offset="1" stop-color="#5E73E6"/>
</radialGradient>
<radialGradient id="paint51_radial_708:26" cx="0" cy="0" r="1" gradientUnits="userSpaceOnUse" gradientTransform="translate(195.072 365.328) rotate(29.9904) scale(131.597 131.569)">
<stop offset="0.3699"/>
<stop offset="1" stop-color="white"/>
</radialGradient>
<radialGradient id="paint52_radial_708:26" cx="0" cy="0" r="1" gradientUnits="userSpaceOnUse" gradientTransform="translate(121.558 295.119) rotate(29.9904) scale(153.726 153.694)">
<stop/>
<stop offset="1" stop-color="white"/>
</radialGradient>
<radialGradient id="paint53_radial_708:26" cx="0" cy="0" r="1" gradientUnits="userSpaceOnUse" gradientTransform="translate(91.0432 341.223) rotate(29.9904) scale(175.85 175.813)">
<stop/>
<stop offset="0.5651" stop-color="white"/>
</radialGradient>
<radialGradient id="paint54_radial_708:26" cx="0" cy="0" r="1" gradientUnits="userSpaceOnUse" gradientTransform="translate(129.946 264.587) rotate(-21.3071) scale(61.9892 61.9702)">
<stop/>
<stop offset="1" stop-color="white"/>
</radialGradient>
<linearGradient id="paint55_linear_708:26" x1="102.885" y1="211.924" x2="205.225" y2="271.037" gradientUnits="userSpaceOnUse">
<stop offset="0.00743494" stop-color="#781916"/>
<stop offset="0.3086" stop-color="#963333"/>
<stop offset="1" stop-color="#450E0E"/>
</linearGradient>
<linearGradient id="paint56_linear_708:26" x1="105.302" y1="207.74" x2="110.688" y2="210.851" gradientUnits="userSpaceOnUse">
<stop stop-color="#616DBE"/>
<stop offset="0.6029" stop-color="#C3C7E6"/>
<stop offset="1" stop-color="white"/>
</linearGradient>
<linearGradient id="paint57_linear_708:26" x1="119.945" y1="229.645" x2="140.413" y2="241.467" gradientUnits="userSpaceOnUse">
<stop stop-color="#AB665D"/>
<stop offset="1" stop-color="#2B2321"/>
</linearGradient>
<linearGradient id="paint58_linear_708:26" x1="173.36" y1="258.69" x2="187.98" y2="267.135" gradientUnits="userSpaceOnUse">
<stop stop-color="#AB665D"/>
<stop offset="1" stop-color="#2B2321"/>
</linearGradient>
<linearGradient id="paint59_linear_708:26" x1="199.412" y1="262.922" x2="207.285" y2="267.469" gradientUnits="userSpaceOnUse">
<stop stop-color="white"/>
<stop offset="0.3971" stop-color="#C3C7E6"/>
<stop offset="1" stop-color="#616DBE"/>
</linearGradient>
<radialGradient id="paint60_radial_708:26" cx="0" cy="0" r="1" gradientUnits="userSpaceOnUse" gradientTransform="translate(101.918 236.998) rotate(29.9904) scale(142.309 142.279)">
<stop stop-color="#BF4444"/>
<stop offset="1" stop-color="#57172E"/>
</radialGradient>
</defs>
</svg>
