<svg width="1046" height="363" viewBox="0 0 1046 363" fill="none" xmlns="http://www.w3.org/2000/svg">
<path d="M115.68 84.2414L104.835 52.6207C104.835 52.6207 115.198 49.9655 120.982 41.7586L102.425 0L82.6629 43.6897C82.6629 43.6897 89.8929 50.4483 99.2919 52.3793L87.4829 84.7241L115.68 84.2414Z" fill="url(#paint0_linear_1:274)"/>
<path d="M102.425 0L108.209 44.4138C108.209 44.4138 117.849 45.1379 120.741 41.7586L102.425 0Z" fill="url(#paint1_linear_1:274)"/>
<path d="M82.6628 43.6895C82.6628 43.6895 104.835 47.3102 120.741 41.9998C120.741 41.9998 117.126 49.724 104.594 52.8619L115.439 84.4826L109.655 84.724L101.702 52.8619H99.2918C99.2918 52.3792 85.7958 50.6895 82.6628 43.6895Z" fill="url(#paint2_linear_1:274)"/>
<path d="M71.5771 93.8965L73.0231 77.2413L114.475 75.793L133.273 96.0689L126.525 95.1034H76.1561L71.5771 93.8965Z" fill="url(#paint3_linear_1:274)"/>
<path d="M114.475 95.1034V75.793L133.273 77.7241V93.8965L126.525 95.1034H114.475Z" fill="url(#paint4_linear_1:274)"/>
<path d="M196.896 357L188.22 311.621H95.436L9.15837 317.414L0.00042814 357H196.896Z" fill="url(#paint5_linear_1:274)"/>
<path d="M117.126 357V311.621L7.23027 306.069L0.000307041 357H117.126Z" fill="url(#paint6_linear_1:274)"/>
<path d="M188.22 311.621L7.23024 306.069L117.126 316.207L188.22 311.621Z" fill="url(#paint7_linear_1:274)"/>
<path d="M172.074 311.138L167.977 224.483L32.5352 222.069L26.9922 306.552L117.849 311.138H172.074Z" fill="url(#paint8_linear_1:274)"/>
<path d="M155.445 224.241L167.977 212.896L163.88 124.069L43.1392 121.172L35.6683 215.31L39.2832 222.31L155.445 224.241Z" fill="url(#paint9_linear_1:274)"/>
<path d="M117.849 311.138L121.223 226.897L115.921 224.241L39.2831 222.31L35.6681 215.31L125.802 211.931L123.392 123.103H167.976L169.663 155.207L165.566 163.172L167.976 169.931V212.897L155.445 224.241L167.976 224.483L174.483 308.483L172.073 311.138H117.849Z" fill="url(#paint10_linear_1:274)"/>
<path opacity="0.5" d="M155.445 224.241L167.977 212.897L125.802 211.931L35.6683 215.31L39.2832 222.31L115.921 224.241H155.445Z" fill="url(#paint11_linear_1:274)"/>
<path d="M153.276 123.586L149.661 112.724L54.466 109.828V121.414L123.392 123.103L153.276 123.586Z" fill="#66547A"/>
<path d="M43.139 111.517L46.031 94.8619L162.915 92.6895V111.517L149.66 112.724H51.8149L43.139 111.517Z" fill="url(#paint12_linear_1:274)"/>
<path d="M126.284 112.724V93.4136L162.915 92.6895V111.517L149.66 112.724H126.284Z" fill="url(#paint13_linear_1:274)"/>
<path d="M169.663 155.207L150.143 168.724L140.744 171.138L128.694 174.759L153.276 172.828L167.976 169.931L165.567 163.173L169.663 155.207Z" fill="#66547A"/>
<path opacity="0.57" d="M169.663 155.207L165.567 163.173L151.83 171.138L128.694 174.759L150.143 168.724L169.663 155.207Z" fill="url(#paint14_linear_1:274)"/>
<path d="M167.977 224.483L128.694 227.862L120.982 236.31L115.439 228.586L62.6601 222.793L115.921 224.241L167.977 224.483Z" fill="url(#paint15_linear_1:274)"/>
<g opacity="0.3">
<path opacity="0.3" d="M118.09 176.931C119.777 182.966 120.982 189.242 119.777 195.518C118.572 201.793 114.716 207.587 108.932 210C103.871 211.931 98.0869 211.207 93.2669 209.035C87.001 206.138 81.458 201.311 78.566 195.035C76.638 190.931 75.915 186.345 75.674 182C75.433 173.552 78.084 164.621 84.109 158.828C89.17 153.759 98.8099 149.897 105.558 153.276C112.306 155.931 116.162 170.173 118.09 176.931Z" fill="#9CA6CD"/>
<path opacity="0.3" d="M80.7351 208.069C80.0121 205.414 78.5661 203 76.3971 201.069C75.9151 200.586 75.4331 200.345 74.9511 200.104C73.7461 199.621 72.3001 200.104 71.0951 200.828C69.6491 201.552 68.4441 202.759 67.9621 203.966C67.2391 205.414 67.2391 207.104 68.2031 208.31C68.6851 209.035 69.4081 209.517 70.3721 210C73.7461 211.448 77.8431 210.242 80.0121 207.104L80.7351 208.069Z" fill="#9CA6CD"/>
<path opacity="0.3" d="M98.569 135.173C97.123 137.828 94.713 140 92.303 141.931C84.591 147.483 73.7461 150.138 65.3111 145.793C63.1421 144.586 60.9731 142.655 60.2501 140.241C59.5271 136.379 62.4191 132.759 65.5521 130.586C70.6131 127.207 76.3971 125.276 82.181 123.586C84.591 122.862 87.001 122.138 89.652 122.379C97.123 122.621 102.666 127.448 98.569 135.173Z" fill="#9CA6CD"/>
<path opacity="0.3" d="M113.27 97.0349C108.691 96.0693 104.112 95.1038 99.2921 96.0693C98.0871 96.3107 96.6411 96.5521 95.6771 97.2762C94.7131 98.0004 93.9901 99.2073 93.9901 100.656C93.9901 101.38 94.4721 102.104 94.7131 102.587C96.8821 105.724 100.979 106.69 104.594 107.414C106.281 107.897 108.209 108.138 109.896 108.621C111.824 109.104 113.993 109.345 115.921 109.345C117.849 109.104 120.018 108.38 121.223 106.931C126.043 101.38 117.367 98.0004 113.27 97.0349Z" fill="#9CA6CD"/>
<path opacity="0.3" d="M95.4361 107.897C95.4361 109.104 93.9901 109.587 93.0261 109.828C85.7962 111.035 78.0842 109.828 71.5772 106.207C70.1312 105.483 68.6852 104.518 68.4442 102.828C68.4442 102.104 68.4442 101.38 68.9262 100.656C71.5772 94.621 79.0482 95.3452 83.8682 97.759C87.0012 99.2072 95.4361 104.518 95.4361 107.897Z" fill="#9CA6CD"/>
<path opacity="0.3" d="M66.2752 105.724C65.5522 105 64.1062 105.242 63.8652 106.207C63.3832 107.173 64.1062 108.38 65.0702 108.621C66.0342 108.862 67.2392 108.621 67.7212 107.655C67.4802 107.173 66.9982 106.449 66.7572 105.966L66.2752 105.724Z" fill="#9CA6CD"/>
<path opacity="0.3" d="M75.6743 162.448C72.5413 164.621 68.2033 164.621 64.8293 162.931C64.1063 162.69 63.3833 162.207 63.1423 161.483C62.6603 161 62.4193 160.276 62.1783 159.552C60.9733 153.276 68.2033 149.173 73.7463 150.138C79.5303 151.345 80.2533 159.069 75.6743 162.448Z" fill="#9CA6CD"/>
<path opacity="0.3" d="M147.973 205.414C140.985 203.966 135.442 197.448 135.442 190.207C135.201 179.104 150.865 174.759 156.167 184.414C160.264 192.379 160.746 208.069 147.973 205.414Z" fill="#9CA6CD"/>
<path opacity="0.3" d="M139.298 131.31C142.913 133.724 145.082 138.31 144.359 142.655C143.877 144.828 142.913 146.759 141.226 147.965C139.539 149.172 137.129 149.897 135.201 148.931C133.514 148.207 132.309 146.759 131.345 145.31C128.935 140.965 129.176 134.931 132.55 131.552C133.273 130.828 133.996 130.345 134.96 130.103C136.406 129.862 137.852 130.345 138.816 131.31C140.503 132.517 141.708 133.965 142.672 135.655L139.298 131.31Z" fill="#9CA6CD"/>
<path opacity="0.3" d="M136.165 151.586C135.201 151.586 134.237 151.586 133.273 152.069C131.827 152.793 131.345 154.483 130.863 156.173C130.381 158.104 129.658 160.517 131.104 161.966C131.827 162.69 132.791 162.931 133.514 163.173C138.093 164.621 148.215 165.345 149.42 158.586C150.384 152.31 140.262 151.586 136.165 151.586Z" fill="#9CA6CD"/>
<path opacity="0.3" d="M137.852 96.7933C136.888 96.7933 135.924 96.7933 134.96 97.2761C133.514 98.0002 133.032 99.6899 132.55 101.38C132.068 103.311 131.586 105.724 132.791 107.173C133.514 107.897 134.478 108.138 135.201 108.38C139.78 109.828 149.902 110.552 151.107 103.793C151.83 97.7588 141.708 96.7933 137.852 96.7933Z" fill="#9CA6CD"/>
<path opacity="0.3" d="M152.071 132.759C152.794 133.241 152.312 134.69 151.348 134.931C150.384 135.172 149.42 134.207 149.42 133.241C149.661 132.035 151.589 131.552 152.071 132.759Z" fill="#9CA6CD"/>
<path opacity="0.3" d="M70.8541 193.345C71.0951 193.345 71.5771 193.586 71.8181 193.586C72.0591 192.621 72.3001 191.897 72.3001 190.931C72.0591 188.517 70.1311 186.586 67.9621 186.345C65.5521 186.104 63.3831 188.035 63.1421 190.448C62.9011 192.38 64.1061 194.069 65.7931 194.793C67.7211 195.517 69.8901 194.793 70.8541 193.345Z" fill="#9CA6CD"/>
<path opacity="0.3" d="M158.578 101.621C158.819 101.621 159.301 101.862 159.542 101.862C159.783 100.897 160.024 100.173 160.024 99.2071C159.783 96.7933 157.855 94.8622 155.686 94.6209C153.276 94.3795 151.107 96.3105 150.866 98.7243C150.625 100.655 151.83 102.345 153.517 103.069C155.445 103.552 157.614 103.069 158.578 101.621Z" fill="#9CA6CD"/>
<path opacity="0.3" d="M109.173 241.138C113.029 249.345 113.993 259 111.583 267.69C109.655 274.69 105.558 281.207 99.0509 284.104C95.1949 285.793 90.857 286.035 87.001 285.069C78.325 283.138 71.095 275.897 68.9261 267.448C66.5161 258.759 68.685 249.345 74.228 242.345C76.879 238.966 80.253 235.828 84.591 234.621C89.652 233.173 94.7129 234.621 99.7739 234.621C104.353 234.379 107.004 236.552 109.173 241.138Z" fill="#9CA6CD"/>
<path opacity="0.3" d="M73.023 225.449C73.7459 224.483 75.1919 224.242 76.3969 224.483C77.6019 224.725 78.5659 225.449 79.7709 225.931C80.7349 226.414 81.6989 227.138 82.4219 228.104C83.1449 229.069 83.3859 230.276 82.9039 231.242C82.1809 232.449 80.7349 232.69 79.5299 232.69C76.8789 232.931 73.987 232.69 71.336 232.449C69.89 232.207 68.444 231.724 67.962 230.518C67.239 228.828 68.685 227.138 70.131 226.173C71.336 225.207 73.023 224.483 74.4689 224.966L73.023 225.449Z" fill="#9CA6CD"/>
<path opacity="0.3" d="M68.6853 235.828C69.8903 236.552 70.6132 237.759 70.3723 238.966C70.3723 239.69 70.1313 240.173 69.6493 240.656C68.4443 242.104 65.7933 242.345 64.3473 240.897C62.9013 239.449 62.9013 236.793 64.3473 235.587C65.7933 234.38 68.4443 234.621 69.6493 236.069L68.6853 235.828Z" fill="#9CA6CD"/>
<path opacity="0.3" d="M70.6128 277.345C67.7209 273.483 64.5879 269.862 60.2499 267.69C56.1529 265.517 51.0919 264.552 46.513 266.242C40.247 268.414 36.873 274.69 33.981 280.724C31.812 285.31 29.884 290.862 33.017 294.966C34.463 296.897 36.391 297.862 38.56 298.586C44.344 300.517 50.8509 300.276 57.1169 299.793C62.1779 299.552 74.2278 300.759 77.8428 296.173C80.9758 291.345 73.2638 281.207 70.6128 277.345Z" fill="#9CA6CD"/>
<path opacity="0.3" d="M60.4914 257.069C61.2144 256.586 60.4914 255.621 60.0094 255.138C58.5634 254.414 56.3944 254.655 55.6714 256.104C54.9484 257.311 55.4304 258.759 56.3944 259.724C57.3584 260.449 58.8044 260.69 60.0094 260.207C60.9734 259.724 61.6964 258.759 61.6964 257.793L60.4914 257.069Z" fill="#9CA6CD"/>
<path opacity="0.3" d="M109.414 289.655C106.522 287.724 102.907 287.242 99.533 288.207C97.364 288.931 95.195 290.38 93.99 292.552C92.303 295.931 93.267 300.035 95.677 302.931C99.774 307.276 109.414 308.724 113.993 304.138C118.331 299.793 113.511 292.311 109.414 289.655Z" fill="#9CA6CD"/>
<path opacity="0.3" d="M162.674 272.517C161.951 276.862 160.505 281.207 157.131 283.862C153.757 286.517 148.937 287 144.599 286.035C133.755 283.379 126.043 272.517 124.838 261.172C124.356 257.552 124.597 253.931 125.802 250.552C127.971 244.759 133.032 240.172 139.057 238.724C158.818 234.379 165.084 257.552 162.674 272.517Z" fill="#9CA6CD"/>
<path opacity="0.3" d="M142.913 293.517C142.431 291.586 140.503 290.138 138.816 289.173C137.852 288.69 136.888 288.448 135.924 288.207C133.514 287.966 130.863 289.897 130.381 292.311C129.658 294.724 130.863 297.379 132.791 299.069C135.201 301 138.816 301 140.985 299.069C143.154 297.138 143.395 293.276 141.226 291.345L142.913 293.517Z" fill="#9CA6CD"/>
<path opacity="0.3" d="M164.121 295.449C162.434 294.483 160.506 293.276 158.578 293.517C156.409 293.759 154.722 295.449 153.758 297.138C153.276 298.104 152.794 299.069 152.794 300.035C152.553 302.931 154.722 305.345 157.373 306.552C160.024 307.517 162.916 307.517 165.808 307.517C174.965 307.035 168.7 298.345 164.121 295.449Z" fill="#9CA6CD"/>
<path opacity="0.3" d="M151.83 325.862C147.01 327.069 142.19 329.483 138.816 333.345C136.406 336.241 134.478 340.103 135.442 343.724C136.165 346.379 137.852 348.31 140.021 350C145.082 353.621 151.589 353.862 157.855 354.103C166.772 354.103 190.39 353.862 183.401 339.621C177.858 328.034 163.639 323.207 151.83 325.862Z" fill="#9CA6CD"/>
<path opacity="0.3" d="M68.2029 326.828C70.8539 329.242 73.2639 332.621 72.5409 336C71.8179 339.621 68.4439 341.793 65.0699 343C61.2139 344.207 57.117 344.449 53.261 344.207C46.031 343.724 38.8011 341.552 32.5351 337.931C29.1611 336 25.7871 333.345 25.0641 329.483C23.1361 317.897 38.5601 317.655 46.031 317.897C54.466 318.138 61.9369 321.035 68.2029 326.828Z" fill="#9CA6CD"/>
<path opacity="0.3" d="M81.4579 325.138C82.9039 325.138 84.1089 326.345 84.3499 327.552C84.5909 329 83.8679 330.449 82.6629 330.931C81.2169 331.656 79.5299 331.173 78.0839 330.449C75.6739 329.483 73.2639 327.552 73.5049 324.897C73.5049 324.173 73.7459 323.69 74.2279 323.207C74.7099 322.966 75.4329 322.966 76.1559 323.207C78.0839 323.69 79.7709 324.414 81.4579 325.38V325.138Z" fill="#9CA6CD"/>
<path opacity="0.3" d="M110.86 131.552C112.306 131.552 113.511 132.759 113.752 133.966C113.993 135.414 113.27 136.862 112.065 137.345C110.619 138.069 108.932 137.586 107.486 136.862C105.076 135.897 102.666 133.966 102.907 131.31C102.907 130.586 103.148 130.104 103.63 129.621C104.112 129.379 104.835 129.379 105.558 129.621C107.486 130.104 109.173 130.828 110.86 131.793V131.552Z" fill="#9CA6CD"/>
<path opacity="0.3" d="M20.0032 343.724C20.9672 344.448 22.4132 343.483 22.1722 342.276C22.1722 341.069 21.2082 340.345 20.2442 339.621C17.1113 337.69 13.0143 337.448 9.64029 338.897C8.91729 339.379 7.95329 339.862 7.4713 340.586C6.2663 342.276 6.9893 344.931 8.67629 346.38C10.3633 347.828 12.5323 348.311 14.7013 348.552C17.1113 348.793 20.0032 348.552 20.9672 346.138C21.6902 344.448 20.7262 342.759 20.0032 341.069V343.724Z" fill="#9CA6CD"/>
</g>
<g opacity="0.2">
<path opacity="0.2" d="M60.2501 177.896C59.7681 175.965 59.0451 173.793 57.8401 172.103C56.8761 170.655 55.6711 168.965 53.9841 168.483C52.7791 168 51.5741 168 50.3691 168.241C47.7182 168.483 45.0672 168.965 43.1392 170.655C40.7292 173.069 40.4882 177.172 42.4162 180.069C44.3442 182.965 47.9592 184.414 51.3331 183.931C53.7431 183.689 60.9731 181.276 60.2501 177.896Z" fill="#9CA6CD"/>
<path opacity="0.2" d="M138.816 206.621C138.575 205.896 138.334 205.172 137.852 204.448C137.611 203.965 137.129 203.241 136.406 203C135.924 202.758 135.442 202.758 134.96 202.758C133.996 202.758 132.791 203 132.068 203.724C131.104 204.689 131.104 206.138 131.827 207.345C132.55 208.31 133.996 209.034 135.201 208.793C136.165 208.793 139.057 207.827 138.816 206.621Z" fill="#9CA6CD"/>
<path opacity="0.2" d="M60.9732 169.207C61.6962 168.965 61.6962 168 61.4552 167.276C61.4552 167.034 61.2142 166.793 60.9732 166.552C60.2502 165.827 59.2862 166.552 58.5632 167.034C58.0812 167.517 57.5992 168 57.5992 168.483C57.5992 169.207 58.3222 169.931 59.0452 170.172C59.7682 170.172 60.4912 169.69 60.9732 168.965V169.207Z" fill="#9CA6CD"/>
<path opacity="0.2" d="M106.522 83.5171C107.245 83.2757 107.245 82.3102 107.004 81.5861C107.004 81.3447 106.763 81.1033 106.522 80.8619C105.799 80.1378 104.835 80.8619 104.112 81.3447C103.63 81.8274 103.148 82.3102 103.148 82.793C103.148 83.5171 103.871 84.2412 104.594 84.4826C105.317 84.4826 106.04 83.9999 106.522 83.2757V83.5171Z" fill="#9CA6CD"/>
<path opacity="0.2" d="M95.6773 85.4482C96.4003 85.2068 96.4003 84.2413 96.1593 83.5172C96.1593 83.2758 95.9183 83.0344 95.6773 82.793C94.9543 82.0689 93.9903 82.793 93.2673 83.2758C92.7853 83.7585 92.3033 84.2413 92.3033 84.7241C92.3033 85.4482 93.0263 86.1723 93.7493 86.4137C94.4723 86.4137 95.1953 85.931 95.6773 85.2068V85.4482Z" fill="#9CA6CD"/>
<path opacity="0.2" d="M83.3862 131.069C84.1092 130.827 84.1092 129.862 83.8682 129.138C83.8682 128.896 83.6272 128.655 83.3862 128.414C82.6632 127.69 81.6992 128.414 80.9762 128.896C80.4942 129.379 80.0122 129.862 80.0122 130.345C80.0122 131.069 80.7352 131.793 81.4582 132.034C82.1812 132.034 82.9042 131.552 83.3862 130.827V131.069Z" fill="#9CA6CD"/>
<path opacity="0.2" d="M47.2365 258.275C47.7185 259.241 48.2005 260.448 47.9595 261.413C47.4775 262.862 45.7905 263.586 44.3445 263.586C42.4166 263.586 40.2476 262.862 39.2836 261.172C39.0426 260.689 38.8016 259.965 38.5606 259.482C38.0786 257.31 38.5606 252.482 41.6936 252.241C44.3445 252 46.2725 256.344 47.2365 258.275Z" fill="#9CA6CD"/>
<path opacity="0.2" d="M43.8624 184.172C43.6214 184.896 42.6574 185.138 41.9344 184.655C41.4524 184.172 41.6934 182.965 42.4164 182.965C43.3804 182.483 44.1034 183.207 43.8624 184.172Z" fill="#9CA6CD"/>
</g>
<path opacity="0.5" d="M174.483 308.483L118.09 307.517L26.9921 306.552L117.126 311.621L172.073 311.138L174.483 308.483Z" fill="url(#paint16_linear_1:274)"/>
<path d="M126.766 315.483L117.126 323.207L107.968 315.483H126.766Z" fill="#B6C6EF"/>
<path d="M123.392 123.103L117.367 123.586L123.392 181.517L120.741 211.931H125.802L123.392 123.103Z" fill="url(#paint17_linear_1:274)"/>
<path d="M115.439 228.586L117.367 242.103L114.234 304.138L118.09 307.517L120.982 236.31L115.439 228.586Z" fill="url(#paint18_linear_1:274)"/>
<path d="M126.284 112.724V93.4137L122.669 94.862C122.669 94.862 123.874 105.241 123.874 106.931C123.874 108.621 122.669 112 122.669 112L126.284 112.724Z" fill="url(#paint19_linear_1:274)"/>
<path d="M35.6682 215.31L38.5602 210.966L120.741 208.31L125.802 211.931L35.6682 215.31Z" fill="url(#paint20_linear_1:274)"/>
<path d="M43.1391 111.517L54.4661 109.828L123.151 110.793L126.284 112.724H51.8151L43.1391 111.517Z" fill="url(#paint21_linear_1:274)"/>
<path d="M930.217 88.2414L941.062 56.6207C941.062 56.6207 930.699 53.9655 924.915 45.7586L943.472 4L963.234 47.6897C963.234 47.6897 956.004 54.4483 946.605 56.3793L958.414 88.7241L930.217 88.2414Z" fill="url(#paint22_linear_1:274)"/>
<path d="M943.472 4L937.688 48.4138C937.688 48.4138 928.048 49.1379 925.156 45.7586L943.472 4Z" fill="url(#paint23_linear_1:274)"/>
<path d="M963.234 47.6895C963.234 47.6895 941.062 51.3102 925.156 45.9998C925.156 45.9998 928.771 53.724 941.303 56.8619L930.458 88.4826L936.242 88.724L944.195 56.8619H946.605C946.605 56.3792 960.101 54.6895 963.234 47.6895Z" fill="url(#paint24_linear_1:274)"/>
<path d="M974.319 97.8965L972.873 81.2413L931.422 79.793L912.624 100.069L919.372 99.1034H969.74L974.319 97.8965Z" fill="url(#paint25_linear_1:274)"/>
<path d="M931.422 99.1034V79.793L912.624 81.7241V97.8965L919.372 99.1034H931.422Z" fill="url(#paint26_linear_1:274)"/>
<path d="M849 361L857.676 315.621H950.46L1036.74 321.414L1045.9 361H849Z" fill="url(#paint27_linear_1:274)"/>
<path d="M928.771 361V315.621L1038.67 310.069L1045.9 361H928.771Z" fill="url(#paint28_linear_1:274)"/>
<path d="M857.676 315.621L1038.67 310.069L928.771 320.207L857.676 315.621Z" fill="url(#paint29_linear_1:274)"/>
<path d="M873.823 315.138L877.92 228.483L1013.36 226.069L1018.9 310.552L928.048 315.138H873.823Z" fill="url(#paint30_linear_1:274)"/>
<path d="M890.452 228.241L877.92 216.896L882.017 128.069L1002.76 125.172L1010.23 219.31L1006.61 226.31L890.452 228.241Z" fill="url(#paint31_linear_1:274)"/>
<path d="M928.048 315.138L924.674 230.897L929.976 228.241L1006.61 226.31L1010.23 219.31L920.095 215.931L922.505 127.103H877.92L876.233 159.207L880.33 167.172L877.92 173.931V216.897L890.452 228.241L877.92 228.483L871.413 312.483L873.823 315.138H928.048Z" fill="url(#paint32_linear_1:274)"/>
<path opacity="0.5" d="M890.452 228.241L877.92 216.897L920.095 215.931L1010.23 219.31L1006.61 226.31L929.976 228.241H890.452Z" fill="url(#paint33_linear_1:274)"/>
<path d="M892.621 127.586L896.236 116.724L991.43 113.828V125.414L922.505 127.103L892.621 127.586Z" fill="#66547A"/>
<path d="M1002.76 115.517L999.865 98.8619L882.981 96.6895V115.517L896.236 116.724H994.082L1002.76 115.517Z" fill="url(#paint34_linear_1:274)"/>
<path d="M919.613 116.724V97.4136L882.981 96.6895V115.517L896.236 116.724H919.613Z" fill="url(#paint35_linear_1:274)"/>
<path d="M876.233 159.207L895.754 172.724L905.153 175.138L917.203 178.759L892.621 176.828L877.92 173.931L880.33 167.173L876.233 159.207Z" fill="#66547A"/>
<path opacity="0.57" d="M876.233 159.207L880.33 167.173L894.067 175.138L917.203 178.759L895.754 172.724L876.233 159.207Z" fill="url(#paint36_linear_1:274)"/>
<path d="M877.92 228.483L917.203 231.862L924.915 240.31L930.458 232.586L983.236 226.793L929.976 228.241L877.92 228.483Z" fill="url(#paint37_linear_1:274)"/>
<g opacity="0.3">
<path opacity="0.3" d="M927.807 180.931C926.12 186.966 924.915 193.242 926.12 199.518C927.325 205.793 931.181 211.587 936.965 214C942.026 215.931 947.81 215.207 952.63 213.035C958.895 210.138 964.438 205.311 967.33 199.035C969.258 194.931 969.981 190.345 970.222 186C970.463 177.552 967.812 168.621 961.787 162.828C956.726 157.759 947.087 153.897 940.339 157.276C933.591 159.931 929.735 174.173 927.807 180.931Z" fill="#9CA6CD"/>
<path opacity="0.3" d="M965.161 212.069C965.884 209.414 967.33 207 969.499 205.069C969.981 204.586 970.463 204.345 970.945 204.104C972.15 203.621 973.596 204.104 974.801 204.828C976.247 205.552 977.452 206.759 977.934 207.966C978.657 209.414 978.657 211.104 977.693 212.31C977.211 213.035 976.488 213.517 975.524 214C972.15 215.448 968.053 214.242 965.884 211.104L965.161 212.069Z" fill="#9CA6CD"/>
<path opacity="0.3" d="M947.327 139.173C948.773 141.828 951.183 144 953.593 145.931C961.305 151.483 972.15 154.138 980.585 149.793C982.754 148.586 984.923 146.655 985.646 144.241C986.369 140.379 983.477 136.759 980.344 134.586C975.283 131.207 969.499 129.276 963.715 127.586C961.305 126.862 958.895 126.138 956.244 126.379C948.773 126.621 943.231 131.448 947.327 139.173Z" fill="#9CA6CD"/>
<path opacity="0.3" d="M932.626 101.035C937.205 100.069 941.784 99.1038 946.604 100.069C947.809 100.311 949.255 100.552 950.219 101.276C951.183 102 951.906 103.207 951.906 104.656C951.906 105.38 951.424 106.104 951.183 106.587C949.014 109.724 944.917 110.69 941.302 111.414C939.615 111.897 937.687 112.138 936 112.621C934.072 113.104 931.903 113.345 929.975 113.345C928.047 113.104 925.878 112.38 924.673 110.931C919.853 105.38 928.529 102 932.626 101.035Z" fill="#9CA6CD"/>
<path opacity="0.3" d="M950.46 111.897C950.46 113.104 951.906 113.587 952.87 113.828C960.1 115.035 967.812 113.828 974.319 110.207C975.765 109.483 977.211 108.518 977.452 106.828C977.452 106.104 977.452 105.38 976.97 104.656C974.319 98.621 966.848 99.3452 962.028 101.759C958.895 103.207 950.46 108.518 950.46 111.897Z" fill="#9CA6CD"/>
<path opacity="0.3" d="M979.621 109.724C980.344 109 981.79 109.242 982.031 110.207C982.513 111.173 981.79 112.38 980.826 112.621C979.862 112.862 978.657 112.621 978.175 111.655C978.416 111.173 978.898 110.449 979.139 109.966L979.621 109.724Z" fill="#9CA6CD"/>
<path opacity="0.3" d="M970.222 166.448C973.355 168.621 977.693 168.621 981.067 166.931C981.79 166.69 982.513 166.207 982.754 165.483C983.236 165 983.477 164.276 983.718 163.552C984.923 157.276 977.693 153.173 972.15 154.138C966.366 155.345 965.643 163.069 970.222 166.448Z" fill="#9CA6CD"/>
<path opacity="0.3" d="M897.923 209.414C904.912 207.966 910.455 201.448 910.455 194.207C910.696 183.104 895.031 178.759 889.729 188.414C885.632 196.379 885.15 212.069 897.923 209.414Z" fill="#9CA6CD"/>
<path opacity="0.3" d="M906.599 135.31C902.984 137.724 900.815 142.31 901.538 146.655C902.02 148.828 902.984 150.759 904.671 151.965C906.358 153.172 908.768 153.897 910.696 152.931C912.383 152.207 913.588 150.759 914.552 149.31C916.961 144.965 916.72 138.931 913.347 135.552C912.624 134.828 911.901 134.345 910.937 134.103C909.491 133.862 908.045 134.345 907.081 135.31C905.394 136.517 904.189 137.965 903.225 139.655L906.599 135.31Z" fill="#9CA6CD"/>
<path opacity="0.3" d="M909.732 155.586C910.696 155.586 911.66 155.586 912.624 156.069C914.07 156.793 914.552 158.483 915.034 160.173C915.516 162.104 916.239 164.517 914.793 165.966C914.07 166.69 913.106 166.931 912.383 167.173C907.804 168.621 897.682 169.345 896.477 162.586C895.513 156.31 905.635 155.586 909.732 155.586Z" fill="#9CA6CD"/>
<path opacity="0.3" d="M908.045 100.793C909.009 100.793 909.973 100.793 910.937 101.276C912.383 102 912.865 103.69 913.347 105.38C913.829 107.311 914.311 109.724 913.106 111.173C912.383 111.897 911.419 112.138 910.696 112.38C906.117 113.828 895.995 114.552 894.79 107.793C894.067 101.759 904.189 100.793 908.045 100.793Z" fill="#9CA6CD"/>
<path opacity="0.3" d="M893.826 136.759C893.103 137.241 893.585 138.69 894.549 138.931C895.513 139.172 896.477 138.207 896.477 137.241C896.236 136.035 894.308 135.552 893.826 136.759Z" fill="#9CA6CD"/>
<path opacity="0.3" d="M975.042 197.345C974.801 197.345 974.319 197.586 974.078 197.586C973.837 196.621 973.596 195.897 973.596 194.931C973.837 192.517 975.765 190.586 977.934 190.345C980.344 190.104 982.513 192.035 982.754 194.448C982.995 196.38 981.79 198.069 980.103 198.793C978.175 199.517 976.006 198.793 975.042 197.345Z" fill="#9CA6CD"/>
<path opacity="0.3" d="M887.319 105.621C887.078 105.621 886.596 105.862 886.355 105.862C886.114 104.897 885.873 104.173 885.873 103.207C886.114 100.793 888.042 98.8622 890.211 98.6209C892.621 98.3795 894.79 100.311 895.031 102.724C895.272 104.655 894.067 106.345 892.38 107.069C890.452 107.552 888.283 107.069 887.319 105.621Z" fill="#9CA6CD"/>
<path opacity="0.3" d="M936.724 245.138C932.868 253.345 931.904 263 934.314 271.69C936.242 278.69 940.339 285.207 946.846 288.104C950.702 289.793 955.04 290.035 958.895 289.069C967.571 287.138 974.801 279.897 976.97 271.448C979.38 262.759 977.211 253.345 971.668 246.345C969.017 242.966 965.643 239.828 961.305 238.621C956.244 237.173 951.184 238.621 946.123 238.621C941.544 238.379 938.893 240.552 936.724 245.138Z" fill="#9CA6CD"/>
<path opacity="0.3" d="M972.874 229.449C972.151 228.483 970.705 228.242 969.5 228.483C968.295 228.725 967.331 229.449 966.126 229.931C965.162 230.414 964.198 231.138 963.475 232.104C962.752 233.069 962.511 234.276 962.993 235.242C963.716 236.449 965.162 236.69 966.367 236.69C969.018 236.931 971.91 236.69 974.56 236.449C976.006 236.207 977.452 235.724 977.934 234.518C978.657 232.828 977.211 231.138 975.765 230.173C974.56 229.207 972.873 228.483 971.428 228.966L972.874 229.449Z" fill="#9CA6CD"/>
<path opacity="0.3" d="M977.211 239.828C976.006 240.552 975.283 241.759 975.524 242.966C975.524 243.69 975.765 244.173 976.247 244.656C977.452 246.104 980.103 246.345 981.549 244.897C982.995 243.449 982.995 240.793 981.549 239.587C980.103 238.38 977.452 238.621 976.247 240.069L977.211 239.828Z" fill="#9CA6CD"/>
<path opacity="0.3" d="M975.284 281.345C978.176 277.483 981.309 273.862 985.647 271.69C989.744 269.517 994.805 268.552 999.383 270.242C1005.65 272.414 1009.02 278.69 1011.92 284.724C1014.08 289.31 1016.01 294.862 1012.88 298.966C1011.43 300.897 1009.51 301.862 1007.34 302.586C1001.55 304.517 995.046 304.276 988.78 303.793C983.719 303.552 971.669 304.759 968.054 300.173C964.921 295.345 972.633 285.207 975.284 281.345Z" fill="#9CA6CD"/>
<path opacity="0.3" d="M985.405 261.069C984.682 260.586 985.405 259.621 985.887 259.138C987.333 258.414 989.502 258.655 990.225 260.104C990.948 261.311 990.466 262.759 989.502 263.724C988.538 264.449 987.092 264.69 985.887 264.207C984.923 263.724 984.2 262.759 984.2 261.793L985.405 261.069Z" fill="#9CA6CD"/>
<path opacity="0.3" d="M936.482 293.655C939.374 291.724 942.989 291.242 946.363 292.207C948.532 292.931 950.701 294.38 951.906 296.552C953.593 299.931 952.629 304.035 950.219 306.931C946.122 311.276 936.482 312.724 931.903 308.138C927.566 303.793 932.385 296.311 936.482 293.655Z" fill="#9CA6CD"/>
<path opacity="0.3" d="M883.222 276.517C883.945 280.862 885.391 285.207 888.765 287.862C892.139 290.517 896.959 291 901.297 290.035C912.142 287.379 919.854 276.517 921.059 265.172C921.541 261.552 921.3 257.931 920.095 254.552C917.926 248.759 912.865 244.172 906.84 242.724C887.078 238.379 880.812 261.552 883.222 276.517Z" fill="#9CA6CD"/>
<path opacity="0.3" d="M902.984 297.517C903.466 295.586 905.394 294.138 907.081 293.173C908.045 292.69 909.009 292.448 909.973 292.207C912.383 291.966 915.034 293.897 915.516 296.311C916.239 298.724 915.034 301.379 913.106 303.069C910.696 305 907.081 305 904.912 303.069C902.743 301.138 902.502 297.276 904.671 295.345L902.984 297.517Z" fill="#9CA6CD"/>
<path opacity="0.3" d="M881.776 299.449C883.463 298.483 885.391 297.276 887.319 297.517C889.488 297.759 891.175 299.449 892.139 301.138C892.621 302.104 893.103 303.069 893.103 304.035C893.344 306.931 891.175 309.345 888.524 310.552C885.873 311.517 882.981 311.517 880.089 311.517C870.931 311.035 877.197 302.345 881.776 299.449Z" fill="#9CA6CD"/>
<path opacity="0.3" d="M894.067 329.862C898.887 331.069 903.707 333.483 907.081 337.345C909.491 340.241 911.419 344.103 910.455 347.724C909.732 350.379 908.045 352.31 905.876 354C900.815 357.621 894.308 357.862 888.042 358.103C879.125 358.103 855.507 357.862 862.496 343.621C868.039 332.034 882.258 327.207 894.067 329.862Z" fill="#9CA6CD"/>
<path opacity="0.3" d="M977.694 330.828C975.043 333.242 972.633 336.621 973.356 340C974.079 343.621 977.453 345.793 980.827 347C984.683 348.207 988.779 348.449 992.635 348.207C999.865 347.724 1007.1 345.552 1013.36 341.931C1016.74 340 1020.11 337.345 1020.83 333.483C1022.76 321.897 1007.34 321.655 999.865 321.897C991.43 322.138 983.96 325.035 977.694 330.828Z" fill="#9CA6CD"/>
<path opacity="0.3" d="M964.439 329.138C962.993 329.138 961.788 330.345 961.547 331.552C961.306 333 962.029 334.449 963.234 334.931C964.68 335.656 966.367 335.173 967.813 334.449C970.223 333.483 972.633 331.552 972.392 328.897C972.392 328.173 972.151 327.69 971.669 327.207C971.187 326.966 970.464 326.966 969.741 327.207C967.813 327.69 966.126 328.414 964.439 329.38V329.138Z" fill="#9CA6CD"/>
<path opacity="0.3" d="M935.036 135.552C933.59 135.552 932.385 136.759 932.144 137.966C931.903 139.414 932.626 140.862 933.831 141.345C935.277 142.069 936.964 141.586 938.41 140.862C940.82 139.897 943.23 137.966 942.989 135.31C942.989 134.586 942.748 134.104 942.266 133.621C941.784 133.379 941.061 133.379 940.338 133.621C938.41 134.104 936.723 134.828 935.036 135.793V135.552Z" fill="#9CA6CD"/>
<path opacity="0.3" d="M1025.89 347.724C1024.93 348.448 1023.48 347.483 1023.72 346.276C1023.72 345.069 1024.69 344.345 1025.65 343.621C1028.79 341.69 1032.88 341.448 1036.26 342.897C1036.98 343.379 1037.94 343.862 1038.43 344.586C1039.63 346.276 1038.91 348.931 1037.22 350.38C1035.53 351.828 1033.36 352.311 1031.2 352.552C1028.79 352.793 1025.89 352.552 1024.93 350.138C1024.21 348.448 1025.17 346.759 1025.89 345.069V347.724Z" fill="#9CA6CD"/>
</g>
<g opacity="0.2">
<path opacity="0.2" d="M985.646 181.896C986.128 179.965 986.851 177.793 988.056 176.103C989.02 174.655 990.225 172.965 991.912 172.483C993.117 172 994.322 172 995.527 172.241C998.178 172.483 1000.83 172.965 1002.76 174.655C1005.17 177.069 1005.41 181.172 1003.48 184.069C1001.55 186.965 997.937 188.414 994.563 187.931C992.153 187.689 984.923 185.276 985.646 181.896Z" fill="#9CA6CD"/>
<path opacity="0.2" d="M907.081 210.621C907.322 209.896 907.563 209.172 908.045 208.448C908.286 207.965 908.768 207.241 909.491 207C909.973 206.758 910.455 206.758 910.937 206.758C911.901 206.758 913.106 207 913.829 207.724C914.793 208.689 914.793 210.138 914.07 211.345C913.347 212.31 911.901 213.034 910.696 212.793C909.732 212.793 906.84 211.827 907.081 210.621Z" fill="#9CA6CD"/>
<path opacity="0.2" d="M984.923 173.207C984.2 172.965 984.2 172 984.441 171.276C984.441 171.034 984.682 170.793 984.923 170.552C985.646 169.827 986.61 170.552 987.333 171.034C987.815 171.517 988.297 172 988.297 172.483C988.297 173.207 987.574 173.931 986.851 174.172C986.128 174.172 985.405 173.69 984.923 172.965V173.207Z" fill="#9CA6CD"/>
<path opacity="0.2" d="M939.374 87.5171C938.651 87.2757 938.651 86.3102 938.892 85.5861C938.892 85.3447 939.133 85.1033 939.374 84.8619C940.097 84.1378 941.061 84.8619 941.784 85.3447C942.266 85.8274 942.748 86.3102 942.748 86.793C942.748 87.5171 942.025 88.2412 941.302 88.4826C940.579 88.4826 939.856 87.9999 939.374 87.2757V87.5171Z" fill="#9CA6CD"/>
<path opacity="0.2" d="M950.219 89.4482C949.496 89.2068 949.496 88.2413 949.737 87.5172C949.737 87.2758 949.978 87.0344 950.219 86.793C950.942 86.0689 951.906 86.793 952.629 87.2758C953.111 87.7585 953.593 88.2413 953.593 88.7241C953.593 89.4482 952.87 90.1723 952.147 90.4137C951.424 90.4137 950.701 89.931 950.219 89.2068V89.4482Z" fill="#9CA6CD"/>
<path opacity="0.2" d="M962.51 135.069C961.787 134.827 961.787 133.862 962.028 133.138C962.028 132.896 962.269 132.655 962.51 132.414C963.233 131.69 964.197 132.414 964.92 132.896C965.402 133.379 965.884 133.862 965.884 134.345C965.884 135.069 965.161 135.793 964.438 136.034C963.715 136.034 962.992 135.552 962.51 134.827V135.069Z" fill="#9CA6CD"/>
<path opacity="0.2" d="M998.66 262.275C998.178 263.241 997.696 264.448 997.937 265.413C998.419 266.862 1000.11 267.586 1001.55 267.586C1003.48 267.586 1005.65 266.862 1006.61 265.172C1006.85 264.689 1007.09 263.965 1007.34 263.482C1007.82 261.31 1007.34 256.482 1004.2 256.241C1001.55 256 999.624 260.344 998.66 262.275Z" fill="#9CA6CD"/>
<path opacity="0.2" d="M1002.03 188.172C1002.28 188.896 1003.24 189.138 1003.96 188.655C1004.44 188.172 1004.2 186.965 1003.48 186.965C1002.52 186.483 1001.79 187.207 1002.03 188.172Z" fill="#9CA6CD"/>
</g>
<path opacity="0.5" d="M871.413 312.483L927.807 311.517L1018.9 310.552L928.771 315.621L873.823 315.138L871.413 312.483Z" fill="url(#paint38_linear_1:274)"/>
<path d="M919.131 319.483L928.771 327.207L937.929 319.483H919.131Z" fill="#B6C6EF"/>
<path d="M922.505 127.103L928.53 127.586L922.505 185.517L925.156 215.931H920.095L922.505 127.103Z" fill="url(#paint39_linear_1:274)"/>
<path d="M930.458 232.586L928.53 246.103L931.663 308.138L927.807 311.517L924.915 240.31L930.458 232.586Z" fill="url(#paint40_linear_1:274)"/>
<path d="M919.613 116.724V97.4137L923.228 98.862C923.228 98.862 922.023 109.241 922.023 110.931C922.023 112.621 923.228 116 923.228 116L919.613 116.724Z" fill="url(#paint41_linear_1:274)"/>
<path d="M1010.23 219.31L1007.34 214.966L925.156 212.31L920.095 215.931L1010.23 219.31Z" fill="url(#paint42_linear_1:274)"/>
<path d="M1002.76 115.517L991.43 113.828L922.746 114.793L919.613 116.724H994.081L1002.76 115.517Z" fill="url(#paint43_linear_1:274)"/>
<path d="M345.221 104.966L347.515 341.759L352.103 344.172L354.397 104.966H345.221Z" fill="url(#paint44_linear_1:274)"/>
<path d="M166.853 303.379H246.383L347.133 298.793L349.809 304.104V316.173H167.427L166.853 303.379Z" fill="url(#paint45_linear_1:274)"/>
<path opacity="0.5" d="M354.397 104.966L353.823 132L345.794 161.931L345.221 105.931L354.397 104.966Z" fill="url(#paint46_linear_1:274)"/>
<path d="M347.133 298.793L349.809 304.104L226.118 307.483H166.853V303.379L235.677 303.862L347.133 298.793Z" fill="url(#paint47_linear_1:274)"/>
<path d="M313.294 112.448L313.867 300.241L317.117 303.138L317.691 111.241L313.294 112.448Z" fill="url(#paint48_linear_1:274)"/>
<path d="M317.118 303.138L322.662 301.931L324.956 109.311L317.691 111.242L317.118 303.138Z" fill="url(#paint49_linear_1:274)"/>
<path opacity="0.5" d="M324.956 117.035C324.956 117.035 322.662 119.69 319.794 126.69C316.926 133.69 313.485 173.517 313.485 173.517L313.294 112.448C313.294 112.448 323.235 109.793 325.147 109.311L324.956 117.035Z" fill="url(#paint50_linear_1:274)"/>
<path d="M322.279 94.1036L320.368 85.6553L320.941 80.5863L324.191 79.1381C324.191 79.1381 321.706 67.0691 319.603 61.0346C319.603 61.0346 316.353 71.4139 315.588 79.1381L318.647 80.3449V85.8967L316.926 94.8277L322.279 94.1036Z" fill="url(#paint51_linear_1:274)"/>
<path opacity="0.5" d="M315.397 79.1381C315.397 79.1381 320.941 79.6209 324.191 79.1381L320.941 80.5864C320.941 80.5864 319.412 80.5864 318.456 80.345L315.397 79.1381Z" fill="url(#paint52_linear_1:274)"/>
<path opacity="0.5" d="M320.941 80.5863L318.838 79.1381C318.838 79.1381 319.03 64.4139 319.412 61.0346C319.412 61.0346 316.353 71.4139 315.397 79.1381L318.456 80.345V85.8967L320.368 85.6553L320.941 80.5863Z" fill="url(#paint53_linear_1:274)"/>
<path d="M360.706 88.3104L358.412 77.931L358.985 71.8966L363 70.2069C363 70.2069 360.132 55.4828 357.265 48C357.265 48 353.441 60.7931 352.294 70.2069L355.926 71.6552V78.4138L353.824 89.5172L360.706 88.3104Z" fill="url(#paint54_linear_1:274)"/>
<path opacity="0.5" d="M352.294 70.2068C352.294 70.2068 358.985 70.6896 363 70.2068L358.985 71.8965C358.985 71.8965 357.074 71.8965 355.926 71.4137L352.294 70.2068Z" fill="url(#paint55_linear_1:274)"/>
<path opacity="0.5" d="M359.177 71.8966L356.692 70.2069C356.692 70.2069 356.883 52.1034 357.456 48C357.456 48 353.824 60.7931 352.486 70.2069L356.118 71.6552V78.4138L358.603 78.1724L359.177 71.8966Z" fill="url(#paint56_linear_1:274)"/>
<path d="M290.544 102.069L288.632 93.6205L289.206 88.5515L292.456 87.1033C292.456 87.1033 289.97 75.0343 287.868 68.9998C287.868 68.9998 284.618 79.3791 283.853 87.1033L286.912 88.3102V93.8619L285.191 102.793L290.544 102.069Z" fill="url(#paint57_linear_1:274)"/>
<path opacity="0.5" d="M283.662 87.1034C283.662 87.1034 289.206 87.5861 292.456 87.1034L289.206 88.5516C289.206 88.5516 287.677 88.5516 286.721 88.3103L283.662 87.1034Z" fill="url(#paint58_linear_1:274)"/>
<path opacity="0.5" d="M289.206 88.5515L287.103 87.1033C287.103 87.1033 287.294 72.3791 287.677 68.9998C287.677 68.9998 284.618 79.3791 283.662 87.1033L286.721 88.3102V93.8619L288.632 93.6205L289.206 88.5515Z" fill="url(#paint59_linear_1:274)"/>
<path d="M253.265 121.138L251.353 112.69L251.927 107.621L255.177 106.172C255.177 106.172 252.691 94.1035 250.589 88.069C250.589 88.069 247.339 98.4483 246.574 106.172L249.633 107.379V112.931L247.912 121.862L253.265 121.138Z" fill="url(#paint60_linear_1:274)"/>
<path opacity="0.5" d="M246.574 106.173C246.574 106.173 252.118 106.655 255.368 106.173L252.118 107.621C252.118 107.621 250.589 107.621 249.633 107.379L246.574 106.173Z" fill="url(#paint61_linear_1:274)"/>
<path opacity="0.5" d="M251.926 107.621L249.823 106.172C249.823 106.172 250.014 91.4483 250.397 88.069C250.397 88.069 247.338 98.4483 246.382 106.172L249.441 107.379V112.931L251.353 112.69L251.926 107.621Z" fill="url(#paint62_linear_1:274)"/>
<path d="M216.941 148.172L215.03 139.724L215.603 134.655L218.853 133.207C218.853 133.207 216.368 121.138 214.265 115.103C214.265 115.103 211.015 125.483 210.25 133.207L213.309 134.414V139.965L211.397 148.896L216.941 148.172Z" fill="url(#paint63_linear_1:274)"/>
<path opacity="0.5" d="M210.25 133.207C210.25 133.207 215.794 133.69 219.044 133.207L215.794 134.655C215.794 134.655 214.265 134.655 213.309 134.414L210.25 133.207Z" fill="url(#paint64_linear_1:274)"/>
<path opacity="0.5" d="M215.603 134.655L213.5 133.207C213.5 133.207 213.692 118.483 214.074 115.103C214.074 115.103 211.015 125.483 210.059 133.207L213.118 134.414V139.965L215.03 139.724L215.603 134.655Z" fill="url(#paint65_linear_1:274)"/>
<path d="M182.53 157.103L180.618 148.655L181.192 143.586L184.442 142.138C184.442 142.138 181.956 130.069 179.853 124.034C179.853 124.034 176.603 134.414 175.839 142.138L178.897 143.345V148.896L177.177 157.828L182.53 157.103Z" fill="url(#paint66_linear_1:274)"/>
<path opacity="0.5" d="M175.839 142.138C175.839 142.138 181.383 142.621 184.633 142.138L181.383 143.586C181.383 143.586 179.853 143.586 178.897 143.345L175.839 142.138Z" fill="url(#paint67_linear_1:274)"/>
<path opacity="0.5" d="M181.191 143.586L179.089 142.138C179.089 142.138 179.28 127.414 179.662 124.034C179.662 124.034 176.603 134.414 175.647 142.138L178.706 143.345V148.896L180.618 148.655L181.191 143.586Z" fill="url(#paint68_linear_1:274)"/>
<path d="M317.309 270.793L319.794 260.173L319.03 176.655L317.691 135.862L317.309 270.793Z" fill="url(#paint69_linear_1:274)"/>
<path d="M281.368 113.414L282.133 301.207L285.383 304.104L285.956 112.207L281.368 113.414Z" fill="url(#paint70_linear_1:274)"/>
<path d="M285.382 304.104L290.926 302.655L293.221 110.276L285.956 112.207L285.382 304.104Z" fill="url(#paint71_linear_1:274)"/>
<path opacity="0.5" d="M293.221 117.758C293.221 117.758 290.927 120.414 288.059 127.414C285.192 134.414 281.751 174.241 281.751 174.241L281.559 113.172C281.559 113.172 291.5 110.517 293.412 110.034L293.221 117.758Z" fill="url(#paint72_linear_1:274)"/>
<path d="M285.382 271.517L288.059 260.896L287.294 177.621L285.956 136.586L285.382 271.517Z" fill="url(#paint73_linear_1:274)"/>
<path d="M245.044 126.207L245.618 304.104L248.485 306.759L249.059 125L245.044 126.207Z" fill="url(#paint74_linear_1:274)"/>
<path d="M248.485 306.758L253.456 305.552L255.559 123.31L249.059 125L248.485 306.758Z" fill="url(#paint75_linear_1:274)"/>
<path opacity="0.5" d="M255.559 130.552C255.559 130.552 253.456 132.965 250.971 139.724C248.486 146.241 245.427 184.138 245.427 184.138L245.236 126.448C245.236 126.448 254.221 124.034 255.75 123.552L255.559 130.552Z" fill="url(#paint76_linear_1:274)"/>
<path d="M248.677 274.172L250.971 263.552L250.206 180.276L249.059 139.241L248.677 274.172Z" fill="url(#paint77_linear_1:274)"/>
<path d="M210.441 154.207L211.015 304.345L213.882 306.759L214.456 153.241L210.441 154.207Z" fill="url(#paint78_linear_1:274)"/>
<path d="M213.882 306.758L218.853 305.793L220.956 151.793L214.456 153.241L213.882 306.758Z" fill="url(#paint79_linear_1:274)"/>
<path opacity="0.5" d="M220.956 157.828C220.956 157.828 218.853 165.552 216.368 171.345C213.882 176.897 210.824 203.207 210.824 203.207L210.632 154.448C210.632 154.448 219.618 152.276 221.147 152.034L220.956 157.828Z" fill="url(#paint80_linear_1:274)"/>
<path d="M214.074 274.172L214.456 253.414V182.69L214.265 217.207L214.074 274.172Z" fill="url(#paint81_linear_1:274)"/>
<path d="M173.162 163.138L173.736 304.103L176.603 306.759L177.177 161.931L173.162 163.138Z" fill="url(#paint82_linear_1:274)"/>
<path d="M176.603 306.758L181.574 305.552L183.677 160.241L177.177 161.931L176.603 306.758Z" fill="url(#paint83_linear_1:274)"/>
<path opacity="0.5" d="M183.677 167.483C183.677 167.483 181.574 170.138 179.089 176.655C176.412 183.414 173.353 182.69 173.353 182.69L173.162 163.138C173.162 163.138 182.148 160.724 183.677 160.241V167.483Z" fill="url(#paint84_linear_1:274)"/>
<path d="M176.603 275.621L178.897 265.483L177.177 233.379V185.345L176.603 275.621Z" fill="url(#paint85_linear_1:274)"/>
<path d="M203.75 155.414C203.75 155.414 255.559 90.7242 359.177 87.3449C359.177 87.3449 266.074 117.517 210.441 154.931L203.75 155.414Z" fill="url(#paint86_linear_1:274)"/>
<path d="M158.938 357.931L359.176 354.793L362.426 87.5862C362.426 87.5862 287.294 79.8621 210.441 154.931L155 159.035V168.448L211.015 167C211.015 167 275.25 111 354.397 104.966L349.809 342.966L158.173 342.241L158.938 357.931Z" fill="url(#paint87_linear_1:274)"/>
<path d="M354.397 104.966L349.809 184.621L350.765 305.552L354.206 194.759L354.397 104.966Z" fill="url(#paint88_linear_1:274)"/>
<path d="M347.515 341.758L352.103 344.172L185.015 345.62L184.823 342.241L347.515 341.758Z" fill="url(#paint89_linear_1:274)"/>
<path d="M248.485 316.173V344.173L252.118 342.242L253.265 316.173H248.485Z" fill="url(#paint90_linear_1:274)"/>
<path d="M245.044 316.173V341.759L248.485 344.173V316.173H245.044Z" fill="url(#paint91_linear_1:274)"/>
<path d="M317.882 316.173V344.173L321.323 342.242L322.662 316.173H317.882Z" fill="url(#paint92_linear_1:274)"/>
<path d="M314.25 316.173V341.759L317.882 344.173V316.173H314.25Z" fill="url(#paint93_linear_1:274)"/>
<path d="M177.177 316.173V344.173L180.809 342.242L181.956 316.173H177.177Z" fill="url(#paint94_linear_1:274)"/>
<path d="M173.735 316.173V341.759L177.177 344.173V316.173H173.735Z" fill="url(#paint95_linear_1:274)"/>
<path d="M351.53 167.483C351.53 167.483 343.883 170.379 333.941 186.552C323.427 203.931 325.912 245.69 333.177 258.241C339.677 269.586 348.088 271.758 348.088 271.758H352.103L354.78 167.965L351.53 167.483Z" fill="url(#paint96_linear_1:274)"/>
<path d="M361.662 164.104C361.662 164.104 348.471 169.414 337.765 186.552C327.059 203.69 329.736 245.69 337 258.242C343.5 269.586 360.324 275.621 360.324 275.621L361.662 164.104Z" fill="url(#paint97_linear_1:274)"/>
<path d="M349.809 172.069L339.103 187.759L333.942 198.138L330.692 219.862C330.692 219.862 330.692 196.207 337.765 186.552C344.839 176.897 349.809 172.069 349.809 172.069Z" fill="url(#paint98_linear_1:274)"/>
<path d="M332.985 246.655C332.985 246.655 335.279 257.276 337.574 261.379C340.059 265.241 345.221 267.414 345.221 267.414C345.221 267.414 337.574 262.828 332.985 246.655Z" fill="url(#paint99_linear_1:274)"/>
<path d="M278.117 342.724L283.47 345.621L289.397 342.483L283.662 322.69L278.117 342.724Z" fill="url(#paint100_linear_1:274)"/>
<path d="M283.47 345.621L283.662 322.69L278.117 342.724L283.47 345.621Z" fill="url(#paint101_linear_1:274)"/>
<path d="M206.809 342.724L212.162 345.621L218.088 342.483L212.544 322.69L206.809 342.724Z" fill="url(#paint102_linear_1:274)"/>
<path d="M212.162 345.621L212.544 322.69L206.809 342.724L212.162 345.621Z" fill="url(#paint103_linear_1:274)"/>
<path opacity="0.3" d="M335.089 215.759C330.692 219.862 332.412 249.552 340.824 253.414C349.236 257.035 354.78 236.517 353.25 229.276C351.721 222.035 339.486 211.897 335.089 215.759Z" fill="#9CA6CD"/>
<path opacity="0.3" d="M339.103 206.827C339.485 211.172 343.118 212.138 345.221 212.138C347.324 212.138 352.103 201.034 349.809 198.862C347.324 196.448 338.912 204.172 339.103 206.827Z" fill="#9CA6CD"/>
<path opacity="0.2" d="M353.441 212.379C352.103 212.862 352.103 214.793 352.485 215.759C352.677 216.724 356.309 218.172 356.883 216.724C357.074 215.517 354.206 212.138 353.441 212.379Z" fill="#9CA6CD"/>
<path opacity="0.2" d="M351.338 254.138C348.662 255.103 348.662 258.966 349.044 261.138C349.426 263.31 357.074 266.207 358.029 263.31C359.368 260.414 353.059 253.414 351.338 254.138Z" fill="#9CA6CD"/>
<path d="M692.779 109.966L690.485 346.759L685.897 349.172L683.603 109.966H692.779Z" fill="url(#paint104_linear_1:274)"/>
<path d="M871.147 308.379H791.617L690.867 303.793L688.191 309.104V321.173H870.573L871.147 308.379Z" fill="url(#paint105_linear_1:274)"/>
<path opacity="0.5" d="M683.603 109.966L684.176 137L692.206 166.931L692.779 110.931L683.603 109.966Z" fill="url(#paint106_linear_1:274)"/>
<path d="M690.867 303.793L688.191 309.104L811.882 312.483H871.147V308.379L802.323 308.862L690.867 303.793Z" fill="url(#paint107_linear_1:274)"/>
<path d="M724.706 117.448L724.133 305.241L720.883 308.138L720.309 116.241L724.706 117.448Z" fill="url(#paint108_linear_1:274)"/>
<path d="M720.882 308.138L715.338 306.931L713.044 114.311L720.309 116.242L720.882 308.138Z" fill="url(#paint109_linear_1:274)"/>
<path opacity="0.5" d="M713.044 122.035C713.044 122.035 715.338 124.69 718.206 131.69C721.074 138.69 724.515 178.517 724.515 178.517L724.706 117.448C724.706 117.448 714.765 114.793 712.853 114.311L713.044 122.035Z" fill="url(#paint110_linear_1:274)"/>
<path d="M715.721 99.1036L717.632 90.6553L717.059 85.5863L713.809 84.1381C713.809 84.1381 716.294 72.0691 718.397 66.0346C718.397 66.0346 721.647 76.4139 722.412 84.1381L719.353 85.3449V90.8967L721.073 99.8277L715.721 99.1036Z" fill="url(#paint111_linear_1:274)"/>
<path opacity="0.5" d="M722.603 84.1381C722.603 84.1381 717.059 84.6209 713.809 84.1381L717.059 85.5864C717.059 85.5864 718.588 85.5864 719.544 85.345L722.603 84.1381Z" fill="url(#paint112_linear_1:274)"/>
<path opacity="0.5" d="M717.059 85.5863L719.162 84.1381C719.162 84.1381 718.97 69.4139 718.588 66.0346C718.588 66.0346 721.647 76.4139 722.603 84.1381L719.544 85.345V90.8967L717.632 90.6553L717.059 85.5863Z" fill="url(#paint113_linear_1:274)"/>
<path d="M677.294 93.3104L679.588 82.931L679.015 76.8966L675 75.2069C675 75.2069 677.868 60.4828 680.735 53C680.735 53 684.559 65.7931 685.706 75.2069L682.074 76.6552V83.4138L684.176 94.5172L677.294 93.3104Z" fill="url(#paint114_linear_1:274)"/>
<path opacity="0.5" d="M685.706 75.2068C685.706 75.2068 679.015 75.6896 675 75.2068L679.015 76.8965C679.015 76.8965 680.926 76.8965 682.074 76.4137L685.706 75.2068Z" fill="url(#paint115_linear_1:274)"/>
<path opacity="0.5" d="M678.823 76.8966L681.308 75.2069C681.308 75.2069 681.117 57.1034 680.544 53C680.544 53 684.176 65.7931 685.514 75.2069L681.882 76.6552V83.4138L679.397 83.1724L678.823 76.8966Z" fill="url(#paint116_linear_1:274)"/>
<path d="M747.456 107.069L749.368 98.6205L748.794 93.5515L745.544 92.1033C745.544 92.1033 748.029 80.0343 750.132 73.9998C750.132 73.9998 753.382 84.3791 754.147 92.1033L751.088 93.3102V98.8619L752.809 107.793L747.456 107.069Z" fill="url(#paint117_linear_1:274)"/>
<path opacity="0.5" d="M754.338 92.1034C754.338 92.1034 748.794 92.5861 745.544 92.1034L748.794 93.5516C748.794 93.5516 750.323 93.5516 751.279 93.3103L754.338 92.1034Z" fill="url(#paint118_linear_1:274)"/>
<path opacity="0.5" d="M748.794 93.5515L750.897 92.1033C750.897 92.1033 750.706 77.3791 750.323 73.9998C750.323 73.9998 753.382 84.3791 754.338 92.1033L751.279 93.3102V98.8619L749.368 98.6205L748.794 93.5515Z" fill="url(#paint119_linear_1:274)"/>
<path d="M784.735 126.138L786.647 117.69L786.073 112.621L782.823 111.172C782.823 111.172 785.308 99.1035 787.411 93.069C787.411 93.069 790.661 103.448 791.426 111.172L788.367 112.379V117.931L790.088 126.862L784.735 126.138Z" fill="url(#paint120_linear_1:274)"/>
<path opacity="0.5" d="M791.426 111.173C791.426 111.173 785.882 111.655 782.632 111.173L785.882 112.621C785.882 112.621 787.411 112.621 788.367 112.379L791.426 111.173Z" fill="url(#paint121_linear_1:274)"/>
<path opacity="0.5" d="M786.074 112.621L788.177 111.172C788.177 111.172 787.985 96.4483 787.603 93.069C787.603 93.069 790.662 103.448 791.618 111.172L788.559 112.379V117.931L786.647 117.69L786.074 112.621Z" fill="url(#paint122_linear_1:274)"/>
<path d="M821.059 153.172L822.97 144.724L822.397 139.655L819.147 138.207C819.147 138.207 821.632 126.138 823.735 120.103C823.735 120.103 826.985 130.483 827.75 138.207L824.691 139.414V144.965L826.603 153.896L821.059 153.172Z" fill="url(#paint123_linear_1:274)"/>
<path opacity="0.5" d="M827.75 138.207C827.75 138.207 822.206 138.69 818.956 138.207L822.206 139.655C822.206 139.655 823.735 139.655 824.691 139.414L827.75 138.207Z" fill="url(#paint124_linear_1:274)"/>
<path opacity="0.5" d="M822.397 139.655L824.5 138.207C824.5 138.207 824.308 123.483 823.926 120.103C823.926 120.103 826.985 130.483 827.941 138.207L824.882 139.414V144.965L822.97 144.724L822.397 139.655Z" fill="url(#paint125_linear_1:274)"/>
<path d="M855.47 162.103L857.382 153.655L856.808 148.586L853.558 147.138C853.558 147.138 856.044 135.069 858.147 129.034C858.147 129.034 861.397 139.414 862.161 147.138L859.102 148.345V153.896L860.823 162.828L855.47 162.103Z" fill="url(#paint126_linear_1:274)"/>
<path opacity="0.5" d="M862.161 147.138C862.161 147.138 856.617 147.621 853.367 147.138L856.617 148.586C856.617 148.586 858.147 148.586 859.102 148.345L862.161 147.138Z" fill="url(#paint127_linear_1:274)"/>
<path opacity="0.5" d="M856.808 148.586L858.911 147.138C858.911 147.138 858.72 132.414 858.338 129.034C858.338 129.034 861.397 139.414 862.353 147.138L859.294 148.345V153.896L857.382 153.655L856.808 148.586Z" fill="url(#paint128_linear_1:274)"/>
<path d="M720.691 275.793L718.206 265.173L718.97 181.655L720.309 140.862L720.691 275.793Z" fill="url(#paint129_linear_1:274)"/>
<path d="M756.632 118.414L755.867 306.207L752.617 309.104L752.044 117.207L756.632 118.414Z" fill="url(#paint130_linear_1:274)"/>
<path d="M752.618 309.104L747.073 307.655L744.779 115.276L752.044 117.207L752.618 309.104Z" fill="url(#paint131_linear_1:274)"/>
<path opacity="0.5" d="M744.779 122.758C744.779 122.758 747.073 125.414 749.941 132.414C752.808 139.414 756.249 179.241 756.249 179.241L756.441 118.172C756.441 118.172 746.499 115.517 744.588 115.034L744.779 122.758Z" fill="url(#paint132_linear_1:274)"/>
<path d="M752.618 276.517L749.941 265.896L750.706 182.621L752.044 141.586L752.618 276.517Z" fill="url(#paint133_linear_1:274)"/>
<path d="M792.956 131.207L792.382 309.104L789.515 311.759L788.941 130L792.956 131.207Z" fill="url(#paint134_linear_1:274)"/>
<path d="M789.515 311.758L784.544 310.552L782.441 128.31L788.941 130L789.515 311.758Z" fill="url(#paint135_linear_1:274)"/>
<path opacity="0.5" d="M782.441 135.552C782.441 135.552 784.544 137.965 787.029 144.724C789.514 151.241 792.573 189.138 792.573 189.138L792.764 131.448C792.764 131.448 783.779 129.034 782.25 128.552L782.441 135.552Z" fill="url(#paint136_linear_1:274)"/>
<path d="M789.323 279.172L787.029 268.552L787.794 185.276L788.941 144.241L789.323 279.172Z" fill="url(#paint137_linear_1:274)"/>
<path d="M827.559 159.207L826.985 309.345L824.118 311.759L823.544 158.241L827.559 159.207Z" fill="url(#paint138_linear_1:274)"/>
<path d="M824.118 311.758L819.147 310.793L817.044 156.793L823.544 158.241L824.118 311.758Z" fill="url(#paint139_linear_1:274)"/>
<path opacity="0.5" d="M817.044 162.828C817.044 162.828 819.147 170.552 821.632 176.345C824.117 181.897 827.176 208.207 827.176 208.207L827.367 159.448C827.367 159.448 818.382 157.276 816.853 157.034L817.044 162.828Z" fill="url(#paint140_linear_1:274)"/>
<path d="M823.926 279.172L823.544 258.414V187.69L823.735 222.207L823.926 279.172Z" fill="url(#paint141_linear_1:274)"/>
<path d="M864.838 168.138L864.264 309.103L861.397 311.759L860.823 166.931L864.838 168.138Z" fill="url(#paint142_linear_1:274)"/>
<path d="M861.397 311.758L856.426 310.552L854.323 165.241L860.823 166.931L861.397 311.758Z" fill="url(#paint143_linear_1:274)"/>
<path opacity="0.5" d="M854.323 172.483C854.323 172.483 856.426 175.138 858.911 181.655C861.588 188.414 864.647 187.69 864.647 187.69L864.838 168.138C864.838 168.138 855.852 165.724 854.323 165.241V172.483Z" fill="url(#paint144_linear_1:274)"/>
<path d="M861.397 280.621L859.103 270.483L860.823 238.379V190.345L861.397 280.621Z" fill="url(#paint145_linear_1:274)"/>
<path d="M834.25 160.414C834.25 160.414 782.441 95.7242 678.823 92.3449C678.823 92.3449 771.926 122.517 827.559 159.931L834.25 160.414Z" fill="url(#paint146_linear_1:274)"/>
<path d="M879.062 362.931L678.824 359.793L675.574 92.5862C675.574 92.5862 750.706 84.8621 827.559 159.931L883 164.035V173.448L826.985 172C826.985 172 762.75 116 683.603 109.966L688.191 347.966L879.827 347.241L879.062 362.931Z" fill="url(#paint147_linear_1:274)"/>
<path d="M683.603 109.966L688.191 189.621L687.235 310.552L683.794 199.759L683.603 109.966Z" fill="url(#paint148_linear_1:274)"/>
<path d="M690.485 346.758L685.897 349.172L852.985 350.62L853.177 347.241L690.485 346.758Z" fill="url(#paint149_linear_1:274)"/>
<path d="M789.515 321.173V349.173L785.882 347.242L784.735 321.173H789.515Z" fill="url(#paint150_linear_1:274)"/>
<path d="M792.956 321.173V346.759L789.514 349.173V321.173H792.956Z" fill="url(#paint151_linear_1:274)"/>
<path d="M720.118 321.173V349.173L716.676 347.242L715.338 321.173H720.118Z" fill="url(#paint152_linear_1:274)"/>
<path d="M723.75 321.173V346.759L720.118 349.173V321.173H723.75Z" fill="url(#paint153_linear_1:274)"/>
<path d="M860.823 321.173V349.173L857.191 347.242L856.044 321.173H860.823Z" fill="url(#paint154_linear_1:274)"/>
<path d="M864.264 321.173V346.759L860.823 349.173V321.173H864.264Z" fill="url(#paint155_linear_1:274)"/>
<path d="M686.47 172.483C686.47 172.483 694.117 175.379 704.059 191.552C714.573 208.931 712.088 250.69 704.823 263.241C698.323 274.586 689.912 276.758 689.912 276.758H685.897L683.22 172.965L686.47 172.483Z" fill="url(#paint156_linear_1:274)"/>
<path d="M676.338 169.104C676.338 169.104 689.529 174.414 700.235 191.552C710.941 208.69 708.264 250.69 700.999 263.242C694.499 274.586 677.676 280.621 677.676 280.621L676.338 169.104Z" fill="url(#paint157_linear_1:274)"/>
<path d="M688.191 177.069L698.897 192.759L704.058 203.138L707.308 224.862C707.308 224.862 707.308 201.207 700.235 191.552C693.161 181.897 688.191 177.069 688.191 177.069Z" fill="url(#paint158_linear_1:274)"/>
<path d="M705.015 251.655C705.015 251.655 702.721 262.276 700.426 266.379C697.941 270.241 692.779 272.414 692.779 272.414C692.779 272.414 700.426 267.828 705.015 251.655Z" fill="url(#paint159_linear_1:274)"/>
<path d="M759.882 347.724L754.53 350.621L748.603 347.483L754.338 327.69L759.882 347.724Z" fill="url(#paint160_linear_1:274)"/>
<path d="M754.53 350.621L754.338 327.69L759.882 347.724L754.53 350.621Z" fill="url(#paint161_linear_1:274)"/>
<path d="M831.191 347.724L825.838 350.621L819.912 347.483L825.456 327.69L831.191 347.724Z" fill="url(#paint162_linear_1:274)"/>
<path d="M825.838 350.621L825.456 327.69L831.191 347.724L825.838 350.621Z" fill="url(#paint163_linear_1:274)"/>
<path opacity="0.3" d="M702.911 220.759C707.308 224.862 705.588 254.552 697.176 258.414C688.764 262.035 683.22 241.517 684.749 234.276C686.279 227.035 698.514 216.897 702.911 220.759Z" fill="#9CA6CD"/>
<path opacity="0.3" d="M698.897 211.827C698.515 216.172 694.882 217.138 692.779 217.138C690.676 217.138 685.897 206.034 688.191 203.862C690.676 201.448 699.088 209.172 698.897 211.827Z" fill="#9CA6CD"/>
<path opacity="0.2" d="M684.559 217.379C685.897 217.862 685.897 219.793 685.515 220.759C685.323 221.724 681.691 223.172 681.117 221.724C680.926 220.517 683.794 217.138 684.559 217.379Z" fill="#9CA6CD"/>
<path opacity="0.2" d="M686.662 259.138C689.338 260.103 689.338 263.966 688.956 266.138C688.574 268.31 680.926 271.207 679.971 268.31C678.632 265.414 684.941 258.414 686.662 259.138Z" fill="#9CA6CD"/>
<defs>
<linearGradient id="paint0_linear_1:274" x1="111.992" y1="85.596" x2="84.1161" y2="6.46729" gradientUnits="userSpaceOnUse">
<stop stop-color="#A290C7"/>
<stop offset="1" stop-color="#989BBB"/>
</linearGradient>
<linearGradient id="paint1_linear_1:274" x1="115.018" y1="44.5046" x2="99.6855" y2="0.982345" gradientUnits="userSpaceOnUse">
<stop stop-color="#707997"/>
<stop offset="1" stop-color="#AC8FA1"/>
</linearGradient>
<linearGradient id="paint2_linear_1:274" x1="116.31" y1="84.0744" x2="99.9184" y2="37.5457" gradientUnits="userSpaceOnUse">
<stop stop-color="#596383"/>
<stop offset="1" stop-color="#7E5D70"/>
</linearGradient>
<linearGradient id="paint3_linear_1:274" x1="106.195" y1="105.581" x2="93.6536" y2="69.98" gradientUnits="userSpaceOnUse">
<stop stop-color="#B5A7D3"/>
<stop offset="1" stop-color="#989BBB"/>
</linearGradient>
<linearGradient id="paint4_linear_1:274" x1="127.268" y1="96.0716" x2="119.491" y2="73.9974" gradientUnits="userSpaceOnUse">
<stop stop-color="#596383"/>
<stop offset="1" stop-color="#7E5D70"/>
</linearGradient>
<linearGradient id="paint5_linear_1:274" x1="112.42" y1="386.73" x2="79.2534" y2="292.584" gradientUnits="userSpaceOnUse">
<stop stop-color="#596383"/>
<stop offset="1" stop-color="#7E5D70"/>
</linearGradient>
<linearGradient id="paint6_linear_1:274" x1="72.0375" y1="372.852" x2="43.9526" y2="293.129" gradientUnits="userSpaceOnUse">
<stop stop-color="#707997"/>
<stop offset="1" stop-color="#AC8FA1"/>
</linearGradient>
<linearGradient id="paint7_linear_1:274" x1="108.551" y1="339.752" x2="86.8081" y2="278.032" gradientUnits="userSpaceOnUse">
<stop stop-color="#939BB6"/>
<stop offset="1" stop-color="#D4B8CB"/>
</linearGradient>
<linearGradient id="paint8_linear_1:274" x1="119.974" y1="329.458" x2="76.6746" y2="206.55" gradientUnits="userSpaceOnUse">
<stop stop-color="#707997"/>
<stop offset="1" stop-color="#AC8FA1"/>
</linearGradient>
<linearGradient id="paint9_linear_1:274" x1="122.869" y1="235.74" x2="78.1781" y2="108.881" gradientUnits="userSpaceOnUse">
<stop stop-color="#9682BF"/>
<stop offset="1" stop-color="#989BBB"/>
</linearGradient>
<linearGradient id="paint10_linear_1:274" x1="153.853" y1="317.523" x2="89.5325" y2="134.943" gradientUnits="userSpaceOnUse">
<stop stop-color="#596383"/>
<stop offset="1" stop-color="#7E5D70"/>
</linearGradient>
<linearGradient id="paint11_linear_1:274" x1="167.972" y1="218.035" x2="35.5841" y2="218.035" gradientUnits="userSpaceOnUse">
<stop stop-color="#6B99FF"/>
<stop offset="1" stop-color="#A46D95"/>
</linearGradient>
<linearGradient id="paint12_linear_1:274" x1="112.614" y1="129.277" x2="94.4606" y2="77.7477" gradientUnits="userSpaceOnUse">
<stop stop-color="#A290C7"/>
<stop offset="1" stop-color="#989BBB"/>
</linearGradient>
<linearGradient id="paint13_linear_1:274" x1="149.425" y1="116.309" x2="139.69" y2="88.6734" gradientUnits="userSpaceOnUse">
<stop stop-color="#596383"/>
<stop offset="1" stop-color="#7E5D70"/>
</linearGradient>
<linearGradient id="paint14_linear_1:274" x1="169.678" y1="164.979" x2="128.594" y2="164.979" gradientUnits="userSpaceOnUse">
<stop stop-color="#764370"/>
<stop offset="1" stop-color="#BB9FB2"/>
</linearGradient>
<linearGradient id="paint15_linear_1:274" x1="167.972" y1="229.541" x2="62.7623" y2="229.541" gradientUnits="userSpaceOnUse">
<stop stop-color="#AB9DCD"/>
<stop offset="1" stop-color="#879CD3"/>
</linearGradient>
<linearGradient id="paint16_linear_1:274" x1="174.42" y1="309.192" x2="27.104" y2="309.192" gradientUnits="userSpaceOnUse">
<stop stop-color="#6B99FF"/>
<stop offset="1" stop-color="#A46D95"/>
</linearGradient>
<linearGradient id="paint17_linear_1:274" x1="125.865" y1="167.532" x2="117.355" y2="167.532" gradientUnits="userSpaceOnUse">
<stop stop-color="#98A1D9"/>
<stop offset="1" stop-color="#A4A2D3"/>
</linearGradient>
<linearGradient id="paint18_linear_1:274" x1="120.953" y1="268.105" x2="114.24" y2="268.105" gradientUnits="userSpaceOnUse">
<stop stop-color="#AB9DCD"/>
<stop offset="1" stop-color="#879CD3"/>
</linearGradient>
<linearGradient id="paint19_linear_1:274" x1="126.347" y1="103.031" x2="122.794" y2="103.031" gradientUnits="userSpaceOnUse">
<stop stop-color="#98A1D9"/>
<stop offset="1" stop-color="#A4A2D3"/>
</linearGradient>
<linearGradient id="paint20_linear_1:274" x1="125.865" y1="211.902" x2="35.5841" y2="211.902" gradientUnits="userSpaceOnUse">
<stop stop-color="#656E8D"/>
<stop offset="1" stop-color="#846579"/>
</linearGradient>
<linearGradient id="paint21_linear_1:274" x1="126.347" y1="111.273" x2="43.2153" y2="111.273" gradientUnits="userSpaceOnUse">
<stop stop-color="#656E8D"/>
<stop offset="1" stop-color="#846579"/>
</linearGradient>
<linearGradient id="paint22_linear_1:274" x1="933.905" y1="89.596" x2="961.78" y2="10.4673" gradientUnits="userSpaceOnUse">
<stop stop-color="#A290C7"/>
<stop offset="1" stop-color="#989BBB"/>
</linearGradient>
<linearGradient id="paint23_linear_1:274" x1="930.879" y1="48.5046" x2="946.211" y2="4.98234" gradientUnits="userSpaceOnUse">
<stop stop-color="#707997"/>
<stop offset="1" stop-color="#AC8FA1"/>
</linearGradient>
<linearGradient id="paint24_linear_1:274" x1="929.587" y1="88.0744" x2="945.978" y2="41.5457" gradientUnits="userSpaceOnUse">
<stop stop-color="#596383"/>
<stop offset="1" stop-color="#7E5D70"/>
</linearGradient>
<linearGradient id="paint25_linear_1:274" x1="939.701" y1="109.581" x2="952.243" y2="73.98" gradientUnits="userSpaceOnUse">
<stop stop-color="#B5A7D3"/>
<stop offset="1" stop-color="#989BBB"/>
</linearGradient>
<linearGradient id="paint26_linear_1:274" x1="918.629" y1="100.072" x2="926.405" y2="77.9974" gradientUnits="userSpaceOnUse">
<stop stop-color="#596383"/>
<stop offset="1" stop-color="#7E5D70"/>
</linearGradient>
<linearGradient id="paint27_linear_1:274" x1="933.477" y1="390.73" x2="966.643" y2="296.584" gradientUnits="userSpaceOnUse">
<stop stop-color="#596383"/>
<stop offset="1" stop-color="#7E5D70"/>
</linearGradient>
<linearGradient id="paint28_linear_1:274" x1="973.859" y1="376.852" x2="1001.94" y2="297.129" gradientUnits="userSpaceOnUse">
<stop stop-color="#707997"/>
<stop offset="1" stop-color="#AC8FA1"/>
</linearGradient>
<linearGradient id="paint29_linear_1:274" x1="937.345" y1="343.752" x2="959.088" y2="282.032" gradientUnits="userSpaceOnUse">
<stop stop-color="#939BB6"/>
<stop offset="1" stop-color="#D4B8CB"/>
</linearGradient>
<linearGradient id="paint30_linear_1:274" x1="925.923" y1="333.458" x2="969.222" y2="210.55" gradientUnits="userSpaceOnUse">
<stop stop-color="#707997"/>
<stop offset="1" stop-color="#AC8FA1"/>
</linearGradient>
<linearGradient id="paint31_linear_1:274" x1="923.028" y1="239.74" x2="967.718" y2="112.881" gradientUnits="userSpaceOnUse">
<stop stop-color="#9682BF"/>
<stop offset="1" stop-color="#989BBB"/>
</linearGradient>
<linearGradient id="paint32_linear_1:274" x1="892.044" y1="321.523" x2="956.364" y2="138.943" gradientUnits="userSpaceOnUse">
<stop stop-color="#596383"/>
<stop offset="1" stop-color="#7E5D70"/>
</linearGradient>
<linearGradient id="paint33_linear_1:274" x1="877.925" y1="222.035" x2="1010.31" y2="222.035" gradientUnits="userSpaceOnUse">
<stop stop-color="#6B99FF"/>
<stop offset="1" stop-color="#A46D95"/>
</linearGradient>
<linearGradient id="paint34_linear_1:274" x1="933.283" y1="133.277" x2="951.436" y2="81.7477" gradientUnits="userSpaceOnUse">
<stop stop-color="#A290C7"/>
<stop offset="1" stop-color="#989BBB"/>
</linearGradient>
<linearGradient id="paint35_linear_1:274" x1="896.471" y1="120.309" x2="906.207" y2="92.6734" gradientUnits="userSpaceOnUse">
<stop stop-color="#596383"/>
<stop offset="1" stop-color="#7E5D70"/>
</linearGradient>
<linearGradient id="paint36_linear_1:274" x1="876.218" y1="168.979" x2="917.303" y2="168.979" gradientUnits="userSpaceOnUse">
<stop stop-color="#764370"/>
<stop offset="1" stop-color="#BB9FB2"/>
</linearGradient>
<linearGradient id="paint37_linear_1:274" x1="877.925" y1="233.541" x2="983.134" y2="233.541" gradientUnits="userSpaceOnUse">
<stop stop-color="#AB9DCD"/>
<stop offset="1" stop-color="#879CD3"/>
</linearGradient>
<linearGradient id="paint38_linear_1:274" x1="871.476" y1="313.192" x2="1018.79" y2="313.192" gradientUnits="userSpaceOnUse">
<stop stop-color="#6B99FF"/>
<stop offset="1" stop-color="#A46D95"/>
</linearGradient>
<linearGradient id="paint39_linear_1:274" x1="920.031" y1="171.532" x2="928.542" y2="171.532" gradientUnits="userSpaceOnUse">
<stop stop-color="#98A1D9"/>
<stop offset="1" stop-color="#A4A2D3"/>
</linearGradient>
<linearGradient id="paint40_linear_1:274" x1="924.943" y1="272.105" x2="931.656" y2="272.105" gradientUnits="userSpaceOnUse">
<stop stop-color="#AB9DCD"/>
<stop offset="1" stop-color="#879CD3"/>
</linearGradient>
<linearGradient id="paint41_linear_1:274" x1="919.55" y1="107.031" x2="923.103" y2="107.031" gradientUnits="userSpaceOnUse">
<stop stop-color="#98A1D9"/>
<stop offset="1" stop-color="#A4A2D3"/>
</linearGradient>
<linearGradient id="paint42_linear_1:274" x1="920.031" y1="215.902" x2="1010.31" y2="215.902" gradientUnits="userSpaceOnUse">
<stop stop-color="#656E8D"/>
<stop offset="1" stop-color="#846579"/>
</linearGradient>
<linearGradient id="paint43_linear_1:274" x1="919.55" y1="115.273" x2="1002.68" y2="115.273" gradientUnits="userSpaceOnUse">
<stop stop-color="#656E8D"/>
<stop offset="1" stop-color="#846579"/>
</linearGradient>
<linearGradient id="paint44_linear_1:274" x1="349.822" y1="344.161" x2="349.822" y2="104.901" gradientUnits="userSpaceOnUse">
<stop stop-color="#402F3F"/>
<stop offset="1" stop-color="#574361"/>
</linearGradient>
<linearGradient id="paint45_linear_1:274" x1="258.294" y1="316.236" x2="258.294" y2="298.726" gradientUnits="userSpaceOnUse">
<stop stop-color="#5E5A6A"/>
<stop offset="1" stop-color="#74647D"/>
</linearGradient>
<linearGradient id="paint46_linear_1:274" x1="349.827" y1="161.849" x2="349.827" y2="104.901" gradientUnits="userSpaceOnUse">
<stop stop-color="#6B99FF"/>
<stop offset="1" stop-color="#A46D95"/>
</linearGradient>
<linearGradient id="paint47_linear_1:274" x1="258.294" y1="307.481" x2="258.294" y2="298.726" gradientUnits="userSpaceOnUse">
<stop stop-color="#74717F"/>
<stop offset="1" stop-color="#8F8296"/>
</linearGradient>
<linearGradient id="paint48_linear_1:274" x1="315.482" y1="303.103" x2="315.482" y2="111.199" gradientUnits="userSpaceOnUse">
<stop stop-color="#402F3F"/>
<stop offset="1" stop-color="#574361"/>
</linearGradient>
<linearGradient id="paint49_linear_1:274" x1="321.052" y1="303.104" x2="321.052" y2="109.417" gradientUnits="userSpaceOnUse">
<stop stop-color="#5E5A6A"/>
<stop offset="1" stop-color="#74647D"/>
</linearGradient>
<linearGradient id="paint50_linear_1:274" x1="319.094" y1="173.472" x2="319.094" y2="109.417" gradientUnits="userSpaceOnUse">
<stop stop-color="#6B99FF"/>
<stop offset="1" stop-color="#A46D95"/>
</linearGradient>
<linearGradient id="paint51_linear_1:274" x1="319.746" y1="94.9699" x2="319.746" y2="61.0402" gradientUnits="userSpaceOnUse">
<stop stop-color="#5E5A6A"/>
<stop offset="1" stop-color="#74647D"/>
</linearGradient>
<linearGradient id="paint52_linear_1:274" x1="319.746" y1="80.6779" x2="319.746" y2="79.241" gradientUnits="userSpaceOnUse">
<stop stop-color="#6B99FF"/>
<stop offset="1" stop-color="#A46D95"/>
</linearGradient>
<linearGradient id="paint53_linear_1:274" x1="318.123" y1="85.9464" x2="318.123" y2="61.0402" gradientUnits="userSpaceOnUse">
<stop stop-color="#6B99FF"/>
<stop offset="1" stop-color="#A46D95"/>
</linearGradient>
<linearGradient id="paint54_linear_1:274" x1="357.725" y1="89.3804" x2="357.725" y2="47.7946" gradientUnits="userSpaceOnUse">
<stop stop-color="#5E5A6A"/>
<stop offset="1" stop-color="#74647D"/>
</linearGradient>
<linearGradient id="paint55_linear_1:274" x1="357.725" y1="71.8634" x2="357.725" y2="70.1023" gradientUnits="userSpaceOnUse">
<stop stop-color="#6B99FF"/>
<stop offset="1" stop-color="#A46D95"/>
</linearGradient>
<linearGradient id="paint56_linear_1:274" x1="355.737" y1="78.3209" x2="355.737" y2="47.7946" gradientUnits="userSpaceOnUse">
<stop stop-color="#6B99FF"/>
<stop offset="1" stop-color="#A46D95"/>
</linearGradient>
<linearGradient id="paint57_linear_1:274" x1="287.994" y1="102.911" x2="287.994" y2="68.9812" gradientUnits="userSpaceOnUse">
<stop stop-color="#5E5A6A"/>
<stop offset="1" stop-color="#74647D"/>
</linearGradient>
<linearGradient id="paint58_linear_1:274" x1="287.994" y1="88.6192" x2="287.994" y2="87.1823" gradientUnits="userSpaceOnUse">
<stop stop-color="#6B99FF"/>
<stop offset="1" stop-color="#A46D95"/>
</linearGradient>
<linearGradient id="paint59_linear_1:274" x1="286.371" y1="93.8877" x2="286.371" y2="68.9812" gradientUnits="userSpaceOnUse">
<stop stop-color="#6B99FF"/>
<stop offset="1" stop-color="#A46D95"/>
</linearGradient>
<linearGradient id="paint60_linear_1:274" x1="250.877" y1="121.866" x2="250.877" y2="87.9358" gradientUnits="userSpaceOnUse">
<stop stop-color="#5E5A6A"/>
<stop offset="1" stop-color="#74647D"/>
</linearGradient>
<linearGradient id="paint61_linear_1:274" x1="250.877" y1="107.574" x2="250.877" y2="106.137" gradientUnits="userSpaceOnUse">
<stop stop-color="#6B99FF"/>
<stop offset="1" stop-color="#A46D95"/>
</linearGradient>
<linearGradient id="paint62_linear_1:274" x1="249.254" y1="112.842" x2="249.254" y2="87.9358" gradientUnits="userSpaceOnUse">
<stop stop-color="#6B99FF"/>
<stop offset="1" stop-color="#A46D95"/>
</linearGradient>
<linearGradient id="paint63_linear_1:274" x1="214.546" y1="149.009" x2="214.546" y2="115.08" gradientUnits="userSpaceOnUse">
<stop stop-color="#5E5A6A"/>
<stop offset="1" stop-color="#74647D"/>
</linearGradient>
<linearGradient id="paint64_linear_1:274" x1="214.546" y1="134.717" x2="214.546" y2="133.281" gradientUnits="userSpaceOnUse">
<stop stop-color="#6B99FF"/>
<stop offset="1" stop-color="#A46D95"/>
</linearGradient>
<linearGradient id="paint65_linear_1:274" x1="212.923" y1="139.986" x2="212.923" y2="115.08" gradientUnits="userSpaceOnUse">
<stop stop-color="#6B99FF"/>
<stop offset="1" stop-color="#A46D95"/>
</linearGradient>
<linearGradient id="paint66_linear_1:274" x1="180.133" y1="157.96" x2="180.133" y2="124.03" gradientUnits="userSpaceOnUse">
<stop stop-color="#5E5A6A"/>
<stop offset="1" stop-color="#74647D"/>
</linearGradient>
<linearGradient id="paint67_linear_1:274" x1="180.133" y1="143.668" x2="180.133" y2="142.231" gradientUnits="userSpaceOnUse">
<stop stop-color="#6B99FF"/>
<stop offset="1" stop-color="#A46D95"/>
</linearGradient>
<linearGradient id="paint68_linear_1:274" x1="178.51" y1="148.936" x2="178.51" y2="124.03" gradientUnits="userSpaceOnUse">
<stop stop-color="#6B99FF"/>
<stop offset="1" stop-color="#A46D95"/>
</linearGradient>
<linearGradient id="paint69_linear_1:274" x1="318.486" y1="270.687" x2="318.486" y2="135.76" gradientUnits="userSpaceOnUse">
<stop stop-color="#74717F"/>
<stop offset="1" stop-color="#8F8296"/>
</linearGradient>
<linearGradient id="paint70_linear_1:274" x1="283.731" y1="303.995" x2="283.731" y2="112.091" gradientUnits="userSpaceOnUse">
<stop stop-color="#402F3F"/>
<stop offset="1" stop-color="#574361"/>
</linearGradient>
<linearGradient id="paint71_linear_1:274" x1="289.3" y1="303.995" x2="289.3" y2="110.308" gradientUnits="userSpaceOnUse">
<stop stop-color="#5E5A6A"/>
<stop offset="1" stop-color="#74647D"/>
</linearGradient>
<linearGradient id="paint72_linear_1:274" x1="287.343" y1="174.363" x2="287.343" y2="110.308" gradientUnits="userSpaceOnUse">
<stop stop-color="#6B99FF"/>
<stop offset="1" stop-color="#A46D95"/>
</linearGradient>
<linearGradient id="paint73_linear_1:274" x1="286.734" y1="271.578" x2="286.734" y2="136.651" gradientUnits="userSpaceOnUse">
<stop stop-color="#74717F"/>
<stop offset="1" stop-color="#8F8296"/>
</linearGradient>
<linearGradient id="paint74_linear_1:274" x1="247.04" y1="306.706" x2="247.04" y2="125.043" gradientUnits="userSpaceOnUse">
<stop stop-color="#402F3F"/>
<stop offset="1" stop-color="#574361"/>
</linearGradient>
<linearGradient id="paint75_linear_1:274" x1="252.052" y1="306.706" x2="252.052" y2="123.355" gradientUnits="userSpaceOnUse">
<stop stop-color="#5E5A6A"/>
<stop offset="1" stop-color="#74647D"/>
</linearGradient>
<linearGradient id="paint76_linear_1:274" x1="250.291" y1="183.992" x2="250.291" y2="123.355" gradientUnits="userSpaceOnUse">
<stop stop-color="#6B99FF"/>
<stop offset="1" stop-color="#A46D95"/>
</linearGradient>
<linearGradient id="paint77_linear_1:274" x1="249.743" y1="274.289" x2="249.743" y2="139.362" gradientUnits="userSpaceOnUse">
<stop stop-color="#74717F"/>
<stop offset="1" stop-color="#8F8296"/>
</linearGradient>
<linearGradient id="paint78_linear_1:274" x1="212.493" y1="306.706" x2="212.493" y2="153.26" gradientUnits="userSpaceOnUse">
<stop stop-color="#402F3F"/>
<stop offset="1" stop-color="#574361"/>
</linearGradient>
<linearGradient id="paint79_linear_1:274" x1="217.505" y1="306.706" x2="217.505" y2="151.834" gradientUnits="userSpaceOnUse">
<stop stop-color="#5E5A6A"/>
<stop offset="1" stop-color="#74647D"/>
</linearGradient>
<linearGradient id="paint80_linear_1:274" x1="215.743" y1="203.053" x2="215.743" y2="151.834" gradientUnits="userSpaceOnUse">
<stop stop-color="#6B99FF"/>
<stop offset="1" stop-color="#A46D95"/>
</linearGradient>
<linearGradient id="paint81_linear_1:274" x1="214.304" y1="274.289" x2="214.304" y2="182.714" gradientUnits="userSpaceOnUse">
<stop stop-color="#74717F"/>
<stop offset="1" stop-color="#8F8296"/>
</linearGradient>
<linearGradient id="paint82_linear_1:274" x1="175.12" y1="306.706" x2="175.12" y2="161.875" gradientUnits="userSpaceOnUse">
<stop stop-color="#402F3F"/>
<stop offset="1" stop-color="#574361"/>
</linearGradient>
<linearGradient id="paint83_linear_1:274" x1="180.133" y1="306.706" x2="180.133" y2="160.169" gradientUnits="userSpaceOnUse">
<stop stop-color="#5E5A6A"/>
<stop offset="1" stop-color="#74647D"/>
</linearGradient>
<linearGradient id="paint84_linear_1:274" x1="178.371" y1="182.714" x2="178.371" y2="160.169" gradientUnits="userSpaceOnUse">
<stop stop-color="#6B99FF"/>
<stop offset="1" stop-color="#A46D95"/>
</linearGradient>
<linearGradient id="paint85_linear_1:274" x1="177.823" y1="275.696" x2="177.823" y2="185.369" gradientUnits="userSpaceOnUse">
<stop stop-color="#74717F"/>
<stop offset="1" stop-color="#8F8296"/>
</linearGradient>
<linearGradient id="paint86_linear_1:274" x1="281.45" y1="155.365" x2="281.45" y2="87.2607" gradientUnits="userSpaceOnUse">
<stop stop-color="#402F3F"/>
<stop offset="1" stop-color="#574361"/>
</linearGradient>
<linearGradient id="paint87_linear_1:274" x1="258.731" y1="358.025" x2="258.731" y2="87.2609" gradientUnits="userSpaceOnUse">
<stop stop-color="#5E5A6A"/>
<stop offset="1" stop-color="#74647D"/>
</linearGradient>
<linearGradient id="paint88_linear_1:274" x1="352.095" y1="305.451" x2="352.095" y2="104.901" gradientUnits="userSpaceOnUse">
<stop stop-color="#74717F"/>
<stop offset="1" stop-color="#8F8296"/>
</linearGradient>
<linearGradient id="paint89_linear_1:274" x1="268.477" y1="345.623" x2="268.477" y2="341.715" gradientUnits="userSpaceOnUse">
<stop stop-color="#74717F"/>
<stop offset="1" stop-color="#8F8296"/>
</linearGradient>
<linearGradient id="paint90_linear_1:274" x1="250.911" y1="344.161" x2="250.911" y2="316.236" gradientUnits="userSpaceOnUse">
<stop stop-color="#5E5A6A"/>
<stop offset="1" stop-color="#74647D"/>
</linearGradient>
<linearGradient id="paint91_linear_1:274" x1="244.987" y1="330.198" x2="248.511" y2="330.198" gradientUnits="userSpaceOnUse">
<stop stop-color="#402F3F"/>
<stop offset="1" stop-color="#574361"/>
</linearGradient>
<linearGradient id="paint92_linear_1:274" x1="320.248" y1="344.161" x2="320.248" y2="316.236" gradientUnits="userSpaceOnUse">
<stop stop-color="#5E5A6A"/>
<stop offset="1" stop-color="#74647D"/>
</linearGradient>
<linearGradient id="paint93_linear_1:274" x1="314.324" y1="330.198" x2="317.848" y2="330.198" gradientUnits="userSpaceOnUse">
<stop stop-color="#402F3F"/>
<stop offset="1" stop-color="#574361"/>
</linearGradient>
<linearGradient id="paint94_linear_1:274" x1="179.585" y1="344.161" x2="179.585" y2="316.236" gradientUnits="userSpaceOnUse">
<stop stop-color="#5E5A6A"/>
<stop offset="1" stop-color="#74647D"/>
</linearGradient>
<linearGradient id="paint95_linear_1:274" x1="173.661" y1="330.198" x2="177.185" y2="330.198" gradientUnits="userSpaceOnUse">
<stop stop-color="#402F3F"/>
<stop offset="1" stop-color="#574361"/>
</linearGradient>
<linearGradient id="paint96_linear_1:274" x1="340.903" y1="271.766" x2="340.903" y2="167.537" gradientUnits="userSpaceOnUse">
<stop stop-color="#402F3F"/>
<stop offset="1" stop-color="#574361"/>
</linearGradient>
<linearGradient id="paint97_linear_1:274" x1="346.136" y1="275.719" x2="346.136" y2="164.094" gradientUnits="userSpaceOnUse">
<stop stop-color="#5E5A6A"/>
<stop offset="1" stop-color="#74647D"/>
</linearGradient>
<linearGradient id="paint98_linear_1:274" x1="340.248" y1="219.906" x2="340.248" y2="172.096" gradientUnits="userSpaceOnUse">
<stop stop-color="#74717F"/>
<stop offset="1" stop-color="#8F8296"/>
</linearGradient>
<linearGradient id="paint99_linear_1:274" x1="339.172" y1="267.405" x2="339.172" y2="246.718" gradientUnits="userSpaceOnUse">
<stop stop-color="#74717F"/>
<stop offset="1" stop-color="#8F8296"/>
</linearGradient>
<linearGradient id="paint100_linear_1:274" x1="283.731" y1="345.624" x2="283.731" y2="322.807" gradientUnits="userSpaceOnUse">
<stop stop-color="#5E5A6A"/>
<stop offset="1" stop-color="#74647D"/>
</linearGradient>
<linearGradient id="paint101_linear_1:274" x1="280.928" y1="345.624" x2="280.928" y2="322.807" gradientUnits="userSpaceOnUse">
<stop stop-color="#402F3F"/>
<stop offset="1" stop-color="#574361"/>
</linearGradient>
<linearGradient id="paint102_linear_1:274" x1="212.492" y1="345.624" x2="212.492" y2="322.807" gradientUnits="userSpaceOnUse">
<stop stop-color="#5E5A6A"/>
<stop offset="1" stop-color="#74647D"/>
</linearGradient>
<linearGradient id="paint103_linear_1:274" x1="209.69" y1="345.624" x2="209.69" y2="322.807" gradientUnits="userSpaceOnUse">
<stop stop-color="#402F3F"/>
<stop offset="1" stop-color="#574361"/>
</linearGradient>
<linearGradient id="paint104_linear_1:274" x1="688.178" y1="349.161" x2="688.178" y2="109.901" gradientUnits="userSpaceOnUse">
<stop stop-color="#402F3F"/>
<stop offset="1" stop-color="#574361"/>
</linearGradient>
<linearGradient id="paint105_linear_1:274" x1="779.706" y1="321.236" x2="779.706" y2="303.726" gradientUnits="userSpaceOnUse">
<stop stop-color="#5E5A6A"/>
<stop offset="1" stop-color="#74647D"/>
</linearGradient>
<linearGradient id="paint106_linear_1:274" x1="688.173" y1="166.849" x2="688.173" y2="109.901" gradientUnits="userSpaceOnUse">
<stop stop-color="#6B99FF"/>
<stop offset="1" stop-color="#A46D95"/>
</linearGradient>
<linearGradient id="paint107_linear_1:274" x1="779.706" y1="312.481" x2="779.706" y2="303.726" gradientUnits="userSpaceOnUse">
<stop stop-color="#74717F"/>
<stop offset="1" stop-color="#8F8296"/>
</linearGradient>
<linearGradient id="paint108_linear_1:274" x1="722.517" y1="308.103" x2="722.517" y2="116.199" gradientUnits="userSpaceOnUse">
<stop stop-color="#402F3F"/>
<stop offset="1" stop-color="#574361"/>
</linearGradient>
<linearGradient id="paint109_linear_1:274" x1="716.948" y1="308.104" x2="716.948" y2="114.417" gradientUnits="userSpaceOnUse">
<stop stop-color="#5E5A6A"/>
<stop offset="1" stop-color="#74647D"/>
</linearGradient>
<linearGradient id="paint110_linear_1:274" x1="718.906" y1="178.472" x2="718.906" y2="114.417" gradientUnits="userSpaceOnUse">
<stop stop-color="#6B99FF"/>
<stop offset="1" stop-color="#A46D95"/>
</linearGradient>
<linearGradient id="paint111_linear_1:274" x1="718.254" y1="99.9699" x2="718.254" y2="66.0402" gradientUnits="userSpaceOnUse">
<stop stop-color="#5E5A6A"/>
<stop offset="1" stop-color="#74647D"/>
</linearGradient>
<linearGradient id="paint112_linear_1:274" x1="718.254" y1="85.6779" x2="718.254" y2="84.241" gradientUnits="userSpaceOnUse">
<stop stop-color="#6B99FF"/>
<stop offset="1" stop-color="#A46D95"/>
</linearGradient>
<linearGradient id="paint113_linear_1:274" x1="719.877" y1="90.9464" x2="719.877" y2="66.0402" gradientUnits="userSpaceOnUse">
<stop stop-color="#6B99FF"/>
<stop offset="1" stop-color="#A46D95"/>
</linearGradient>
<linearGradient id="paint114_linear_1:274" x1="680.275" y1="94.3804" x2="680.275" y2="52.7946" gradientUnits="userSpaceOnUse">
<stop stop-color="#5E5A6A"/>
<stop offset="1" stop-color="#74647D"/>
</linearGradient>
<linearGradient id="paint115_linear_1:274" x1="680.275" y1="76.8634" x2="680.275" y2="75.1023" gradientUnits="userSpaceOnUse">
<stop stop-color="#6B99FF"/>
<stop offset="1" stop-color="#A46D95"/>
</linearGradient>
<linearGradient id="paint116_linear_1:274" x1="682.263" y1="83.3209" x2="682.263" y2="52.7946" gradientUnits="userSpaceOnUse">
<stop stop-color="#6B99FF"/>
<stop offset="1" stop-color="#A46D95"/>
</linearGradient>
<linearGradient id="paint117_linear_1:274" x1="750.006" y1="107.911" x2="750.006" y2="73.9812" gradientUnits="userSpaceOnUse">
<stop stop-color="#5E5A6A"/>
<stop offset="1" stop-color="#74647D"/>
</linearGradient>
<linearGradient id="paint118_linear_1:274" x1="750.006" y1="93.6192" x2="750.006" y2="92.1823" gradientUnits="userSpaceOnUse">
<stop stop-color="#6B99FF"/>
<stop offset="1" stop-color="#A46D95"/>
</linearGradient>
<linearGradient id="paint119_linear_1:274" x1="751.629" y1="98.8877" x2="751.629" y2="73.9812" gradientUnits="userSpaceOnUse">
<stop stop-color="#6B99FF"/>
<stop offset="1" stop-color="#A46D95"/>
</linearGradient>
<linearGradient id="paint120_linear_1:274" x1="787.123" y1="126.866" x2="787.123" y2="92.9358" gradientUnits="userSpaceOnUse">
<stop stop-color="#5E5A6A"/>
<stop offset="1" stop-color="#74647D"/>
</linearGradient>
<linearGradient id="paint121_linear_1:274" x1="787.123" y1="112.574" x2="787.123" y2="111.137" gradientUnits="userSpaceOnUse">
<stop stop-color="#6B99FF"/>
<stop offset="1" stop-color="#A46D95"/>
</linearGradient>
<linearGradient id="paint122_linear_1:274" x1="788.746" y1="117.842" x2="788.746" y2="92.9358" gradientUnits="userSpaceOnUse">
<stop stop-color="#6B99FF"/>
<stop offset="1" stop-color="#A46D95"/>
</linearGradient>
<linearGradient id="paint123_linear_1:274" x1="823.454" y1="154.009" x2="823.454" y2="120.08" gradientUnits="userSpaceOnUse">
<stop stop-color="#5E5A6A"/>
<stop offset="1" stop-color="#74647D"/>
</linearGradient>
<linearGradient id="paint124_linear_1:274" x1="823.454" y1="139.717" x2="823.454" y2="138.281" gradientUnits="userSpaceOnUse">
<stop stop-color="#6B99FF"/>
<stop offset="1" stop-color="#A46D95"/>
</linearGradient>
<linearGradient id="paint125_linear_1:274" x1="825.077" y1="144.986" x2="825.077" y2="120.08" gradientUnits="userSpaceOnUse">
<stop stop-color="#6B99FF"/>
<stop offset="1" stop-color="#A46D95"/>
</linearGradient>
<linearGradient id="paint126_linear_1:274" x1="857.867" y1="162.96" x2="857.867" y2="129.03" gradientUnits="userSpaceOnUse">
<stop stop-color="#5E5A6A"/>
<stop offset="1" stop-color="#74647D"/>
</linearGradient>
<linearGradient id="paint127_linear_1:274" x1="857.867" y1="148.668" x2="857.867" y2="147.231" gradientUnits="userSpaceOnUse">
<stop stop-color="#6B99FF"/>
<stop offset="1" stop-color="#A46D95"/>
</linearGradient>
<linearGradient id="paint128_linear_1:274" x1="859.49" y1="153.936" x2="859.49" y2="129.03" gradientUnits="userSpaceOnUse">
<stop stop-color="#6B99FF"/>
<stop offset="1" stop-color="#A46D95"/>
</linearGradient>
<linearGradient id="paint129_linear_1:274" x1="719.514" y1="275.687" x2="719.514" y2="140.76" gradientUnits="userSpaceOnUse">
<stop stop-color="#74717F"/>
<stop offset="1" stop-color="#8F8296"/>
</linearGradient>
<linearGradient id="paint130_linear_1:274" x1="754.269" y1="308.995" x2="754.269" y2="117.091" gradientUnits="userSpaceOnUse">
<stop stop-color="#402F3F"/>
<stop offset="1" stop-color="#574361"/>
</linearGradient>
<linearGradient id="paint131_linear_1:274" x1="748.7" y1="308.995" x2="748.7" y2="115.308" gradientUnits="userSpaceOnUse">
<stop stop-color="#5E5A6A"/>
<stop offset="1" stop-color="#74647D"/>
</linearGradient>
<linearGradient id="paint132_linear_1:274" x1="750.657" y1="179.363" x2="750.657" y2="115.308" gradientUnits="userSpaceOnUse">
<stop stop-color="#6B99FF"/>
<stop offset="1" stop-color="#A46D95"/>
</linearGradient>
<linearGradient id="paint133_linear_1:274" x1="751.266" y1="276.578" x2="751.266" y2="141.651" gradientUnits="userSpaceOnUse">
<stop stop-color="#74717F"/>
<stop offset="1" stop-color="#8F8296"/>
</linearGradient>
<linearGradient id="paint134_linear_1:274" x1="790.96" y1="311.706" x2="790.96" y2="130.043" gradientUnits="userSpaceOnUse">
<stop stop-color="#402F3F"/>
<stop offset="1" stop-color="#574361"/>
</linearGradient>
<linearGradient id="paint135_linear_1:274" x1="785.948" y1="311.706" x2="785.948" y2="128.355" gradientUnits="userSpaceOnUse">
<stop stop-color="#5E5A6A"/>
<stop offset="1" stop-color="#74647D"/>
</linearGradient>
<linearGradient id="paint136_linear_1:274" x1="787.709" y1="188.992" x2="787.709" y2="128.355" gradientUnits="userSpaceOnUse">
<stop stop-color="#6B99FF"/>
<stop offset="1" stop-color="#A46D95"/>
</linearGradient>
<linearGradient id="paint137_linear_1:274" x1="788.257" y1="279.289" x2="788.257" y2="144.362" gradientUnits="userSpaceOnUse">
<stop stop-color="#74717F"/>
<stop offset="1" stop-color="#8F8296"/>
</linearGradient>
<linearGradient id="paint138_linear_1:274" x1="825.507" y1="311.706" x2="825.507" y2="158.26" gradientUnits="userSpaceOnUse">
<stop stop-color="#402F3F"/>
<stop offset="1" stop-color="#574361"/>
</linearGradient>
<linearGradient id="paint139_linear_1:274" x1="820.495" y1="311.706" x2="820.495" y2="156.834" gradientUnits="userSpaceOnUse">
<stop stop-color="#5E5A6A"/>
<stop offset="1" stop-color="#74647D"/>
</linearGradient>
<linearGradient id="paint140_linear_1:274" x1="822.257" y1="208.053" x2="822.257" y2="156.834" gradientUnits="userSpaceOnUse">
<stop stop-color="#6B99FF"/>
<stop offset="1" stop-color="#A46D95"/>
</linearGradient>
<linearGradient id="paint141_linear_1:274" x1="823.696" y1="279.289" x2="823.696" y2="187.714" gradientUnits="userSpaceOnUse">
<stop stop-color="#74717F"/>
<stop offset="1" stop-color="#8F8296"/>
</linearGradient>
<linearGradient id="paint142_linear_1:274" x1="862.88" y1="311.706" x2="862.88" y2="166.875" gradientUnits="userSpaceOnUse">
<stop stop-color="#402F3F"/>
<stop offset="1" stop-color="#574361"/>
</linearGradient>
<linearGradient id="paint143_linear_1:274" x1="857.867" y1="311.706" x2="857.867" y2="165.169" gradientUnits="userSpaceOnUse">
<stop stop-color="#5E5A6A"/>
<stop offset="1" stop-color="#74647D"/>
</linearGradient>
<linearGradient id="paint144_linear_1:274" x1="859.629" y1="187.714" x2="859.629" y2="165.169" gradientUnits="userSpaceOnUse">
<stop stop-color="#6B99FF"/>
<stop offset="1" stop-color="#A46D95"/>
</linearGradient>
<linearGradient id="paint145_linear_1:274" x1="860.177" y1="280.696" x2="860.177" y2="190.369" gradientUnits="userSpaceOnUse">
<stop stop-color="#74717F"/>
<stop offset="1" stop-color="#8F8296"/>
</linearGradient>
<linearGradient id="paint146_linear_1:274" x1="756.55" y1="160.365" x2="756.55" y2="92.2607" gradientUnits="userSpaceOnUse">
<stop stop-color="#402F3F"/>
<stop offset="1" stop-color="#574361"/>
</linearGradient>
<linearGradient id="paint147_linear_1:274" x1="779.269" y1="363.025" x2="779.269" y2="92.2609" gradientUnits="userSpaceOnUse">
<stop stop-color="#5E5A6A"/>
<stop offset="1" stop-color="#74647D"/>
</linearGradient>
<linearGradient id="paint148_linear_1:274" x1="685.905" y1="310.451" x2="685.905" y2="109.901" gradientUnits="userSpaceOnUse">
<stop stop-color="#74717F"/>
<stop offset="1" stop-color="#8F8296"/>
</linearGradient>
<linearGradient id="paint149_linear_1:274" x1="769.523" y1="350.623" x2="769.523" y2="346.715" gradientUnits="userSpaceOnUse">
<stop stop-color="#74717F"/>
<stop offset="1" stop-color="#8F8296"/>
</linearGradient>
<linearGradient id="paint150_linear_1:274" x1="787.089" y1="349.161" x2="787.089" y2="321.236" gradientUnits="userSpaceOnUse">
<stop stop-color="#5E5A6A"/>
<stop offset="1" stop-color="#74647D"/>
</linearGradient>
<linearGradient id="paint151_linear_1:274" x1="793.013" y1="335.198" x2="789.489" y2="335.198" gradientUnits="userSpaceOnUse">
<stop stop-color="#402F3F"/>
<stop offset="1" stop-color="#574361"/>
</linearGradient>
<linearGradient id="paint152_linear_1:274" x1="717.752" y1="349.161" x2="717.752" y2="321.236" gradientUnits="userSpaceOnUse">
<stop stop-color="#5E5A6A"/>
<stop offset="1" stop-color="#74647D"/>
</linearGradient>
<linearGradient id="paint153_linear_1:274" x1="723.676" y1="335.198" x2="720.152" y2="335.198" gradientUnits="userSpaceOnUse">
<stop stop-color="#402F3F"/>
<stop offset="1" stop-color="#574361"/>
</linearGradient>
<linearGradient id="paint154_linear_1:274" x1="858.415" y1="349.161" x2="858.415" y2="321.236" gradientUnits="userSpaceOnUse">
<stop stop-color="#5E5A6A"/>
<stop offset="1" stop-color="#74647D"/>
</linearGradient>
<linearGradient id="paint155_linear_1:274" x1="864.339" y1="335.198" x2="860.815" y2="335.198" gradientUnits="userSpaceOnUse">
<stop stop-color="#402F3F"/>
<stop offset="1" stop-color="#574361"/>
</linearGradient>
<linearGradient id="paint156_linear_1:274" x1="697.097" y1="276.766" x2="697.097" y2="172.537" gradientUnits="userSpaceOnUse">
<stop stop-color="#402F3F"/>
<stop offset="1" stop-color="#574361"/>
</linearGradient>
<linearGradient id="paint157_linear_1:274" x1="691.864" y1="280.719" x2="691.864" y2="169.094" gradientUnits="userSpaceOnUse">
<stop stop-color="#5E5A6A"/>
<stop offset="1" stop-color="#74647D"/>
</linearGradient>
<linearGradient id="paint158_linear_1:274" x1="697.752" y1="224.906" x2="697.752" y2="177.096" gradientUnits="userSpaceOnUse">
<stop stop-color="#74717F"/>
<stop offset="1" stop-color="#8F8296"/>
</linearGradient>
<linearGradient id="paint159_linear_1:274" x1="698.828" y1="272.405" x2="698.828" y2="251.718" gradientUnits="userSpaceOnUse">
<stop stop-color="#74717F"/>
<stop offset="1" stop-color="#8F8296"/>
</linearGradient>
<linearGradient id="paint160_linear_1:274" x1="754.269" y1="350.624" x2="754.269" y2="327.807" gradientUnits="userSpaceOnUse">
<stop stop-color="#5E5A6A"/>
<stop offset="1" stop-color="#74647D"/>
</linearGradient>
<linearGradient id="paint161_linear_1:274" x1="757.072" y1="350.624" x2="757.072" y2="327.807" gradientUnits="userSpaceOnUse">
<stop stop-color="#402F3F"/>
<stop offset="1" stop-color="#574361"/>
</linearGradient>
<linearGradient id="paint162_linear_1:274" x1="825.508" y1="350.624" x2="825.508" y2="327.807" gradientUnits="userSpaceOnUse">
<stop stop-color="#5E5A6A"/>
<stop offset="1" stop-color="#74647D"/>
</linearGradient>
<linearGradient id="paint163_linear_1:274" x1="828.31" y1="350.624" x2="828.31" y2="327.807" gradientUnits="userSpaceOnUse">
<stop stop-color="#402F3F"/>
<stop offset="1" stop-color="#574361"/>
</linearGradient>
</defs>
</svg>
