<svg width="248" height="415" viewBox="0 0 248 415" fill="none" xmlns="http://www.w3.org/2000/svg">
<path d="M93.9392 55.1829L77.1553 57.1869V39.9021L62.7513 40.7788C62.7513 40.7788 59.9957 30.6334 61.2483 21.3647L73.3978 19.6112L86.0483 19.9869L85.5473 4.2051C85.5473 4.2051 88.5533 2.20106 92.3109 0.197021L93.9392 16.6051V55.1829Z" fill="url(#paint0_linear)"/>
<path d="M120.117 55.1829H93.9397V53.1788L93.4387 36.395L93.1882 30.7586L92.9377 19.8617V18.3586L92.3114 0.197021H112.602L115.107 18.9849L117.487 36.395L119.867 53.1788L120.117 54.9324V55.1829Z" fill="url(#paint1_linear)"/>
<path d="M139.03 14.9768L135.774 36.395H75.9032L73.3981 19.4859H76.2789L92.9375 19.8617L107.717 20.1122H108.469L115.107 18.9849L139.03 14.9768Z" fill="url(#paint2_linear)"/>
<path d="M73.3981 19.4859L114.857 17.2314L114.606 14.9768H139.03L108.469 20.1122L73.3981 19.4859Z" fill="#B6C6EF"/>
<path d="M77.1557 39.9021L93.4386 36.2698H75.9032L62.7517 40.6536L77.1557 39.9021Z" fill="#655775"/>
<path d="M70.7678 19.8616L74.1496 24.6212L78.0324 20.1121L82.792 18.9849L73.3981 19.4859L70.7678 19.8616Z" fill="#B6C6EF"/>
<g opacity="0.3">
<path opacity="0.3" d="M107.843 20.3627C107.968 23.995 105.463 27.5021 102.206 29.2556C99.4506 30.6334 96.3193 31.0091 93.3133 30.7586C92.687 30.7586 92.0607 30.6334 91.4345 30.5081C88.8042 30.0071 73.0224 23.995 76.4042 19.4859L93.0628 19.8617V18.3586C97.0708 18.3586 101.204 18.3586 105.338 18.3586C106.214 18.3586 107.216 18.4839 107.717 19.2354C107.843 19.4859 107.968 19.8617 107.968 20.1122C107.717 20.2374 107.843 20.3627 107.843 20.3627Z" fill="#ACB6CD"/>
</g>
<path d="M93.4385 36.2698L117.487 36.395L93.4385 39.5263L77.1557 39.9021L93.4385 36.2698Z" fill="url(#paint3_linear)"/>
<path d="M105.964 52.5524V52.8029V55.0575L105.839 65.8292L105.713 71.2151L104.21 186.823L104.085 193.211L103.96 203.732L103.208 256.839L102.707 296.043H24.5497L29.9355 147.744L30.0608 143.862L34.0689 138.476L30.3113 135.971L30.4365 133.716L30.9376 118.686C30.9376 118.686 31.1881 117.183 31.8143 114.552C34.3194 104.532 42.586 78.605 64.6305 62.3221C65.1315 62.0716 65.5073 61.9464 66.0083 61.6959C73.8992 57.9383 84.0446 54.807 93.9396 53.304C98.0729 52.5524 102.081 52.3019 105.964 52.5524Z" fill="url(#paint4_linear)"/>
<path d="M195.644 296.043H52.3553V123.195C52.3553 123.195 62.7512 67.9585 96.5694 55.1827C99.4502 54.0554 102.582 53.3039 105.963 52.9282C107.091 52.8029 108.218 52.6777 109.345 52.6777C112.978 52.5524 116.485 52.8029 119.866 53.3039C136.525 55.9342 148.925 66.3302 157.943 78.4797C169.341 93.8858 175.228 112.047 177.483 120.314C178.234 123.195 178.61 124.823 178.61 124.823L178.735 125.7L181.741 155.635L186.751 205.611L183.87 211.498L192.763 217.26L195.644 296.043Z" fill="url(#paint5_linear)"/>
<path d="M175.479 296.043H67.887L65.2567 127.954C65.2567 127.954 65.6324 124.072 68.0122 117.684C70.0162 112.173 73.5233 104.908 79.6607 96.6413C86.0486 87.9988 94.4405 80.6089 104.836 77.7281C107.968 76.8514 111.224 76.3503 114.982 76.3503C149.426 76.3503 159.697 110.67 162.327 122.944C162.828 125.575 163.079 127.328 163.079 127.328L175.479 296.043Z" fill="url(#paint6_linear)"/>
<path d="M229.462 336.751H10.3957C10.6462 334.12 10.8967 331.365 11.2725 328.609C11.6482 325.603 12.1492 322.472 12.525 319.591C14.529 306.94 17.1593 296.169 17.1593 296.169L139.907 301.805L156.941 300.678L177.107 299.3L199.277 297.797L215.935 296.67L222.072 296.294C225.454 306.064 229.462 336.751 229.462 336.751Z" fill="url(#paint7_linear)"/>
<path d="M67.2609 298.298V336.751H229.463C229.463 336.751 223.326 299.175 220.695 290.407L144.166 296.044L67.2609 298.298Z" fill="url(#paint8_linear)"/>
<path d="M17.1599 296.044L33.8184 294.666L75.1518 296.044L220.695 290.282L141.16 298.298H67.2609L17.1599 296.044Z" fill="url(#paint9_linear)"/>
<path d="M163.079 290.282L68.0122 295.918L65.2567 127.955C65.2567 127.955 66.5092 114.302 79.5354 96.6414C135.899 49.296 151.681 133.09 151.681 133.09L163.079 290.282Z" fill="url(#paint10_linear)"/>
<path d="M73.1473 240.306C73.1473 240.306 142.161 233.417 169.216 238.177V292.411L73.1473 296.043V240.306Z" fill="url(#paint11_linear)"/>
<path d="M73.1473 240.306L80.913 244.69C80.913 244.69 82.5413 281.013 84.2948 296.419L73.2726 296.044C73.1473 295.918 73.7736 249.324 73.1473 240.306Z" fill="url(#paint12_linear)"/>
<path d="M80.7876 244.565C103.584 238.052 130.763 234.544 169.091 238.051L162.953 234.92C162.953 234.92 119.992 230.035 73.0219 240.181L80.7876 244.565Z" fill="url(#paint13_linear)"/>
<path d="M103.333 106.787C80.2869 112.924 84.295 152.754 84.295 152.754L95.192 154.759L97.3213 176.051C98.699 176.177 101.956 177.179 103.584 177.179L101.956 162.023L103.584 177.179C107.216 177.179 108.594 177.554 111.6 177.429C111.851 177.429 116.986 177.179 117.236 177.053L118.739 170.039V177.93L116.36 178.181C118.99 178.056 124.877 177.304 124.877 177.304L126.255 151.502L133.644 148.746C138.279 133.591 126.505 100.649 103.333 106.787ZM91.4344 144.237C88.5536 139.352 91.3091 126.827 94.1899 125.95C97.0708 125.074 104.962 129.332 104.586 133.591C104.21 137.849 93.8142 148.12 91.4344 144.237ZM117.236 149.373C116.36 150.249 110.473 149.373 110.473 149.373L109.972 152.629L108.844 149.748C108.844 149.748 102.582 150.375 102.582 149.748C102.582 148.496 106.339 139.979 108.844 138.601C111.35 137.223 118.113 148.496 117.236 149.373ZM126.004 142.233C124.125 144.613 117.487 139.603 115.107 133.716C114.105 131.336 117.612 126.076 121.745 125.95C125.879 125.825 127.883 139.853 126.004 142.233Z" fill="url(#paint14_linear)"/>
<path d="M109.721 106.035C86.6749 112.173 90.683 152.003 90.683 152.003L101.58 154.007L103.709 177.179C105.087 177.304 106.715 177.304 108.344 177.429V161.147L111.725 177.429C115.358 177.429 118.99 177.429 121.996 177.304C122.247 177.304 122.497 177.304 122.748 177.304L125.127 169.288V177.179L125.002 177.304C127.632 177.179 129.261 177.179 129.261 177.179V152.003L140.033 147.87C140.408 136.221 132.768 99.898 109.721 106.035ZM97.6971 143.486C94.8163 138.601 97.5719 126.076 100.453 125.199C103.334 124.322 111.224 128.581 110.849 132.839C110.473 137.098 100.077 147.369 97.6971 143.486ZM123.499 148.496C122.622 149.373 116.736 148.496 116.736 148.496L115.608 144.488L115.107 148.872C115.107 148.872 108.845 149.498 108.845 148.872C108.845 147.619 112.602 139.102 115.107 137.724C117.738 136.472 124.376 147.619 123.499 148.496ZM132.392 141.357C130.513 143.736 122.121 140.605 119.742 134.593C118.74 132.213 124 125.074 128.134 124.949C132.142 124.949 134.271 138.977 132.392 141.357Z" fill="url(#paint15_linear)"/>
<path d="M191.135 216.258L187.753 214.128L175.479 209.619L167.838 205.236L157.192 208.993L128.384 202.48L106.214 194.965L104.085 193.211L92.311 183.692L65.2565 162.775L52.3554 141.357L29.9352 147.745L30.0605 143.862L34.0686 138.476L30.311 135.971L30.4363 133.591L52.3554 135.47L65.507 144.363L65.7575 158.266L102.582 186.197L104.21 186.823L109.345 189.078L133.018 202.48L156.941 205.611L168.59 202.48L186.626 205.611L183.745 211.498L191.135 216.258Z" fill="#655775"/>
<path opacity="0.3" d="M73.1477 240.306L67.2609 247.07L67.8871 296.044H75.1518L73.1477 240.306Z" fill="url(#paint16_linear)"/>
<path d="M183.746 211.498L167.212 204.233L167.838 205.235L182.869 214.128L192.638 217.26L183.746 211.498Z" fill="#ACB6CD"/>
<path d="M157.192 208.993L153.81 206.738L140.032 204.233L129.135 201.853L91.4344 181.688L65.2567 162.775L106.214 194.965L128.384 202.48L157.192 208.993Z" fill="#ACB6CD"/>
<path d="M34.0686 138.476L41.0827 141.356H52.3554L29.9352 147.744L30.0605 143.861L34.0686 138.476Z" fill="url(#paint17_linear)"/>
<path opacity="0.5" d="M30.4366 133.591L30.3113 135.971L34.0689 138.476L41.0831 141.357H52.3558L61.6245 144.363H65.5073L52.3558 135.47L30.4366 133.591Z" fill="url(#paint18_linear)"/>
<path opacity="0.5" d="M156.941 205.611L157.192 208.993L167.212 204.234L183.745 211.498L186.626 205.611L168.59 202.48L156.941 205.611Z" fill="url(#paint19_linear)"/>
<path d="M171.721 202.981L168.84 180.31L167.212 172.169L164.707 147.745L168.59 202.48L171.721 202.981Z" fill="#7B739D"/>
<path d="M52.3555 296.044L53.7332 281.013L57.7413 256.714L53.7332 231.037L52.3555 189.078L50.6019 233.793L48.9736 247.947L46.8444 265.357L52.2302 279.761L52.3555 296.044Z" fill="#7B739D"/>
<path d="M46.8444 265.357L51.1029 266.108L57.7413 256.714L53.9838 279.761H52.2302L46.8444 265.357Z" fill="#909EB4"/>
<path opacity="0.7" d="M50.6019 233.793L53.7332 231.037L57.7413 256.714L51.1029 266.108L46.8444 265.357L50.6019 233.793Z" fill="url(#paint20_linear)"/>
<path d="M63.3779 90.3788L67.6365 80.2333L72.1456 75.3485L79.5355 66.7061L73.3981 78.3545L69.7658 86.6212L63.3779 90.3788Z" fill="#B6C6EF"/>
<path d="M59.4948 99.2717L55.612 105.033V110.043L59.4948 104.031V99.2717Z" fill="#B6C6EF"/>
<path d="M67.2609 298.298V326.605L71.2689 303.183V298.423L67.2609 298.298Z" fill="#8A94AE"/>
<path d="M73.1473 240.306L80.7877 244.565L88.0524 242.561L73.1473 240.306Z" fill="#ACB6CD"/>
<path d="M124 99.2719L130.889 90.379L143.414 86.9972L152.057 78.3547L146.545 90.1285L133.018 92.5083L124 99.2719Z" fill="#655775"/>
<path opacity="0.5" d="M152.057 78.3547L145.042 88.6254L130.889 90.379L143.414 86.9972L152.057 78.3547Z" fill="url(#paint21_linear)"/>
<path d="M133.018 92.5083L145.043 88.6254L152.057 78.3547L146.546 90.1285L133.018 92.5083Z" fill="#ACB6CD"/>
<path opacity="0.3" d="M24.5497 268.864L52.3557 290.532L67.6366 290.407L74.9012 291.66L83.5436 290.407C83.5436 290.407 158.946 290.407 169.091 281.139V288.403L175.479 284.896L195.645 288.403L195.144 291.534L84.1699 296.545L52.3557 296.169H24.5497V268.864Z" fill="url(#paint22_linear)"/>
<path opacity="0.3" d="M17.1593 296.044C17.1593 296.044 16.6583 310.698 19.9149 323.599C19.9149 323.599 57.8664 333.244 67.6361 333.244C77.5311 333.244 189.507 324.977 205.289 322.221C221.07 319.466 225.329 312.452 225.329 312.452L229.462 336.876L176.481 337.878L58.6179 336.876H10.3957C10.3957 336.751 14.4038 303.935 17.1593 296.044Z" fill="url(#paint23_linear)"/>
<path d="M241.737 336.625L248 361.551H0V336.625H67.2606L172.222 333.118L188.505 336.5L241.737 336.625Z" fill="url(#paint24_linear)"/>
<path d="M58.6179 336.625L55.4866 361.425H248L241.737 336.625L188.505 336.375L172.222 332.993C172.222 333.118 65.3815 336.625 58.6179 336.625Z" fill="url(#paint25_linear)"/>
<path d="M58.6179 336.625C58.6179 336.625 190.759 338.88 241.737 336.625L184.872 335.623L172.222 332.993L58.6179 336.625Z" fill="url(#paint26_linear)"/>
<path d="M172.222 333.118V361.551H178.36L184.873 335.748L172.222 333.118Z" fill="url(#paint27_linear)"/>
<path opacity="0.3" d="M121.495 71.8415C122.747 72.8435 124.376 73.4698 125.879 74.0961C130.889 76.2254 136.149 78.3546 141.535 78.8557C142.788 78.9809 144.04 78.9809 145.042 78.3547C146.044 77.6031 146.545 76.2254 146.42 74.9728C146.295 73.7203 145.794 72.4678 145.168 71.3405C140.909 63.7001 133.269 57.4375 124.751 55.3082C119.741 54.0557 118.489 55.0577 117.612 60.0678C117.111 64.2011 117.737 68.9607 121.495 71.8415Z" fill="#ACB6CD"/>
<path opacity="0.3" d="M145.794 82.3626C148.048 82.1121 150.303 83.1141 151.555 84.8676C151.931 85.3686 152.182 86.1201 151.931 86.7464C151.681 87.1222 151.305 87.3727 150.929 87.4979C148.424 88.2494 145.543 86.3706 145.168 83.7403L145.794 82.3626Z" fill="#ACB6CD"/>
<path opacity="0.3" d="M177.358 120.314C168.966 116.181 162.077 109.167 158.069 100.65C156.566 97.3931 155.439 93.7608 155.439 90.1285C155.439 87.1224 155.814 81.3608 157.568 78.7305C157.568 78.6052 157.693 78.6052 157.818 78.48C169.216 93.7608 175.103 111.922 177.358 120.314Z" fill="#ACB6CD"/>
<path opacity="0.3" d="M181.616 155.636C179.612 157.64 176.857 159.017 173.976 158.516C172.849 158.391 171.847 158.015 171.095 157.139C170.093 156.011 170.093 154.634 169.467 153.256C168.966 152.128 168.089 151.627 167.588 150.625C165.96 147.87 165.96 143.486 165.459 140.355C165.208 138.476 164.833 118.561 164.833 118.561C168.966 119.813 172.849 121.692 176.481 124.072C177.233 124.573 177.984 125.199 178.736 125.7L181.616 155.636Z" fill="#ACB6CD"/>
<path opacity="0.3" d="M64.5048 97.6435C64.3796 98.2698 64.3796 99.0213 64.7553 99.397C65.3816 99.898 66.2584 99.6475 67.0099 99.1465C79.6604 92.1324 91.5594 83.991 102.456 74.597C103.834 73.4698 105.212 72.2172 105.838 70.589C107.091 67.5829 105.462 64.0758 102.707 62.3223C96.4442 58.3142 86.925 61.9465 82.0402 66.7061C76.9048 71.7162 72.02 77.7283 68.8887 83.991C66.8846 88.3748 65.3816 93.0092 64.5048 97.6435Z" fill="#ACB6CD"/>
<path opacity="0.3" d="M101.454 57.5628C101.204 57.5628 101.329 57.187 101.58 57.0618C102.582 56.8113 103.709 57.187 104.21 58.0638C104.335 58.1891 104.335 58.4396 104.335 58.5648C104.335 58.9406 103.96 59.0658 103.584 59.1911C102.707 59.4416 101.705 59.6921 100.953 59.1911C100.202 58.6901 99.9515 57.4375 100.703 56.9365L101.454 57.5628Z" fill="#ACB6CD"/>
<path opacity="0.3" d="M89.8061 202.981C91.6849 200.601 94.6909 198.597 98.4485 197.845C101.455 197.219 104.586 197.47 107.717 197.845C112.602 198.346 117.737 199.348 121.244 201.853C123.875 203.732 125.253 206.237 126.004 208.742C126.255 209.494 126.38 210.245 126.255 210.997C125.754 213.001 123.123 214.253 120.618 215.255C116.861 216.633 112.978 217.76 108.719 218.261C104.586 218.763 100.077 218.387 96.3192 217.134C92.5616 215.882 89.4303 213.377 88.5535 210.621C87.6768 208.116 87.9273 205.235 89.8061 202.981Z" fill="#ACB6CD"/>
<path opacity="0.5" d="M67.8868 183.066C68.1373 186.948 68.6383 190.831 69.1393 194.714C69.5151 197.971 70.1413 201.227 71.5191 204.233C72.3959 205.862 73.6484 207.49 75.4019 207.866C77.0302 208.241 78.6585 207.49 80.1615 206.738C83.4181 205.11 86.4242 202.981 89.0545 200.601C89.806 199.849 90.5575 199.223 91.0585 198.221C91.5595 197.219 91.5595 196.092 91.5595 194.965C91.1838 189.328 88.0525 184.068 83.7939 180.185C80.2868 176.928 75.7777 174.298 71.3939 172.544C68.5131 171.417 68.3878 172.92 68.012 175.676C67.511 178.181 67.6363 180.686 67.8868 183.066Z" fill="#ACB6CD"/>
<path opacity="0.3" d="M59.996 201.728C59.495 207.866 57.3657 214.254 52.3556 217.761C53.7334 206.488 51.4789 194.965 51.1031 183.567C51.1031 181.688 50.3516 176.052 53.2324 176.803C55.3617 177.304 56.99 182.314 57.7415 184.068C59.8708 189.704 60.4971 195.842 59.996 201.728Z" fill="#ACB6CD"/>
<path opacity="0.3" d="M62 100.775C62 100.399 61.3738 100.65 61.1233 100.9C59.7455 102.904 58.8687 105.409 58.7435 107.789C58.7435 108.165 58.7435 108.541 58.8687 108.916C58.994 109.167 59.3697 109.417 59.6202 109.543C62 110.67 65.2566 108.791 65.7576 106.161C66.2586 103.531 64.2546 100.775 61.6243 100.023L62 100.775Z" fill="#ACB6CD"/>
<path opacity="0.3" d="M69.7655 66.3304C69.7655 67.4577 69.1393 68.4597 68.6383 69.4617C65.2565 75.8496 61.8746 82.2375 58.4928 88.6253C57.4908 90.6294 56.3635 92.6334 54.7352 94.387C52.7312 96.391 50.2262 97.7688 47.8464 99.2718C44.5898 101.401 41.709 103.906 38.9534 106.662C37.5757 108.039 33.5676 114.177 31.6888 114.553C34.1938 104.532 42.4605 78.6051 64.5049 62.3223C65.006 62.0718 65.3817 61.9465 65.8827 61.696C68.1373 62.1971 69.8908 64.0758 69.7655 66.3304Z" fill="#ACB6CD"/>
<path opacity="0.3" d="M40.5819 109.793C40.0808 109.668 40.3313 108.916 40.5819 108.54C42.5859 106.035 45.2162 104.031 48.2223 102.904C48.7233 102.779 49.2243 102.528 49.7253 102.654C51.1031 102.779 51.7293 104.532 51.7293 105.91C51.9798 109.918 50.101 114.052 46.8445 116.431C45.7172 117.308 44.2142 118.06 42.7111 117.684C41.0829 117.308 40.0808 115.805 39.7051 114.302C39.3293 112.674 39.7051 111.045 40.0808 109.542L40.5819 109.793Z" fill="#ACB6CD"/>
<path opacity="0.5" d="M144.166 229.534C145.168 230.662 146.295 231.664 147.673 232.29C149.05 232.916 150.679 233.167 152.056 232.415C153.434 231.789 154.311 230.286 154.937 228.908C156.816 224.149 155.939 218.387 152.683 214.504C149.301 210.496 143.915 208.617 138.905 207.114C131.515 204.86 134.02 211.623 135.648 215.882C137.527 221.017 140.408 225.652 144.166 229.534Z" fill="#ACB6CD"/>
<path opacity="0.3" d="M138.654 192.71C139.03 191.833 139.907 191.082 140.909 191.082C141.911 191.082 142.913 191.708 143.289 192.585C143.915 194.213 142.287 196.217 140.533 195.841C138.78 195.466 138.028 192.961 139.281 191.708L138.654 192.71Z" fill="#ACB6CD"/>
<path opacity="0.3" d="M57.8664 273.874C58.2422 272.997 59.1189 272.246 60.1209 272.246C61.123 272.246 62.125 272.872 62.5007 273.749C63.127 275.377 61.4987 277.381 59.7452 277.005C57.9916 276.629 57.2401 274.124 58.4927 272.872L57.8664 273.874Z" fill="#ACB6CD"/>
<path opacity="0.3" d="M81.9152 207.24C82.2909 206.363 83.1677 205.611 84.1697 205.611C85.1717 205.611 86.1737 206.238 86.5495 207.114C87.1758 208.743 85.5475 210.747 83.7939 210.371C82.0404 209.995 81.2889 207.49 82.5414 206.238L81.9152 207.24Z" fill="#ACB6CD"/>
<path opacity="0.3" d="M179.487 229.033C180.363 226.152 181.366 223.146 183.495 220.892C183.871 220.516 184.372 220.14 184.873 220.14C185.499 220.266 185.749 221.017 186 221.518C189.632 234.419 191.26 247.821 190.759 261.223C190.634 264.48 190.384 267.736 188.881 270.617C187.378 273.623 183.37 277.381 180.864 274.375C178.234 271.243 177.858 263.227 177.357 259.344C175.98 249.449 176.731 238.928 179.487 229.033Z" fill="#ACB6CD"/>
<path opacity="0.3" d="M87.3009 314.33C94.1898 309.696 102.081 306.815 109.972 304.811C120.743 302.056 132.392 300.803 142.913 304.31C153.434 307.817 162.703 317.086 163.329 328.233C163.329 329.235 163.329 330.237 162.828 330.989C162.327 331.866 161.325 332.367 160.448 332.868C153.434 336.124 145.418 335.749 137.778 335.498C123.123 334.997 108.343 334.872 93.814 336.751C89.9312 337.252 85.9231 337.878 82.0403 337.753C74.6504 337.377 70.3918 334.872 74.3999 327.858C77.5312 322.472 82.1655 317.837 87.3009 314.33Z" fill="#ACB6CD"/>
<path opacity="0.3" d="M175.855 298.423C177.608 299.175 179.236 300.302 180.238 301.93C181.24 303.559 181.24 305.813 179.988 307.191C179.111 308.068 177.859 308.569 176.731 308.819C173.35 309.571 169.843 309.32 166.586 308.318C164.206 307.567 158.069 305.187 157.192 302.431C154.687 295.543 172.473 296.92 175.855 298.423Z" fill="#ACB6CD"/>
<path opacity="0.3" d="M167.087 315.583C165.834 314.957 166.335 312.827 167.588 312.452C168.841 312.076 170.344 312.702 171.346 313.454C172.097 314.08 172.849 314.957 172.598 315.833C172.348 317.086 170.719 317.462 169.592 317.086C168.465 316.71 167.463 315.708 166.461 315.207L167.087 315.583Z" fill="#ACB6CD"/>
<path opacity="0.3" d="M48.9737 328.484C47.4707 331.114 44.5899 332.492 41.7091 333.369C36.9495 334.997 31.8141 335.999 26.804 336.375C23.5475 336.626 20.0404 336.5 17.1596 334.997C13.7778 333.244 11.899 330.989 11.1475 328.484C11.5232 325.478 12.0242 322.347 12.4 319.466C15.9071 312.577 24.0485 306.189 30.1858 305.312C34.3192 304.686 38.703 305.187 42.0848 307.567C45.7172 310.072 47.7212 314.205 49.099 318.464C50.101 321.72 50.7273 325.478 48.9737 328.484Z" fill="#ACB6CD"/>
<path opacity="0.3" d="M37.4503 348.649C37.0745 348.775 36.824 348.274 36.824 348.023C36.824 347.647 37.0745 347.397 37.325 347.146C39.4543 345.017 42.3351 343.013 45.0907 344.015C45.9674 344.266 46.7189 344.892 47.22 345.518C48.723 347.272 49.224 350.027 48.222 352.156C47.2199 354.286 44.5896 355.663 42.3351 355.037C39.329 354.286 37.7008 351.029 36.5735 348.023L37.4503 348.649Z" fill="#ACB6CD"/>
<path opacity="0.3" d="M51.8548 338.629C51.3538 339.256 50.8528 340.007 50.6023 340.884C50.477 341.761 50.7275 342.763 51.6043 343.013C52.7316 343.514 53.9841 342.262 53.7336 341.009C53.4831 339.882 52.2305 339.13 50.978 339.256L51.8548 338.629Z" fill="#ACB6CD"/>
<path opacity="0.3" d="M199.151 308.318C199.402 312.201 200.028 316.335 202.533 319.341C205.038 322.597 209.172 324.351 212.929 325.854C213.931 326.229 214.933 326.605 216.06 326.605C218.064 326.355 219.317 324.476 220.068 322.722C222.824 316.209 221.446 308.569 219.066 301.93C218.44 300.052 217.563 298.048 216.186 296.67C215.058 295.543 213.43 294.791 211.927 294.165C208.67 292.787 203.285 289.781 200.78 293.413C198.275 296.92 198.901 304.31 199.151 308.318Z" fill="#ACB6CD"/>
<path opacity="0.3" d="M193.265 300.553C193.139 301.555 192.889 302.557 193.265 303.433C193.64 304.31 194.642 305.062 195.644 304.811C196.271 304.561 196.646 303.809 196.897 303.183C197.273 302.181 197.398 301.054 197.022 300.052C196.646 299.05 195.77 298.173 194.642 298.173C193.64 298.173 192.513 299.175 192.764 300.177L193.265 300.553Z" fill="#ACB6CD"/>
<path opacity="0.3" d="M200.78 348.399C207.794 344.892 216.311 344.391 223.576 347.147C226.832 348.399 230.089 350.403 231.592 353.66C231.842 354.161 231.968 354.662 231.842 355.163C231.592 355.789 230.966 356.039 230.339 356.29C221.697 359.046 212.428 358.92 203.41 358.294C200.654 358.169 194.517 358.92 194.141 355.288C193.891 352.282 198.65 349.401 200.78 348.399Z" fill="#ACB6CD"/>
<path opacity="0.3" d="M228.586 344.516C228.961 343.389 230.339 342.637 231.466 343.138C232.594 343.639 232.969 345.268 231.967 346.019C231.341 346.52 230.464 346.395 229.838 346.019C229.212 345.643 228.711 345.017 228.21 344.391L228.586 344.516Z" fill="#ACB6CD"/>
<path opacity="0.3" d="M139.28 260.096C139.907 265.858 141.41 271.494 143.414 276.88C144.792 280.512 146.67 284.019 149.676 286.399C152.808 288.654 157.442 289.28 160.323 286.775C162.327 285.021 163.204 282.266 163.705 279.636C164.206 277.005 164.581 274.25 164.707 271.494C165.082 266.609 165.082 261.474 163.705 256.714C162.327 251.955 159.196 247.571 154.687 245.442C150.929 243.688 145.794 243.688 142.412 246.318C138.654 249.45 138.779 255.462 139.28 260.096Z" fill="#ACB6CD"/>
<path opacity="0.3" d="M131.891 271.619C130.138 270.868 129.136 268.613 129.887 266.734C130.138 265.983 130.764 265.357 131.641 265.357C132.142 265.357 132.643 265.732 133.018 266.108C134.396 267.361 135.273 269.114 135.398 270.993C135.398 271.244 135.398 271.494 135.273 271.745C134.897 272.371 133.895 272.246 133.269 271.87C132.643 271.494 132.016 270.868 131.265 270.993L131.891 271.619Z" fill="#ACB6CD"/>
<path opacity="0.3" d="M169.968 215.882C169.717 216.007 169.467 215.882 169.341 215.631C169.842 214.128 172.097 213.753 173.475 214.504C174.852 215.381 175.604 216.884 176.105 218.512C176.606 220.141 176.856 222.019 175.729 223.272C174.226 225.025 171.095 224.274 169.842 222.27C168.59 220.266 168.84 217.761 169.467 215.506L169.968 215.882Z" fill="#ACB6CD"/>
<path d="M58.6179 336.625L55.4866 361.55L64.0037 338.629L58.6179 336.625Z" fill="#8A94AE"/>
<path d="M123.123 272.496C123.249 275.252 122.998 277.256 122.372 278.508C121.746 279.761 120.493 280.512 118.74 280.512C116.986 280.637 115.483 279.635 114.481 277.631L112.352 272.12C111.35 270.116 109.847 269.114 108.093 269.24H107.717C107.467 269.24 107.467 269.24 107.342 269.24C107.592 272.621 107.592 275.627 107.467 278.258C107.968 278.258 108.469 278.258 109.095 278.383C109.721 278.383 110.473 278.508 111.35 278.508L111.099 281.013C109.847 280.888 108.218 280.763 106.34 280.888L101.58 281.013L101.455 278.258H102.206C102.833 278.258 103.709 278.258 104.711 278.258C104.711 277.256 104.837 276.003 104.711 274.5C104.711 272.997 104.586 271.244 104.461 269.24L104.336 266.609C104.21 264.605 104.085 262.726 104.085 261.223C104.085 259.72 104.085 258.343 104.21 257.215C103.835 257.341 103.334 257.466 102.833 257.591C102.332 257.716 101.58 257.842 100.954 258.092L100.328 255.336C101.58 255.086 102.833 254.835 103.835 254.71C104.962 254.585 106.089 254.46 107.091 254.46C109.22 254.334 111.099 254.334 112.853 254.585C114.606 254.835 115.984 255.211 117.237 255.712C118.489 256.213 119.491 256.965 120.117 257.842C120.869 258.718 121.245 259.595 121.245 260.722C121.245 261.724 121.119 262.601 120.618 263.478C120.243 264.355 119.616 265.106 118.74 265.858C117.988 266.609 116.986 267.11 115.984 267.736C114.857 268.237 113.73 268.613 112.602 268.989C113.354 269.114 114.231 269.991 114.982 271.619L116.736 275.878C116.986 276.629 117.362 277.13 117.612 277.506C117.863 277.882 118.239 278.007 118.74 278.007C120.243 277.882 120.869 276.379 120.744 273.498C120.744 273.248 120.744 272.872 120.618 272.496C120.618 272.12 120.618 271.745 120.493 271.619L123.123 271.494V272.496ZM118.364 260.722C118.364 259.971 118.113 259.47 117.612 258.844C117.111 258.343 116.485 257.842 115.608 257.591C114.732 257.215 113.855 256.965 112.728 256.84C111.6 256.714 110.473 256.714 109.22 256.714C108.469 256.714 107.717 256.84 106.966 256.965C106.715 257.967 106.59 259.47 106.715 261.474C106.715 261.724 106.715 262.1 106.841 262.601C106.841 263.102 106.966 263.603 106.966 264.104C106.966 264.605 107.091 265.106 107.091 265.482C107.091 265.858 107.216 266.108 107.216 266.233C108.344 266.359 109.346 266.359 110.222 266.359C111.475 266.233 112.477 266.108 113.479 265.732C114.481 265.357 115.358 264.981 116.109 264.48C116.861 263.979 117.362 263.353 117.863 262.726C118.239 262.1 118.364 261.349 118.364 260.722Z" fill="#655775"/>
<path d="M134.02 255.462C133.519 255.462 132.893 255.462 132.392 255.462C131.891 255.462 131.265 255.462 130.764 255.462C130.764 256.213 130.764 257.215 130.764 258.468C130.764 259.72 130.764 261.098 130.889 262.601C130.889 264.104 130.889 265.607 131.014 267.235C131.014 268.864 131.014 270.367 131.139 271.744C131.139 273.122 131.139 274.5 131.265 275.627C131.265 276.755 131.265 277.631 131.265 278.258C131.265 278.258 131.515 278.258 131.766 278.258L134.521 278.132L134.646 280.888C134.02 280.888 133.394 280.888 132.642 281.013C131.891 281.013 131.014 281.013 130.012 281.013H125.252L125.127 278.258L126.254 278.132C126.505 278.132 126.881 278.132 127.131 278.132C127.507 278.132 127.758 278.132 128.133 278.132H128.384C128.384 275.627 128.384 272.621 128.259 268.989C128.133 265.357 128.008 260.973 127.883 255.963C127.257 256.088 126.63 256.213 126.004 256.338C125.378 256.464 124.626 256.464 124 256.589L123.875 253.708L133.895 253.082L134.02 255.462Z" fill="#655775"/>
<path d="M153.81 259.219C153.936 260.472 153.685 261.474 153.184 262.601C152.683 263.603 152.057 264.605 151.305 265.357C150.554 266.108 149.552 266.86 148.424 267.235C147.297 267.736 146.17 267.987 144.917 268.112C143.915 268.112 143.039 268.112 142.412 267.987C142.663 269.866 142.913 272.621 143.289 276.504L147.923 276.128L148.049 278.884C147.673 278.884 147.297 278.884 146.671 279.009C146.17 279.009 145.544 279.134 144.792 279.134C144.041 279.134 143.414 279.26 142.663 279.26C141.911 279.26 141.16 279.385 140.534 279.385C139.907 279.385 139.281 279.51 138.655 279.51C138.154 279.51 137.653 279.635 137.402 279.635L137.277 276.88L140.534 276.629L140.408 273.874C140.158 270.116 139.907 266.734 139.657 263.728C139.406 260.722 139.156 258.092 138.905 255.587L136.15 255.712L136.024 252.957C136.275 252.957 136.651 252.957 137.402 252.831C138.029 252.831 138.655 252.706 139.406 252.581C140.158 252.456 140.784 252.456 141.41 252.33C142.037 252.205 142.538 252.205 142.913 252.205C144.542 252.08 145.919 252.205 147.297 252.456C148.55 252.706 149.802 253.207 150.679 253.708C151.681 254.334 152.433 255.086 152.934 255.963C153.435 257.09 153.685 258.092 153.81 259.219ZM151.18 259.72C150.93 256.464 148.424 254.961 143.54 255.336L141.786 255.462C141.661 255.462 141.661 255.587 141.536 255.837C141.536 256.088 141.41 256.338 141.41 256.714C141.41 257.09 141.41 257.466 141.41 257.842C141.41 258.217 141.41 258.718 141.41 259.094C141.41 259.846 141.536 260.472 141.536 260.973C141.536 261.474 141.661 261.975 141.661 262.476C141.661 262.977 141.786 263.478 141.786 263.854C141.786 264.355 141.911 264.856 141.911 265.357C142.287 265.357 142.538 265.482 142.913 265.482C143.289 265.482 143.665 265.482 144.166 265.482C145.168 265.482 146.17 265.231 147.047 264.981C147.923 264.73 148.675 264.229 149.301 263.854C149.928 263.353 150.429 262.852 150.679 262.1C151.18 261.223 151.305 260.472 151.18 259.72Z" fill="#655775"/>
<path d="M101.58 281.013L102.958 282.641L111.35 281.514L111.099 281.138C111.099 281.013 105.588 280.262 101.58 281.013Z" fill="#ACB6CD"/>
<path d="M115.232 278.633C115.232 278.633 116.234 280.637 118.99 280.888C121.746 281.138 122.497 278.258 122.497 278.258C122.497 278.258 121.495 280.387 118.865 280.011C116.109 279.761 115.232 278.633 115.232 278.633Z" fill="#ACB6CD"/>
<path d="M125.253 281.013L126.004 281.639L134.647 280.888L125.253 281.013Z" fill="#ACB6CD"/>
<path d="M137.402 279.761L144.041 280.136L148.425 279.26L148.049 278.884C148.049 278.884 140.158 279.009 137.402 279.761Z" fill="#ACB6CD"/>
<path d="M112.602 268.738C112.602 268.738 114.356 268.738 117.111 267.611C119.867 266.484 120.869 262.852 120.869 262.852C120.869 262.852 118.865 266.985 112.602 268.738Z" fill="#ACB6CD"/>
<path d="M142.162 267.987C142.162 267.987 143.54 269.49 146.295 269.365C149.176 269.365 151.18 265.357 151.18 265.357C151.18 265.357 147.798 268.864 142.162 267.987Z" fill="#ACB6CD"/>
<path opacity="0.3" d="M160.824 260.221L156.816 260.597L144.917 293.789C144.917 293.789 170.093 296.169 182.869 292.286L160.824 260.221Z" fill="#68164D"/>
<path d="M160.072 292.286C160.072 292.286 162.578 274.751 161.826 269.741C161.074 264.73 158.945 257.09 158.945 257.09C158.945 257.09 173.85 259.47 177.107 260.722C177.107 260.722 182.117 281.64 182.994 292.411C182.868 292.286 163.329 295.793 160.072 292.286Z" fill="url(#paint28_linear)"/>
<path d="M158.945 256.965C158.945 256.965 160.072 263.979 158.945 268.488C158.945 268.488 159.196 271.87 161.951 271.244C161.951 271.244 162.703 266.735 164.707 265.733C166.711 264.731 172.973 263.603 176.731 267.361C180.489 271.118 178.359 266.735 178.359 266.735C178.359 266.735 180.238 266.86 180.864 265.858C181.491 264.856 176.982 260.722 176.982 260.722C176.982 260.722 172.222 261.474 168.715 261.85C165.208 262.1 158.945 256.965 158.945 256.965Z" fill="url(#paint29_linear)"/>
<path d="M158.945 256.965C158.945 256.965 161.45 261.098 167.087 263.227C172.723 265.357 177.107 260.597 177.107 260.597C177.107 260.597 166.961 255.211 158.945 256.965Z" fill="#FFE6B2"/>
<path d="M167.964 260.221C167.964 260.221 170.844 249.199 174.727 245.316L176.982 246.694C176.982 246.694 169.341 254.334 168.84 260.472L167.964 260.221Z" fill="url(#paint30_linear)"/>
<path opacity="0.3" d="M161.701 277.13C161.701 277.13 161.074 284.771 163.329 288.779C165.583 292.787 176.23 291.785 179.236 289.781C182.242 287.777 179.737 273.498 179.737 273.498C179.737 273.498 182.743 288.528 182.743 292.286C182.743 292.286 166.21 295.167 159.947 292.286C160.072 292.286 161.575 279.134 161.701 277.13Z" fill="url(#paint31_linear)"/>
<path opacity="0.3" d="M77.4061 252.456L73.1475 256.965L62.6263 296.419C62.6263 296.419 83.1677 299.926 93.4384 296.043L77.4061 252.456Z" fill="#68164D"/>
<path d="M76.0286 297.171C76.0286 297.171 78.5336 277.882 78.6589 269.365C78.6589 260.848 77.4063 252.456 77.4063 252.456C77.4063 252.456 86.4245 251.579 91.5599 254.334C91.5599 254.334 93.1882 285.648 93.4387 296.043C93.3134 295.918 82.2912 298.173 76.0286 297.171Z" fill="url(#paint32_linear)"/>
<path d="M77.4065 252.456C77.4065 252.456 78.4085 264.73 77.4065 268.738C77.4065 268.738 78.659 269.991 79.661 267.361C80.6631 264.73 77.9075 255.963 81.4146 254.209C84.9216 252.456 84.5459 257.841 88.1782 258.468C91.8105 259.094 91.56 254.209 91.56 254.209C91.56 254.209 83.9196 250.452 77.4065 252.456Z" fill="url(#paint33_linear)"/>
<path d="M77.4065 252.456C77.4065 252.456 88.8045 254.585 91.56 254.334C91.4348 254.209 87.3014 248.573 77.4065 252.456Z" fill="#FFE6B2"/>
<path d="M84.6709 251.829L89.3052 244.064H91.4345L86.1739 252.456L84.6709 251.829Z" fill="url(#paint34_linear)"/>
<path opacity="0.3" d="M78.5339 273.498C78.5339 273.498 78.5339 289.405 79.6612 291.66C80.6632 293.914 89.3057 295.041 90.5582 293.914C91.8107 292.662 92.6875 275.753 92.6875 275.753C92.6875 275.753 93.94 294.165 93.439 296.044C93.439 296.044 82.542 298.674 76.1541 297.296C76.0289 297.171 78.2834 277.506 78.5339 273.498Z" fill="url(#paint35_linear)"/>
<path d="M105.964 335.248L129.887 330.613L141.535 322.722L150.178 318.464L133.77 331.866L132.517 334.496L105.964 335.248Z" fill="#655775"/>
<path opacity="0.5" d="M105.964 335.248L125.253 334.621L132.643 331.49L140.909 324.852L142.913 323.349L150.178 318.464L140.909 322.848L129.887 330.613L105.964 335.248Z" fill="url(#paint36_linear)"/>
<path d="M93.9393 56.185L108.343 52.4274C108.343 52.4274 127.883 50.4234 136.525 58.8153H120.117L109.345 54.5567C109.345 54.6819 100.828 56.5607 93.9393 56.185Z" fill="#B6C6EF"/>
<path d="M140.032 61.0698L145.168 66.7062L153.685 73.0941C153.685 73.0941 148.299 64.9527 140.032 61.0698Z" fill="#B6C6EF"/>
<path opacity="0.57" d="M162.327 122.945L151.806 133.09C151.806 133.09 126.38 88.8758 93.4385 95.5142C70.392 100.149 65.3819 127.328 65.2567 127.829L68.0122 117.559C70.0163 112.048 73.5233 104.783 79.6607 96.5163C86.0486 87.8738 94.4405 80.4839 104.836 77.6031C107.968 76.7264 111.224 76.2253 114.982 76.2253C149.301 76.3506 159.697 110.67 162.327 122.945Z" fill="url(#paint37_linear)"/>
<path fill-rule="evenodd" clip-rule="evenodd" d="M130.984 399.55L123.921 411.103C118.784 419.447 92.4589 413.028 64.2073 396.983C35.9558 380.938 16.6933 360.4 21.83 352.056L28.8929 340.503C62.9232 359.758 96.9535 379.654 130.984 399.55Z" fill="url(#paint38_linear)"/>
<path opacity="0.5" fill-rule="evenodd" clip-rule="evenodd" d="M23.1141 361.683L30.177 350.131C28.2508 346.28 27.6087 342.429 28.8929 340.503L21.83 352.056C20.5458 354.623 21.1879 357.832 23.1141 361.683Z" fill="url(#paint39_linear)"/>
<path fill-rule="evenodd" clip-rule="evenodd" d="M42.3765 364.25L35.3136 375.803C40.4502 380.938 46.8711 385.43 54.576 390.565L61.6389 379.012C53.934 373.878 47.5131 368.743 42.3765 364.25Z" fill="url(#paint40_linear)"/>
<path opacity="0.5" fill-rule="evenodd" clip-rule="evenodd" d="M93.743 396.341L86.6801 407.894C92.4588 410.461 98.2376 412.386 103.374 413.028L110.437 401.476C105.3 400.192 100.164 398.267 93.743 396.341Z" fill="url(#paint41_linear)"/>
<path opacity="0.5" fill-rule="evenodd" clip-rule="evenodd" d="M118.784 402.759L111.721 414.312C118.142 414.954 122.637 413.67 124.563 411.103L131.626 399.55C129.7 402.117 125.205 403.401 118.784 402.759Z" fill="url(#paint42_linear)"/>
<path fill-rule="evenodd" clip-rule="evenodd" d="M87.9642 355.266C116.216 371.311 134.836 391.208 129.7 399.551C124.563 407.895 98.2375 401.477 69.986 385.431C41.7344 369.386 23.114 349.49 28.2507 341.146C33.3873 332.803 60.3547 339.221 87.9642 355.266Z" fill="#E26F80"/>
<path fill-rule="evenodd" clip-rule="evenodd" d="M88.6063 354.624C116.858 370.669 136.12 391.207 130.984 399.551C125.847 407.894 99.5217 401.476 71.2701 385.431C43.0185 369.386 23.7561 348.847 28.8927 340.504C33.3873 332.16 60.3547 338.578 88.6063 354.624Z" fill="url(#paint43_radial)"/>
<path fill-rule="evenodd" clip-rule="evenodd" d="M36.5977 343.712C35.9556 346.279 36.5977 348.846 37.8819 351.414C39.8081 353.981 41.7344 355.906 43.6606 357.832C52.0077 366.175 62.923 373.877 73.8384 380.295C84.1117 386.072 96.3113 391.848 107.869 395.057C110.437 395.699 113.647 396.341 116.858 396.982C120.71 397.624 124.563 395.699 126.489 391.848L132.91 380.295C138.689 370.026 139.973 359.115 138.047 347.563C138.047 346.279 137.404 344.996 137.404 344.354V343.07L36.5977 343.712Z" fill="url(#paint44_radial)"/>
<path fill-rule="evenodd" clip-rule="evenodd" d="M136.763 342.428C137.405 343.712 136.763 344.354 136.763 345.638C134.836 354.623 121.995 355.907 112.363 355.265C96.9535 353.981 86.0381 362.325 70.6281 362.325C57.7865 362.967 36.5978 357.19 36.5978 344.354C36.5978 342.428 37.882 341.145 39.1662 339.861C45.587 334.727 60.3548 328.95 71.9123 325.741C87.3223 321.89 102.732 319.965 109.795 319.965C118.142 319.323 133.552 334.727 136.763 342.428Z" fill="url(#paint45_radial)"/>
<path fill-rule="evenodd" clip-rule="evenodd" d="M113.648 289.158C116.858 293.651 117.5 296.86 117.5 299.427C117.5 300.711 117.5 302.636 118.142 303.278C118.784 303.92 120.71 302.636 121.995 301.994C123.921 300.069 127.773 299.427 132.91 300.069C138.689 300.711 144.468 300.069 150.246 300.069C156.025 300.069 161.804 298.785 167.582 296.86C175.287 294.293 182.35 289.158 188.129 283.382L110.437 282.74C111.079 285.307 112.363 287.233 113.648 289.158Z" fill="url(#paint46_radial)"/>
<path opacity="0.5" fill-rule="evenodd" clip-rule="evenodd" d="M118.142 334.727C115.574 335.369 113.648 336.653 112.364 337.936C107.869 344.996 129.058 356.549 134.194 346.922C134.836 345.638 134.836 343.713 133.552 341.787C132.268 339.862 130.984 337.936 129.058 336.653C125.847 333.444 123.279 333.444 118.142 334.727Z" fill="url(#paint47_radial)"/>
<path fill-rule="evenodd" clip-rule="evenodd" d="M152.172 263.486C170.151 263.486 189.413 273.113 189.413 280.173C189.413 287.233 171.435 291.725 149.604 291.725C127.131 291.725 109.795 286.591 109.795 280.173C109.153 273.755 133.552 263.486 152.172 263.486Z" fill="url(#paint48_radial)"/>
<path opacity="0.5" fill-rule="evenodd" clip-rule="evenodd" d="M179.14 272.471C186.203 279.531 180.424 284.666 172.719 287.233C163.088 290.442 148.32 291.726 138.689 291.726C141.899 291.726 145.11 292.368 148.962 292.368C171.435 292.368 188.771 287.233 188.771 280.815C188.771 275.68 175.93 267.979 161.162 265.411C167.583 266.053 175.288 268.62 179.14 272.471Z" fill="url(#paint49_radial)"/>
<path fill-rule="evenodd" clip-rule="evenodd" d="M130.984 300.068C151.53 304.561 172.077 300.71 184.919 286.59C164.372 302.635 130.984 300.068 130.984 300.068Z" fill="white"/>
<path fill-rule="evenodd" clip-rule="evenodd" d="M125.847 318.681C139.973 334.085 144.468 353.981 136.763 371.31C141.899 346.921 125.847 318.681 125.847 318.681Z" fill="white"/>
<path opacity="0.75" fill-rule="evenodd" clip-rule="evenodd" d="M92.4588 380.296C93.7429 380.938 94.385 381.58 93.7429 382.864C93.1009 383.505 92.4588 384.147 91.1746 383.505C89.8904 382.864 89.2484 381.58 89.8904 380.938C90.5325 380.296 91.8167 379.655 92.4588 380.296Z" fill="#F9B233"/>
<path opacity="0.75" fill-rule="evenodd" clip-rule="evenodd" d="M104.658 334.085C104.658 334.727 104.658 335.368 105.942 335.368C106.585 335.368 107.227 335.368 107.227 334.726C107.227 334.085 106.585 333.443 105.942 333.443C105.3 333.443 104.658 333.443 104.658 334.085Z" fill="#F9B233"/>
<path opacity="0.75" fill-rule="evenodd" clip-rule="evenodd" d="M104.659 344.354C105.301 343.712 106.585 344.354 107.227 344.996C107.869 345.638 108.511 346.28 107.227 346.921C106.585 347.563 105.301 346.921 104.659 346.28C104.016 345.638 104.016 344.996 104.659 344.354Z" fill="#F9B233"/>
<path fill-rule="evenodd" clip-rule="evenodd" d="M102.732 315.473C103.374 314.831 104.658 315.473 105.3 316.115C105.942 316.757 106.585 317.398 105.3 318.04C104.658 318.682 103.374 318.04 102.732 317.398C102.09 316.757 102.09 316.115 102.732 315.473Z" fill="#F9B233"/>
<path fill-rule="evenodd" clip-rule="evenodd" d="M113.006 308.413C114.29 307.771 114.932 307.771 116.216 309.055C116.858 309.696 117.5 310.98 116.216 311.622C114.932 312.264 113.648 311.622 113.006 310.98C112.363 309.696 112.363 309.055 113.006 308.413Z" fill="#C94300"/>
<path opacity="0.75" fill-rule="evenodd" clip-rule="evenodd" d="M75.7649 355.908C75.1228 355.266 75.1228 354.624 75.7649 353.982C76.407 353.34 77.049 353.982 77.6911 353.982C78.3332 354.624 77.6911 355.266 77.6911 355.908C76.407 356.55 75.7649 356.55 75.7649 355.908Z" fill="#F9B233"/>
<path opacity="0.4" fill-rule="evenodd" clip-rule="evenodd" d="M65.4913 368.102C66.1334 367.46 67.4176 366.818 68.0596 367.46C69.3438 368.102 69.3438 369.386 68.7017 370.669C68.0596 371.311 66.7755 371.311 65.4913 371.311C64.2072 370.669 64.2072 368.744 65.4913 368.102Z" fill="#F9B233"/>
<path opacity="0.75" fill-rule="evenodd" clip-rule="evenodd" d="M118.142 386.072C119.426 386.072 120.068 385.43 120.068 384.147C120.068 382.863 119.426 382.221 118.142 382.221C116.858 382.221 116.216 382.863 116.216 384.147C116.216 385.43 116.858 385.43 118.142 386.072Z" fill="#F9B233"/>
<path opacity="0.4" fill-rule="evenodd" clip-rule="evenodd" d="M102.732 386.714C104.016 386.714 104.658 386.072 104.658 385.43C104.658 384.146 104.016 383.505 102.732 383.505C102.09 383.505 100.806 384.146 100.806 385.43C100.806 386.072 101.448 386.714 102.732 386.714Z" fill="#F9B233"/>
<path opacity="0.75" fill-rule="evenodd" clip-rule="evenodd" d="M118.784 376.446C119.426 377.087 120.711 377.087 120.711 375.804C121.353 375.162 120.711 373.878 120.068 373.878C119.426 373.237 118.142 373.878 118.142 374.52C118.142 375.162 118.142 376.446 118.784 376.446Z" fill="#F9B233"/>
<path opacity="0.4" fill-rule="evenodd" clip-rule="evenodd" d="M82.8276 374.519C83.4697 375.161 84.7538 375.161 85.3959 373.878C86.038 373.236 85.3959 371.952 84.7538 371.31C84.1117 370.668 82.8276 371.31 82.1855 371.952C82.1855 372.594 82.1855 373.878 82.8276 374.519Z" fill="#F9B233"/>
<path opacity="0.75" fill-rule="evenodd" clip-rule="evenodd" d="M98.2376 341.146C99.5217 341.146 100.164 340.504 100.164 339.862C100.164 339.22 99.5217 337.937 98.2376 337.937C96.9534 337.937 96.3113 338.579 96.3113 339.862C96.3113 340.504 96.9534 341.146 98.2376 341.146Z" fill="#F9B233"/>
<path opacity="0.75" fill-rule="evenodd" clip-rule="evenodd" d="M109.153 393.775C109.795 393.775 111.079 393.133 111.079 392.491C111.079 391.849 110.437 390.565 109.153 390.565C108.511 390.565 107.227 391.207 107.227 392.491C107.869 393.775 108.511 393.775 109.153 393.775Z" fill="#F9B233"/>
<path opacity="0.75" fill-rule="evenodd" clip-rule="evenodd" d="M94.3851 369.385C95.0271 368.744 95.0271 368.744 95.6692 369.385C96.3113 370.027 95.6692 370.669 95.6692 370.669C95.0271 370.669 94.3851 370.669 94.3851 370.669C93.743 370.669 93.743 370.027 94.3851 369.385Z" fill="#F9B233"/>
<path opacity="0.75" fill-rule="evenodd" clip-rule="evenodd" d="M100.806 374.52C100.806 375.162 100.806 376.446 101.448 376.446C102.09 376.446 103.374 376.446 103.374 375.162C103.374 374.52 103.374 373.237 102.09 373.237C101.448 373.237 100.806 373.878 100.806 374.52Z" fill="#F9B233"/>
<path opacity="0.4" fill-rule="evenodd" clip-rule="evenodd" d="M107.227 372.594C106.585 373.877 107.227 374.519 108.511 375.161C109.795 375.803 110.437 375.161 111.079 373.877C111.721 373.235 110.437 371.952 109.795 371.952C108.511 371.31 107.869 371.31 107.227 372.594Z" fill="#F9B233"/>
<path opacity="0.75" fill-rule="evenodd" clip-rule="evenodd" d="M71.2703 377.087C71.9123 377.729 72.5544 377.729 73.1965 377.087C73.8386 376.445 73.8386 375.803 73.1965 375.161C72.5544 374.519 71.9123 374.519 71.2703 375.161C70.6282 375.803 70.6282 376.445 71.2703 377.087Z" fill="#F9B233"/>
<path opacity="0.75" fill-rule="evenodd" clip-rule="evenodd" d="M114.932 366.176C113.648 366.176 113.006 364.892 113.006 363.609C113.006 362.325 114.29 361.683 115.574 361.683C116.858 361.683 117.5 362.967 117.5 364.251C117.5 366.176 116.216 366.176 114.932 366.176Z" fill="#F9B233"/>
<path opacity="0.75" fill-rule="evenodd" clip-rule="evenodd" d="M53.934 365.534C54.5761 366.175 55.2182 366.175 55.8603 365.534C56.5023 364.892 56.5023 364.25 55.8603 363.608C55.2182 362.966 54.5761 362.966 53.934 363.608C53.2919 364.25 53.2919 364.892 53.934 365.534Z" fill="#F9B233"/>
<path opacity="0.4" fill-rule="evenodd" clip-rule="evenodd" d="M91.1748 330.876C92.459 331.518 93.1011 332.16 92.459 333.443C91.8169 334.085 91.1748 334.727 89.8907 334.085C88.6065 333.443 87.9644 332.16 88.6065 331.518C89.2486 330.876 89.8907 330.234 91.1748 330.876Z" fill="#F9B233"/>
<path opacity="0.75" fill-rule="evenodd" clip-rule="evenodd" d="M127.773 357.19C128.415 356.548 129.7 355.907 130.342 356.548C131.626 357.19 131.626 358.474 130.984 359.757C130.342 360.399 129.057 360.399 127.773 360.399C126.489 359.757 126.489 357.832 127.773 357.19Z" fill="#F9B233"/>
<path opacity="0.75" fill-rule="evenodd" clip-rule="evenodd" d="M84.7541 341.787C86.0382 342.429 86.6803 343.07 86.0382 344.354C85.3961 344.996 84.7541 345.638 83.4699 344.996C82.1857 344.354 81.5436 343.07 82.1857 342.429C82.8278 341.787 83.4699 341.787 84.7541 341.787Z" fill="#F9B233"/>
<path fill-rule="evenodd" clip-rule="evenodd" d="M117.5 314.831C118.784 315.472 119.426 316.756 119.426 318.04C118.784 319.323 117.5 319.323 116.216 319.323C114.932 318.682 114.29 317.398 114.932 316.114C114.932 314.831 116.216 314.189 117.5 314.831Z" fill="#F99900"/>
<path opacity="0.75" fill-rule="evenodd" clip-rule="evenodd" d="M129.7 369.385C130.342 368.744 130.342 368.744 130.984 369.385C131.626 370.027 130.984 370.669 130.984 370.669C130.342 370.669 129.7 370.669 129.7 370.669C129.057 370.669 129.057 370.027 129.7 369.385Z" fill="#F9B233"/>
<path opacity="0.75" fill-rule="evenodd" clip-rule="evenodd" d="M101.448 326.384C101.448 327.026 101.448 327.668 102.732 327.668C103.374 327.668 104.016 327.668 104.016 327.026C104.016 326.384 103.374 325.742 102.732 325.742C101.448 325.101 101.448 325.742 101.448 326.384Z" fill="#F9B233"/>
<path opacity="0.4" fill-rule="evenodd" clip-rule="evenodd" d="M112.363 331.518C112.363 332.16 112.363 332.802 113.648 332.802C114.29 332.802 114.932 332.802 114.932 332.16C114.932 331.518 114.29 330.876 113.648 330.876C113.005 330.876 113.005 330.876 112.363 331.518Z" fill="#F9B233"/>
<path fill-rule="evenodd" clip-rule="evenodd" d="M144.468 276.322C145.11 276.322 146.394 275.68 146.394 275.038C146.394 274.396 145.752 273.113 144.468 273.113C143.825 273.113 142.541 273.755 142.541 274.396C142.541 276.322 143.183 276.322 144.468 276.322Z" fill="#FFC82C"/>
<path fill-rule="evenodd" clip-rule="evenodd" d="M147.036 285.95C147.678 285.308 148.32 285.308 148.962 285.95C149.604 286.591 148.962 287.233 148.962 287.875C148.32 288.517 147.678 287.875 147.036 287.875C146.394 287.233 147.036 286.591 147.036 285.95Z" fill="#FFC82C"/>
<path fill-rule="evenodd" clip-rule="evenodd" d="M175.929 274.397C176.572 274.397 177.214 273.755 177.214 273.113C177.214 272.471 177.214 271.83 175.929 271.83C175.287 271.83 174.645 272.471 174.645 273.113C174.645 274.397 175.287 274.397 175.929 274.397Z" fill="#FFC82C"/>
<path opacity="0.5" fill-rule="evenodd" clip-rule="evenodd" d="M130.342 271.829C129.7 271.187 129.058 271.187 127.774 271.187C127.132 271.829 127.132 273.113 127.132 273.755C127.774 274.396 129.058 274.396 129.7 273.755C130.984 273.113 130.984 272.471 130.342 271.829Z" fill="#FFC82C"/>
<path opacity="0.5" fill-rule="evenodd" clip-rule="evenodd" d="M111.721 280.815C111.721 282.099 112.364 283.383 113.648 283.383C114.932 283.383 115.574 282.741 116.216 281.457C116.216 280.174 115.574 278.89 114.29 278.89C112.364 278.89 111.721 279.532 111.721 280.815Z" fill="#FFC82C"/>
<path opacity="0.5" fill-rule="evenodd" clip-rule="evenodd" d="M121.995 285.949C121.995 287.233 122.637 287.233 123.279 287.233C123.921 287.233 124.563 287.233 124.563 285.949C125.205 284.665 123.921 284.023 123.279 284.023C122.637 284.665 121.995 284.665 121.995 285.949Z" fill="#FFC82C"/>
<path opacity="0.5" fill-rule="evenodd" clip-rule="evenodd" d="M129.058 292.367C129.7 292.367 130.342 292.367 130.984 292.367C131.626 292.367 131.626 293.651 130.984 293.651C130.342 293.651 129.7 293.651 129.058 293.009V292.367Z" fill="#FFC82C"/>
<path opacity="0.5" fill-rule="evenodd" clip-rule="evenodd" d="M130.984 282.099C131.626 282.741 132.268 283.383 131.626 284.025C130.984 284.667 130.342 285.308 129.058 284.667C128.416 284.025 127.774 283.383 128.416 282.741C129.7 281.457 130.342 281.457 130.984 282.099Z" fill="#FFC82C"/>
<path opacity="0.5" fill-rule="evenodd" clip-rule="evenodd" d="M143.183 270.546C143.183 271.188 141.899 271.83 141.257 271.83C140.615 271.83 139.973 270.546 140.615 269.904C140.615 269.262 141.899 268.621 142.541 269.262C143.183 268.621 143.825 269.904 143.183 270.546Z" fill="#FFC82C"/>
<path opacity="0.5" fill-rule="evenodd" clip-rule="evenodd" d="M136.762 277.606C136.762 278.247 136.12 278.889 136.12 278.889C135.478 278.889 134.836 278.247 134.836 277.606C134.836 276.964 135.478 276.322 136.12 276.322C136.762 276.322 136.762 276.964 136.762 277.606Z" fill="#FFC82C"/>
<path opacity="0.5" fill-rule="evenodd" clip-rule="evenodd" d="M141.257 284.666C141.257 284.024 141.257 284.024 141.899 283.383C142.541 283.383 142.541 284.024 143.183 284.666C143.183 285.308 142.541 285.95 142.541 285.95C141.899 285.308 141.257 285.308 141.257 284.666Z" fill="#FFC82C"/>
<path opacity="0.5" fill-rule="evenodd" clip-rule="evenodd" d="M167.582 275.039C168.225 273.756 168.225 273.114 167.582 272.472C166.94 271.83 165.656 271.83 165.014 273.114C164.372 274.397 164.372 275.039 165.656 275.681C166.298 275.681 166.94 276.323 167.582 275.039Z" fill="#FFC82C"/>
<path opacity="0.8" fill-rule="evenodd" clip-rule="evenodd" d="M150.888 275.681C151.53 276.323 152.815 276.323 153.457 276.323C154.099 275.681 154.099 274.397 154.099 273.756C153.457 273.114 152.172 273.114 151.53 273.756C150.246 273.756 150.246 275.039 150.888 275.681Z" fill="#FFC82C"/>
<path opacity="0.5" fill-rule="evenodd" clip-rule="evenodd" d="M148.962 282.098C149.604 282.74 150.246 282.74 150.888 282.74C151.53 282.098 151.53 281.456 150.888 280.815C150.246 280.173 149.604 280.173 148.962 280.815C148.32 280.815 148.32 281.456 148.962 282.098Z" fill="#FFC82C"/>
<path opacity="0.5" fill-rule="evenodd" clip-rule="evenodd" d="M158.594 296.219C159.236 296.861 159.878 296.861 160.52 296.219C161.162 295.577 161.804 294.935 161.162 294.293C160.52 293.652 159.878 293.652 159.236 294.293C158.594 294.935 157.951 295.577 158.594 296.219Z" fill="#FFC82C"/>
<path opacity="0.5" fill-rule="evenodd" clip-rule="evenodd" d="M166.298 286.591C166.94 285.95 166.94 284.666 166.298 284.666C165.656 284.024 164.372 284.024 163.73 285.308C163.088 285.95 163.088 287.233 164.372 287.875C165.014 287.875 166.298 287.233 166.298 286.591Z" fill="#FFC82C"/>
<path opacity="0.8" fill-rule="evenodd" clip-rule="evenodd" d="M177.214 282.74C177.856 282.099 177.856 280.815 177.214 280.173C176.572 279.531 175.287 280.173 174.645 280.815C174.003 281.457 174.003 282.74 174.645 283.382C175.287 284.024 176.572 283.382 177.214 282.74Z" fill="#FFC82C"/>
<path opacity="0.5" fill-rule="evenodd" clip-rule="evenodd" d="M183.635 285.307C184.277 284.665 183.635 284.024 183.635 284.024C182.993 283.382 182.35 284.024 182.35 284.024C181.708 284.665 182.35 285.307 182.35 285.307C182.35 285.307 182.993 285.307 183.635 285.307Z" fill="#FFC82C"/>
<path fill-rule="evenodd" clip-rule="evenodd" d="M107.869 208.932L205.465 265.411L197.76 278.889C191.339 289.8 181.066 298.144 168.867 301.995C163.088 303.92 156.667 305.204 149.604 305.204C118.142 306.487 121.995 299.427 136.763 327.667C139.973 333.444 141.899 339.862 143.183 345.638C145.752 357.832 143.825 370.669 137.405 382.221L129.7 395.699C125.205 403.401 99.5218 397.625 72.5544 382.221C45.587 366.818 27.6087 347.563 32.1033 339.22L39.8083 325.742C46.2291 314.831 56.5024 306.487 68.7019 302.636C74.4807 300.711 80.9015 299.427 87.9644 299.427C119.426 298.144 115.574 305.204 100.806 276.964C97.5956 271.188 95.6693 264.769 94.3852 258.993C91.8169 246.157 93.101 233.321 100.164 222.41L107.869 208.932ZM109.795 216.633L104.658 224.977C98.8798 235.246 97.5956 246.157 99.5218 257.709C100.806 263.486 102.732 269.262 105.301 274.397C107.869 279.531 110.437 284.666 113.648 289.158C120.711 299.427 117.5 305.846 104.658 304.562C98.8798 303.92 93.101 304.562 87.3223 304.562C81.5436 304.562 75.7648 305.846 69.9861 307.771C59.0707 311.622 50.0816 318.682 44.3028 328.951L37.882 340.503C35.9558 343.713 35.9558 347.563 38.5241 350.773C40.4503 353.34 42.3766 355.265 44.3028 357.191C52.6499 365.534 63.5653 373.236 74.4807 379.654C84.754 385.43 96.9535 391.207 108.511 394.416C111.079 395.058 114.29 395.699 117.5 396.341C121.353 396.983 125.205 395.058 127.131 391.207L133.552 379.654C139.331 369.385 140.615 358.474 138.689 346.922C137.405 341.145 135.478 335.369 132.91 330.234C130.342 325.1 127.773 319.965 124.563 315.473C117.5 305.204 120.711 298.786 133.552 300.069C139.331 300.711 145.11 300.069 150.888 300.069C156.667 300.069 162.446 298.786 168.225 296.86C179.14 293.009 188.129 285.949 193.908 275.68L199.044 266.695L109.795 216.633Z" fill="url(#paint50_radial)"/>
<path opacity="0.35" fill-rule="evenodd" clip-rule="evenodd" d="M169.509 262.844C163.088 273.755 155.383 283.382 147.036 289.8C143.183 293.009 139.331 295.577 135.478 297.502C117.5 306.487 120.71 299.427 122.637 319.965C123.279 324.458 122.637 328.951 121.995 334.085C120.068 344.354 116.216 355.907 109.795 366.818C104.658 375.803 99.5218 384.789 94.3851 393.132C100.164 395.699 105.301 396.983 109.795 398.267C114.29 390.565 118.784 382.221 123.279 374.52C129.7 363.609 132.91 351.414 132.268 339.862C132.268 334.085 130.984 328.951 129.7 323.816C121.353 300.069 117.5 306.487 142.541 301.353C147.678 300.069 152.815 298.144 157.951 295.577C167.582 290.442 177.214 281.457 183.634 270.546C186.203 266.053 188.771 261.56 191.339 257.068L177.214 248.724C174.645 253.859 172.077 258.351 169.509 262.844Z" fill="url(#paint51_radial)"/>
<path fill-rule="evenodd" clip-rule="evenodd" d="M75.1227 346.922C81.5435 336.011 88.6064 325.742 95.6693 318.682C98.8797 314.831 102.09 312.264 105.301 309.697C120.068 298.786 116.216 305.204 118.142 287.233C118.784 283.382 119.426 278.89 120.711 274.397C123.279 264.77 128.415 253.859 134.836 242.948C137.405 238.455 139.973 233.963 142.541 229.47L116.858 214.066C114.29 218.559 111.721 223.052 109.153 227.544C102.732 238.455 100.164 251.292 101.448 262.844C102.09 268.621 103.374 274.397 105.301 279.531C116.216 305.204 119.426 298.144 92.4589 301.995C86.6802 302.637 80.9015 304.562 75.7648 307.129C64.8494 312.264 55.8603 320.608 49.4395 331.518C44.9449 338.578 41.0924 346.28 36.5978 353.34C41.7345 359.758 49.4395 366.818 60.3549 374.52C64.8494 364.893 69.9861 355.907 75.1227 346.922Z" fill="url(#paint52_radial)" fill-opacity="0.1"/>
<path fill-rule="evenodd" clip-rule="evenodd" d="M87.3222 305.204C77.691 305.846 66.1335 312.906 58.4286 321.249C55.8602 324.458 48.7973 334.085 48.1553 338.578C47.5132 344.996 61.639 353.34 63.5652 350.131C69.986 339.862 75.1227 328.951 87.9643 315.473C89.8905 313.547 92.4589 312.264 94.3851 310.338C96.9534 307.771 89.8905 305.204 87.3222 305.204Z" fill="url(#paint53_radial)" fill-opacity="0.1"/>
<path fill-rule="evenodd" clip-rule="evenodd" d="M123.279 237.814C122.637 237.172 114.932 232.037 114.29 232.037C113.648 232.037 113.006 232.037 111.721 233.321C109.153 236.53 106.585 242.948 105.943 245.515C103.374 255.143 104.017 267.337 109.795 275.039C110.437 275.681 111.721 277.606 113.006 277.606C113.648 277.606 113.648 276.964 113.648 275.681C113.006 272.472 113.006 268.621 113.648 265.412C114.932 257.068 118.142 249.366 122.637 242.306C123.921 239.739 123.921 238.455 123.279 237.814Z" fill="url(#paint54_radial)" fill-opacity="0.1"/>
<path opacity="0.1" fill-rule="evenodd" clip-rule="evenodd" d="M107.728 215.45L198.262 267.437L192.483 277.064C186.704 287.333 177.073 294.393 166.158 298.244C160.379 300.17 154.6 301.453 148.179 301.453C142.401 301.453 136.622 302.095 130.843 301.453C127.633 301.453 121.854 301.453 119.928 304.662C118.002 307.871 121.212 313.006 123.138 315.573C126.349 320.066 128.917 325.2 131.485 330.335C134.054 335.469 136.622 341.246 137.264 347.022C139.19 358.575 137.906 370.127 132.127 380.396L125.707 391.949C123.78 395.8 119.928 397.725 115.433 397.084C112.223 397.084 109.655 396.442 106.444 395.158C100.023 393.233 94.2446 391.307 88.4659 388.74C82.6871 387.456 77.5505 384.889 71.7717 381.68C66.6351 378.471 61.4984 375.262 56.3618 372.053C51.2251 368.202 46.0885 364.351 41.5939 359.858C39.6677 357.933 37.7414 355.366 35.8152 352.798C33.2469 348.947 33.2469 345.097 35.1731 341.246L41.5939 329.693C47.3726 319.424 57.0039 312.364 67.9192 308.513C73.698 306.588 79.4767 305.304 85.8975 305.304C91.6763 305.304 97.455 304.662 103.234 305.304C106.444 305.304 112.223 305.304 114.149 302.095C116.075 298.886 112.865 293.751 110.939 291.184C107.728 286.692 105.16 281.557 102.592 276.423C100.023 271.288 97.455 265.512 96.8129 259.735C94.8867 248.183 96.1708 236.63 101.95 226.361L107.728 215.45Z" fill="white"/>
<path fill-rule="evenodd" clip-rule="evenodd" d="M213.17 257.709L206.107 269.262C200.971 277.605 174.645 271.187 146.394 255.142C118.142 239.096 98.8797 218.558 104.016 210.215L111.079 198.662C145.11 217.917 179.14 237.813 213.17 257.709Z" fill="url(#paint55_linear)"/>
<path opacity="0.5" fill-rule="evenodd" clip-rule="evenodd" d="M105.3 219.842L112.363 208.289C109.795 204.438 109.795 200.588 111.079 198.662L104.016 210.215C102.732 212.782 103.374 215.991 105.3 219.842Z" fill="url(#paint56_linear)"/>
<path fill-rule="evenodd" clip-rule="evenodd" d="M123.921 222.409L117.5 233.962C122.637 238.454 129.057 243.589 136.12 248.723L143.183 237.171C135.478 232.036 129.057 226.902 123.921 222.409Z" fill="url(#paint57_linear)"/>
<path opacity="0.5" fill-rule="evenodd" clip-rule="evenodd" d="M175.929 254.5L168.866 266.052C174.645 268.619 180.424 270.545 185.561 271.187L192.623 259.634C187.487 258.35 181.708 256.425 175.929 254.5Z" fill="url(#paint58_linear)"/>
<path opacity="0.5" fill-rule="evenodd" clip-rule="evenodd" d="M200.328 260.918L193.266 272.47C199.686 273.112 204.181 271.828 206.107 269.261L213.17 257.708C211.244 260.276 206.749 261.559 200.328 260.918Z" fill="url(#paint59_linear)"/>
<path fill-rule="evenodd" clip-rule="evenodd" d="M170.151 213.425C198.402 229.47 217.023 249.366 211.886 257.71C206.749 266.053 180.424 259.635 152.172 243.59C123.921 227.544 105.3 207.648 110.437 199.305C115.574 190.961 141.899 197.379 170.151 213.425Z" fill="#E26F80"/>
<path fill-rule="evenodd" clip-rule="evenodd" d="M170.793 212.782C199.044 228.828 218.307 249.366 213.17 257.709C208.033 266.053 181.708 259.635 153.457 243.589C125.205 227.544 105.942 207.006 111.079 198.662C115.574 190.319 142.541 196.737 170.793 212.782Z" fill="url(#paint60_radial)"/>
<defs>
<linearGradient id="paint0_linear" x1="72.4262" y1="55.7246" x2="89.0548" y2="-0.775062" gradientUnits="userSpaceOnUse">
<stop stop-color="#6B618B"/>
<stop offset="1" stop-color="#8E7182"/>
</linearGradient>
<linearGradient id="paint1_linear" x1="96.2773" y1="55.9588" x2="115.527" y2="1.23023" gradientUnits="userSpaceOnUse">
<stop stop-color="#989BBB"/>
<stop offset="1" stop-color="#AC80A9"/>
</linearGradient>
<linearGradient id="paint2_linear" x1="98.7655" y1="44.3607" x2="112.41" y2="5.56746" gradientUnits="userSpaceOnUse">
<stop stop-color="#989BBB"/>
<stop offset="1" stop-color="#AC80A9"/>
</linearGradient>
<linearGradient id="paint3_linear" x1="95.2519" y1="45.1769" x2="99.4229" y2="31.0049" gradientUnits="userSpaceOnUse">
<stop stop-color="#6B618B"/>
<stop offset="1" stop-color="#8E7182"/>
</linearGradient>
<linearGradient id="paint4_linear" x1="33.9786" y1="299.314" x2="119.152" y2="57.1581" gradientUnits="userSpaceOnUse">
<stop stop-color="#495374"/>
<stop offset="1" stop-color="#8E7182"/>
</linearGradient>
<linearGradient id="paint5_linear" x1="88.4735" y1="308.693" x2="172.181" y2="70.7054" gradientUnits="userSpaceOnUse">
<stop stop-color="#7C85A2"/>
<stop offset="1" stop-color="#9F9DD1"/>
</linearGradient>
<linearGradient id="paint6_linear" x1="87.8765" y1="303.015" x2="162.662" y2="90.3933" gradientUnits="userSpaceOnUse">
<stop stop-color="#656E8D"/>
<stop offset="1" stop-color="#846579"/>
</linearGradient>
<linearGradient id="paint7_linear" x1="104.519" y1="369.803" x2="140.564" y2="267.324" gradientUnits="userSpaceOnUse">
<stop stop-color="#596383"/>
<stop offset="1" stop-color="#8E7182"/>
</linearGradient>
<linearGradient id="paint8_linear" x1="133.466" y1="359.958" x2="164.863" y2="270.694" gradientUnits="userSpaceOnUse">
<stop stop-color="#707997"/>
<stop offset="1" stop-color="#AC8FA1"/>
</linearGradient>
<linearGradient id="paint9_linear" x1="106.837" y1="327.54" x2="131.018" y2="258.79" gradientUnits="userSpaceOnUse">
<stop stop-color="#939BB6"/>
<stop offset="1" stop-color="#D4B8CB"/>
</linearGradient>
<linearGradient id="paint10_linear" x1="81.4445" y1="300.749" x2="153.66" y2="95.434" gradientUnits="userSpaceOnUse">
<stop stop-color="#707997"/>
<stop offset="1" stop-color="#8B81A7"/>
</linearGradient>
<linearGradient id="paint11_linear" x1="106.561" y1="307.74" x2="135.232" y2="226.226" gradientUnits="userSpaceOnUse">
<stop stop-color="#7C85A2"/>
<stop offset="1" stop-color="#AC8FA1"/>
</linearGradient>
<linearGradient id="paint12_linear" x1="69.3888" y1="294.665" x2="86.8239" y2="245.095" gradientUnits="userSpaceOnUse">
<stop stop-color="#596383"/>
<stop offset="1" stop-color="#8E7182"/>
</linearGradient>
<linearGradient id="paint13_linear" x1="115.005" y1="256.639" x2="127.059" y2="222.369" gradientUnits="userSpaceOnUse">
<stop stop-color="#939BB6"/>
<stop offset="1" stop-color="#D4B8CB"/>
</linearGradient>
<linearGradient id="paint14_linear" x1="97.1707" y1="175.946" x2="120.699" y2="109.055" gradientUnits="userSpaceOnUse">
<stop stop-color="#596383"/>
<stop offset="1" stop-color="#8E7182"/>
</linearGradient>
<linearGradient id="paint15_linear" x1="102.281" y1="176.665" x2="126.291" y2="108.403" gradientUnits="userSpaceOnUse">
<stop stop-color="#9A92B4"/>
<stop offset="1" stop-color="#AC8FA1"/>
</linearGradient>
<linearGradient id="paint16_linear" x1="71.2078" y1="295.989" x2="71.2078" y2="240.275" gradientUnits="userSpaceOnUse">
<stop stop-color="white"/>
<stop offset="1" stop-color="#A47A9F"/>
</linearGradient>
<linearGradient id="paint17_linear" x1="29.9226" y1="143.079" x2="52.368" y2="143.079" gradientUnits="userSpaceOnUse">
<stop stop-color="#6F77A2"/>
<stop offset="1" stop-color="#AC8195"/>
</linearGradient>
<linearGradient id="paint18_linear" x1="30.3614" y1="138.965" x2="65.4946" y2="138.965" gradientUnits="userSpaceOnUse">
<stop stop-color="white"/>
<stop offset="1" stop-color="#A47A9F"/>
</linearGradient>
<linearGradient id="paint19_linear" x1="156.941" y1="206.995" x2="186.614" y2="206.995" gradientUnits="userSpaceOnUse">
<stop stop-color="#6DB2FF"/>
<stop offset="1" stop-color="#A47A9F"/>
</linearGradient>
<linearGradient id="paint20_linear" x1="52.3093" y1="266.094" x2="52.3093" y2="231.054" gradientUnits="userSpaceOnUse">
<stop stop-color="#75B2B5"/>
<stop offset="1" stop-color="#A47A9F"/>
</linearGradient>
<linearGradient id="paint21_linear" x1="130.929" y1="84.3943" x2="152.02" y2="84.3943" gradientUnits="userSpaceOnUse">
<stop stop-color="#6DB2FF"/>
<stop offset="1" stop-color="#A47A9F"/>
</linearGradient>
<linearGradient id="paint22_linear" x1="110.085" y1="296.394" x2="110.085" y2="268.829" gradientUnits="userSpaceOnUse">
<stop stop-color="#A47A9F"/>
<stop offset="1" stop-color="white"/>
</linearGradient>
<linearGradient id="paint23_linear" x1="119.941" y1="337.705" x2="119.941" y2="295.99" gradientUnits="userSpaceOnUse">
<stop stop-color="#A47A9F"/>
<stop offset="1" stop-color="white"/>
</linearGradient>
<linearGradient id="paint24_linear" x1="106.461" y1="398.971" x2="140.844" y2="301.214" gradientUnits="userSpaceOnUse">
<stop stop-color="#596383"/>
<stop offset="1" stop-color="#8E7182"/>
</linearGradient>
<linearGradient id="paint25_linear" x1="138.649" y1="390.785" x2="166.926" y2="310.389" gradientUnits="userSpaceOnUse">
<stop stop-color="#707997"/>
<stop offset="1" stop-color="#AC8FA1"/>
</linearGradient>
<linearGradient id="paint26_linear" x1="140.075" y1="365.335" x2="160.23" y2="308.033" gradientUnits="userSpaceOnUse">
<stop stop-color="#939BB6"/>
<stop offset="1" stop-color="#D4B8CB"/>
</linearGradient>
<linearGradient id="paint27_linear" x1="170.521" y1="360.918" x2="179.983" y2="334.016" gradientUnits="userSpaceOnUse">
<stop stop-color="#939BB6"/>
<stop offset="1" stop-color="#D4B8CB"/>
</linearGradient>
<linearGradient id="paint28_linear" x1="170.865" y1="293.83" x2="170.865" y2="256.991" gradientUnits="userSpaceOnUse">
<stop stop-color="#FF7C75"/>
<stop offset="1" stop-color="#FFAE8B"/>
</linearGradient>
<linearGradient id="paint29_linear" x1="169.931" y1="271.296" x2="169.931" y2="256.991" gradientUnits="userSpaceOnUse">
<stop offset="0.00396825" stop-color="#FFA993"/>
<stop offset="1" stop-color="#FFEB9F"/>
</linearGradient>
<linearGradient id="paint30_linear" x1="172.468" y1="260.606" x2="172.468" y2="245.354" gradientUnits="userSpaceOnUse">
<stop stop-color="#FF9A7F"/>
<stop offset="1" stop-color="#A39FC0"/>
</linearGradient>
<linearGradient id="paint31_linear" x1="168.558" y1="295.283" x2="176.625" y2="272.347" gradientUnits="userSpaceOnUse">
<stop stop-color="#A47A9F"/>
<stop offset="1" stop-color="white"/>
</linearGradient>
<linearGradient id="paint32_linear" x1="84.6881" y1="297.42" x2="84.6881" y2="252.291" gradientUnits="userSpaceOnUse">
<stop stop-color="#FF7C75"/>
<stop offset="1" stop-color="#FFAE8B"/>
</linearGradient>
<linearGradient id="paint33_linear" x1="84.4149" y1="269.001" x2="84.4149" y2="251.84" gradientUnits="userSpaceOnUse">
<stop offset="0.00396825" stop-color="#FFA993"/>
<stop offset="1" stop-color="#FFEB9F"/>
</linearGradient>
<linearGradient id="paint34_linear" x1="88.0842" y1="252.423" x2="88.0842" y2="244.099" gradientUnits="userSpaceOnUse">
<stop stop-color="#FF9A7F"/>
<stop offset="1" stop-color="#A39FC0"/>
</linearGradient>
<linearGradient id="paint35_linear" x1="80.9305" y1="298.893" x2="89.4669" y2="274.624" gradientUnits="userSpaceOnUse">
<stop stop-color="#A47A9F"/>
<stop offset="1" stop-color="white"/>
</linearGradient>
<linearGradient id="paint36_linear" x1="105.951" y1="326.864" x2="150.153" y2="326.864" gradientUnits="userSpaceOnUse">
<stop stop-color="#6DB2FF"/>
<stop offset="1" stop-color="#A47A9F"/>
</linearGradient>
<linearGradient id="paint37_linear" x1="65.2565" y1="104.745" x2="162.265" y2="104.745" gradientUnits="userSpaceOnUse">
<stop stop-color="#764370"/>
<stop offset="1" stop-color="#BB9FB2"/>
</linearGradient>
<linearGradient id="paint38_linear" x1="20.9645" y1="353.755" x2="123.305" y2="412.868" gradientUnits="userSpaceOnUse">
<stop offset="0.00743494" stop-color="#781916"/>
<stop offset="0.3086" stop-color="#963333"/>
<stop offset="1" stop-color="#450E0E"/>
</linearGradient>
<linearGradient id="paint39_linear" x1="23.3816" y1="349.57" x2="28.7674" y2="352.681" gradientUnits="userSpaceOnUse">
<stop stop-color="#616DBE"/>
<stop offset="0.6029" stop-color="#C3C7E6"/>
<stop offset="1" stop-color="white"/>
</linearGradient>
<linearGradient id="paint40_linear" x1="38.0257" y1="371.476" x2="58.4933" y2="383.298" gradientUnits="userSpaceOnUse">
<stop stop-color="#AB665D"/>
<stop offset="1" stop-color="#2B2321"/>
</linearGradient>
<linearGradient id="paint41_linear" x1="91.4403" y1="400.521" x2="106.061" y2="408.966" gradientUnits="userSpaceOnUse">
<stop stop-color="#AB665D"/>
<stop offset="1" stop-color="#2B2321"/>
</linearGradient>
<linearGradient id="paint42_linear" x1="117.493" y1="404.752" x2="125.366" y2="409.3" gradientUnits="userSpaceOnUse">
<stop stop-color="white"/>
<stop offset="0.3971" stop-color="#C3C7E6"/>
<stop offset="1" stop-color="#616DBE"/>
</linearGradient>
<radialGradient id="paint43_radial" cx="0" cy="0" r="1" gradientUnits="userSpaceOnUse" gradientTransform="translate(39.3237 400.982) rotate(29.9904) scale(80.7765 80.7596)">
<stop stop-color="#BF4444"/>
<stop offset="1" stop-color="#57172E"/>
</radialGradient>
<radialGradient id="paint44_radial" cx="0" cy="0" r="1" gradientUnits="userSpaceOnUse" gradientTransform="translate(86.6008 351.364) rotate(29.9904) scale(69.1467 69.1323)">
<stop stop-color="#FFA536"/>
<stop offset="1" stop-color="#A11300"/>
</radialGradient>
<radialGradient id="paint45_radial" cx="0" cy="0" r="1" gradientUnits="userSpaceOnUse" gradientTransform="translate(84.0315 322.518) rotate(29.9904) scale(72.6443 72.6291)">
<stop stop-color="#FFA536"/>
<stop offset="1" stop-color="#D14A00"/>
</radialGradient>
<radialGradient id="paint46_radial" cx="0" cy="0" r="1" gradientUnits="userSpaceOnUse" gradientTransform="translate(140.734 257.752) rotate(29.9904) scale(53.5647 53.5535)">
<stop stop-color="#FFA536"/>
<stop offset="1" stop-color="#A11300"/>
</radialGradient>
<radialGradient id="paint47_radial" cx="0" cy="0" r="1" gradientUnits="userSpaceOnUse" gradientTransform="translate(113.28 356.346) rotate(29.9904) scale(27.7325 27.7267)">
<stop stop-color="#CC3300"/>
<stop offset="1" stop-color="white"/>
</radialGradient>
<radialGradient id="paint48_radial" cx="0" cy="0" r="1" gradientUnits="userSpaceOnUse" gradientTransform="translate(146.127 265.909) rotate(29.9904) scale(57.6548 57.6428)">
<stop stop-color="#FFA536"/>
<stop offset="1" stop-color="#D14A00"/>
</radialGradient>
<radialGradient id="paint49_radial" cx="0" cy="0" r="1" gradientUnits="userSpaceOnUse" gradientTransform="translate(160.517 266.458) rotate(29.9904) scale(55.5427 55.5311)">
<stop stop-color="#CC3300"/>
<stop offset="1" stop-color="white"/>
</radialGradient>
<radialGradient id="paint50_radial" cx="0" cy="0" r="1" gradientUnits="userSpaceOnUse" gradientTransform="translate(86.0067 223.428) rotate(29.9904) scale(222.761 222.715)">
<stop stop-color="#CCF0EF"/>
<stop offset="1" stop-color="#5E73E6"/>
</radialGradient>
<radialGradient id="paint51_radial" cx="0" cy="0" r="1" gradientUnits="userSpaceOnUse" gradientTransform="translate(195.072 365.329) rotate(29.9904) scale(131.597 131.569)">
<stop offset="0.3699"/>
<stop offset="1" stop-color="white"/>
</radialGradient>
<radialGradient id="paint52_radial" cx="0" cy="0" r="1" gradientUnits="userSpaceOnUse" gradientTransform="translate(121.558 295.119) rotate(29.9904) scale(153.726 153.694)">
<stop/>
<stop offset="1" stop-color="white"/>
</radialGradient>
<radialGradient id="paint53_radial" cx="0" cy="0" r="1" gradientUnits="userSpaceOnUse" gradientTransform="translate(91.0424 341.224) rotate(29.9904) scale(175.85 175.813)">
<stop/>
<stop offset="0.5651" stop-color="white"/>
</radialGradient>
<radialGradient id="paint54_radial" cx="0" cy="0" r="1" gradientUnits="userSpaceOnUse" gradientTransform="translate(129.947 264.587) rotate(-21.3071) scale(61.9892 61.9702)">
<stop/>
<stop offset="1" stop-color="white"/>
</radialGradient>
<linearGradient id="paint55_linear" x1="102.883" y1="211.925" x2="205.224" y2="271.038" gradientUnits="userSpaceOnUse">
<stop offset="0.00743494" stop-color="#781916"/>
<stop offset="0.3086" stop-color="#963333"/>
<stop offset="1" stop-color="#450E0E"/>
</linearGradient>
<linearGradient id="paint56_linear" x1="105.301" y1="207.74" x2="110.687" y2="210.852" gradientUnits="userSpaceOnUse">
<stop stop-color="#616DBE"/>
<stop offset="0.6029" stop-color="#C3C7E6"/>
<stop offset="1" stop-color="white"/>
</linearGradient>
<linearGradient id="paint57_linear" x1="119.945" y1="229.646" x2="140.413" y2="241.468" gradientUnits="userSpaceOnUse">
<stop stop-color="#AB665D"/>
<stop offset="1" stop-color="#2B2321"/>
</linearGradient>
<linearGradient id="paint58_linear" x1="173.36" y1="258.691" x2="187.98" y2="267.135" gradientUnits="userSpaceOnUse">
<stop stop-color="#AB665D"/>
<stop offset="1" stop-color="#2B2321"/>
</linearGradient>
<linearGradient id="paint59_linear" x1="199.412" y1="262.922" x2="207.285" y2="267.469" gradientUnits="userSpaceOnUse">
<stop stop-color="white"/>
<stop offset="0.3971" stop-color="#C3C7E6"/>
<stop offset="1" stop-color="#616DBE"/>
</linearGradient>
<radialGradient id="paint60_radial" cx="0" cy="0" r="1" gradientUnits="userSpaceOnUse" gradientTransform="translate(101.917 236.999) rotate(29.9904) scale(142.309 142.279)">
<stop stop-color="#BF4444"/>
<stop offset="1" stop-color="#57172E"/>
</radialGradient>
</defs>
</svg>
