<svg width="37" height="28" viewBox="0 0 37 28" fill="none" xmlns="http://www.w3.org/2000/svg">
<path d="M36.9982 3.32391C35.6124 3.89442 34.1429 4.26911 32.6382 4.43556C34.2242 3.55271 35.4112 2.16328 35.9781 0.526179C34.4897 1.35063 32.8578 1.92842 31.157 2.24097C30.0146 1.10326 28.5003 0.348725 26.8496 0.0946679C25.1989 -0.159389 23.5043 0.101267 22.0291 0.836113C20.554 1.57096 19.3811 2.73882 18.6926 4.15814C18.0042 5.57746 17.8388 7.16872 18.2223 8.68453C15.2039 8.54372 12.251 7.81366 9.55547 6.54174C6.85989 5.26982 4.48183 3.48448 2.5757 1.30164C1.90099 2.38026 1.54643 3.60643 1.54832 4.85455C1.54832 7.30425 2.8879 9.46843 4.9245 10.7355C3.71926 10.7002 2.54054 10.3973 1.48661 9.85194V9.93979C1.48697 11.5713 2.09354 13.1525 3.20346 14.4152C4.31339 15.678 5.85836 16.5446 7.57643 16.8682C6.4576 17.1504 5.28446 17.192 4.1458 16.9899C4.6302 18.3942 5.57434 19.6224 6.846 20.5024C8.11767 21.3825 9.6532 21.8703 11.2376 21.8977C9.66291 23.0488 7.85992 23.8997 5.93169 24.4018C4.00346 24.9038 1.98782 25.0473 0 24.8238C3.47002 26.9009 7.50945 28.0036 11.6351 28C25.599 28 33.2354 17.2331 33.2354 7.89556C33.2354 7.59145 33.2263 7.28397 33.2118 6.98325C34.6981 5.98338 35.981 4.74477 37 3.3256L36.9982 3.32391Z" fill="white"/>
</svg>
