<svg width="34" height="34" viewBox="0 0 34 34" fill="none" xmlns="http://www.w3.org/2000/svg">
<path d="M34 15.4889C34 16.4994 34 17.5006 34 18.5111C33.9717 18.6528 33.9339 18.785 33.915 18.9267C33.1406 26.01 27.8989 31.9317 20.9572 33.5467C20.1544 33.7356 19.3233 33.8489 18.5111 34C17.5006 34 16.4994 34 15.4889 34C15.385 33.9717 15.2811 33.9339 15.1772 33.9244C7.98056 33.1406 2.11556 27.965 0.443889 20.9194C0.255 20.1261 0.151111 19.3139 0 18.5206C0 17.51 0 16.5089 0 15.4983C0.0283333 15.3567 0.0661111 15.2244 0.085 15.0828C0.868889 7.99 6.10111 2.06833 13.0428 0.453333C13.8456 0.264444 14.6767 0.151111 15.4889 0C16.4994 0 17.5006 0 18.5111 0C18.6339 0.0283333 18.7472 0.0661111 18.87 0.0755556C25.9628 0.821667 31.9128 6.07278 33.5467 13.0333C33.7356 13.8456 33.8489 14.6672 34 15.4889ZM18.4828 19.8806C18.9172 19.8806 19.3139 19.8994 19.7011 19.8711C19.8711 19.8617 20.0978 19.805 20.2017 19.6917C20.9289 18.8322 21.7033 18.0011 22.3267 17.0661C22.9972 16.0556 22.9783 14.9411 22.4683 13.8267C21.8072 12.3911 20.7589 11.2767 19.5972 10.2472C19.2383 9.92611 18.7 9.70889 18.5206 9.31222C18.3317 8.89667 18.4828 8.32056 18.4639 7.82C18.445 7.23445 18.0578 6.81889 17.5478 6.80944C17.0189 6.8 16.6128 7.225 16.6033 7.82944C16.5939 8.16944 16.6033 8.50944 16.6033 8.89667C15.6967 8.66056 14.875 8.43389 13.9589 8.19778C14.0533 8.40556 14.11 8.52833 14.1572 8.65111C14.6767 9.96389 15.2811 11.2483 15.7061 12.5894C16.2067 14.1478 16.2822 15.7439 15.47 17.2644C15.0922 17.9728 14.6767 18.6528 14.28 19.3517C14.195 19.4933 14.1194 19.635 13.9778 19.8806C14.9128 19.8806 15.7344 19.8806 16.5656 19.8806C16.5656 20.57 16.5656 21.1933 16.5656 21.8356C15.8667 21.8356 15.2056 21.8356 14.5444 21.8356C13.0617 21.8356 12.4856 21.3161 12.3439 19.8617C12.3439 19.8333 12.3061 19.8144 12.2494 19.7294C12.1172 19.7294 11.9472 19.7294 11.7772 19.7294C10.4267 19.7294 9.06667 19.7483 7.71611 19.72C7.23444 19.7106 7.14 19.8806 7.16833 20.315C7.35722 23.3372 9.83167 25.6322 12.9483 25.6417C15.7817 25.6511 18.615 25.6322 21.4483 25.6511C22.3361 25.6511 23.1011 25.3772 23.6772 24.7161C24.1494 24.1778 24.6122 23.6017 24.9711 22.9878C25.6889 21.7789 26.4444 20.6456 27.8517 20.1356C27.9367 20.1072 28.05 19.9844 28.05 19.9089C28.0689 19.5311 28.0594 19.1439 28.0594 18.7C26.4633 19.1628 24.9806 19.6161 23.4883 20.0222C22.95 20.1639 22.4872 20.3811 22.1567 20.825C21.1933 22.1378 19.8239 21.8356 18.4922 21.8261C18.4828 21.1556 18.4828 20.5606 18.4828 19.8806ZM8.29222 17.7744C9.95445 17.7744 11.4467 17.7744 12.9389 17.765C13.0333 17.765 13.1656 17.7083 13.2128 17.6328C13.7794 16.6506 14.3839 15.6872 14.2706 14.4783C14.1383 13.1278 13.7039 11.8811 13.1561 10.6533C13.1278 10.5967 13.0617 10.5494 12.9767 10.455C11.4183 12.8728 9.89778 15.2622 8.29222 17.7744Z" fill="#FFFEF5"/>
</svg>
