<svg width="74" height="74" viewBox="0 0 74 74" fill="none" xmlns="http://www.w3.org/2000/svg">
<g filter="url(#filter0_d)">
<path d="M54 35.4889C54 36.4994 54 37.5006 54 38.5111C53.9717 38.6528 53.9339 38.785 53.915 38.9267C53.1406 46.01 47.8989 51.9317 40.9572 53.5467C40.1544 53.7356 39.3233 53.8489 38.5111 54C37.5006 54 36.4994 54 35.4889 54C35.385 53.9717 35.2811 53.9339 35.1772 53.9244C27.9806 53.1406 22.1156 47.965 20.4439 40.9194C20.255 40.1261 20.1511 39.3139 20 38.5206C20 37.51 20 36.5089 20 35.4983C20.0283 35.3567 20.0661 35.2244 20.085 35.0828C20.8689 27.99 26.1011 22.0683 33.0428 20.4533C33.8456 20.2644 34.6767 20.1511 35.4889 20C36.4994 20 37.5006 20 38.5111 20C38.6339 20.0283 38.7472 20.0661 38.87 20.0756C45.9628 20.8217 51.9128 26.0728 53.5467 33.0333C53.7356 33.8456 53.8489 34.6672 54 35.4889ZM38.4828 39.8806C38.9172 39.8806 39.3139 39.8994 39.7011 39.8711C39.8711 39.8617 40.0978 39.805 40.2017 39.6917C40.9289 38.8322 41.7033 38.0011 42.3267 37.0661C42.9972 36.0556 42.9783 34.9411 42.4683 33.8267C41.8072 32.3911 40.7589 31.2767 39.5972 30.2472C39.2383 29.9261 38.7 29.7089 38.5206 29.3122C38.3317 28.8967 38.4828 28.3206 38.4639 27.82C38.445 27.2344 38.0578 26.8189 37.5478 26.8094C37.0189 26.8 36.6128 27.225 36.6033 27.8294C36.5939 28.1694 36.6033 28.5094 36.6033 28.8967C35.6967 28.6606 34.875 28.4339 33.9589 28.1978C34.0533 28.4056 34.11 28.5283 34.1572 28.6511C34.6767 29.9639 35.2811 31.2483 35.7061 32.5894C36.2067 34.1478 36.2822 35.7439 35.47 37.2644C35.0922 37.9728 34.6767 38.6528 34.28 39.3517C34.195 39.4933 34.1194 39.635 33.9778 39.8806C34.9128 39.8806 35.7344 39.8806 36.5656 39.8806C36.5656 40.57 36.5656 41.1933 36.5656 41.8356C35.8667 41.8356 35.2056 41.8356 34.5444 41.8356C33.0617 41.8356 32.4856 41.3161 32.3439 39.8617C32.3439 39.8333 32.3061 39.8144 32.2494 39.7294C32.1172 39.7294 31.9472 39.7294 31.7772 39.7294C30.4267 39.7294 29.0667 39.7483 27.7161 39.72C27.2344 39.7106 27.14 39.8806 27.1683 40.315C27.3572 43.3372 29.8317 45.6322 32.9483 45.6417C35.7817 45.6511 38.615 45.6322 41.4483 45.6511C42.3361 45.6511 43.1011 45.3772 43.6772 44.7161C44.1494 44.1778 44.6122 43.6017 44.9711 42.9878C45.6889 41.7789 46.4444 40.6456 47.8517 40.1356C47.9367 40.1072 48.05 39.9844 48.05 39.9089C48.0689 39.5311 48.0594 39.1439 48.0594 38.7C46.4633 39.1628 44.9806 39.6161 43.4883 40.0222C42.95 40.1639 42.4872 40.3811 42.1567 40.825C41.1933 42.1378 39.8239 41.8356 38.4922 41.8261C38.4828 41.1556 38.4828 40.5606 38.4828 39.8806ZM28.2922 37.7744C29.9544 37.7744 31.4467 37.7744 32.9389 37.765C33.0333 37.765 33.1656 37.7083 33.2128 37.6328C33.7794 36.6506 34.3839 35.6872 34.2706 34.4783C34.1383 33.1278 33.7039 31.8811 33.1561 30.6533C33.1278 30.5967 33.0617 30.5494 32.9767 30.455C31.4183 32.8728 29.8978 35.2622 28.2922 37.7744Z" fill="#FFDD00"/>
</g>
<defs>
<filter id="filter0_d" x="0" y="0" width="74" height="74" filterUnits="userSpaceOnUse" color-interpolation-filters="sRGB">
<feFlood flood-opacity="0" result="BackgroundImageFix"/>
<feColorMatrix in="SourceAlpha" type="matrix" values="0 0 0 0 0 0 0 0 0 0 0 0 0 0 0 0 0 0 127 0" result="hardAlpha"/>
<feOffset/>
<feGaussianBlur stdDeviation="10"/>
<feComposite in2="hardAlpha" operator="out"/>
<feColorMatrix type="matrix" values="0 0 0 0 1 0 0 0 0 0.866667 0 0 0 0 0 0 0 0 1 0"/>
<feBlend mode="normal" in2="BackgroundImageFix" result="effect1_dropShadow"/>
<feBlend mode="normal" in="SourceGraphic" in2="effect1_dropShadow" result="shape"/>
</filter>
</defs>
</svg>
