<svg width="298" height="23" viewBox="0 0 298 23" fill="none" xmlns="http://www.w3.org/2000/svg">
<path fill-rule="evenodd" clip-rule="evenodd" d="M6.62367 6.72388C4.6604 6.6152 2.69983 6.49321 0.739631 6.36097C0.356654 6.33486 0.0436875 6.69574 0.0411061 7.16671C0.0385247 7.63768 0.347361 8.04128 0.730338 8.06739C2.49481 8.18439 4.25953 8.29458 6.02311 8.39781C6.12276 8.48418 6.32225 8.6125 6.66173 8.69518C17.2396 11.189 28.6116 9.975 39.3804 9.44423C49.4851 9.52839 59.592 9.42834 69.6998 9.22941C68.4966 9.32938 67.2938 9.42598 66.0902 9.51565C65.8398 9.53522 65.1909 9.58845 65.1021 9.61258C64.5939 9.76359 64.5886 10.3025 64.5927 10.4396C64.5947 10.5081 64.6465 11.2652 65.3374 11.3124C72.7598 11.8112 80.1643 11.2563 87.5377 10.7764C90.2804 10.5973 93.0203 10.4111 95.7619 10.2182C96.7151 10.1481 99.1977 10.0899 99.5392 10.0226C99.9062 9.94784 100.045 9.66642 100.096 9.44684C106.047 9.2095 112.006 9.0276 117.966 8.89719C119.135 8.93671 120.301 8.97942 121.468 9.02218C134.18 9.50286 146.891 10.0414 159.602 10.4536C152.526 10.6085 145.433 10.7957 138.372 11.1503C136.925 11.2228 135.482 11.3435 134.036 11.4298C133.246 11.4739 131.202 11.4379 130.915 11.5422C130.489 11.7025 130.427 12.1054 130.42 12.306C130.415 12.4284 130.457 13.1127 131.181 13.307C144.608 16.9247 158.268 18.0688 171.849 19.4089C175.422 19.7605 178.994 20.1291 182.565 20.5112C174.045 20.394 165.431 19.713 156.918 19.1629C156.84 19.0722 156.728 18.9844 156.568 18.922C156.333 18.8273 155.609 18.6909 154.291 18.5252C154.006 18.4897 153.753 18.6694 153.633 18.9564C151.61 18.8377 149.594 18.7298 147.587 18.6435C141.014 18.36 134.446 18.3639 127.875 18.1181L126.388 18.046L126.077 18.0315C124.938 17.9679 123.544 17.8825 122.618 17.8259C122.083 17.7895 120.693 17.7352 120.501 17.734C119.922 17.737 119.833 18.3929 119.829 18.4232C119.827 18.4401 119.851 19.4023 120.644 19.4542C121.176 19.4902 123.18 19.5933 125.99 19.7325C126.696 19.7712 127.315 19.8034 127.684 19.8177L127.969 19.8293C136.954 20.2584 151.351 20.8812 155.423 20.7735C168.689 21.6001 182.232 22.8471 195.306 21.8933C195.735 21.8597 195.92 21.6962 195.957 21.6594C196.156 21.4462 196.195 21.1978 196.183 20.9814C196.176 20.844 196.111 20.2869 195.566 20.14C195.183 20.0353 192.429 19.875 191.368 19.7588C184.877 19.0475 178.386 18.3463 171.894 17.7064C160.187 16.5503 148.42 15.5479 136.794 12.9598C137.361 12.9212 137.927 12.8861 138.494 12.8579C145.655 12.4973 152.847 12.3077 160.02 12.1535C182.296 11.6738 205.136 14.1468 227.293 12.595C227.747 12.5642 227.948 12.4025 227.986 12.3659C228.198 12.1507 228.236 11.892 228.224 11.6721C228.217 11.5381 228.147 10.9736 227.591 10.829C227.133 10.709 223.841 10.5324 222.572 10.4031C217.507 9.88658 212.438 9.36619 207.37 8.99624C199.005 8.38763 190.623 7.90695 182.246 7.57022C181.528 7.34583 180.784 7.13564 180.016 6.93979C185.663 7.01645 191.308 7.1509 196.951 7.36383C220.086 8.22741 243.222 9.55215 266.358 11.0851C275.94 11.7216 285.668 13.02 295.245 13.1574C295.585 13.1616 296.338 13.2739 296.708 13.278C296.92 13.2814 297.074 13.2407 297.148 13.208C297.454 13.0649 297.55 12.7923 297.58 12.5772C297.605 12.4093 297.65 11.8577 297.074 11.5264C284.697 4.4006 265.241 5.94946 252.464 4.82638C200.292 0.241338 148.155 0.0961749 96.1281 1.68121C75.327 2.31356 54.5788 2.96889 33.8334 4.41345C26.4713 4.92539 19.0973 5.2892 11.78 6.25013C10.825 6.37808 8.80305 6.47107 7.50871 6.59832C7.16027 6.63416 6.85719 6.6785 6.62367 6.72388ZM293.159 11.4025C280.975 6.28592 263.953 7.54251 252.431 6.53017C200.304 1.95017 148.211 1.80316 96.2288 3.38636C75.4424 4.02037 54.709 4.67403 33.9777 6.12018C28.7039 6.48512 23.4235 6.77754 18.163 7.26692C25.2027 7.52796 32.2433 7.67647 39.2926 7.73712C40.7582 7.66333 42.2139 7.60202 43.6547 7.56642C61.3512 7.12014 79.0878 6.70578 96.832 6.80444C102.698 6.6224 108.564 6.43006 114.435 6.24175C125.792 5.39482 141.295 4.17532 155.578 4.37205C160.491 4.44109 165.26 4.67835 169.671 5.15859C178.761 5.16929 187.845 5.31591 196.927 5.657C220.073 6.51843 243.22 7.84779 266.368 9.38227C275.25 9.97059 284.257 11.133 293.159 11.4025ZM182.135 9.27197C176.767 9.05945 171.402 8.90867 166.045 8.82031C163.661 8.78371 161.277 8.75051 158.892 8.72406C160.194 8.7685 161.497 8.80956 162.8 8.84717C168.914 9.03459 175.043 9.23391 181.155 9.27762C181.458 9.27772 181.866 9.30319 182.322 9.33418L182.143 9.27635L182.135 9.27197ZM215.213 11.3729C212.594 11.1254 209.974 10.8915 207.355 10.702C200.555 10.2085 193.746 9.79577 186.936 9.47867C187.101 9.61339 187.189 9.73952 187.23 9.81926C187.349 10.0445 187.371 10.262 187.348 10.4574C187.334 10.5787 187.299 10.7217 187.217 10.8559C196.568 11.1727 205.93 11.5145 215.213 11.3729ZM172.895 7.26036C171.868 7.11385 170.817 6.98159 169.743 6.86393C164.429 6.85895 159.115 6.89497 153.808 6.96583C157.869 7.00029 161.933 7.04877 165.996 7.1142C168.295 7.1514 170.595 7.19904 172.895 7.26036Z" fill="#FFDD00"/>
</svg>
