<svg width="56" height="55" viewBox="0 0 56 55" fill="none" xmlns="http://www.w3.org/2000/svg">
<g filter="url(#filter0_d)">
<path d="M22.3432 20L23.4744 21.1122C22.8792 21.6958 22.4072 22.3894 22.0856 23.153C21.7639 23.9165 21.5989 24.7351 21.6 25.5616C21.6 27.2998 22.316 28.8729 23.4744 30.011L22.344 31.1224C21.6 30.393 21.0099 29.5262 20.6076 28.5719C20.2054 27.6176 19.9989 26.5946 20 25.5616C19.9987 24.5285 20.205 23.5053 20.6071 22.5509C21.0092 21.5965 21.5992 20.7296 22.3432 20ZM33.6568 20C34.4008 20.7296 34.9908 21.5965 35.3929 22.5509C35.795 23.5053 36.0013 24.5285 36 25.5616C36.0013 26.5947 35.795 27.6178 35.3929 28.5723C34.9908 29.5267 34.4008 30.3936 33.6568 31.1232L32.5256 30.011C33.1208 29.4273 33.5928 28.7338 33.9144 27.9702C34.2361 27.2066 34.4011 26.3881 34.4 25.5616C34.4 23.8233 33.684 22.2503 32.5256 21.1122L33.656 20.0008L33.6568 20ZM24.6056 22.2243L25.7376 23.3373C25.44 23.629 25.2039 23.9757 25.043 24.3574C24.8821 24.7392 24.7995 25.1484 24.8 25.5616C24.8 26.4307 25.1584 27.2172 25.7376 27.7859L24.6056 28.8989C24.1592 28.4611 23.8053 27.9409 23.564 27.3681C23.3228 26.7954 23.1991 26.1815 23.2 25.5616C23.2 24.2583 23.7376 23.0785 24.6056 22.2243ZM31.3944 22.2243C31.8408 22.6621 32.1947 23.1823 32.436 23.755C32.6772 24.3278 32.8009 24.9417 32.8 25.5616C32.8009 26.1815 32.6772 26.7954 32.436 27.3681C32.1947 27.9409 31.8408 28.4611 31.3944 28.8989L30.2624 27.7859C30.56 27.4942 30.7961 27.1475 30.957 26.7657C31.1179 26.384 31.2005 25.9748 31.2 25.5616C31.2005 25.1484 31.1179 24.7392 30.957 24.3574C30.7961 23.9757 30.56 23.629 30.2624 23.3373L31.3944 22.2243ZM28 27.1347C27.5757 27.1347 27.1687 26.9689 26.8686 26.6739C26.5686 26.3789 26.4 25.9788 26.4 25.5616C26.4 25.1444 26.5686 24.7443 26.8686 24.4493C27.1687 24.1543 27.5757 23.9885 28 23.9885C28.4243 23.9885 28.8313 24.1543 29.1314 24.4493C29.4314 24.7443 29.6 25.1444 29.6 25.5616C29.6 25.9788 29.4314 26.3789 29.1314 26.6739C28.8313 26.9689 28.4243 27.1347 28 27.1347ZM27.2 28.7077H28.8V35H27.2V28.7077Z" fill="black"/>
</g>
<defs>
<filter id="filter0_d" x="0" y="0" width="56" height="55" filterUnits="userSpaceOnUse" color-interpolation-filters="sRGB">
<feFlood flood-opacity="0" result="BackgroundImageFix"/>
<feColorMatrix in="SourceAlpha" type="matrix" values="0 0 0 0 0 0 0 0 0 0 0 0 0 0 0 0 0 0 127 0" result="hardAlpha"/>
<feOffset/>
<feGaussianBlur stdDeviation="10"/>
<feComposite in2="hardAlpha" operator="out"/>
<feColorMatrix type="matrix" values="0 0 0 0 1 0 0 0 0 0.866667 0 0 0 0 0 0 0 0 1 0"/>
<feBlend mode="normal" in2="BackgroundImageFix" result="effect1_dropShadow"/>
<feBlend mode="normal" in="SourceGraphic" in2="effect1_dropShadow" result="shape"/>
</filter>
</defs>
</svg>
