<svg width="20" height="20" viewBox="0 0 20 20" fill="none" xmlns="http://www.w3.org/2000/svg">
<path fill-rule="evenodd" clip-rule="evenodd" d="M10.0009 0.933228C7.53848 0.933228 7.22946 0.943994 6.26234 0.988006C5.29711 1.03221 4.63825 1.18502 4.06176 1.40923C3.46543 1.64081 2.95958 1.95059 2.45562 2.45474C1.95128 2.9587 1.6415 3.46455 1.40917 4.06069C1.18439 4.63738 1.03138 5.29642 0.987939 6.26127C0.944683 7.22839 0.93335 7.53761 0.93335 9.99999C0.93335 12.4624 0.944305 12.7705 0.988128 13.7376C1.03252 14.7028 1.18533 15.3617 1.40935 15.9381C1.64112 16.5345 1.9509 17.0403 2.45505 17.5443C2.95883 18.0486 3.46468 18.3592 4.06063 18.5907C4.6375 18.815 5.29654 18.9678 6.26158 19.012C7.2287 19.056 7.53754 19.0667 9.99973 19.0667C12.4623 19.0667 12.7704 19.056 13.7375 19.012C14.7027 18.9678 15.3623 18.815 15.9392 18.5907C16.5354 18.3592 17.0404 18.0486 17.5442 17.5443C18.0486 17.0403 18.3583 16.5345 18.5907 15.9383C18.8136 15.3617 18.9666 14.7026 19.0119 13.7378C19.0553 12.7706 19.0667 12.4624 19.0667 9.99999C19.0667 7.53761 19.0553 7.22858 19.0119 6.26146C18.9666 5.29623 18.8136 4.63738 18.5907 4.06088C18.3583 3.46455 18.0486 2.9587 17.5442 2.45474C17.0399 1.9504 16.5355 1.64062 15.9386 1.40923C15.3606 1.18502 14.7014 1.03221 13.7362 0.988006C12.7691 0.943994 12.4612 0.933228 9.99803 0.933228H10.0009ZM5.34448 10C5.34448 7.42866 7.42927 5.34387 10.0006 5.34387C12.5719 5.34397 14.656 7.42872 14.656 10C14.656 12.5714 12.572 14.6552 10.0006 14.6552C7.42927 14.6552 5.34448 12.5714 5.34448 10ZM13.0228 10C13.0228 8.33081 11.6696 6.97778 10.0005 6.97778C8.3313 6.97778 6.97827 8.33081 6.97827 10C6.97827 11.6691 8.3313 13.0223 10.0005 13.0223C11.6696 13.0223 13.0228 11.6691 13.0228 10ZM13.7524 5.16031C13.7524 4.55945 14.2398 4.07267 14.8405 4.07267V4.0723C15.4411 4.0723 15.9285 4.55963 15.9285 5.16031C15.9285 5.76098 15.4411 6.24832 14.8405 6.24832C14.2398 6.24832 13.7524 5.76098 13.7524 5.16031Z" fill="#5A5471"/>
</svg>
