<svg width="116" height="14" viewBox="0 0 116 14" fill="none" xmlns="http://www.w3.org/2000/svg">
<path fill-rule="evenodd" clip-rule="evenodd" d="M53.4237 2.03896C53.0043 2.06307 52.5853 2.08905 52.166 2.11315C46.6105 2.33748 41.0535 2.60629 35.4909 2.93815C31.9969 3.14579 29.564 3.30337 27.5628 3.44798C18.513 3.93557 9.48519 4.64007 0.519973 5.63379C0.355221 5.65233 0.271738 5.68567 0.26128 5.69123C0.0242428 5.80432 0.00387869 5.99901 0.000392848 6.09356C-0.00419379 6.22705 0.0286479 6.40314 0.244954 6.51994C0.270822 6.53291 0.328434 6.56444 0.427322 6.57185C0.467868 6.57556 0.960281 6.54037 1.89155 6.46806C1.84202 6.57189 1.83982 6.67197 1.85853 6.76281C1.87724 6.8518 1.95926 7.11136 2.30454 7.13917C2.58414 7.16142 4.52117 6.87961 5.27338 6.80545C7.88464 6.54961 10.4924 6.25483 13.1055 6.01752C17.1937 5.64488 21.2848 5.30749 25.3764 4.97934C28.1658 4.75316 30.9554 4.53253 33.7463 4.31747C37.2512 4.095 40.7576 3.8892 44.2651 3.7038C54.3429 3.42757 64.421 3.36452 74.4418 3.41458C86.3836 3.47576 98.3878 3.3775 110.252 4.80318L109.662 4.82545L109.451 4.83287C104.288 4.35455 98.0777 4.72533 93.7039 4.68084C74.8712 4.49173 56.3377 5.1091 37.5771 6.62562C30.2137 7.22259 22.8543 8.05503 15.5302 9.00982C12.9971 9.34167 6.41948 10.1222 5.52399 10.4132C5.21815 10.5115 5.13577 10.7247 5.11797 10.7989C5.09119 10.9101 5.10275 11.0176 5.15504 11.1233C5.18898 11.1919 5.24658 11.2716 5.35923 11.3328C5.40216 11.3569 5.47996 11.3884 5.6016 11.4051C5.71278 11.4199 5.91055 11.4292 6.2074 11.4292C30.1353 11.331 53.9722 8.47774 77.8598 7.25414C86.6753 6.80177 95.4908 6.37351 104.308 5.95637C106.035 5.8748 107.763 5.82102 109.491 5.75799C109.854 5.79321 110.21 5.83213 110.561 5.87662L106.591 6.088C98.6776 6.50884 90.7868 7.10582 82.8886 7.76212C64.5971 9.2805 46.3893 11.8074 28.0822 13.0736C27.8297 13.0922 27.6387 13.3128 27.656 13.5686C27.6732 13.8245 27.8925 14.0173 28.1449 13.9988C46.456 12.7325 64.6687 10.2038 82.9638 8.68538C90.8528 8.03093 98.7345 7.43396 106.638 7.01311C109.449 6.8648 113.384 6.65527 114.135 6.61263C114.225 6.60707 114.276 6.6034 114.285 6.60154C114.502 6.57744 114.579 6.44764 114.59 6.43281C114.702 6.29376 114.711 6.15101 114.676 6.01938C114.654 5.93781 114.597 5.76724 114.364 5.69679C114.302 5.67825 114.239 5.65971 114.175 5.64302C114.865 5.6319 115.441 5.6171 115.6 5.58002C115.938 5.5003 115.991 5.23702 115.999 5.14061C116.006 5.03864 115.986 4.92927 115.905 4.82174C115.872 4.77724 115.817 4.7179 115.718 4.6697C115.668 4.64745 115.556 4.61038 115.36 4.57886C109.045 3.57217 102.683 3.06607 96.3018 2.80281L100.259 2.83431C100.314 2.83431 100.34 2.83246 100.345 2.83246C100.578 2.81206 100.659 2.66745 100.677 2.6415C100.765 2.51728 100.782 2.38935 100.751 2.26328C100.749 2.25401 100.698 2.00743 100.452 1.92956L103.018 1.89621C103.539 1.89064 103.798 1.88326 103.844 1.87955C104.07 1.8573 104.15 1.72378 104.167 1.70153C104.275 1.56434 104.286 1.42159 104.246 1.28254C104.229 1.22507 104.172 1.01743 103.895 0.961811C103.881 0.958103 103.809 0.948864 103.684 0.94701C102.545 0.926617 94.3222 0.943272 91.1592 0.961811C86.0791 0.991474 80.9971 1.02302 75.9169 1.12684C72.2238 1.201 68.5343 1.31777 64.8448 1.46979C54.4614 1.21765 44.0886 0.789407 33.8393 0.00148001C33.5869 -0.0189134 33.3663 0.173906 33.3471 0.427896C33.328 0.683741 33.5173 0.906204 33.7696 0.926597C40.2811 1.42531 46.8424 1.78312 53.4237 2.03896ZM92.4637 5.59667C74.0823 5.4465 55.975 6.06758 37.6503 7.55074C30.3015 8.144 22.9571 8.97644 15.6476 9.92937C14.7061 10.0536 13.1961 10.2371 11.635 10.4336C33.7245 9.98127 55.7473 7.45807 77.8139 6.32716C82.696 6.07688 87.5798 5.83398 92.4637 5.59667Z" fill="#FFDD00"/>
</svg>
