<svg width="18" height="18" viewBox="0 0 18 18" fill="none" xmlns="http://www.w3.org/2000/svg">
<path d="M4.0933 6.0022H0.240723V17.5776H4.0933V6.0022Z" fill="#5A5471"/>
<path d="M4.34694 2.42153C4.32194 1.28657 3.51032 0.422119 2.19238 0.422119C0.874441 0.422119 0.0128174 1.28657 0.0128174 2.42153C0.0128174 3.53298 0.848975 4.42232 2.14237 4.42232H2.16699C3.51032 4.42232 4.34694 3.53298 4.34694 2.42153Z" fill="#5A5471"/>
<path d="M17.9871 10.9406C17.9871 7.38517 16.0865 5.73041 13.5513 5.73041C11.5059 5.73041 10.5901 6.85392 10.0787 7.64208V6.00253H6.22571C6.27649 7.0887 6.22571 17.5779 6.22571 17.5779H10.0787V11.1133C10.0787 10.7673 10.1037 10.4222 10.2056 10.1745C10.484 9.48338 11.118 8.76782 12.1824 8.76782C13.577 8.76782 14.1345 9.82926 14.1345 11.3848V17.5776H17.9869L17.9871 10.9406Z" fill="#5A5471"/>
</svg>
