<svg width="513" height="193" viewBox="0 0 513 193" fill="none" xmlns="http://www.w3.org/2000/svg">
<path fill-rule="evenodd" clip-rule="evenodd" d="M11.413 98.6606C8.03024 98.4734 4.65216 98.2632 1.27471 98.0353C0.614837 97.9904 0.0755913 98.6121 0.0711435 99.4236C0.0666958 100.235 0.598824 100.931 1.2587 100.976C4.29891 101.177 7.33955 101.367 10.3782 101.545C10.5499 101.694 10.8936 101.915 11.4786 102.057C29.7043 106.354 49.2984 104.262 67.8533 103.348C85.2638 103.493 102.678 103.32 120.094 102.978C118.021 103.15 115.948 103.316 113.875 103.471C113.443 103.505 112.325 103.596 112.172 103.638C111.296 103.898 111.287 104.827 111.294 105.063C111.298 105.181 111.387 106.485 112.578 106.567C125.366 107.426 138.124 106.47 150.829 105.643C155.555 105.335 160.275 105.014 164.999 104.681C166.642 104.561 170.919 104.46 171.507 104.344C172.14 104.216 172.379 103.731 172.468 103.352C182.721 102.943 192.988 102.63 203.258 102.405C205.271 102.473 207.28 102.547 209.29 102.621C231.195 103.449 253.095 104.377 274.996 105.087C262.805 105.354 250.584 105.676 238.417 106.287C235.924 106.412 233.438 106.62 230.947 106.769C229.586 106.845 226.062 106.783 225.569 106.963C224.834 107.239 224.728 107.933 224.715 108.279C224.707 108.49 224.78 109.669 226.027 110.003C249.162 116.237 272.699 118.208 296.099 120.517C302.254 121.123 308.409 121.758 314.561 122.416C299.881 122.214 285.039 121.041 270.372 120.093C270.237 119.937 270.044 119.786 269.769 119.678C269.364 119.515 268.116 119.28 265.845 118.994C265.355 118.933 264.918 119.243 264.712 119.737C261.227 119.533 257.752 119.347 254.294 119.198C242.969 118.71 231.653 118.716 220.331 118.293L217.768 118.169L217.233 118.144C215.27 118.034 212.868 117.887 211.273 117.79C210.351 117.727 207.956 117.633 207.625 117.631C206.627 117.636 206.474 118.766 206.468 118.819C206.464 118.848 206.505 120.506 207.872 120.595C208.787 120.657 212.241 120.835 217.082 121.075C218.299 121.141 219.366 121.197 220.002 121.222L220.492 121.241C235.973 121.981 260.779 123.054 267.796 122.868C290.654 124.292 313.989 126.441 336.515 124.798C337.254 124.74 337.574 124.458 337.636 124.395C337.98 124.027 338.046 123.599 338.027 123.227C338.014 122.99 337.903 122.03 336.963 121.777C336.302 121.596 331.557 121.32 329.729 121.12C318.546 119.894 307.362 118.686 296.176 117.584C276.004 115.592 255.729 113.864 235.698 109.405C236.674 109.339 237.651 109.278 238.628 109.23C250.965 108.608 263.357 108.282 275.716 108.016C314.098 107.189 353.452 111.45 391.629 108.777C392.411 108.724 392.757 108.445 392.823 108.382C393.188 108.011 393.254 107.565 393.233 107.186C393.221 106.956 393.101 105.983 392.143 105.734C391.353 105.527 385.68 105.223 383.495 105C374.768 104.11 366.033 103.213 357.301 102.576C342.888 101.527 328.446 100.699 314.012 100.119C312.775 99.7323 311.493 99.3701 310.17 99.0326C319.9 99.1647 329.626 99.3964 339.35 99.7633C379.211 101.251 419.075 103.534 458.938 106.175C475.448 107.272 492.21 109.509 508.712 109.746C509.297 109.753 510.594 109.946 511.232 109.954C511.597 109.959 511.863 109.889 511.99 109.833C512.516 109.586 512.682 109.117 512.733 108.746C512.777 108.457 512.854 107.506 511.863 106.936C490.537 94.6576 457.013 97.3263 434.999 95.3912C345.106 87.4911 255.272 87.241 165.63 89.972C129.79 91.0616 94.0402 92.1907 58.2956 94.6797C45.6108 95.5618 32.9053 96.1887 20.2974 97.8444C18.6519 98.0648 15.1681 98.225 12.9379 98.4443C12.3376 98.506 11.8153 98.5824 11.413 98.6606ZM505.116 106.722C484.123 97.906 454.795 100.071 434.942 98.3269C345.127 90.4355 255.37 90.1822 165.804 92.91C129.988 94.0024 94.2646 95.1287 58.5444 97.6205C49.4575 98.2492 40.3592 98.7531 31.2954 99.5963C43.4248 100.046 55.5559 100.302 67.702 100.406C70.2272 100.279 72.7354 100.174 75.218 100.112C105.709 99.3434 136.27 98.6294 166.843 98.7994C176.95 98.4858 187.058 98.1544 197.174 97.8299C216.742 96.3706 243.453 94.2694 268.063 94.6084C276.528 94.7274 284.746 95.1362 292.345 95.9636C308.007 95.9821 323.659 96.2347 339.307 96.8224C379.188 98.3066 419.071 100.597 458.956 103.241C474.26 104.255 489.778 106.258 505.116 106.722ZM313.82 103.051C304.572 102.685 295.328 102.425 286.098 102.273C281.99 102.21 277.882 102.153 273.773 102.107C276.017 102.184 278.262 102.254 280.506 102.319C291.041 102.642 301.601 102.985 312.132 103.061C312.655 103.061 313.357 103.105 314.144 103.158L313.835 103.059L313.82 103.051ZM370.815 106.671C366.302 106.244 361.789 105.841 357.275 105.515C345.559 104.665 333.826 103.954 322.093 103.407C322.377 103.639 322.529 103.857 322.6 103.994C322.806 104.382 322.843 104.757 322.803 105.094C322.778 105.303 322.718 105.549 322.577 105.78C338.689 106.326 354.82 106.915 370.815 106.671ZM297.901 99.585C296.131 99.3326 294.32 99.1047 292.47 98.9019C283.314 98.8934 274.158 98.9554 265.013 99.0775C272.01 99.1369 279.013 99.2204 286.014 99.3332C289.974 99.3973 293.937 99.4793 297.901 99.585Z" fill="black"/>
<g>
<path d="M98.5506 52.7903C95.03 54.2951 91.5095 56.3013 87.9889 58.642C84.4684 60.9827 81.4508 63.4905 78.9361 66.4999C76.4214 69.3422 74.4097 72.5188 73.2362 75.6954C72.0627 78.872 71.895 82.2158 72.7332 85.5596C73.5715 88.9034 75.2479 91.9128 77.7626 94.4207C80.2773 96.9285 83.2949 98.9348 86.8154 100.439C90.336 101.944 94.3595 102.78 98.7182 102.947C103.077 103.115 107.603 102.613 112.298 101.443L122.189 80.2095L130.403 120.837L111.627 109.635C105.759 110.972 100.227 111.474 94.8624 110.972C89.4978 110.471 84.636 109.301 80.2773 107.294C75.9185 105.288 72.0627 102.613 69.045 99.2692C66.0274 95.9254 63.848 92.08 62.8422 87.7331C61.6686 83.2189 61.6686 78.7048 63.1775 74.3579C64.5186 70.0109 66.8657 65.8312 70.0509 61.8186C73.2362 57.806 77.2597 54.2951 81.9537 50.9513C86.6478 47.6075 91.6771 44.7652 97.0418 42.2574C98.0477 40.4183 99.3888 38.0776 100.73 35.5698C102.239 32.8947 103.58 30.5541 104.921 28.0462C106.262 25.7056 107.436 23.6993 108.274 22.1946C109.112 20.6899 109.615 19.8539 109.448 20.0211C109.28 20.1883 109.448 21.0242 109.448 22.6961C109.448 24.368 109.783 26.5415 109.95 29.2165C110.286 31.8916 110.453 34.901 110.789 38.2448C111.124 41.5886 111.459 45.0996 111.795 48.6106C112.13 52.1216 112.465 55.6326 112.8 58.9764C113.136 62.3202 113.303 65.3296 113.639 68.0046L98.5506 52.7903Z" fill="white"/>
<path d="M129.565 72.3516L156.221 70.8469L156.891 89.2378C158.065 87.2315 159.406 84.8908 160.915 82.0486C162.424 79.2064 164.1 76.8657 165.777 74.3578C167.453 72.0172 169.297 70.0109 170.974 68.339C172.65 66.8343 174.326 66.1655 176.003 66.3327C177.176 66.4999 178.518 66.8343 179.691 67.5031C181.032 68.1718 182.206 68.8406 183.212 69.6765C184.385 70.5125 185.223 71.5156 185.894 72.5188C186.565 73.6891 186.9 74.8594 187.067 76.0297C187.235 77.2001 186.9 78.3704 186.397 79.7079C185.894 80.8783 185.223 82.0486 184.217 83.0517C183.212 84.0549 182.206 84.8908 181.032 85.5596C179.859 86.2283 178.685 86.5627 177.512 86.7299C175.5 86.8971 173.656 86.2283 171.979 84.7236C170.303 83.2189 169.297 81.3798 169.129 79.0392C168.124 80.0423 167.118 81.3798 165.944 83.2189C164.771 84.8908 163.597 86.7299 162.591 88.7362C161.418 90.7425 160.412 92.7487 159.574 94.755C158.735 96.7613 158.065 98.6004 157.73 100.105L158.065 108.465L187.906 123.846L127.386 116.991L149.515 111.14V81.0454L129.565 72.3516Z" fill="white"/>
<path d="M242.055 135.215C239.037 135.382 235.684 134.713 232.331 133.543C228.978 132.373 225.625 130.701 222.272 128.527C219.087 126.354 215.902 123.846 212.884 120.837C209.867 117.827 207.352 114.651 205.005 111.307C202.658 107.963 200.814 104.452 199.473 100.774C198.131 97.0957 197.293 93.5847 197.293 90.0737C197.126 87.5659 197.796 84.8908 198.802 82.2158C199.976 79.5407 201.484 77.0329 203.328 74.6922C205.34 72.3516 207.52 70.5125 210.034 69.0078C212.549 67.5031 215.064 66.4999 217.578 66.1655C220.764 65.8312 224.116 66.3327 227.302 67.8374C230.487 69.3422 233.672 71.1812 236.522 73.5219C239.372 75.8626 241.887 78.5376 244.066 81.3798C246.246 84.2221 247.922 87.0643 249.263 89.405L210.537 94.0863C210.705 97.4301 211.375 100.941 212.717 104.118C214.058 107.461 215.734 110.638 217.914 113.815C220.093 116.991 222.608 120.001 225.625 123.01C228.643 126.02 231.828 128.862 235.181 131.537L238.031 132.206L237.696 130.868C237.36 129.698 237.36 128.527 237.696 127.357C238.031 126.187 238.534 125.184 239.205 124.348C239.875 123.512 240.881 123.01 241.719 122.843C242.557 122.676 243.396 122.843 244.402 123.345C245.407 123.846 245.91 124.515 246.413 125.518C246.916 126.521 247.252 127.691 247.419 129.196C247.587 130.701 247.252 131.871 246.581 132.874C246.078 133.71 245.407 134.212 244.569 134.546C244.066 135.048 243.06 135.215 242.055 135.215L241.719 135.048L242.055 135.215ZM208.861 84.5564L236.522 83.2189C235.852 82.0486 234.846 81.0455 233.672 80.0423C232.499 79.0392 230.99 78.036 229.481 77.2001C227.972 76.3641 226.464 75.6954 224.787 75.361C223.111 74.8594 221.602 74.8594 220.093 75.0266C217.578 75.361 215.399 76.3641 213.555 78.036C211.711 79.7079 210.202 81.8814 208.861 84.5564Z" fill="white"/>
<path d="M300.395 135.215C297.378 135.382 294.025 134.713 290.672 133.543C287.319 132.373 283.966 130.701 280.613 128.527C277.428 126.354 274.243 123.846 271.225 120.837C268.207 117.827 265.693 114.651 263.346 111.307C260.999 107.963 259.155 104.452 257.813 100.774C256.472 97.0957 255.634 93.5847 255.634 90.0737C255.466 87.5659 256.137 84.8908 257.143 82.2158C258.316 79.5407 259.825 77.0329 261.669 74.6922C263.681 72.3516 265.86 70.5125 268.375 69.0078C270.89 67.5031 273.404 66.4999 275.919 66.1655C279.104 65.8312 282.457 66.3327 285.643 67.8374C288.828 69.3422 292.013 71.1812 294.863 73.5219C297.713 75.8626 300.228 78.5376 302.407 81.3798C304.586 84.2221 306.263 87.0643 307.604 89.405L268.878 94.0863C269.046 97.4301 269.716 100.941 271.057 104.118C272.399 107.461 274.075 110.638 276.254 113.815C278.434 116.991 280.948 120.001 283.966 123.01C286.984 126.02 290.169 128.862 293.522 131.537L296.372 132.206L296.037 130.868C295.701 129.698 295.701 128.527 296.037 127.357C296.372 126.187 296.875 125.184 297.545 124.348C298.216 123.512 299.222 123.01 300.06 122.843C300.898 122.676 301.737 122.843 302.742 123.345C303.748 123.846 304.251 124.515 304.754 125.518C305.257 126.521 305.592 127.691 305.76 129.196C305.928 130.701 305.592 131.871 304.922 132.874C304.419 133.71 303.748 134.212 302.91 134.546C302.239 135.048 301.401 135.215 300.395 135.215L300.06 135.048L300.395 135.215ZM267.202 84.5564L294.863 83.2189C294.192 82.0486 293.187 81.0455 292.013 80.0423C290.84 79.0392 289.331 78.036 287.822 77.2001C286.313 76.3641 284.804 75.6954 283.128 75.361C281.451 74.8594 279.943 74.8594 278.434 75.0266C275.919 75.361 273.74 76.3641 271.896 78.036C270.052 79.7079 268.375 81.8814 267.202 84.5564Z" fill="white"/>
<path d="M311.292 173L329.565 153.439L324.704 78.5376L304.251 70.8469L335.265 67.8374L336.271 82.383L339.456 80.2095C341.971 78.7048 344.653 77.7016 347.503 77.0329C350.353 76.3641 353.036 76.1969 355.383 76.1969C357.227 76.3641 359.071 76.8657 360.915 77.8688C362.759 78.872 364.436 80.3767 365.944 82.0486C367.453 83.7205 368.627 85.5596 369.465 87.5659C370.303 89.5721 370.638 91.7456 370.638 93.7519C370.471 96.2597 369.968 98.7676 369.13 101.443C368.291 104.118 367.118 106.626 365.441 108.966C363.765 111.307 361.586 113.146 359.071 114.651C356.556 116.155 353.371 116.824 349.683 116.824C347.001 116.824 344.318 116.155 341.636 114.985L338.618 112.979L341.301 151.098L362.089 160.795L311.292 173ZM347.503 108.632C349.515 108.632 351.192 108.297 352.533 107.461C353.874 106.793 354.88 105.79 355.718 104.619C356.556 103.449 357.059 102.279 357.562 100.774C357.897 99.4363 358.065 98.0988 358.065 96.9285C358.065 95.9254 357.73 94.9222 357.227 93.7519C356.724 92.7487 356.053 91.7456 355.215 90.9097C354.377 90.0737 353.539 89.4049 352.365 88.9034C351.192 88.4018 350.353 88.0674 349.348 88.0674C347.336 87.9002 345.324 88.4018 342.977 89.0706C340.63 89.9065 338.954 91.0769 337.612 92.5816L336.774 93.9191L337.445 102.446L337.78 103.282C338.954 104.786 340.295 106.124 341.971 106.96C343.983 107.963 345.827 108.465 347.503 108.632Z" fill="white"/>
<path d="M418.418 94.0863L408.024 75.1938C402.659 75.8626 398.803 77.2001 396.792 78.872C394.612 80.7111 393.606 83.0517 393.439 86.0611C393.271 87.3987 393.606 88.569 394.277 89.5721C394.947 90.5753 395.786 91.5784 396.792 92.4144C397.797 93.2503 399.139 93.9191 400.647 94.5878C402.156 95.2566 403.665 95.9254 405.341 96.4269C407.186 97.2629 409.03 98.266 410.706 99.4364C412.383 100.607 413.724 102.111 414.897 103.616C416.071 105.121 416.909 106.793 417.412 108.632C417.915 110.304 418.082 112.143 417.915 113.982C417.58 116.49 416.574 118.83 414.897 121.004C413.221 123.177 411.209 125.016 408.862 126.521C406.515 128.026 404 129.363 401.318 130.534C398.636 131.537 395.953 132.373 393.439 132.874L379.859 143.742V108.799L396.121 123.512C397.63 123.846 398.971 123.846 400.48 123.512C401.821 123.177 403.162 122.843 404.336 122.174C405.509 121.505 406.515 120.502 407.186 119.332C407.856 118.162 408.359 116.824 408.359 115.152C408.359 112.644 408.024 110.137 406.85 107.629C405.844 105.121 403.665 103.115 400.815 101.777C399.139 100.941 397.294 99.9379 395.115 98.9348C393.103 97.9316 391.092 96.7613 389.415 95.591C387.739 94.4207 386.23 92.9159 385.056 91.4112C383.883 89.9065 383.38 88.2346 383.548 86.2283C383.548 83.5533 384.386 81.0454 386.062 78.872C387.571 76.5313 389.583 74.6922 392.097 73.0203C394.612 71.3484 397.294 70.0109 400.312 69.175C403.33 68.1718 406.347 67.8374 409.533 67.8374L424.788 51.62L418.418 94.0863Z" fill="white"/>
</g>
<g>
<path d="M98.5506 52.7903C95.03 54.2951 91.5095 56.3013 87.9889 58.642C84.4684 60.9827 81.4508 63.4905 78.9361 66.4999C76.4214 69.3422 74.4097 72.5188 73.2362 75.6954C72.0627 78.872 71.895 82.2158 72.7332 85.5596C73.5715 88.9034 75.2479 91.9128 77.7626 94.4207C80.2773 96.9285 83.2949 98.9348 86.8154 100.439C90.336 101.944 94.3595 102.78 98.7182 102.947C103.077 103.115 107.603 102.613 112.298 101.443L122.189 80.2095L130.403 120.837L111.627 109.635C105.759 110.972 100.227 111.474 94.8624 110.972C89.4978 110.471 84.636 109.301 80.2773 107.294C75.9185 105.288 72.0627 102.613 69.045 99.2692C66.0274 95.9254 63.848 92.08 62.8422 87.7331C61.6686 83.2189 61.6686 78.7048 63.1775 74.3579C64.5186 70.0109 66.8657 65.8312 70.0509 61.8186C73.2362 57.806 77.2597 54.2951 81.9537 50.9513C86.6478 47.6075 91.6771 44.7652 97.0418 42.2574C98.0477 40.4183 99.3888 38.0776 100.73 35.5698C102.239 32.8947 103.58 30.5541 104.921 28.0462C106.262 25.7056 107.436 23.6993 108.274 22.1946C109.112 20.6899 109.615 19.8539 109.448 20.0211C109.28 20.1883 109.448 21.0242 109.448 22.6961C109.448 24.368 109.783 26.5415 109.95 29.2165C110.286 31.8916 110.453 34.901 110.789 38.2448C111.124 41.5886 111.459 45.0996 111.795 48.6106C112.13 52.1216 112.465 55.6326 112.8 58.9764C113.136 62.3202 113.303 65.3296 113.639 68.0046L98.5506 52.7903Z" fill="#FFDD00"/>
<path d="M129.565 72.3516L156.221 70.8469L156.891 89.2378C158.065 87.2315 159.406 84.8908 160.915 82.0486C162.424 79.2064 164.1 76.8657 165.777 74.3578C167.453 72.0172 169.297 70.0109 170.974 68.339C172.65 66.8343 174.326 66.1655 176.003 66.3327C177.176 66.4999 178.518 66.8343 179.691 67.5031C181.032 68.1718 182.206 68.8406 183.212 69.6765C184.385 70.5125 185.223 71.5156 185.894 72.5188C186.565 73.6891 186.9 74.8594 187.067 76.0297C187.235 77.2001 186.9 78.3704 186.397 79.7079C185.894 80.8783 185.223 82.0486 184.217 83.0517C183.212 84.0549 182.206 84.8908 181.032 85.5596C179.859 86.2283 178.685 86.5627 177.512 86.7299C175.5 86.8971 173.656 86.2283 171.979 84.7236C170.303 83.2189 169.297 81.3798 169.129 79.0392C168.124 80.0423 167.118 81.3798 165.944 83.2189C164.771 84.8908 163.597 86.7299 162.591 88.7362C161.418 90.7425 160.412 92.7487 159.574 94.755C158.735 96.7613 158.065 98.6004 157.73 100.105L158.065 108.465L187.906 123.846L127.386 116.991L149.515 111.14V81.0454L129.565 72.3516Z" fill="#FFDD00"/>
<path d="M242.055 135.215C239.037 135.382 235.684 134.713 232.331 133.543C228.978 132.373 225.625 130.701 222.272 128.527C219.087 126.354 215.902 123.846 212.884 120.837C209.867 117.827 207.352 114.651 205.005 111.307C202.658 107.963 200.814 104.452 199.473 100.774C198.131 97.0957 197.293 93.5847 197.293 90.0737C197.126 87.5659 197.796 84.8908 198.802 82.2158C199.976 79.5407 201.484 77.0329 203.328 74.6922C205.34 72.3516 207.52 70.5125 210.034 69.0078C212.549 67.5031 215.064 66.4999 217.578 66.1655C220.764 65.8312 224.116 66.3327 227.302 67.8374C230.487 69.3422 233.672 71.1812 236.522 73.5219C239.372 75.8626 241.887 78.5376 244.066 81.3798C246.246 84.2221 247.922 87.0643 249.263 89.405L210.537 94.0863C210.705 97.4301 211.375 100.941 212.717 104.118C214.058 107.461 215.734 110.638 217.914 113.815C220.093 116.991 222.608 120.001 225.625 123.01C228.643 126.02 231.828 128.862 235.181 131.537L238.031 132.206L237.696 130.868C237.36 129.698 237.36 128.527 237.696 127.357C238.031 126.187 238.534 125.184 239.205 124.348C239.875 123.512 240.881 123.01 241.719 122.843C242.557 122.676 243.396 122.843 244.402 123.345C245.407 123.846 245.91 124.515 246.413 125.518C246.916 126.521 247.252 127.691 247.419 129.196C247.587 130.701 247.252 131.871 246.581 132.874C246.078 133.71 245.407 134.212 244.569 134.546C244.066 135.048 243.06 135.215 242.055 135.215L241.719 135.048L242.055 135.215ZM208.861 84.5564L236.522 83.2189C235.852 82.0486 234.846 81.0455 233.672 80.0423C232.499 79.0392 230.99 78.036 229.481 77.2001C227.972 76.3641 226.464 75.6954 224.787 75.361C223.111 74.8594 221.602 74.8594 220.093 75.0266C217.578 75.361 215.399 76.3641 213.555 78.036C211.711 79.7079 210.202 81.8814 208.861 84.5564Z" fill="#FFDD00"/>
<path d="M300.395 135.215C297.378 135.382 294.025 134.713 290.672 133.543C287.319 132.373 283.966 130.701 280.613 128.527C277.428 126.354 274.243 123.846 271.225 120.837C268.207 117.827 265.693 114.651 263.346 111.307C260.999 107.963 259.155 104.452 257.813 100.774C256.472 97.0957 255.634 93.5847 255.634 90.0737C255.466 87.5659 256.137 84.8908 257.143 82.2158C258.316 79.5407 259.825 77.0329 261.669 74.6922C263.681 72.3516 265.86 70.5125 268.375 69.0078C270.89 67.5031 273.404 66.4999 275.919 66.1655C279.104 65.8312 282.457 66.3327 285.643 67.8374C288.828 69.3422 292.013 71.1812 294.863 73.5219C297.713 75.8626 300.228 78.5376 302.407 81.3798C304.586 84.2221 306.263 87.0643 307.604 89.405L268.878 94.0863C269.046 97.4301 269.716 100.941 271.057 104.118C272.399 107.461 274.075 110.638 276.254 113.815C278.434 116.991 280.948 120.001 283.966 123.01C286.984 126.02 290.169 128.862 293.522 131.537L296.372 132.206L296.037 130.868C295.701 129.698 295.701 128.527 296.037 127.357C296.372 126.187 296.875 125.184 297.545 124.348C298.216 123.512 299.222 123.01 300.06 122.843C300.898 122.676 301.737 122.843 302.742 123.345C303.748 123.846 304.251 124.515 304.754 125.518C305.257 126.521 305.592 127.691 305.76 129.196C305.928 130.701 305.592 131.871 304.922 132.874C304.419 133.71 303.748 134.212 302.91 134.546C302.239 135.048 301.401 135.215 300.395 135.215L300.06 135.048L300.395 135.215ZM267.202 84.5564L294.863 83.2189C294.192 82.0486 293.187 81.0455 292.013 80.0423C290.84 79.0392 289.331 78.036 287.822 77.2001C286.313 76.3641 284.804 75.6954 283.128 75.361C281.451 74.8594 279.943 74.8594 278.434 75.0266C275.919 75.361 273.74 76.3641 271.896 78.036C270.052 79.7079 268.375 81.8814 267.202 84.5564Z" fill="#FFDD00"/>
<path d="M311.292 173L329.565 153.439L324.704 78.5376L304.251 70.8469L335.265 67.8374L336.271 82.383L339.456 80.2095C341.971 78.7048 344.653 77.7016 347.503 77.0329C350.353 76.3641 353.036 76.1969 355.383 76.1969C357.227 76.3641 359.071 76.8657 360.915 77.8688C362.759 78.872 364.436 80.3767 365.944 82.0486C367.453 83.7205 368.627 85.5596 369.465 87.5659C370.303 89.5721 370.638 91.7456 370.638 93.7519C370.471 96.2597 369.968 98.7676 369.13 101.443C368.291 104.118 367.118 106.626 365.441 108.966C363.765 111.307 361.586 113.146 359.071 114.651C356.556 116.155 353.371 116.824 349.683 116.824C347.001 116.824 344.318 116.155 341.636 114.985L338.618 112.979L341.301 151.098L362.089 160.795L311.292 173ZM347.503 108.632C349.515 108.632 351.192 108.297 352.533 107.461C353.874 106.793 354.88 105.79 355.718 104.619C356.556 103.449 357.059 102.279 357.562 100.774C357.897 99.4363 358.065 98.0988 358.065 96.9285C358.065 95.9254 357.73 94.9222 357.227 93.7519C356.724 92.7487 356.053 91.7456 355.215 90.9097C354.377 90.0737 353.539 89.4049 352.365 88.9034C351.192 88.4018 350.353 88.0674 349.348 88.0674C347.336 87.9002 345.324 88.4018 342.977 89.0706C340.63 89.9065 338.954 91.0769 337.612 92.5816L336.774 93.9191L337.445 102.446L337.78 103.282C338.954 104.786 340.295 106.124 341.971 106.96C343.983 107.963 345.827 108.465 347.503 108.632Z" fill="#FFDD00"/>
<path d="M418.418 94.0863L408.024 75.1938C402.659 75.8626 398.803 77.2001 396.792 78.872C394.612 80.7111 393.606 83.0517 393.439 86.0611C393.271 87.3987 393.606 88.569 394.277 89.5721C394.947 90.5753 395.786 91.5784 396.792 92.4144C397.797 93.2503 399.139 93.9191 400.647 94.5878C402.156 95.2566 403.665 95.9254 405.341 96.4269C407.186 97.2629 409.03 98.266 410.706 99.4364C412.383 100.607 413.724 102.111 414.897 103.616C416.071 105.121 416.909 106.793 417.412 108.632C417.915 110.304 418.082 112.143 417.915 113.982C417.58 116.49 416.574 118.83 414.897 121.004C413.221 123.177 411.209 125.016 408.862 126.521C406.515 128.026 404 129.363 401.318 130.534C398.636 131.537 395.953 132.373 393.439 132.874L379.859 143.742V108.799L396.121 123.512C397.63 123.846 398.971 123.846 400.48 123.512C401.821 123.177 403.162 122.843 404.336 122.174C405.509 121.505 406.515 120.502 407.186 119.332C407.856 118.162 408.359 116.824 408.359 115.152C408.359 112.644 408.024 110.137 406.85 107.629C405.844 105.121 403.665 103.115 400.815 101.777C399.139 100.941 397.294 99.9379 395.115 98.9348C393.103 97.9316 391.092 96.7613 389.415 95.591C387.739 94.4207 386.23 92.9159 385.056 91.4112C383.883 89.9065 383.38 88.2346 383.548 86.2283C383.548 83.5533 384.386 81.0454 386.062 78.872C387.571 76.5313 389.583 74.6922 392.097 73.0203C394.612 71.3484 397.294 70.0109 400.312 69.175C403.33 68.1718 406.347 67.8374 409.533 67.8374L424.788 51.62L418.418 94.0863Z" fill="#FFDD00"/>
</g>
<defs>
<filter id="filter0_d_132:248" x="62" y="20" width="365.788" height="156" filterUnits="userSpaceOnUse" color-interpolation-filters="sRGB">
<feFlood flood-opacity="0" result="BackgroundImageFix"/>
<feColorMatrix in="SourceAlpha" type="matrix" values="0 0 0 0 0 0 0 0 0 0 0 0 0 0 0 0 0 0 127 0" result="hardAlpha"/>
<feOffset dx="3" dy="3"/>
<feComposite in2="hardAlpha" operator="out"/>
<feColorMatrix type="matrix" values="0 0 0 0 1 0 0 0 0 0.537255 0 0 0 0 0 0 0 0 1 0"/>
<feBlend mode="normal" in2="BackgroundImageFix" result="effect1_dropShadow_132:248"/>
<feBlend mode="normal" in="SourceGraphic" in2="effect1_dropShadow_132:248" result="shape"/>
</filter>
<filter id="filter1_d_132:248" x="42" y="0" width="402.788" height="193" filterUnits="userSpaceOnUse" color-interpolation-filters="sRGB">
<feFlood flood-opacity="0" result="BackgroundImageFix"/>
<feColorMatrix in="SourceAlpha" type="matrix" values="0 0 0 0 0 0 0 0 0 0 0 0 0 0 0 0 0 0 127 0" result="hardAlpha"/>
<feOffset/>
<feGaussianBlur stdDeviation="10"/>
<feComposite in2="hardAlpha" operator="out"/>
<feColorMatrix type="matrix" values="0 0 0 0 1 0 0 0 0 0.866667 0 0 0 0 0 0 0 0 1 0"/>
<feBlend mode="normal" in2="BackgroundImageFix" result="effect1_dropShadow_132:248"/>
<feBlend mode="normal" in="SourceGraphic" in2="effect1_dropShadow_132:248" result="shape"/>
</filter>
</defs>
</svg>
