<svg width="403" height="193" viewBox="0 0 403 193" fill="none" xmlns="http://www.w3.org/2000/svg">
<g filter="url(#filter0_d)">
<path d="M56.5506 52.7903C53.03 54.2951 49.5095 56.3013 45.989 58.642C42.4684 60.9827 39.4508 63.4905 36.9361 66.4999C34.4214 69.3422 32.4097 72.5188 31.2362 75.6954C30.0627 78.872 29.895 82.2158 30.7332 85.5596C31.5715 88.9034 33.2479 91.9128 35.7626 94.4207C38.2773 96.9285 41.2949 98.9348 44.8154 100.439C48.336 101.944 52.3595 102.78 56.7182 102.947C61.077 103.115 65.6034 102.613 70.2975 101.443L80.1886 80.2095L88.4032 120.837L69.6269 109.635C63.7593 110.972 58.2271 111.474 52.8624 110.972C47.4978 110.471 42.636 109.301 38.2773 107.294C33.9185 105.288 30.0627 102.613 27.045 99.2692C24.0274 95.9254 21.848 92.08 20.8422 87.7331C19.6686 83.2189 19.6686 78.7048 21.1775 74.3579C22.5186 70.0109 24.8657 65.8312 28.0509 61.8186C31.2362 57.806 35.2597 54.2951 39.9537 50.9513C44.6478 47.6075 49.6771 44.7652 55.0418 42.2574C56.0477 40.4183 57.3888 38.0776 58.73 35.5698C60.2388 32.8947 61.58 30.5541 62.9211 28.0462C64.2623 25.7056 65.4358 23.6993 66.274 22.1946C67.1122 20.6899 67.6152 19.8539 67.4475 20.0211C67.2799 20.1883 67.4475 21.0242 67.4475 22.6961C67.4475 24.368 67.7828 26.5415 67.9505 29.2165C68.2858 31.8916 68.4534 34.901 68.7887 38.2448C69.124 41.5886 69.4593 45.0996 69.7946 48.6106C70.1299 52.1216 70.4652 55.6326 70.8004 58.9764C71.1357 62.3202 71.3034 65.3296 71.6387 68.0046L56.5506 52.7903Z" fill="#FFDD00"/>
<path d="M87.5649 72.3515L114.22 70.8468L114.891 89.2377C116.065 87.2314 117.406 84.8908 118.915 82.0486C120.423 79.2063 122.1 76.8657 123.776 74.3578C125.453 72.0172 127.297 70.0109 128.973 68.339C130.65 66.8343 132.326 66.1655 134.003 66.3327C135.176 66.4999 136.517 66.8343 137.691 67.503C139.032 68.1718 140.205 68.8405 141.211 69.6765C142.385 70.5124 143.223 71.5156 143.894 72.5187C144.564 73.6891 144.9 74.8594 145.067 76.0297C145.235 77.2 144.9 78.3704 144.397 79.7079C143.894 80.8782 143.223 82.0486 142.217 83.0517C141.211 84.0548 140.205 84.8908 139.032 85.5595C137.858 86.2283 136.685 86.5627 135.511 86.7299C133.5 86.8971 131.656 86.2283 129.979 84.7236C128.303 83.2189 127.297 81.3798 127.129 79.0391C126.123 80.0423 125.117 81.3798 123.944 83.2189C122.77 84.8908 121.597 86.7299 120.591 88.7362C119.417 90.7424 118.412 92.7487 117.573 94.755C116.735 96.7613 116.065 98.6004 115.729 100.105L116.065 108.465L145.905 123.846L85.3855 116.991L107.515 111.14V81.0454L87.5649 72.3515Z" fill="#FFDD00"/>
<path d="M200.055 135.215C197.037 135.382 193.684 134.713 190.332 133.543C186.979 132.373 183.626 130.701 180.273 128.527C177.088 126.354 173.902 123.846 170.885 120.837C167.867 117.827 165.352 114.651 163.005 111.307C160.658 107.963 158.814 104.452 157.473 100.774C156.132 97.0956 155.294 93.5846 155.294 90.0736C155.126 87.5657 155.797 84.8907 156.803 82.2157C157.976 79.5406 159.485 77.0328 161.329 74.6921C163.341 72.3515 165.52 70.5124 168.035 69.0076C170.549 67.5029 173.064 66.4998 175.579 66.1654C178.764 65.831 182.117 66.3326 185.302 67.8373C188.487 69.342 191.673 71.1811 194.523 73.5218C197.373 75.8624 199.887 78.5375 202.067 81.3797C204.246 84.2219 205.923 87.0642 207.264 89.4048L168.538 94.0862C168.705 97.43 169.376 100.941 170.717 104.118C172.058 107.461 173.735 110.638 175.914 113.815C178.093 116.991 180.608 120.001 183.626 123.01C186.643 126.019 189.829 128.862 193.182 131.537L196.032 132.205L195.696 130.868C195.361 129.698 195.361 128.527 195.696 127.357C196.032 126.187 196.534 125.183 197.205 124.348C197.876 123.512 198.882 123.01 199.72 122.843C200.558 122.676 201.396 122.843 202.402 123.344C203.408 123.846 203.911 124.515 204.414 125.518C204.917 126.521 205.252 127.691 205.42 129.196C205.587 130.701 205.252 131.871 204.581 132.874C204.079 133.71 203.408 134.212 202.57 134.546C202.067 135.048 201.061 135.215 200.055 135.215L199.72 135.048L200.055 135.215ZM166.861 84.5563L194.523 83.2188C193.852 82.0485 192.846 81.0453 191.673 80.0422C190.499 79.0391 188.99 78.0359 187.482 77.2C185.973 76.364 184.464 75.6952 182.788 75.3609C181.111 74.8593 179.602 74.8593 178.094 75.0265C175.579 75.3609 173.399 76.364 171.555 78.0359C169.711 79.7078 168.202 81.8813 166.861 84.5563Z" fill="#FFDD00"/>
<path d="M258.395 135.215C255.378 135.382 252.025 134.713 248.672 133.543C245.319 132.373 241.966 130.701 238.613 128.527C235.428 126.354 232.243 123.846 229.225 120.837C226.208 117.827 223.693 114.651 221.346 111.307C218.999 107.963 217.155 104.452 215.814 100.774C214.472 97.0956 213.634 93.5846 213.634 90.0736C213.467 87.5657 214.137 84.8907 215.143 82.2157C216.317 79.5406 217.825 77.0328 219.669 74.6921C221.681 72.3515 223.861 70.5124 226.375 69.0076C228.89 67.5029 231.405 66.4998 233.919 66.1654C237.105 65.831 240.457 66.3326 243.643 67.8373C246.828 69.342 250.013 71.1811 252.863 73.5218C255.713 75.8624 258.228 78.5375 260.407 81.3797C262.587 84.2219 264.263 87.0642 265.604 89.4048L226.878 94.0862C227.046 97.43 227.716 100.941 229.058 104.118C230.399 107.461 232.075 110.638 234.255 113.815C236.434 116.991 238.949 120.001 241.966 123.01C244.984 126.019 248.169 128.862 251.522 131.537L254.372 132.205L254.037 130.868C253.701 129.698 253.701 128.527 254.037 127.357C254.372 126.187 254.875 125.183 255.546 124.348C256.216 123.512 257.222 123.01 258.06 122.843C258.898 122.676 259.737 122.843 260.743 123.344C261.748 123.846 262.251 124.515 262.754 125.518C263.257 126.521 263.592 127.691 263.76 129.196C263.928 130.701 263.592 131.871 262.922 132.874C262.419 133.71 261.748 134.212 260.91 134.546C260.24 135.048 259.401 135.215 258.395 135.215L258.06 135.048L258.395 135.215ZM225.202 84.5563L252.863 83.2188C252.193 82.0485 251.187 81.0453 250.013 80.0422C248.84 79.0391 247.331 78.0359 245.822 77.2C244.313 76.364 242.804 75.6952 241.128 75.3609C239.452 74.8593 237.943 74.8593 236.434 75.0265C233.919 75.3609 231.74 76.364 229.896 78.0359C228.052 79.7078 226.375 81.8813 225.202 84.5563Z" fill="#FFDD00"/>
<path d="M269.292 173L287.566 153.439L282.704 78.5376L262.251 70.8468L293.266 67.8374L294.272 82.3829L297.457 80.2095C299.972 78.7048 302.654 77.7016 305.504 77.0329C308.354 76.3641 311.036 76.1969 313.383 76.1969C315.227 76.3641 317.071 76.8657 318.915 77.8688C320.76 78.8719 322.436 80.3767 323.945 82.0486C325.454 83.7205 326.627 85.5595 327.465 87.5658C328.304 89.5721 328.639 91.7456 328.639 93.7519C328.471 96.2597 327.968 98.7676 327.13 101.443C326.292 104.118 325.118 106.625 323.442 108.966C321.765 111.307 319.586 113.146 317.071 114.651C314.557 116.155 311.371 116.824 307.683 116.824C305.001 116.824 302.319 116.155 299.636 114.985L296.619 112.979L299.301 151.098L320.089 160.795L269.292 173ZM305.504 108.632C307.516 108.632 309.192 108.297 310.533 107.461C311.874 106.793 312.88 105.79 313.718 104.619C314.557 103.449 315.06 102.279 315.563 100.774C315.898 99.4363 316.065 98.0988 316.065 96.9285C316.065 95.9253 315.73 94.9222 315.227 93.7519C314.724 92.7487 314.054 91.7456 313.215 90.9096C312.377 90.0737 311.539 89.4049 310.366 88.9033C309.192 88.4018 308.354 88.0674 307.348 88.0674C305.336 87.9002 303.324 88.4018 300.977 89.0705C298.63 89.9065 296.954 91.0768 295.613 92.5815L294.775 93.9191L295.445 102.446L295.78 103.282C296.954 104.786 298.295 106.124 299.972 106.96C301.983 107.963 303.827 108.465 305.504 108.632Z" fill="#FFDD00"/>
<path d="M376.418 94.0864L366.024 75.1939C360.659 75.8627 356.803 77.2002 354.791 78.8721C352.612 80.7112 351.606 83.0519 351.438 86.0613C351.271 87.3988 351.606 88.5691 352.277 89.5723C352.947 90.5754 353.786 91.5785 354.791 92.4145C355.797 93.2504 357.138 93.9192 358.647 94.588C360.156 95.2567 361.665 95.9255 363.341 96.4271C365.185 97.263 367.03 98.2661 368.706 99.4365C370.382 100.607 371.724 102.112 372.897 103.616C374.071 105.121 374.909 106.793 375.412 108.632C375.915 110.304 376.082 112.143 375.915 113.982C375.579 116.49 374.574 118.831 372.897 121.004C371.221 123.177 369.209 125.017 366.862 126.521C364.515 128.026 362 129.363 359.318 130.534C356.635 131.537 353.953 132.373 351.438 132.874L337.859 143.742V108.799L354.121 123.512C355.63 123.846 356.971 123.846 358.48 123.512C359.821 123.177 361.162 122.843 362.335 122.174C363.509 121.506 364.515 120.502 365.185 119.332C365.856 118.162 366.359 116.824 366.359 115.152C366.359 112.644 366.024 110.137 364.85 107.629C363.844 105.121 361.665 103.115 358.815 101.777C357.138 100.941 355.294 99.938 353.115 98.9349C351.103 97.9318 349.091 96.7614 347.415 95.5911C345.739 94.4208 344.23 92.9161 343.056 91.4114C341.883 89.9066 341.38 88.2347 341.547 86.2285C341.547 83.5534 342.386 81.0456 344.062 78.8721C345.571 76.5314 347.583 74.6923 350.097 73.0204C352.612 71.3485 355.294 70.011 358.312 69.1751C361.33 68.1719 364.347 67.8376 367.532 67.8376L382.788 51.6201L376.418 94.0864Z" fill="#FFDD00"/>
</g>
<defs>
<filter id="filter0_d" x="0" y="0" width="402.788" height="193" filterUnits="userSpaceOnUse" color-interpolation-filters="sRGB">
<feFlood flood-opacity="0" result="BackgroundImageFix"/>
<feColorMatrix in="SourceAlpha" type="matrix" values="0 0 0 0 0 0 0 0 0 0 0 0 0 0 0 0 0 0 127 0" result="hardAlpha"/>
<feOffset/>
<feGaussianBlur stdDeviation="10"/>
<feComposite in2="hardAlpha" operator="out"/>
<feColorMatrix type="matrix" values="0 0 0 0 1 0 0 0 0 0.866667 0 0 0 0 0 0 0 0 1 0"/>
<feBlend mode="normal" in2="BackgroundImageFix" result="effect1_dropShadow"/>
<feBlend mode="normal" in="SourceGraphic" in2="effect1_dropShadow" result="shape"/>
</filter>
</defs>
</svg>
