<svg width="29" height="9" viewBox="0 0 29 9" fill="none" xmlns="http://www.w3.org/2000/svg">
<path d="M26.2 0.0999756C26.8667 0.0999756 27.5 0.466642 28.1 1.19998C28.7 1.93331 29 2.79998 29 3.79998C29 4.13331 28.9333 4.56664 28.8 5.09998C28.7333 5.56664 28.5667 6.03331 28.3 6.49998C28.0333 6.89998 27.6667 7.26664 27.2 7.59998C26.7333 7.86664 26.1333 7.99998 25.4 7.99998C24.0667 7.99998 22.3667 7.99998 20.3 7.99998C18.3 7.99998 16.2333 8.03331 14.1 8.09998C11.9667 8.09998 9.93333 8.09998 8 8.09998C6.06667 8.09998 4.5 8.09998 3.3 8.09998C2.36667 8.09998 1.56667 7.66664 0.9 6.79998C0.3 5.93331 0 5.03331 0 4.09997C0 3.16664 0.266667 2.29998 0.8 1.49998C1.33333 0.633308 2.16667 0.199974 3.3 0.199974C3.76667 0.199974 4.4 0.233308 5.2 0.299976C6 0.299976 6.86667 0.299976 7.8 0.299976C8.73333 0.299976 9.66667 0.333309 10.6 0.399975C11.6 0.399975 12.5333 0.399975 13.4 0.399975C16.2 0.399975 18.6333 0.366642 20.7 0.299976C22.7667 0.166642 24.6 0.0999756 26.2 0.0999756Z" fill="white"/>
</svg>
