<svg width="35" height="34" viewBox="0 0 35 34" fill="none" xmlns="http://www.w3.org/2000/svg">
<path d="M13.318 3.5C13.318 2.76667 13.6846 2 14.418 1.2C15.1513 0.400001 16.1846 0 17.518 0C19.2513 0 20.4513 0.400001 21.118 1.2C21.7846 2 22.118 2.76667 22.118 3.5C22.118 4.56667 22.0846 5.93333 22.018 7.6C22.018 9.2 22.018 10.9 22.018 12.7C24.018 12.7 25.818 12.6333 27.418 12.5C29.018 12.3 30.3846 12.2 31.518 12.2C32.118 12.2 32.718 12.4667 33.318 13C33.9846 13.5333 34.318 14.6667 34.318 16.4C34.318 18 33.9513 19.1 33.218 19.7C32.4846 20.3 31.6513 20.6 30.718 20.6H22.018V30C22.018 30.6667 21.6846 31.3667 21.018 32.1C20.418 32.8333 19.218 33.2 17.418 33.2C15.6846 33.2 14.518 32.8 13.918 32C13.3846 31.2 13.118 30.5333 13.118 30C13.118 29.0667 13.1513 27.6667 13.218 25.8C13.2846 23.8667 13.3513 22.1333 13.418 20.6C11.4846 20.6667 9.68464 20.7333 8.01797 20.8C6.3513 20.8667 5.08464 20.9 4.21797 20.9C4.01797 20.9 3.71797 20.8333 3.31797 20.7C2.91797 20.5667 2.5513 20.3667 2.21797 20.1C1.88464 19.7667 1.58464 19.3333 1.31797 18.8C1.0513 18.2667 0.917969 17.6 0.917969 16.8C0.917969 15.1333 1.31797 14.0333 2.11797 13.5C2.98464 12.9667 3.68464 12.7 4.21797 12.7H13.618C13.618 10.7 13.5513 8.93333 13.418 7.4C13.3513 5.86667 13.318 4.56667 13.318 3.5Z" fill="white"/>
</svg>
