<svg width="248" height="362" viewBox="0 0 248 362" fill="none" xmlns="http://www.w3.org/2000/svg">
<path d="M93.9392 55.1825L77.1554 57.1866V39.9017L62.7513 40.7785C62.7513 40.7785 59.9958 30.633 61.2483 21.3643L73.3978 19.6108L86.0483 19.9866L85.5473 4.20474C85.5473 4.20474 88.5534 2.2007 92.3109 0.196655L93.9392 16.6047V55.1825Z" fill="url(#paint0_linear_132:675)"/>
<path d="M120.117 55.1824H93.9388V53.1783L93.4378 36.3945L93.1873 30.7581L92.9368 19.8612V18.3581L92.3105 0.196533H112.601L115.107 18.9844L117.486 36.3945L119.866 53.1783L120.117 54.9319V55.1824Z" fill="url(#paint1_linear_132:675)"/>
<path d="M139.031 14.9762L135.774 36.3944H75.9035L73.3984 19.4853H76.2792L92.9378 19.861L107.718 20.1115H108.469L115.108 18.9843L139.031 14.9762Z" fill="url(#paint2_linear_132:675)"/>
<path d="M73.3984 19.4853L114.857 17.2307L114.607 14.9762H139.031L108.469 20.1115L73.3984 19.4853Z" fill="#B6C6EF"/>
<path d="M77.156 39.9016L93.4388 36.2692H75.9035L62.752 40.6531L77.156 39.9016Z" fill="#655775"/>
<path d="M70.7676 19.861L74.1494 24.6206L78.0322 20.1115L82.7918 18.9843L73.3979 19.4853L70.7676 19.861Z" fill="#B6C6EF"/>
<g opacity="0.3">
<path opacity="0.3" d="M107.843 20.3623C107.968 23.9946 105.463 27.5017 102.206 29.2552C99.4508 30.633 96.3195 31.0088 93.3134 30.7583C92.6872 30.7583 92.0609 30.633 91.4347 30.5078C88.8044 30.0068 73.0225 23.9946 76.4044 19.4855L93.063 19.8613V18.3583C97.071 18.3583 101.204 18.3583 105.338 18.3583C106.214 18.3583 107.216 18.4835 107.717 19.235C107.843 19.4855 107.968 19.8613 107.968 20.1118C107.717 20.2371 107.843 20.3623 107.843 20.3623Z" fill="#ACB6CD"/>
</g>
<path d="M93.4391 36.2692L117.488 36.3945L93.4391 39.5258L77.1562 39.9016L93.4391 36.2692Z" fill="url(#paint3_linear_132:675)"/>
<path d="M105.963 52.5521V52.8026V55.0571L105.838 65.8288L105.712 71.2147L104.209 186.823L104.084 193.211L103.959 203.732L103.207 256.839L102.706 296.043H24.5488L29.9347 147.744L30.0599 143.861L34.068 138.475L30.3104 135.97L30.4357 133.716L30.9367 118.685C30.9367 118.685 31.1872 117.182 31.8135 114.552C34.3185 104.532 42.5852 78.6046 64.6296 62.3218C65.1306 62.0713 65.5064 61.946 66.0074 61.6955C73.8983 57.9379 84.0438 54.8066 93.9387 53.3036C98.0721 52.5521 102.08 52.3016 105.963 52.5521Z" fill="url(#paint4_linear_132:675)"/>
<path d="M195.644 296.043H52.3555V123.194C52.3555 123.194 62.7514 67.9579 96.5696 55.1822C99.4504 54.0549 102.582 53.3034 105.964 52.9276C107.091 52.8024 108.218 52.6771 109.345 52.6771C112.978 52.5519 116.485 52.8024 119.867 53.3034C136.525 55.9337 148.925 66.3296 157.943 78.4791C169.341 93.8852 175.228 112.047 177.483 120.313C178.234 123.194 178.61 124.823 178.61 124.823L178.735 125.699L181.741 155.635L186.751 205.61L183.871 211.497L192.764 217.259L195.644 296.043Z" fill="url(#paint5_linear_132:675)"/>
<path d="M175.478 296.043H67.8862L65.2559 127.954C65.2559 127.954 65.6316 124.071 68.0114 117.683C70.0155 112.172 73.5225 104.908 79.6599 96.6409C86.0478 87.9985 94.4397 80.6086 104.836 77.7278C107.967 76.851 111.224 76.35 114.981 76.35C149.426 76.35 159.696 110.669 162.327 122.944C162.828 125.574 163.078 127.328 163.078 127.328L175.478 296.043Z" fill="url(#paint6_linear_132:675)"/>
<path d="M229.463 336.75H10.3965C10.647 334.12 10.8975 331.364 11.2733 328.609C11.649 325.602 12.15 322.471 12.5258 319.59C14.5298 306.94 17.1601 296.168 17.1601 296.168L139.908 301.804L156.942 300.677L177.108 299.299L199.277 297.796L215.936 296.669L222.073 296.293C225.455 306.063 229.463 336.75 229.463 336.75Z" fill="url(#paint7_linear_132:675)"/>
<path d="M67.2617 298.298V336.75H229.464C229.464 336.75 223.326 299.174 220.696 290.407L144.167 296.043L67.2617 298.298Z" fill="url(#paint8_linear_132:675)"/>
<path d="M17.1602 296.043L33.8187 294.665L75.1521 296.043L220.695 290.282L141.16 298.298H67.2612L17.1602 296.043Z" fill="url(#paint9_linear_132:675)"/>
<path d="M163.078 290.281L68.0114 295.918L65.2559 127.954C65.2559 127.954 66.5084 114.302 79.5346 96.641C135.898 49.2956 151.68 133.089 151.68 133.089L163.078 290.281Z" fill="url(#paint10_linear_132:675)"/>
<path d="M73.1465 240.306C73.1465 240.306 142.161 233.417 169.215 238.176V292.411L73.1465 296.043V240.306Z" fill="url(#paint11_linear_132:675)"/>
<path d="M73.1465 240.306L80.9121 244.69C80.9121 244.69 82.5404 281.013 84.294 296.419L73.2717 296.043C73.1465 295.918 73.7727 249.324 73.1465 240.306Z" fill="url(#paint12_linear_132:675)"/>
<path d="M80.7871 244.564C103.583 238.051 130.763 234.544 169.09 238.051L162.953 234.92C162.953 234.92 119.991 230.035 73.0215 240.18L80.7871 244.564Z" fill="url(#paint13_linear_132:675)"/>
<path d="M103.333 106.786C80.2862 112.924 84.2943 152.754 84.2943 152.754L95.1912 154.758L97.3205 176.051C98.6983 176.176 101.955 177.178 103.583 177.178L101.955 162.023L103.583 177.178C107.215 177.178 108.593 177.554 111.599 177.429C111.85 177.429 116.985 177.178 117.236 177.053L118.739 170.039V177.93L116.359 178.18C118.989 178.055 124.876 177.304 124.876 177.304L126.254 151.502L133.644 148.746C138.278 133.59 126.504 100.649 103.333 106.786ZM91.4337 144.237C88.5529 139.352 91.3084 126.827 94.1892 125.95C97.07 125.073 104.961 129.332 104.585 133.59C104.209 137.849 93.8135 148.12 91.4337 144.237ZM117.236 149.372C116.359 150.249 110.472 149.372 110.472 149.372L109.971 152.629L108.844 149.748C108.844 149.748 102.581 150.374 102.581 149.748C102.581 148.495 106.339 139.978 108.844 138.601C111.349 137.223 118.112 148.495 117.236 149.372ZM126.003 142.233C124.125 144.613 117.486 139.603 115.106 133.716C114.104 131.336 117.611 126.075 121.745 125.95C125.878 125.825 127.882 139.853 126.003 142.233Z" fill="url(#paint14_linear_132:675)"/>
<path d="M109.721 106.035C86.6749 112.172 90.6829 152.003 90.6829 152.003L101.58 154.007L103.709 177.178C105.087 177.304 106.715 177.304 108.344 177.429V161.146L111.725 177.429C115.358 177.429 118.99 177.429 121.996 177.304C122.247 177.304 122.497 177.304 122.748 177.304L125.127 169.287V177.178L125.002 177.304C127.632 177.178 129.261 177.178 129.261 177.178V152.003L140.032 147.869C140.408 136.221 132.768 99.8976 109.721 106.035ZM97.6971 143.485C94.8163 138.601 97.5718 126.075 100.453 125.199C103.333 124.322 111.224 128.58 110.849 132.839C110.473 137.098 100.077 147.368 97.6971 143.485ZM123.499 148.496C122.622 149.372 116.735 148.496 116.735 148.496L115.608 144.487L115.107 148.871C115.107 148.871 108.845 149.498 108.845 148.871C108.845 147.619 112.602 139.102 115.107 137.724C117.737 136.471 124.376 147.619 123.499 148.496ZM132.392 141.356C130.513 143.736 122.121 140.605 119.742 134.593C118.74 132.213 124 125.073 128.133 124.948C132.142 124.948 134.271 138.976 132.392 141.356Z" fill="url(#paint15_linear_132:675)"/>
<path d="M191.136 216.257L187.754 214.128L175.479 209.619L167.839 205.235L157.192 208.993L128.384 202.48L106.214 194.964L104.085 193.211L92.3113 183.692L65.2568 162.774L52.3557 141.356L29.9355 147.744L30.0608 143.861L34.0689 138.475L30.3113 135.97L30.4366 133.591L52.3557 135.469L65.5073 144.362L65.7578 158.265L102.582 186.197L104.21 186.823L109.346 189.078L133.018 202.48L156.942 205.611L168.59 202.48L186.626 205.611L183.746 211.498L191.136 216.257Z" fill="#655775"/>
<path opacity="0.3" d="M73.1486 240.306L67.2617 247.069L67.888 296.043H75.1526L73.1486 240.306Z" fill="url(#paint16_linear_132:675)"/>
<path d="M183.746 211.498L167.213 204.233L167.839 205.235L182.869 214.128L192.639 217.259L183.746 211.498Z" fill="#ACB6CD"/>
<path d="M157.191 208.992L153.809 206.738L140.032 204.233L129.135 201.853L91.4336 181.687L65.2559 162.774L106.213 194.964L128.383 202.479L157.191 208.992Z" fill="#ACB6CD"/>
<path d="M34.0689 138.475L41.083 141.356H52.3557L29.9355 147.744L30.0608 143.861L34.0689 138.475Z" fill="url(#paint17_linear_132:675)"/>
<path opacity="0.5" d="M30.4358 133.591L30.3105 135.97L34.0681 138.475L41.0823 141.356H52.355L61.6237 144.362H65.5065L52.355 135.469L30.4358 133.591Z" fill="url(#paint18_linear_132:675)"/>
<path opacity="0.5" d="M156.941 205.611L157.192 208.993L167.212 204.233L183.745 211.498L186.626 205.611L168.59 202.479L156.941 205.611Z" fill="url(#paint19_linear_132:675)"/>
<path d="M171.721 202.98L168.84 180.31L167.212 172.168L164.707 147.744L168.59 202.479L171.721 202.98Z" fill="#7B739D"/>
<path d="M52.3549 296.043L53.7326 281.013L57.7407 256.714L53.7326 231.037L52.3549 189.077L50.6013 233.792L48.973 247.946L46.8438 265.356L52.2296 279.76L52.3549 296.043Z" fill="#7B739D"/>
<path d="M46.8438 265.356L51.1023 266.108L57.7407 256.714L53.9831 279.76H52.2296L46.8438 265.356Z" fill="#909EB4"/>
<path opacity="0.7" d="M50.6013 233.792L53.7326 231.037L57.7407 256.714L51.1023 266.108L46.8438 265.356L50.6013 233.792Z" fill="url(#paint20_linear_132:675)"/>
<path d="M63.3789 90.3783L67.6375 80.2328L72.1466 75.348L79.5365 66.7056L73.3991 78.3541L69.7668 86.6207L63.3789 90.3783Z" fill="#B6C6EF"/>
<path d="M59.4942 99.2712L55.6113 105.033V110.043L59.4942 104.031V99.2712Z" fill="#B6C6EF"/>
<path d="M67.2617 298.298V326.605L71.2698 303.182V298.423L67.2617 298.298Z" fill="#8A94AE"/>
<path d="M73.1465 240.306L80.7869 244.564L88.0515 242.56L73.1465 240.306Z" fill="#ACB6CD"/>
<path d="M124 99.2714L130.889 90.3785L143.414 86.9967L152.057 78.3542L146.545 90.128L133.018 92.5078L124 99.2714Z" fill="#655775"/>
<path opacity="0.5" d="M152.056 78.3542L145.042 88.625L130.889 90.3785L143.414 86.9967L152.056 78.3542Z" fill="url(#paint21_linear_132:675)"/>
<path d="M133.018 92.5078L145.042 88.625L152.056 78.3542L146.545 90.128L133.018 92.5078Z" fill="#ACB6CD"/>
<path opacity="0.3" d="M24.5488 268.863L52.3549 290.532L67.6357 290.407L74.9003 291.659L83.5428 290.407C83.5428 290.407 158.945 290.407 169.09 281.138V288.403L175.478 284.896L195.644 288.403L195.143 291.534L84.169 296.544L52.3549 296.168H24.5488V268.863Z" fill="url(#paint22_linear_132:675)"/>
<path opacity="0.3" d="M17.1601 296.043C17.1601 296.043 16.6591 310.698 19.9157 323.599C19.9157 323.599 57.8672 333.243 67.6369 333.243C77.5318 333.243 189.508 324.976 205.289 322.221C221.071 319.465 225.33 312.451 225.33 312.451L229.463 336.875L176.481 337.877L58.6187 336.875H10.3965C10.3965 336.75 14.4046 303.934 17.1601 296.043Z" fill="url(#paint23_linear_132:675)"/>
<path d="M241.737 336.625L248 361.55H0V336.625H67.2606L172.222 333.118L188.505 336.5L241.737 336.625Z" fill="url(#paint24_linear_132:675)"/>
<path d="M58.6176 336.625L55.4863 361.425H247.999L241.737 336.625L188.505 336.374L172.222 332.993C172.222 333.118 65.3813 336.625 58.6176 336.625Z" fill="url(#paint25_linear_132:675)"/>
<path d="M58.6172 336.625C58.6172 336.625 190.759 338.879 241.736 336.625L184.872 335.623L172.221 332.993L58.6172 336.625Z" fill="url(#paint26_linear_132:675)"/>
<path d="M172.223 333.118V361.55H178.36L184.873 335.748L172.223 333.118Z" fill="url(#paint27_linear_132:675)"/>
<path opacity="0.3" d="M121.495 71.841C122.748 72.843 124.376 73.4693 125.879 74.0956C130.889 76.2249 136.15 78.3542 141.536 78.8552C142.788 78.9804 144.041 78.9804 145.043 78.3542C146.045 77.6026 146.546 76.2249 146.421 74.9723C146.295 73.7198 145.794 72.4673 145.168 71.34C140.91 63.6996 133.269 57.437 124.752 55.3077C119.742 54.0552 118.489 55.0572 117.613 60.0673C117.112 64.2006 117.738 68.9602 121.495 71.841Z" fill="#ACB6CD"/>
<path opacity="0.3" d="M145.794 82.3622C148.049 82.1117 150.303 83.1137 151.556 84.8672C151.932 85.3682 152.182 86.1198 151.932 86.746C151.681 87.1218 151.305 87.3723 150.93 87.4975C148.425 88.2491 145.544 86.3703 145.168 83.74L145.794 82.3622Z" fill="#ACB6CD"/>
<path opacity="0.3" d="M177.359 120.314C168.967 116.181 162.078 109.166 158.07 100.649C156.567 97.3926 155.439 93.7603 155.439 90.128C155.439 87.1219 155.815 81.3603 157.569 78.73C157.569 78.6047 157.694 78.6047 157.819 78.4795C169.217 93.7603 175.104 111.922 177.359 120.314Z" fill="#ACB6CD"/>
<path opacity="0.3" d="M181.616 155.635C179.612 157.639 176.856 159.017 173.975 158.516C172.848 158.391 171.846 158.015 171.095 157.138C170.093 156.011 170.093 154.633 169.466 153.255C168.965 152.128 168.089 151.627 167.588 150.625C165.959 147.869 165.959 143.485 165.458 140.354C165.208 138.475 164.832 118.56 164.832 118.56C168.965 119.813 172.848 121.692 176.481 124.071C177.232 124.572 177.984 125.199 178.735 125.7L181.616 155.635Z" fill="#ACB6CD"/>
<path opacity="0.3" d="M64.5046 97.643C64.3793 98.2692 64.3793 99.0207 64.7551 99.3965C65.3814 99.8975 66.2581 99.647 67.0096 99.146C79.6602 92.1318 91.5591 83.9904 102.456 74.5965C103.834 73.4692 105.212 72.2167 105.838 70.5884C107.09 67.5823 105.462 64.0753 102.707 62.3217C96.444 58.3137 86.9248 61.946 82.04 66.7056C76.9046 71.7157 72.0197 77.7278 68.8884 83.9904C66.8844 88.3743 65.3814 93.0086 64.5046 97.643Z" fill="#ACB6CD"/>
<path opacity="0.3" d="M101.455 57.5622C101.205 57.5622 101.33 57.1865 101.581 57.0612C102.583 56.8107 103.71 57.1865 104.211 58.0632C104.336 58.1885 104.336 58.439 104.336 58.5643C104.336 58.94 103.96 59.0653 103.585 59.1905C102.708 59.441 101.706 59.6915 100.954 59.1905C100.203 58.6895 99.9522 57.437 100.704 56.936L101.455 57.5622Z" fill="#ACB6CD"/>
<path opacity="0.3" d="M89.8061 202.98C91.6849 200.6 94.691 198.596 98.4486 197.845C101.455 197.219 104.586 197.469 107.717 197.845C112.602 198.346 117.737 199.348 121.245 201.853C123.875 203.732 125.253 206.237 126.004 208.742C126.255 209.493 126.38 210.245 126.255 210.996C125.754 213 123.123 214.253 120.618 215.255C116.861 216.633 112.978 217.76 108.719 218.261C104.586 218.762 100.077 218.386 96.3193 217.134C92.5617 215.881 89.4304 213.376 88.5536 210.621C87.6768 208.116 87.9273 205.235 89.8061 202.98Z" fill="#ACB6CD"/>
<path opacity="0.5" d="M67.8872 183.065C68.1377 186.948 68.6387 190.831 69.1397 194.714C69.5154 197.97 70.1417 201.227 71.5195 204.233C72.3962 205.861 73.6488 207.489 75.4023 207.865C77.0306 208.241 78.6589 207.489 80.1619 206.738C83.4185 205.11 86.4245 202.98 89.0548 200.601C89.8064 199.849 90.5579 199.223 91.0589 198.221C91.5599 197.219 91.5599 196.091 91.5599 194.964C91.1841 189.328 88.0528 184.067 83.7942 180.184C80.2872 176.928 75.7781 174.298 71.3942 172.544C68.5134 171.417 68.3882 172.92 68.0124 175.675C67.5114 178.18 67.6367 180.685 67.8872 183.065Z" fill="#ACB6CD"/>
<path opacity="0.3" d="M59.9969 201.728C59.4959 207.865 57.3666 214.253 52.3565 217.76C53.7343 206.487 51.4797 194.964 51.104 183.566C51.104 181.687 50.3525 176.051 53.2333 176.803C55.3626 177.304 56.9908 182.314 57.7423 184.067C59.8716 189.704 60.4979 195.841 59.9969 201.728Z" fill="#ACB6CD"/>
<path opacity="0.3" d="M62.0007 100.775C62.0007 100.399 61.3744 100.649 61.1239 100.9C59.7462 102.904 58.8694 105.409 58.7441 107.789C58.7441 108.164 58.7441 108.54 58.8694 108.916C58.9946 109.166 59.3704 109.417 59.6209 109.542C62.0007 110.669 65.2573 108.791 65.7583 106.16C66.2593 103.53 64.2553 100.775 61.6249 100.023L62.0007 100.775Z" fill="#ACB6CD"/>
<path opacity="0.3" d="M69.7662 66.3299C69.7662 67.4572 69.14 68.4592 68.6389 69.4612C65.2571 75.8491 61.8753 82.237 58.4935 88.6249C57.4915 90.6289 56.3642 92.6329 54.7359 94.3865C52.7319 96.3905 50.2268 97.7683 47.847 99.2713C44.5905 101.401 41.7097 103.906 38.9541 106.661C37.5763 108.039 33.5682 114.176 31.6895 114.552C34.1945 104.532 42.4612 78.6046 64.5056 62.3218C65.0066 62.0713 65.3824 61.9461 65.8834 61.6956C68.1379 62.1966 69.8915 64.0754 69.7662 66.3299Z" fill="#ACB6CD"/>
<path opacity="0.3" d="M40.5812 109.792C40.0802 109.667 40.3307 108.916 40.5812 108.54C42.5853 106.035 45.2156 104.031 48.2216 102.904C48.7227 102.778 49.2237 102.528 49.7247 102.653C51.1025 102.778 51.7287 104.532 51.7287 105.91C51.9792 109.918 50.1004 114.051 46.8439 116.431C45.7166 117.308 44.2136 118.059 42.7105 117.683C41.0822 117.308 40.0802 115.805 39.7045 114.302C39.3287 112.673 39.7045 111.045 40.0802 109.542L40.5812 109.792Z" fill="#ACB6CD"/>
<path opacity="0.5" d="M144.165 229.534C145.167 230.661 146.295 231.663 147.672 232.29C149.05 232.916 150.678 233.166 152.056 232.415C153.434 231.788 154.311 230.285 154.937 228.908C156.816 224.148 155.939 218.386 152.683 214.504C149.301 210.496 143.915 208.617 138.905 207.114C131.515 204.859 134.02 211.623 135.648 215.881C137.527 221.017 140.408 225.651 144.165 229.534Z" fill="#ACB6CD"/>
<path opacity="0.3" d="M138.654 192.71C139.03 191.833 139.907 191.081 140.909 191.081C141.911 191.081 142.913 191.708 143.289 192.584C143.915 194.213 142.287 196.217 140.533 195.841C138.78 195.465 138.028 192.96 139.281 191.708L138.654 192.71Z" fill="#ACB6CD"/>
<path opacity="0.3" d="M57.8672 273.873C58.2429 272.997 59.1197 272.245 60.1217 272.245C61.1238 272.245 62.1258 272.871 62.5015 273.748C63.1278 275.376 61.4995 277.38 59.746 277.005C57.9924 276.629 57.2409 274.124 58.4935 272.871L57.8672 273.873Z" fill="#ACB6CD"/>
<path opacity="0.3" d="M81.916 207.239C82.2918 206.362 83.1685 205.611 84.1706 205.611C85.1726 205.611 86.1746 206.237 86.5504 207.114C87.1766 208.742 85.5483 210.746 83.7948 210.37C82.0413 209.995 81.2898 207.49 82.5423 206.237L81.916 207.239Z" fill="#ACB6CD"/>
<path opacity="0.3" d="M179.486 229.033C180.363 226.152 181.365 223.146 183.494 220.891C183.87 220.516 184.371 220.14 184.872 220.14C185.498 220.265 185.748 221.017 185.999 221.518C189.631 234.419 191.26 247.821 190.759 261.223C190.633 264.479 190.383 267.736 188.88 270.617C187.377 273.623 183.369 277.38 180.864 274.374C178.233 271.243 177.858 263.227 177.357 259.344C175.979 249.449 176.73 238.928 179.486 229.033Z" fill="#ACB6CD"/>
<path opacity="0.3" d="M87.3008 314.33C94.1897 309.695 102.081 306.815 109.972 304.811C120.743 302.055 132.392 300.803 142.913 304.31C153.434 307.817 162.703 317.085 163.329 328.233C163.329 329.235 163.329 330.237 162.828 330.988C162.327 331.865 161.325 332.366 160.448 332.867C153.434 336.124 145.418 335.748 137.778 335.497C123.123 334.996 108.343 334.871 93.8139 336.75C89.9311 337.251 85.923 337.877 82.0402 337.752C74.6503 337.376 70.3917 334.871 74.3998 327.857C77.5311 322.471 82.1655 317.837 87.3008 314.33Z" fill="#ACB6CD"/>
<path opacity="0.3" d="M175.855 298.423C177.608 299.174 179.236 300.302 180.238 301.93C181.24 303.558 181.24 305.813 179.988 307.191C179.111 308.067 177.859 308.568 176.731 308.819C173.35 309.57 169.843 309.32 166.586 308.318C164.206 307.566 158.069 305.186 157.192 302.431C154.687 295.542 172.473 296.92 175.855 298.423Z" fill="#ACB6CD"/>
<path opacity="0.3" d="M167.087 315.582C165.834 314.956 166.335 312.827 167.588 312.451C168.84 312.075 170.343 312.702 171.345 313.453C172.097 314.079 172.848 314.956 172.598 315.833C172.347 317.085 170.719 317.461 169.592 317.085C168.465 316.71 167.463 315.708 166.461 315.207L167.087 315.582Z" fill="#ACB6CD"/>
<path opacity="0.3" d="M48.9727 328.484C47.4697 331.114 44.5889 332.492 41.7081 333.368C36.9485 334.997 31.8132 335.999 26.803 336.374C23.5465 336.625 20.0394 336.5 17.1586 334.997C13.7768 333.243 11.898 330.989 11.1465 328.484C11.5222 325.478 12.0233 322.346 12.399 319.465C15.9061 312.576 24.0475 306.189 30.1849 305.312C34.3182 304.686 38.702 305.187 42.0839 307.566C45.7162 310.071 47.7202 314.205 49.098 318.463C50.1 321.72 50.7263 325.478 48.9727 328.484Z" fill="#ACB6CD"/>
<path opacity="0.3" d="M37.451 348.649C37.0752 348.774 36.8247 348.273 36.8247 348.023C36.8247 347.647 37.0752 347.396 37.3257 347.146C39.455 345.017 42.3358 343.013 45.0914 344.015C45.9682 344.265 46.7197 344.891 47.2207 345.518C48.7237 347.271 49.2247 350.027 48.2227 352.156C47.2207 354.285 44.5904 355.663 42.3358 355.037C39.3298 354.285 37.7015 351.029 36.5742 348.023L37.451 348.649Z" fill="#ACB6CD"/>
<path opacity="0.3" d="M51.855 338.629C51.354 339.255 50.853 340.007 50.6025 340.883C50.4773 341.76 50.7278 342.762 51.6045 343.013C52.7318 343.514 53.9843 342.261 53.7338 341.009C53.4833 339.881 52.2308 339.13 50.9783 339.255L51.855 338.629Z" fill="#ACB6CD"/>
<path opacity="0.3" d="M199.151 308.318C199.402 312.201 200.028 316.334 202.533 319.34C205.038 322.597 209.171 324.35 212.929 325.853C213.931 326.229 214.933 326.605 216.06 326.605C218.064 326.354 219.317 324.475 220.068 322.722C222.824 316.209 221.446 308.568 219.066 301.93C218.44 300.051 217.563 298.047 216.185 296.669C215.058 295.542 213.43 294.79 211.927 294.164C208.67 292.786 203.284 289.78 200.779 293.413C198.274 296.92 198.901 304.31 199.151 308.318Z" fill="#ACB6CD"/>
<path opacity="0.3" d="M193.265 300.552C193.14 301.554 192.889 302.556 193.265 303.433C193.641 304.31 194.643 305.061 195.645 304.811C196.271 304.56 196.647 303.809 196.897 303.182C197.273 302.18 197.398 301.053 197.022 300.051C196.647 299.049 195.77 298.172 194.643 298.172C193.641 298.172 192.513 299.174 192.764 300.176L193.265 300.552Z" fill="#ACB6CD"/>
<path opacity="0.3" d="M200.779 348.399C207.793 344.892 216.31 344.391 223.575 347.146C226.831 348.399 230.088 350.403 231.591 353.659C231.841 354.16 231.967 354.661 231.841 355.162C231.591 355.789 230.965 356.039 230.338 356.29C221.696 359.045 212.427 358.92 203.409 358.294C200.653 358.168 194.516 358.92 194.14 355.288C193.89 352.281 198.649 349.401 200.779 348.399Z" fill="#ACB6CD"/>
<path opacity="0.3" d="M228.585 344.516C228.961 343.388 230.338 342.637 231.466 343.138C232.593 343.639 232.969 345.267 231.967 346.019C231.34 346.52 230.464 346.394 229.837 346.019C229.211 345.643 228.71 345.017 228.209 344.39L228.585 344.516Z" fill="#ACB6CD"/>
<path opacity="0.3" d="M139.281 260.096C139.907 265.857 141.41 271.493 143.414 276.879C144.792 280.512 146.671 284.019 149.677 286.399C152.808 288.653 157.443 289.279 160.323 286.774C162.327 285.021 163.204 282.265 163.705 279.635C164.206 277.005 164.582 274.249 164.707 271.494C165.083 266.609 165.083 261.473 163.705 256.714C162.327 251.954 159.196 247.57 154.687 245.441C150.929 243.687 145.794 243.687 142.412 246.318C138.655 249.449 138.78 255.461 139.281 260.096Z" fill="#ACB6CD"/>
<path opacity="0.3" d="M131.891 271.619C130.138 270.867 129.136 268.613 129.887 266.734C130.138 265.982 130.764 265.356 131.641 265.356C132.142 265.356 132.643 265.732 133.019 266.108C134.396 267.36 135.273 269.114 135.398 270.993C135.398 271.243 135.398 271.494 135.273 271.744C134.897 272.37 133.895 272.245 133.269 271.869C132.643 271.494 132.017 270.867 131.265 270.993L131.891 271.619Z" fill="#ACB6CD"/>
<path opacity="0.3" d="M169.968 215.881C169.717 216.007 169.467 215.881 169.341 215.631C169.842 214.128 172.097 213.752 173.475 214.504C174.853 215.38 175.604 216.883 176.105 218.512C176.606 220.14 176.857 222.019 175.729 223.271C174.226 225.025 171.095 224.273 169.842 222.269C168.59 220.265 168.84 217.76 169.467 215.506L169.968 215.881Z" fill="#ACB6CD"/>
<path d="M58.6176 336.625L55.4863 361.55L64.0035 338.629L58.6176 336.625Z" fill="#8A94AE"/>
<path d="M123.124 272.496C123.249 275.251 122.999 277.255 122.373 278.508C121.746 279.76 120.494 280.512 118.74 280.512C116.987 280.637 115.484 279.635 114.482 277.631L112.352 272.12C111.35 270.116 109.847 269.114 108.094 269.239H107.718C107.468 269.239 107.468 269.239 107.342 269.239C107.593 272.621 107.593 275.627 107.468 278.257C107.969 278.257 108.47 278.257 109.096 278.382C109.722 278.382 110.474 278.508 111.35 278.508L111.1 281.013C109.847 280.888 108.219 280.762 106.34 280.888L101.581 281.013L101.455 278.257H102.207C102.833 278.257 103.71 278.257 104.712 278.257C104.712 277.255 104.837 276.003 104.712 274.5C104.712 272.997 104.587 271.243 104.461 269.239L104.336 266.609C104.211 264.605 104.086 262.726 104.086 261.223C104.086 259.72 104.086 258.342 104.211 257.215C103.835 257.34 103.334 257.465 102.833 257.591C102.332 257.716 101.581 257.841 100.954 258.092L100.328 255.336C101.581 255.085 102.833 254.835 103.835 254.71C104.962 254.584 106.09 254.459 107.092 254.459C109.221 254.334 111.1 254.334 112.853 254.584C114.607 254.835 115.985 255.211 117.237 255.712C118.49 256.213 119.492 256.964 120.118 257.841C120.87 258.718 121.245 259.595 121.245 260.722C121.245 261.724 121.12 262.601 120.619 263.477C120.243 264.354 119.617 265.106 118.74 265.857C117.989 266.609 116.987 267.11 115.985 267.736C114.857 268.237 113.73 268.613 112.603 268.989C113.354 269.114 114.231 269.991 114.983 271.619L116.736 275.877C116.987 276.629 117.362 277.13 117.613 277.506C117.863 277.881 118.239 278.007 118.74 278.007C120.243 277.881 120.87 276.378 120.744 273.498C120.744 273.247 120.744 272.871 120.619 272.496C120.619 272.12 120.619 271.744 120.494 271.619L123.124 271.494V272.496ZM118.364 260.722C118.364 259.97 118.114 259.469 117.613 258.843C117.112 258.342 116.486 257.841 115.609 257.591C114.732 257.215 113.855 256.964 112.728 256.839C111.601 256.714 110.474 256.714 109.221 256.714C108.47 256.714 107.718 256.839 106.967 256.964C106.716 257.966 106.591 259.469 106.716 261.473C106.716 261.724 106.716 262.1 106.841 262.601C106.841 263.102 106.967 263.603 106.967 264.104C106.967 264.605 107.092 265.106 107.092 265.481C107.092 265.857 107.217 266.108 107.217 266.233C108.344 266.358 109.346 266.358 110.223 266.358C111.476 266.233 112.478 266.108 113.48 265.732C114.482 265.356 115.358 264.98 116.11 264.479C116.861 263.978 117.362 263.352 117.863 262.726C118.239 262.1 118.364 261.348 118.364 260.722Z" fill="#655775"/>
<path d="M134.02 255.461C133.519 255.461 132.893 255.461 132.392 255.461C131.891 255.461 131.265 255.461 130.764 255.461C130.764 256.213 130.764 257.215 130.764 258.467C130.764 259.72 130.764 261.097 130.889 262.6C130.889 264.104 130.889 265.607 131.014 267.235C131.014 268.863 131.014 270.366 131.14 271.744C131.14 273.122 131.14 274.499 131.265 275.627C131.265 276.754 131.265 277.631 131.265 278.257C131.265 278.257 131.515 278.257 131.766 278.257L134.521 278.132L134.647 280.887C134.02 280.887 133.394 280.887 132.643 281.013C131.891 281.013 131.014 281.013 130.012 281.013H125.253L125.128 278.257L126.255 278.132C126.505 278.132 126.881 278.132 127.132 278.132C127.507 278.132 127.758 278.132 128.134 278.132H128.384C128.384 275.627 128.384 272.621 128.259 268.988C128.134 265.356 128.008 260.972 127.883 255.962C127.257 256.087 126.631 256.213 126.004 256.338C125.378 256.463 124.627 256.463 124 256.588L123.875 253.708L133.895 253.081L134.02 255.461Z" fill="#655775"/>
<path d="M153.811 259.219C153.937 260.471 153.686 261.473 153.185 262.6C152.684 263.603 152.058 264.605 151.306 265.356C150.555 266.108 149.553 266.859 148.425 267.235C147.298 267.736 146.171 267.986 144.918 268.112C143.916 268.112 143.04 268.112 142.413 267.986C142.664 269.865 142.914 272.621 143.29 276.504L147.924 276.128L148.05 278.883C147.674 278.883 147.298 278.883 146.672 279.009C146.171 279.009 145.545 279.134 144.793 279.134C144.042 279.134 143.415 279.259 142.664 279.259C141.912 279.259 141.161 279.384 140.534 279.384C139.908 279.384 139.282 279.51 138.656 279.51C138.155 279.51 137.654 279.635 137.403 279.635L137.278 276.879L140.534 276.629L140.409 273.873C140.159 270.116 139.908 266.734 139.658 263.728C139.407 260.722 139.157 258.091 138.906 255.586L136.151 255.712L136.025 252.956C136.276 252.956 136.652 252.956 137.403 252.831C138.029 252.831 138.656 252.706 139.407 252.58C140.159 252.455 140.785 252.455 141.411 252.33C142.038 252.205 142.539 252.205 142.914 252.205C144.543 252.079 145.92 252.205 147.298 252.455C148.551 252.706 149.803 253.207 150.68 253.708C151.682 254.334 152.433 255.085 152.934 255.962C153.435 257.089 153.686 258.091 153.811 259.219ZM151.181 259.72C150.93 256.463 148.425 254.96 143.541 255.336L141.787 255.461C141.662 255.461 141.662 255.586 141.537 255.837C141.537 256.087 141.411 256.338 141.411 256.714C141.411 257.089 141.411 257.465 141.411 257.841C141.411 258.217 141.411 258.718 141.411 259.093C141.411 259.845 141.537 260.471 141.537 260.972C141.537 261.473 141.662 261.974 141.662 262.475C141.662 262.976 141.787 263.477 141.787 263.853C141.787 264.354 141.912 264.855 141.912 265.356C142.288 265.356 142.539 265.481 142.914 265.481C143.29 265.481 143.666 265.481 144.167 265.481C145.169 265.481 146.171 265.231 147.048 264.98C147.924 264.73 148.676 264.229 149.302 263.853C149.928 263.352 150.429 262.851 150.68 262.099C151.181 261.223 151.306 260.471 151.181 259.72Z" fill="#655775"/>
<path d="M101.58 281.013L102.958 282.641L111.35 281.514L111.099 281.138C111.099 281.013 105.588 280.261 101.58 281.013Z" fill="#ACB6CD"/>
<path d="M115.232 278.633C115.232 278.633 116.234 280.637 118.99 280.887C121.746 281.138 122.497 278.257 122.497 278.257C122.497 278.257 121.495 280.386 118.865 280.011C116.109 279.76 115.232 278.633 115.232 278.633Z" fill="#ACB6CD"/>
<path d="M125.254 281.013L126.005 281.639L134.648 280.887L125.254 281.013Z" fill="#ACB6CD"/>
<path d="M137.402 279.76L144.041 280.136L148.425 279.259L148.049 278.883C148.049 278.883 140.158 279.009 137.402 279.76Z" fill="#ACB6CD"/>
<path d="M112.604 268.738C112.604 268.738 114.357 268.738 117.113 267.61C119.868 266.483 120.87 262.851 120.87 262.851C120.87 262.851 118.866 266.984 112.604 268.738Z" fill="#ACB6CD"/>
<path d="M142.162 267.987C142.162 267.987 143.54 269.49 146.295 269.364C149.176 269.364 151.18 265.356 151.18 265.356C151.18 265.356 147.798 268.863 142.162 267.987Z" fill="#ACB6CD"/>
<path opacity="0.3" d="M160.825 260.221L156.817 260.596L144.918 293.788C144.918 293.788 170.094 296.168 182.869 292.285L160.825 260.221Z" fill="#68164D"/>
<path d="M160.073 292.286C160.073 292.286 162.578 274.75 161.826 269.74C161.075 264.73 158.945 257.09 158.945 257.09C158.945 257.09 173.85 259.47 177.107 260.722C177.107 260.722 182.117 281.639 182.994 292.411C182.869 292.286 163.329 295.793 160.073 292.286Z" fill="url(#paint28_linear_132:675)"/>
<path d="M158.945 256.964C158.945 256.964 160.073 263.979 158.945 268.488C158.945 268.488 159.196 271.87 161.951 271.243C161.951 271.243 162.703 266.734 164.707 265.732C166.711 264.73 172.974 263.603 176.731 267.36C180.489 271.118 178.359 266.734 178.359 266.734C178.359 266.734 180.238 266.859 180.864 265.857C181.491 264.855 176.982 260.722 176.982 260.722C176.982 260.722 172.222 261.474 168.715 261.849C165.208 262.1 158.945 256.964 158.945 256.964Z" fill="url(#paint29_linear_132:675)"/>
<path d="M158.945 256.964C158.945 256.964 161.45 261.098 167.087 263.227C172.723 265.356 177.107 260.597 177.107 260.597C177.107 260.597 166.961 255.211 158.945 256.964Z" fill="#FFE6B2"/>
<path d="M167.963 260.221C167.963 260.221 170.844 249.199 174.727 245.316L176.981 246.694C176.981 246.694 169.341 254.334 168.84 260.471L167.963 260.221Z" fill="url(#paint30_linear_132:675)"/>
<path opacity="0.3" d="M161.701 277.13C161.701 277.13 161.075 284.77 163.329 288.778C165.584 292.787 176.23 291.785 179.236 289.781C182.242 287.776 179.737 273.498 179.737 273.498C179.737 273.498 182.743 288.528 182.743 292.286C182.743 292.286 166.21 295.166 159.947 292.286C160.073 292.286 161.576 279.134 161.701 277.13Z" fill="url(#paint31_linear_132:675)"/>
<path opacity="0.3" d="M77.4067 252.455L73.1482 256.964L62.627 296.419C62.627 296.419 83.1684 299.926 93.4391 296.043L77.4067 252.455Z" fill="#68164D"/>
<path d="M76.0293 297.17C76.0293 297.17 78.5343 277.881 78.6596 269.364C78.6596 260.847 77.4071 252.455 77.4071 252.455C77.4071 252.455 86.4253 251.578 91.5606 254.334C91.5606 254.334 93.1889 285.647 93.4394 296.043C93.3141 295.918 82.2919 298.172 76.0293 297.17Z" fill="url(#paint32_linear_132:675)"/>
<path d="M77.4062 252.455C77.4062 252.455 78.4083 264.73 77.4062 268.738C77.4062 268.738 78.6588 269.991 79.6608 267.36C80.6628 264.73 77.9073 255.962 81.4143 254.209C84.9214 252.455 84.5456 257.841 88.178 258.467C91.8103 259.094 91.5598 254.209 91.5598 254.209C91.5598 254.209 83.9194 250.451 77.4062 252.455Z" fill="url(#paint33_linear_132:675)"/>
<path d="M77.4062 252.455C77.4062 252.455 88.8042 254.585 91.5598 254.334C91.4345 254.209 87.3012 248.572 77.4062 252.455Z" fill="#FFE6B2"/>
<path d="M84.6719 251.829L89.3062 244.063H91.4355L86.1749 252.455L84.6719 251.829Z" fill="url(#paint34_linear_132:675)"/>
<path opacity="0.3" d="M78.5352 273.498C78.5352 273.498 78.5352 289.405 79.6625 291.659C80.6645 293.914 89.3069 295.041 90.5595 293.914C91.812 292.661 92.6888 275.752 92.6888 275.752C92.6888 275.752 93.9413 294.164 93.4403 296.043C93.4403 296.043 82.5433 298.673 76.1554 297.296C76.0302 297.17 78.2847 277.506 78.5352 273.498Z" fill="url(#paint35_linear_132:675)"/>
<path d="M105.963 335.247L129.886 330.613L141.535 322.722L150.177 318.463L133.769 331.865L132.516 334.496L105.963 335.247Z" fill="#655775"/>
<path opacity="0.5" d="M105.963 335.247L125.252 334.621L132.642 331.49L140.908 324.851L142.912 323.348L150.177 318.463L140.908 322.847L129.886 330.613L105.963 335.247Z" fill="url(#paint36_linear_132:675)"/>
<path d="M93.9395 56.1844L108.343 52.4268C108.343 52.4268 127.883 50.4228 136.525 58.8147H120.117L109.346 54.5561C109.346 54.6814 100.828 56.5602 93.9395 56.1844Z" fill="#B6C6EF"/>
<path d="M140.031 61.0693L145.167 66.7056L153.684 73.0935C153.684 73.0935 148.298 64.9521 140.031 61.0693Z" fill="#B6C6EF"/>
<path opacity="0.57" d="M162.327 122.944L151.805 133.09C151.805 133.09 126.379 88.8755 93.4377 95.5139C70.3912 100.148 65.3811 127.328 65.2559 127.829L68.0114 117.558C70.0155 112.047 73.5225 104.783 79.6599 96.5159C86.0478 87.8735 94.4397 80.4836 104.836 77.6028C107.967 76.726 111.224 76.225 114.981 76.225C149.3 76.3502 159.696 110.669 162.327 122.944Z" fill="url(#paint37_linear_132:675)"/>
<defs>
<linearGradient id="paint0_linear_132:675" x1="72.4262" y1="55.7242" x2="89.0549" y2="-0.775428" gradientUnits="userSpaceOnUse">
<stop stop-color="#6B618B"/>
<stop offset="1" stop-color="#8E7182"/>
</linearGradient>
<linearGradient id="paint1_linear_132:675" x1="96.2764" y1="55.9583" x2="115.526" y2="1.22974" gradientUnits="userSpaceOnUse">
<stop stop-color="#989BBB"/>
<stop offset="1" stop-color="#AC80A9"/>
</linearGradient>
<linearGradient id="paint2_linear_132:675" x1="98.7658" y1="44.3601" x2="112.411" y2="5.56685" gradientUnits="userSpaceOnUse">
<stop stop-color="#989BBB"/>
<stop offset="1" stop-color="#AC80A9"/>
</linearGradient>
<linearGradient id="paint3_linear_132:675" x1="95.2525" y1="45.1763" x2="99.4234" y2="31.0044" gradientUnits="userSpaceOnUse">
<stop stop-color="#6B618B"/>
<stop offset="1" stop-color="#8E7182"/>
</linearGradient>
<linearGradient id="paint4_linear_132:675" x1="33.9777" y1="299.314" x2="119.151" y2="57.1577" gradientUnits="userSpaceOnUse">
<stop stop-color="#495374"/>
<stop offset="1" stop-color="#8E7182"/>
</linearGradient>
<linearGradient id="paint5_linear_132:675" x1="88.4737" y1="308.692" x2="172.181" y2="70.7048" gradientUnits="userSpaceOnUse">
<stop stop-color="#7C85A2"/>
<stop offset="1" stop-color="#9F9DD1"/>
</linearGradient>
<linearGradient id="paint6_linear_132:675" x1="87.8757" y1="303.015" x2="162.661" y2="90.3929" gradientUnits="userSpaceOnUse">
<stop stop-color="#656E8D"/>
<stop offset="1" stop-color="#846579"/>
</linearGradient>
<linearGradient id="paint7_linear_132:675" x1="104.52" y1="369.802" x2="140.565" y2="267.324" gradientUnits="userSpaceOnUse">
<stop stop-color="#596383"/>
<stop offset="1" stop-color="#8E7182"/>
</linearGradient>
<linearGradient id="paint8_linear_132:675" x1="133.467" y1="359.957" x2="164.864" y2="270.693" gradientUnits="userSpaceOnUse">
<stop stop-color="#707997"/>
<stop offset="1" stop-color="#AC8FA1"/>
</linearGradient>
<linearGradient id="paint9_linear_132:675" x1="106.837" y1="327.54" x2="131.019" y2="258.789" gradientUnits="userSpaceOnUse">
<stop stop-color="#939BB6"/>
<stop offset="1" stop-color="#D4B8CB"/>
</linearGradient>
<linearGradient id="paint10_linear_132:675" x1="81.4437" y1="300.749" x2="153.659" y2="95.4336" gradientUnits="userSpaceOnUse">
<stop stop-color="#707997"/>
<stop offset="1" stop-color="#8B81A7"/>
</linearGradient>
<linearGradient id="paint11_linear_132:675" x1="106.56" y1="307.739" x2="135.231" y2="226.226" gradientUnits="userSpaceOnUse">
<stop stop-color="#7C85A2"/>
<stop offset="1" stop-color="#AC8FA1"/>
</linearGradient>
<linearGradient id="paint12_linear_132:675" x1="69.3879" y1="294.665" x2="86.8231" y2="245.095" gradientUnits="userSpaceOnUse">
<stop stop-color="#596383"/>
<stop offset="1" stop-color="#8E7182"/>
</linearGradient>
<linearGradient id="paint13_linear_132:675" x1="115.005" y1="256.639" x2="127.059" y2="222.368" gradientUnits="userSpaceOnUse">
<stop stop-color="#939BB6"/>
<stop offset="1" stop-color="#D4B8CB"/>
</linearGradient>
<linearGradient id="paint14_linear_132:675" x1="97.17" y1="175.946" x2="120.698" y2="109.054" gradientUnits="userSpaceOnUse">
<stop stop-color="#596383"/>
<stop offset="1" stop-color="#8E7182"/>
</linearGradient>
<linearGradient id="paint15_linear_132:675" x1="102.281" y1="176.664" x2="126.291" y2="108.403" gradientUnits="userSpaceOnUse">
<stop stop-color="#9A92B4"/>
<stop offset="1" stop-color="#AC8FA1"/>
</linearGradient>
<linearGradient id="paint16_linear_132:675" x1="71.2087" y1="295.989" x2="71.2087" y2="240.274" gradientUnits="userSpaceOnUse">
<stop stop-color="white"/>
<stop offset="1" stop-color="#A47A9F"/>
</linearGradient>
<linearGradient id="paint17_linear_132:675" x1="29.9229" y1="143.078" x2="52.3683" y2="143.078" gradientUnits="userSpaceOnUse">
<stop stop-color="#6F77A2"/>
<stop offset="1" stop-color="#AC8195"/>
</linearGradient>
<linearGradient id="paint18_linear_132:675" x1="30.3606" y1="138.964" x2="65.4939" y2="138.964" gradientUnits="userSpaceOnUse">
<stop stop-color="white"/>
<stop offset="1" stop-color="#A47A9F"/>
</linearGradient>
<linearGradient id="paint19_linear_132:675" x1="156.941" y1="206.995" x2="186.614" y2="206.995" gradientUnits="userSpaceOnUse">
<stop stop-color="#6DB2FF"/>
<stop offset="1" stop-color="#A47A9F"/>
</linearGradient>
<linearGradient id="paint20_linear_132:675" x1="52.3086" y1="266.093" x2="52.3086" y2="231.054" gradientUnits="userSpaceOnUse">
<stop stop-color="#75B2B5"/>
<stop offset="1" stop-color="#A47A9F"/>
</linearGradient>
<linearGradient id="paint21_linear_132:675" x1="130.929" y1="84.3938" x2="152.02" y2="84.3938" gradientUnits="userSpaceOnUse">
<stop stop-color="#6DB2FF"/>
<stop offset="1" stop-color="#A47A9F"/>
</linearGradient>
<linearGradient id="paint22_linear_132:675" x1="110.084" y1="296.394" x2="110.084" y2="268.829" gradientUnits="userSpaceOnUse">
<stop stop-color="#A47A9F"/>
<stop offset="1" stop-color="white"/>
</linearGradient>
<linearGradient id="paint23_linear_132:675" x1="119.942" y1="337.704" x2="119.942" y2="295.989" gradientUnits="userSpaceOnUse">
<stop stop-color="#A47A9F"/>
<stop offset="1" stop-color="white"/>
</linearGradient>
<linearGradient id="paint24_linear_132:675" x1="106.461" y1="398.971" x2="140.844" y2="301.214" gradientUnits="userSpaceOnUse">
<stop stop-color="#596383"/>
<stop offset="1" stop-color="#8E7182"/>
</linearGradient>
<linearGradient id="paint25_linear_132:675" x1="138.648" y1="390.785" x2="166.926" y2="310.388" gradientUnits="userSpaceOnUse">
<stop stop-color="#707997"/>
<stop offset="1" stop-color="#AC8FA1"/>
</linearGradient>
<linearGradient id="paint26_linear_132:675" x1="140.074" y1="365.334" x2="160.229" y2="308.033" gradientUnits="userSpaceOnUse">
<stop stop-color="#939BB6"/>
<stop offset="1" stop-color="#D4B8CB"/>
</linearGradient>
<linearGradient id="paint27_linear_132:675" x1="170.521" y1="360.918" x2="179.983" y2="334.016" gradientUnits="userSpaceOnUse">
<stop stop-color="#939BB6"/>
<stop offset="1" stop-color="#D4B8CB"/>
</linearGradient>
<linearGradient id="paint28_linear_132:675" x1="170.865" y1="293.829" x2="170.865" y2="256.991" gradientUnits="userSpaceOnUse">
<stop stop-color="#FF7C75"/>
<stop offset="1" stop-color="#FFAE8B"/>
</linearGradient>
<linearGradient id="paint29_linear_132:675" x1="169.931" y1="271.296" x2="169.931" y2="256.991" gradientUnits="userSpaceOnUse">
<stop offset="0.00396825" stop-color="#FFA993"/>
<stop offset="1" stop-color="#FFEB9F"/>
</linearGradient>
<linearGradient id="paint30_linear_132:675" x1="172.467" y1="260.605" x2="172.467" y2="245.353" gradientUnits="userSpaceOnUse">
<stop stop-color="#FF9A7F"/>
<stop offset="1" stop-color="#A39FC0"/>
</linearGradient>
<linearGradient id="paint31_linear_132:675" x1="168.558" y1="295.283" x2="176.625" y2="272.347" gradientUnits="userSpaceOnUse">
<stop stop-color="#A47A9F"/>
<stop offset="1" stop-color="white"/>
</linearGradient>
<linearGradient id="paint32_linear_132:675" x1="84.6889" y1="297.42" x2="84.6889" y2="252.29" gradientUnits="userSpaceOnUse">
<stop stop-color="#FF7C75"/>
<stop offset="1" stop-color="#FFAE8B"/>
</linearGradient>
<linearGradient id="paint33_linear_132:675" x1="84.4146" y1="269.001" x2="84.4146" y2="251.839" gradientUnits="userSpaceOnUse">
<stop offset="0.00396825" stop-color="#FFA993"/>
<stop offset="1" stop-color="#FFEB9F"/>
</linearGradient>
<linearGradient id="paint34_linear_132:675" x1="88.0851" y1="252.422" x2="88.0851" y2="244.098" gradientUnits="userSpaceOnUse">
<stop stop-color="#FF9A7F"/>
<stop offset="1" stop-color="#A39FC0"/>
</linearGradient>
<linearGradient id="paint35_linear_132:675" x1="80.9318" y1="298.893" x2="89.4681" y2="274.623" gradientUnits="userSpaceOnUse">
<stop stop-color="#A47A9F"/>
<stop offset="1" stop-color="white"/>
</linearGradient>
<linearGradient id="paint36_linear_132:675" x1="105.95" y1="326.864" x2="150.152" y2="326.864" gradientUnits="userSpaceOnUse">
<stop stop-color="#6DB2FF"/>
<stop offset="1" stop-color="#A47A9F"/>
</linearGradient>
<linearGradient id="paint37_linear_132:675" x1="65.2557" y1="104.745" x2="162.264" y2="104.745" gradientUnits="userSpaceOnUse">
<stop stop-color="#764370"/>
<stop offset="1" stop-color="#BB9FB2"/>
</linearGradient>
</defs>
</svg>
