<svg width="193" height="220" viewBox="0 0 193 220" fill="none" xmlns="http://www.w3.org/2000/svg">
<path fill-rule="evenodd" clip-rule="evenodd" d="M109.984 204.55L102.921 216.102C97.7843 224.446 71.4589 218.028 43.2073 201.983C14.9558 185.937 -4.30667 165.399 0.829984 157.056L7.89288 145.503C41.9232 164.757 75.9535 184.654 109.984 204.55Z" fill="url(#paint0_linear_132:787)"/>
<path opacity="0.5" fill-rule="evenodd" clip-rule="evenodd" d="M2.11437 166.683L9.17726 155.13C7.25102 151.279 6.60894 147.428 7.8931 145.503L0.830207 157.056C-0.453956 159.623 0.188125 162.832 2.11437 166.683Z" fill="url(#paint1_linear_132:787)"/>
<path fill-rule="evenodd" clip-rule="evenodd" d="M21.3773 169.25L14.3145 180.802C19.4511 185.937 25.8719 190.43 33.5769 195.564L40.6398 184.012C32.9348 178.877 26.514 173.743 21.3773 169.25Z" fill="url(#paint2_linear_132:787)"/>
<path opacity="0.5" fill-rule="evenodd" clip-rule="evenodd" d="M72.7426 201.34L65.6797 212.893C71.4584 215.46 77.2371 217.386 82.3738 218.028L89.4367 206.475C84.3 205.191 79.1634 203.266 72.7426 201.34Z" fill="url(#paint3_linear_132:787)"/>
<path opacity="0.5" fill-rule="evenodd" clip-rule="evenodd" d="M97.7836 207.759L90.7207 219.311C97.1415 219.953 101.636 218.669 103.562 216.102L110.625 204.549C108.699 207.117 104.204 208.4 97.7836 207.759Z" fill="url(#paint4_linear_132:787)"/>
<path fill-rule="evenodd" clip-rule="evenodd" d="M66.9637 160.266C95.2153 176.311 113.836 196.207 108.699 204.551C103.562 212.894 77.237 206.476 48.9855 190.431C20.7339 174.386 2.11353 154.489 7.25018 146.146C12.3868 137.802 39.3542 144.22 66.9637 160.266Z" fill="#E26F80"/>
<path fill-rule="evenodd" clip-rule="evenodd" d="M67.606 159.623C95.8576 175.669 115.12 196.207 109.983 204.55C104.847 212.894 78.5214 206.476 50.2699 190.43C22.0183 174.385 2.75583 153.847 7.89248 145.503C12.3871 137.16 39.3545 143.578 67.606 159.623Z" fill="url(#paint5_radial_132:787)"/>
<path fill-rule="evenodd" clip-rule="evenodd" d="M15.5976 148.711C14.9555 151.279 15.5976 153.846 16.8818 156.413C18.808 158.98 20.7342 160.906 22.6605 162.831C31.0075 171.175 41.9229 178.877 52.8383 185.295C63.1116 191.071 75.3112 196.848 86.8686 200.057C89.4369 200.698 92.6474 201.34 95.8578 201.982C99.7102 202.624 103.563 200.698 105.489 196.848L111.91 185.295C117.689 175.026 118.973 164.115 117.046 152.562C117.046 151.279 116.404 149.995 116.404 149.353V148.07L15.5976 148.711Z" fill="url(#paint6_radial_132:787)"/>
<path fill-rule="evenodd" clip-rule="evenodd" d="M115.762 147.428C116.404 148.712 115.762 149.353 115.762 150.637C113.836 159.622 100.994 160.906 91.3632 160.264C75.9533 158.981 65.0379 167.324 49.628 167.324C36.7863 167.966 15.5977 162.19 15.5977 149.353C15.5977 147.428 16.8818 146.144 18.166 144.861C24.5868 139.726 39.3547 133.95 50.9121 130.741C66.3221 126.89 81.732 124.964 88.7949 124.964C97.142 124.323 112.552 139.726 115.762 147.428Z" fill="url(#paint7_radial_132:787)"/>
<path fill-rule="evenodd" clip-rule="evenodd" d="M92.6479 94.1577C95.8583 98.6504 96.5004 101.859 96.5004 104.427C96.5004 105.71 96.5004 107.636 97.1425 108.278C97.7846 108.919 99.7108 107.636 100.995 106.994C102.921 105.069 106.774 104.427 111.91 105.069C117.689 105.71 123.468 105.069 129.247 105.069C135.025 105.069 140.804 103.785 146.583 101.859C154.288 99.2922 161.351 94.1577 167.129 88.3814L89.4375 87.7396C90.0796 90.3068 91.3637 92.2323 92.6479 94.1577Z" fill="url(#paint8_radial_132:787)"/>
<path opacity="0.5" fill-rule="evenodd" clip-rule="evenodd" d="M97.1423 139.727C94.574 140.369 92.6477 141.652 91.3636 142.936C86.869 149.996 108.058 161.548 113.194 151.921C113.836 150.638 113.836 148.712 112.552 146.787C111.268 144.861 109.984 142.936 108.058 141.652C104.847 138.443 102.279 138.443 97.1423 139.727Z" fill="url(#paint9_radial_132:787)"/>
<path fill-rule="evenodd" clip-rule="evenodd" d="M131.173 68.4852C149.151 68.4852 168.414 78.1124 168.414 85.1724C168.414 92.2323 150.435 96.725 128.605 96.725C106.132 96.725 88.7956 91.5905 88.7956 85.1724C88.1535 78.7543 112.553 68.4852 131.173 68.4852Z" fill="url(#paint10_radial_132:787)"/>
<path opacity="0.5" fill-rule="evenodd" clip-rule="evenodd" d="M158.141 77.4708C165.203 84.5307 159.425 89.6652 151.72 92.2325C142.089 95.4416 127.321 96.7252 117.689 96.7252C120.9 96.7252 124.11 97.367 127.963 97.367C150.436 97.367 167.772 92.2325 167.772 85.8144C167.772 80.6798 154.93 72.9781 140.162 70.4108C146.583 71.0526 154.288 73.6199 158.141 77.4708Z" fill="url(#paint11_radial_132:787)"/>
<path fill-rule="evenodd" clip-rule="evenodd" d="M109.984 105.068C130.531 109.56 151.078 105.71 163.919 91.5897C143.373 107.635 109.984 105.068 109.984 105.068Z" fill="white"/>
<path fill-rule="evenodd" clip-rule="evenodd" d="M104.848 123.681C118.973 139.084 123.468 158.98 115.763 176.309C120.9 151.92 104.848 123.681 104.848 123.681Z" fill="white"/>
<path opacity="0.75" fill-rule="evenodd" clip-rule="evenodd" d="M71.4589 185.296C72.7431 185.938 73.3851 186.58 72.7431 187.863C72.101 188.505 71.4589 189.147 70.1747 188.505C68.8906 187.863 68.2485 186.58 68.8906 185.938C69.5326 185.296 70.8168 184.654 71.4589 185.296Z" fill="#F9B233"/>
<path opacity="0.75" fill-rule="evenodd" clip-rule="evenodd" d="M83.6582 139.084C83.6582 139.726 83.6582 140.368 84.9424 140.368C85.5844 140.368 86.2265 140.368 86.2265 139.726C86.2265 139.084 85.5844 138.443 84.9424 138.443C84.3003 138.443 83.6582 138.443 83.6582 139.084Z" fill="#F9B233"/>
<path opacity="0.75" fill-rule="evenodd" clip-rule="evenodd" d="M83.6593 149.354C84.3014 148.712 85.5855 149.354 86.2276 149.996C86.8697 150.638 87.5118 151.279 86.2276 151.921C85.5855 152.563 84.3014 151.921 83.6593 151.279C83.0172 150.638 83.0172 149.996 83.6593 149.354Z" fill="#F9B233"/>
<path fill-rule="evenodd" clip-rule="evenodd" d="M81.7335 120.472C82.3756 119.831 83.6598 120.472 84.3018 121.114C84.9439 121.756 85.586 122.398 84.3018 123.04C83.6598 123.681 82.3756 123.04 81.7335 122.398C81.0914 121.756 81.0914 121.114 81.7335 120.472Z" fill="#F9B233"/>
<path fill-rule="evenodd" clip-rule="evenodd" d="M92.007 113.412C93.2911 112.771 93.9332 112.771 95.2174 114.054C95.8594 114.696 96.5015 115.98 95.2174 116.621C93.9332 117.263 92.649 116.621 92.007 115.98C91.3649 114.696 91.3649 114.054 92.007 113.412Z" fill="#C94300"/>
<path opacity="0.75" fill-rule="evenodd" clip-rule="evenodd" d="M54.7648 160.907C54.1227 160.265 54.1227 159.624 54.7648 158.982C55.4068 158.34 56.0489 158.982 56.691 158.982C57.3331 159.624 56.691 160.265 56.691 160.907C55.4068 161.549 54.7648 161.549 54.7648 160.907Z" fill="#F9B233"/>
<path opacity="0.4" fill-rule="evenodd" clip-rule="evenodd" d="M44.4924 173.102C45.1345 172.46 46.4187 171.818 47.0607 172.46C48.3449 173.102 48.3449 174.385 47.7028 175.669C47.0607 176.311 45.7766 176.311 44.4924 176.311C43.2083 175.669 43.2083 173.743 44.4924 173.102Z" fill="#F9B233"/>
<path opacity="0.75" fill-rule="evenodd" clip-rule="evenodd" d="M97.143 191.072C98.4272 191.072 99.0693 190.43 99.0693 189.146C99.0693 187.863 98.4272 187.221 97.143 187.221C95.8589 187.221 95.2168 187.863 95.2168 189.146C95.2168 190.43 95.8589 190.43 97.143 191.072Z" fill="#F9B233"/>
<path opacity="0.4" fill-rule="evenodd" clip-rule="evenodd" d="M81.7329 191.713C83.017 191.713 83.6591 191.072 83.6591 190.43C83.6591 189.146 83.017 188.504 81.7329 188.504C81.0908 188.504 79.8066 189.146 79.8066 190.43C79.8066 191.072 80.4487 191.713 81.7329 191.713Z" fill="#F9B233"/>
<path opacity="0.75" fill-rule="evenodd" clip-rule="evenodd" d="M97.7847 181.445C98.4267 182.087 99.7109 182.087 99.7109 180.803C100.353 180.162 99.7109 178.878 99.0688 178.878C98.4267 178.236 97.1426 178.878 97.1426 179.52C97.1426 180.162 97.1426 181.445 97.7847 181.445Z" fill="#F9B233"/>
<path opacity="0.4" fill-rule="evenodd" clip-rule="evenodd" d="M61.8276 179.519C62.4697 180.161 63.7539 180.161 64.396 178.877C65.038 178.235 64.396 176.952 63.7539 176.31C63.1118 175.668 61.8276 176.31 61.1855 176.952C61.1855 177.593 61.1855 178.877 61.8276 179.519Z" fill="#F9B233"/>
<path opacity="0.75" fill-rule="evenodd" clip-rule="evenodd" d="M77.2387 146.145C78.5229 146.145 79.165 145.504 79.165 144.862C79.165 144.22 78.5229 142.936 77.2387 142.936C75.9546 142.936 75.3125 143.578 75.3125 144.862C75.3125 145.504 75.9546 146.145 77.2387 146.145Z" fill="#F9B233"/>
<path opacity="0.75" fill-rule="evenodd" clip-rule="evenodd" d="M88.1528 198.774C88.7949 198.774 90.0791 198.132 90.0791 197.49C90.0791 196.849 89.437 195.565 88.1528 195.565C87.5107 195.565 86.2266 196.207 86.2266 197.49C86.8686 198.774 87.5107 198.774 88.1528 198.774Z" fill="#F9B233"/>
<path opacity="0.75" fill-rule="evenodd" clip-rule="evenodd" d="M73.3859 174.385C74.0279 173.743 74.0279 173.743 74.67 174.385C75.3121 175.027 74.67 175.669 74.67 175.669C74.0279 175.669 73.3859 175.669 73.3859 175.669C72.7438 175.669 72.7438 175.027 73.3859 174.385Z" fill="#F9B233"/>
<path opacity="0.75" fill-rule="evenodd" clip-rule="evenodd" d="M79.8066 179.52C79.8066 180.162 79.8066 181.445 80.4487 181.445C81.0908 181.445 82.375 181.445 82.375 180.162C82.375 179.52 82.375 178.236 81.0908 178.236C80.4487 178.236 79.8066 178.878 79.8066 179.52Z" fill="#F9B233"/>
<path opacity="0.4" fill-rule="evenodd" clip-rule="evenodd" d="M86.2265 177.593C85.5844 178.877 86.2265 179.519 87.5107 180.161C88.7948 180.802 89.4369 180.161 90.079 178.877C90.7211 178.235 89.4369 176.952 88.7948 176.952C87.5107 176.31 86.8686 176.31 86.2265 177.593Z" fill="#F9B233"/>
<path opacity="0.75" fill-rule="evenodd" clip-rule="evenodd" d="M50.2706 182.086C50.9127 182.728 51.5548 182.728 52.1969 182.086C52.8389 181.444 52.8389 180.803 52.1969 180.161C51.5548 179.519 50.9127 179.519 50.2706 180.161C49.6285 180.803 49.6285 181.444 50.2706 182.086Z" fill="#F9B233"/>
<path opacity="0.75" fill-rule="evenodd" clip-rule="evenodd" d="M93.9321 171.176C92.6479 171.176 92.0059 169.892 92.0059 168.608C92.0059 167.325 93.29 166.683 94.5742 166.683C95.8583 166.683 96.5004 167.967 96.5004 169.25C96.5004 171.176 95.2163 171.176 93.9321 171.176Z" fill="#F9B233"/>
<path opacity="0.75" fill-rule="evenodd" clip-rule="evenodd" d="M32.9347 170.533C33.5768 171.175 34.2189 171.175 34.8609 170.533C35.503 169.891 35.503 169.25 34.8609 168.608C34.2189 167.966 33.5768 167.966 32.9347 168.608C32.2926 169.25 32.2926 169.891 32.9347 170.533Z" fill="#F9B233"/>
<path opacity="0.4" fill-rule="evenodd" clip-rule="evenodd" d="M70.1757 135.875C71.4598 136.517 72.1019 137.159 71.4598 138.443C70.8178 139.085 70.1757 139.726 68.8915 139.085C67.6074 138.443 66.9653 137.159 67.6074 136.517C68.2494 135.875 68.8915 135.234 70.1757 135.875Z" fill="#F9B233"/>
<path opacity="0.75" fill-rule="evenodd" clip-rule="evenodd" d="M106.774 162.19C107.416 161.548 108.7 160.906 109.342 161.548C110.626 162.19 110.626 163.473 109.984 164.757C109.342 165.399 108.058 165.399 106.774 165.399C105.49 164.757 105.49 162.832 106.774 162.19Z" fill="#F9B233"/>
<path opacity="0.75" fill-rule="evenodd" clip-rule="evenodd" d="M63.7538 146.786C65.038 147.428 65.6801 148.07 65.038 149.354C64.3959 149.996 63.7538 150.637 62.4696 149.996C61.1855 149.354 60.5434 148.07 61.1855 147.428C61.8276 146.787 62.4696 146.786 63.7538 146.786Z" fill="#F9B233"/>
<path fill-rule="evenodd" clip-rule="evenodd" d="M96.4999 119.83C97.7841 120.472 98.4261 121.756 98.4261 123.039C97.7841 124.323 96.4999 124.323 95.2157 124.323C93.9316 123.681 93.2895 122.397 93.9316 121.114C93.9316 119.83 95.2157 119.188 96.4999 119.83Z" fill="#F99900"/>
<path opacity="0.75" fill-rule="evenodd" clip-rule="evenodd" d="M108.7 174.385C109.342 173.743 109.342 173.743 109.984 174.385C110.627 175.027 109.984 175.669 109.984 175.669C109.342 175.669 108.7 175.669 108.7 175.669C108.058 175.669 108.058 175.027 108.7 174.385Z" fill="#F9B233"/>
<path opacity="0.75" fill-rule="evenodd" clip-rule="evenodd" d="M80.4492 131.384C80.4492 132.026 80.4492 132.667 81.7334 132.667C82.3755 132.667 83.0175 132.667 83.0175 132.026C83.0175 131.384 82.3755 130.742 81.7334 130.742C80.4492 130.1 80.4492 130.742 80.4492 131.384Z" fill="#F9B233"/>
<path opacity="0.4" fill-rule="evenodd" clip-rule="evenodd" d="M91.3633 136.518C91.3633 137.159 91.3633 137.801 92.6474 137.801C93.2895 137.801 93.9316 137.801 93.9316 137.159C93.9316 136.518 93.2895 135.876 92.6474 135.876C92.0054 135.876 92.0054 135.876 91.3633 136.518Z" fill="#F9B233"/>
<path fill-rule="evenodd" clip-rule="evenodd" d="M123.467 81.3214C124.109 81.3214 125.393 80.6796 125.393 80.0378C125.393 79.396 124.751 78.1124 123.467 78.1124C122.825 78.1124 121.541 78.7542 121.541 79.396C121.541 81.3214 122.183 81.3214 123.467 81.3214Z" fill="#FFC82C"/>
<path fill-rule="evenodd" clip-rule="evenodd" d="M126.035 90.9491C126.677 90.3073 127.32 90.3073 127.962 90.9491C128.604 91.5909 127.962 92.2327 127.962 92.8745C127.32 93.5163 126.677 92.8745 126.035 92.8745C125.393 92.2327 126.035 91.5909 126.035 90.9491Z" fill="#FFC82C"/>
<path fill-rule="evenodd" clip-rule="evenodd" d="M154.929 79.3965C155.571 79.3965 156.213 78.7547 156.213 78.1129C156.213 77.471 156.213 76.8292 154.929 76.8292C154.287 76.8292 153.645 77.471 153.645 78.1129C153.645 79.3965 154.287 79.3965 154.929 79.3965Z" fill="#FFC82C"/>
<path opacity="0.5" fill-rule="evenodd" clip-rule="evenodd" d="M109.341 76.8286C108.699 76.1868 108.057 76.1868 106.773 76.1868C106.131 76.8286 106.131 78.1122 106.131 78.754C106.773 79.3959 108.057 79.3959 108.699 78.754C109.983 78.1122 109.983 77.4704 109.341 76.8286Z" fill="#FFC82C"/>
<path opacity="0.5" fill-rule="evenodd" clip-rule="evenodd" d="M90.7207 85.8149C90.7207 87.0985 91.3628 88.3822 92.6469 88.3822C93.9311 88.3822 94.5732 87.7404 95.2153 86.4567C95.2153 85.1731 94.5732 83.8895 93.289 83.8895C91.3628 83.8895 90.7207 84.5313 90.7207 85.8149Z" fill="#FFC82C"/>
<path opacity="0.5" fill-rule="evenodd" clip-rule="evenodd" d="M100.994 90.9485C100.994 92.2321 101.636 92.2321 102.278 92.2321C102.92 92.2321 103.562 92.2321 103.562 90.9485C104.205 89.6648 102.92 89.023 102.278 89.023C101.636 89.6648 100.994 89.6648 100.994 90.9485Z" fill="#FFC82C"/>
<path opacity="0.5" fill-rule="evenodd" clip-rule="evenodd" d="M108.057 97.3668C108.699 97.3668 109.341 97.3668 109.983 97.3668C110.625 97.3668 110.625 98.6504 109.983 98.6504C109.341 98.6504 108.699 98.6504 108.057 98.0086V97.3668Z" fill="#FFC82C"/>
<path opacity="0.5" fill-rule="evenodd" clip-rule="evenodd" d="M109.983 87.0988C110.625 87.7406 111.267 88.3824 110.625 89.0243C109.983 89.6661 109.341 90.3079 108.056 89.6661C107.414 89.0243 106.772 88.3825 107.414 87.7406C108.699 86.457 109.341 86.457 109.983 87.0988Z" fill="#FFC82C"/>
<path opacity="0.5" fill-rule="evenodd" clip-rule="evenodd" d="M122.182 75.5456C122.182 76.1874 120.898 76.8292 120.256 76.8292C119.614 76.8292 118.972 75.5456 119.614 74.9038C119.614 74.2619 120.898 73.6201 121.54 74.2619C122.182 73.6201 122.824 74.9038 122.182 75.5456Z" fill="#FFC82C"/>
<path opacity="0.5" fill-rule="evenodd" clip-rule="evenodd" d="M115.762 82.6051C115.762 83.2469 115.12 83.8887 115.12 83.8887C114.478 83.8887 113.836 83.2469 113.836 82.6051C113.836 81.9633 114.478 81.3215 115.12 81.3215C115.762 81.3215 115.762 81.9633 115.762 82.6051Z" fill="#FFC82C"/>
<path opacity="0.5" fill-rule="evenodd" clip-rule="evenodd" d="M120.256 89.6656C120.256 89.0238 120.256 89.0238 120.898 88.382C121.54 88.382 121.54 89.0238 122.182 89.6656C122.182 90.3075 121.54 90.9493 121.54 90.9493C120.898 90.3075 120.256 90.3075 120.256 89.6656Z" fill="#FFC82C"/>
<path opacity="0.5" fill-rule="evenodd" clip-rule="evenodd" d="M146.582 80.0386C147.224 78.755 147.224 78.1132 146.582 77.4714C145.94 76.8296 144.656 76.8296 144.014 78.1132C143.371 79.3968 143.371 80.0386 144.656 80.6805C145.298 80.6805 145.94 81.3223 146.582 80.0386Z" fill="#FFC82C"/>
<path opacity="0.8" fill-rule="evenodd" clip-rule="evenodd" d="M129.889 80.6804C130.531 81.3222 131.815 81.3222 132.457 81.3222C133.099 80.6804 133.099 79.3968 133.099 78.755C132.457 78.1132 131.173 78.1132 130.531 78.755C129.246 78.755 129.246 80.0386 129.889 80.6804Z" fill="#FFC82C"/>
<path opacity="0.5" fill-rule="evenodd" clip-rule="evenodd" d="M127.962 87.0978C128.604 87.7396 129.246 87.7396 129.888 87.7396C130.53 87.0978 130.53 86.4559 129.888 85.8141C129.246 85.1723 128.604 85.1723 127.962 85.8141C127.32 85.8141 127.32 86.4559 127.962 87.0978Z" fill="#FFC82C"/>
<path opacity="0.5" fill-rule="evenodd" clip-rule="evenodd" d="M137.592 101.218C138.234 101.86 138.876 101.86 139.518 101.218C140.16 100.576 140.803 99.9346 140.16 99.2928C139.518 98.651 138.876 98.651 138.234 99.2928C137.592 99.9346 136.95 100.576 137.592 101.218Z" fill="#FFC82C"/>
<path opacity="0.5" fill-rule="evenodd" clip-rule="evenodd" d="M145.297 91.5909C145.939 90.9491 145.939 89.6655 145.297 89.6655C144.655 89.0237 143.37 89.0237 142.728 90.3073C142.086 90.9491 142.086 92.2327 143.37 92.8745C144.013 92.8745 145.297 92.2327 145.297 91.5909Z" fill="#FFC82C"/>
<path opacity="0.8" fill-rule="evenodd" clip-rule="evenodd" d="M156.212 87.7398C156.854 87.098 156.854 85.8144 156.212 85.1726C155.57 84.5308 154.286 85.1726 153.644 85.8144C153.002 86.4562 153.002 87.7398 153.644 88.3817C154.286 89.0235 155.57 88.3817 156.212 87.7398Z" fill="#FFC82C"/>
<path opacity="0.5" fill-rule="evenodd" clip-rule="evenodd" d="M162.634 90.3067C163.276 89.6649 162.634 89.023 162.634 89.023C161.992 88.3812 161.35 89.023 161.35 89.023C160.708 89.6649 161.35 90.3067 161.35 90.3067C161.35 90.3067 161.992 90.3067 162.634 90.3067Z" fill="#FFC82C"/>
<path fill-rule="evenodd" clip-rule="evenodd" d="M86.868 13.9312L184.464 70.4108L176.759 83.8889C170.339 94.7997 160.065 103.143 147.866 106.994C142.087 108.92 135.666 110.203 128.603 110.203C97.1413 111.487 100.994 104.427 115.762 132.667C118.972 138.443 120.898 144.861 122.182 150.638C124.751 162.832 122.825 175.668 116.404 187.221L108.699 200.699C104.204 208.401 78.5209 202.624 51.5535 187.221C24.5861 171.817 6.60781 152.563 11.1024 144.219L18.8074 130.741C25.2282 119.83 35.5015 111.487 47.701 107.636C53.4797 105.711 59.9006 104.427 66.9635 104.427C98.4254 103.143 94.5729 110.203 79.8051 81.9634C76.5947 76.1871 74.6684 69.769 73.3843 63.9926C70.8159 51.1564 72.1001 38.3201 79.163 27.4092L86.868 13.9312ZM88.7942 21.6329L83.6576 29.9765C77.8788 40.2455 76.5947 51.1564 78.5209 62.709C79.8051 68.4853 81.7313 74.2617 84.2997 79.3962C86.868 84.5307 89.4363 89.6652 92.6467 94.1579C99.7096 104.427 96.4992 110.845 83.6576 109.561C77.8788 108.92 72.1001 109.561 66.3214 109.561C60.5426 109.561 54.7639 110.845 48.9852 112.77C38.0698 116.621 29.0807 123.681 23.3019 133.95L16.8811 145.503C14.9549 148.712 14.9549 152.563 17.5232 155.772C19.4494 158.339 21.3757 160.265 23.3019 162.19C31.649 170.534 42.5644 178.236 53.4797 184.654C63.753 190.43 75.9526 196.206 87.5101 199.415C90.0784 200.057 93.2888 200.699 96.4992 201.341C100.352 201.983 104.204 200.057 106.13 196.206L112.551 184.654C118.33 174.385 119.614 163.474 117.688 151.921C116.404 146.145 114.477 140.368 111.909 135.234C109.341 130.099 106.772 124.965 103.562 120.472C96.4992 110.203 99.7096 103.785 112.551 105.069C118.33 105.711 124.109 105.069 129.887 105.069C135.666 105.069 141.445 103.785 147.224 101.86C158.139 98.0088 167.128 90.9488 172.907 80.6798L178.044 71.6944L88.7942 21.6329Z" fill="url(#paint12_radial_132:787)"/>
<path opacity="0.35" fill-rule="evenodd" clip-rule="evenodd" d="M148.508 67.8434C142.087 78.7542 134.382 88.3814 126.035 94.7995C122.183 98.0086 118.33 100.576 114.478 102.501C96.4997 111.487 99.7101 104.427 101.636 124.965C102.278 129.457 101.636 133.95 100.994 139.085C99.068 149.354 95.2155 160.906 88.7947 171.817C83.6581 180.803 78.5214 189.788 73.3848 198.132C79.1635 200.699 84.3002 201.982 88.7947 203.266C93.2893 195.564 97.7839 187.221 102.278 179.519C108.699 168.608 111.91 156.414 111.268 144.861C111.268 139.085 109.983 133.95 108.699 128.816C100.352 105.069 96.4997 111.487 121.541 106.352C126.678 105.069 131.814 103.143 136.951 100.576C146.582 95.4414 156.213 86.456 162.634 75.5451C165.202 71.0524 167.771 66.5597 170.339 62.067L156.213 53.7234C153.645 58.858 151.077 63.3507 148.508 67.8434Z" fill="url(#paint13_radial_132:787)"/>
<path fill-rule="evenodd" clip-rule="evenodd" d="M54.1225 151.921C60.5434 141.01 67.6063 130.741 74.6692 123.681C77.8796 119.831 81.09 117.263 84.3004 114.696C99.0682 103.785 95.2158 110.203 97.142 92.2326C97.7841 88.3817 98.4262 83.889 99.7103 79.3963C102.279 69.7691 107.415 58.8583 113.836 47.9474C116.404 43.4547 118.973 38.962 121.541 34.4693L95.8578 19.0658C93.2895 23.5585 90.7212 28.0512 88.1528 32.5439C81.732 43.4547 79.1637 56.291 80.4479 67.8437C81.09 73.62 82.3741 79.3963 84.3004 84.5308C95.2158 110.203 98.4262 103.143 71.4587 106.994C65.68 107.636 59.9013 109.562 54.7646 112.129C43.8492 117.263 34.8601 125.607 28.4393 136.518C23.9447 143.578 20.0922 151.279 15.5977 158.339C20.7343 164.758 28.4393 171.818 39.3547 179.519C43.8492 169.892 48.9859 160.907 54.1225 151.921Z" fill="url(#paint14_radial_132:787)" fill-opacity="0.1"/>
<path fill-rule="evenodd" clip-rule="evenodd" d="M66.323 110.203C56.6917 110.845 45.1343 117.905 37.4293 126.248C34.861 129.458 27.7981 139.085 27.156 143.577C26.5139 149.996 40.6397 158.339 42.5659 155.13C48.9868 144.861 54.1234 133.95 66.965 120.472C68.8913 118.547 71.4596 117.263 73.3858 115.338C75.9542 112.77 68.8913 110.203 66.323 110.203Z" fill="url(#paint15_radial_132:787)" fill-opacity="0.1"/>
<path fill-rule="evenodd" clip-rule="evenodd" d="M102.278 42.8132C101.636 42.1714 93.9307 37.0369 93.2886 37.0369C92.6466 37.0369 92.0045 37.0369 90.7203 38.3205C88.152 41.5296 85.5837 47.9477 84.9416 50.515C82.3733 60.1422 83.0153 72.3366 88.7941 80.0384C89.4362 80.6802 90.7203 82.6057 92.0045 82.6057C92.6466 82.6057 92.6466 81.9638 92.6466 80.6802C92.0045 77.4711 92.0045 73.6203 92.6466 70.4112C93.9307 62.0676 97.1411 54.3658 101.636 47.3059C102.92 44.7386 102.92 43.455 102.278 42.8132Z" fill="url(#paint16_radial_132:787)" fill-opacity="0.1"/>
<path opacity="0.1" fill-rule="evenodd" clip-rule="evenodd" d="M86.729 20.4498L177.262 72.4367L171.484 82.0639C165.705 92.3329 156.074 99.3929 145.158 103.244C139.38 105.169 133.601 106.453 127.18 106.453C121.401 106.453 115.623 107.095 109.844 106.453C106.634 106.453 100.855 106.453 98.9286 109.662C97.0023 112.871 100.213 118.005 102.139 120.573C105.349 125.065 107.918 130.2 110.486 135.334C113.054 140.469 115.623 146.245 116.265 152.022C118.191 163.574 116.907 175.127 111.128 185.396L104.707 196.949C102.781 200.799 98.9286 202.725 94.434 202.083C91.2236 202.083 88.6553 201.441 85.4449 200.158C79.024 198.232 73.2453 196.307 67.4666 193.74C61.6879 192.456 56.5512 189.889 50.7725 186.68C45.6358 183.47 40.4992 180.261 35.3625 177.052C30.2259 173.201 25.0892 169.351 20.5946 164.858C18.6684 162.932 16.7422 160.365 14.8159 157.798C12.2476 153.947 12.2476 150.096 14.1738 146.245L20.5946 134.693C26.3734 124.424 36.0046 117.364 46.92 113.513C52.6987 111.587 58.4774 110.304 64.8983 110.304C70.677 110.304 76.4557 109.662 82.2345 110.304C85.4449 110.304 91.2236 110.304 93.1498 107.095C95.0761 103.886 91.8657 98.7511 89.9394 96.1838C86.729 91.6911 84.1607 86.5566 81.5924 81.4221C79.024 76.2876 76.4557 70.5113 75.8136 64.7349C73.8874 53.1823 75.1716 41.6296 80.9503 31.3606L86.729 20.4498Z" fill="white"/>
<path fill-rule="evenodd" clip-rule="evenodd" d="M192.171 62.7084L185.108 74.261C179.972 82.6046 153.646 76.1865 125.395 60.1411C97.1433 44.0958 77.8808 23.5577 83.0175 15.2141L90.0804 3.6615C124.111 22.9159 158.141 42.8121 192.171 62.7084Z" fill="url(#paint17_linear_132:787)"/>
<path opacity="0.5" fill-rule="evenodd" clip-rule="evenodd" d="M84.3019 24.8414L91.3648 13.2887C88.7964 9.43782 88.7964 5.58694 90.0806 3.6615L83.0177 15.2142C81.7335 17.7814 82.3756 20.9905 84.3019 24.8414Z" fill="url(#paint18_linear_132:787)"/>
<path fill-rule="evenodd" clip-rule="evenodd" d="M102.921 27.4084L96.5 38.961C101.637 43.4537 108.057 48.5882 115.12 53.7228L122.183 42.1701C114.478 37.0356 108.057 31.9011 102.921 27.4084Z" fill="url(#paint19_linear_132:787)"/>
<path opacity="0.5" fill-rule="evenodd" clip-rule="evenodd" d="M154.93 59.499L147.867 71.0517C153.646 73.6189 159.425 75.5444 164.561 76.1862L171.624 64.6335C166.488 63.3499 160.709 61.4245 154.93 59.499Z" fill="url(#paint20_linear_132:787)"/>
<path opacity="0.5" fill-rule="evenodd" clip-rule="evenodd" d="M179.329 65.9172L172.266 77.4699C178.686 78.1117 183.181 76.828 185.107 74.2608L192.17 62.7081C190.244 65.2754 185.749 66.559 179.329 65.9172Z" fill="url(#paint21_linear_132:787)"/>
<path fill-rule="evenodd" clip-rule="evenodd" d="M149.151 18.4242C177.403 34.4696 196.023 54.3658 190.887 62.7094C185.75 71.053 159.425 64.6348 131.173 48.5895C102.921 32.5441 84.301 12.6479 89.4377 4.30431C94.5743 -4.03927 120.9 2.37887 149.151 18.4242Z" fill="#E26F80"/>
<path fill-rule="evenodd" clip-rule="evenodd" d="M149.794 17.7818C178.045 33.8271 197.308 54.3651 192.171 62.7087C187.034 71.0523 160.709 64.6342 132.457 48.5888C104.206 32.5435 84.9433 12.0054 90.08 3.66185C94.5746 -4.68173 121.542 1.73641 149.794 17.7818Z" fill="url(#paint22_radial_132:787)"/>
<defs>
<linearGradient id="paint0_linear_132:787" x1="-0.0355047" y1="158.755" x2="102.305" y2="217.867" gradientUnits="userSpaceOnUse">
<stop offset="0.00743494" stop-color="#781916"/>
<stop offset="0.3086" stop-color="#963333"/>
<stop offset="1" stop-color="#450E0E"/>
</linearGradient>
<linearGradient id="paint1_linear_132:787" x1="2.38183" y1="154.57" x2="7.76765" y2="157.681" gradientUnits="userSpaceOnUse">
<stop stop-color="#616DBE"/>
<stop offset="0.6029" stop-color="#C3C7E6"/>
<stop offset="1" stop-color="white"/>
</linearGradient>
<linearGradient id="paint2_linear_132:787" x1="17.0266" y1="176.475" x2="37.4941" y2="188.297" gradientUnits="userSpaceOnUse">
<stop stop-color="#AB665D"/>
<stop offset="1" stop-color="#2B2321"/>
</linearGradient>
<linearGradient id="paint3_linear_132:787" x1="70.4398" y1="205.52" x2="85.0601" y2="213.965" gradientUnits="userSpaceOnUse">
<stop stop-color="#AB665D"/>
<stop offset="1" stop-color="#2B2321"/>
</linearGradient>
<linearGradient id="paint4_linear_132:787" x1="96.4922" y1="209.752" x2="104.365" y2="214.299" gradientUnits="userSpaceOnUse">
<stop stop-color="white"/>
<stop offset="0.3971" stop-color="#C3C7E6"/>
<stop offset="1" stop-color="#616DBE"/>
</linearGradient>
<radialGradient id="paint5_radial_132:787" cx="0" cy="0" r="1" gradientUnits="userSpaceOnUse" gradientTransform="translate(18.3234 205.981) rotate(29.9904) scale(80.7765 80.7596)">
<stop stop-color="#BF4444"/>
<stop offset="1" stop-color="#57172E"/>
</radialGradient>
<radialGradient id="paint6_radial_132:787" cx="0" cy="0" r="1" gradientUnits="userSpaceOnUse" gradientTransform="translate(65.6007 156.364) rotate(29.9904) scale(69.1467 69.1323)">
<stop stop-color="#FFA536"/>
<stop offset="1" stop-color="#A11300"/>
</radialGradient>
<radialGradient id="paint7_radial_132:787" cx="0" cy="0" r="1" gradientUnits="userSpaceOnUse" gradientTransform="translate(63.0313 127.518) rotate(29.9904) scale(72.6443 72.6291)">
<stop stop-color="#FFA536"/>
<stop offset="1" stop-color="#D14A00"/>
</radialGradient>
<radialGradient id="paint8_radial_132:787" cx="0" cy="0" r="1" gradientUnits="userSpaceOnUse" gradientTransform="translate(119.735 62.752) rotate(29.9904) scale(53.5647 53.5535)">
<stop stop-color="#FFA536"/>
<stop offset="1" stop-color="#A11300"/>
</radialGradient>
<radialGradient id="paint9_radial_132:787" cx="0" cy="0" r="1" gradientUnits="userSpaceOnUse" gradientTransform="translate(92.2799 161.345) rotate(29.9904) scale(27.7325 27.7267)">
<stop stop-color="#CC3300"/>
<stop offset="1" stop-color="white"/>
</radialGradient>
<radialGradient id="paint10_radial_132:787" cx="0" cy="0" r="1" gradientUnits="userSpaceOnUse" gradientTransform="translate(125.127 70.9088) rotate(29.9904) scale(57.6548 57.6428)">
<stop stop-color="#FFA536"/>
<stop offset="1" stop-color="#D14A00"/>
</radialGradient>
<radialGradient id="paint11_radial_132:787" cx="0" cy="0" r="1" gradientUnits="userSpaceOnUse" gradientTransform="translate(139.518 71.4577) rotate(29.9904) scale(55.5427 55.5311)">
<stop stop-color="#CC3300"/>
<stop offset="1" stop-color="white"/>
</radialGradient>
<radialGradient id="paint12_radial_132:787" cx="0" cy="0" r="1" gradientUnits="userSpaceOnUse" gradientTransform="translate(65.0058 28.4276) rotate(29.9904) scale(222.761 222.715)">
<stop stop-color="#CCF0EF"/>
<stop offset="1" stop-color="#5E73E6"/>
</radialGradient>
<radialGradient id="paint13_radial_132:787" cx="0" cy="0" r="1" gradientUnits="userSpaceOnUse" gradientTransform="translate(174.072 170.328) rotate(29.9904) scale(131.597 131.569)">
<stop offset="0.3699"/>
<stop offset="1" stop-color="white"/>
</radialGradient>
<radialGradient id="paint14_radial_132:787" cx="0" cy="0" r="1" gradientUnits="userSpaceOnUse" gradientTransform="translate(100.558 100.119) rotate(29.9904) scale(153.726 153.694)">
<stop/>
<stop offset="1" stop-color="white"/>
</radialGradient>
<radialGradient id="paint15_radial_132:787" cx="0" cy="0" r="1" gradientUnits="userSpaceOnUse" gradientTransform="translate(70.0432 146.223) rotate(29.9904) scale(175.85 175.813)">
<stop/>
<stop offset="0.5651" stop-color="white"/>
</radialGradient>
<radialGradient id="paint16_radial_132:787" cx="0" cy="0" r="1" gradientUnits="userSpaceOnUse" gradientTransform="translate(108.946 69.5867) rotate(-21.3071) scale(61.9892 61.9702)">
<stop/>
<stop offset="1" stop-color="white"/>
</radialGradient>
<linearGradient id="paint17_linear_132:787" x1="81.8846" y1="16.9244" x2="184.225" y2="76.0371" gradientUnits="userSpaceOnUse">
<stop offset="0.00743494" stop-color="#781916"/>
<stop offset="0.3086" stop-color="#963333"/>
<stop offset="1" stop-color="#450E0E"/>
</linearGradient>
<linearGradient id="paint18_linear_132:787" x1="84.3019" y1="12.7397" x2="89.6883" y2="15.8509" gradientUnits="userSpaceOnUse">
<stop stop-color="#616DBE"/>
<stop offset="0.6029" stop-color="#C3C7E6"/>
<stop offset="1" stop-color="white"/>
</linearGradient>
<linearGradient id="paint19_linear_132:787" x1="98.9453" y1="34.6451" x2="119.413" y2="46.4674" gradientUnits="userSpaceOnUse">
<stop stop-color="#AB665D"/>
<stop offset="1" stop-color="#2B2321"/>
</linearGradient>
<linearGradient id="paint20_linear_132:787" x1="152.36" y1="63.6905" x2="166.98" y2="72.1349" gradientUnits="userSpaceOnUse">
<stop stop-color="#AB665D"/>
<stop offset="1" stop-color="#2B2321"/>
</linearGradient>
<linearGradient id="paint21_linear_132:787" x1="178.412" y1="67.9217" x2="186.285" y2="72.4689" gradientUnits="userSpaceOnUse">
<stop stop-color="white"/>
<stop offset="0.3971" stop-color="#C3C7E6"/>
<stop offset="1" stop-color="#616DBE"/>
</linearGradient>
<radialGradient id="paint22_radial_132:787" cx="0" cy="0" r="1" gradientUnits="userSpaceOnUse" gradientTransform="translate(80.9179 41.9985) rotate(29.9904) scale(142.309 142.279)">
<stop stop-color="#BF4444"/>
<stop offset="1" stop-color="#57172E"/>
</radialGradient>
</defs>
</svg>
