<svg width="18" height="15" viewBox="0 0 18 15" fill="none" xmlns="http://www.w3.org/2000/svg">
<path d="M8.76234 4.31776L8.79801 4.906L8.20345 4.83397C6.03926 4.55786 4.14857 3.62148 2.54327 2.04884L1.75845 1.26853L1.5563 1.84476C1.12822 3.12928 1.40172 4.48583 2.29355 5.3982C2.7692 5.90241 2.66218 5.97444 1.84169 5.67431C1.5563 5.57827 1.30659 5.50625 1.2828 5.54226C1.19957 5.62629 1.48495 6.71874 1.71088 7.15091C2.02005 7.75115 2.65029 8.33939 3.33997 8.68753L3.92264 8.96365L3.23295 8.97565C2.56705 8.97565 2.54327 8.98766 2.61461 9.23976C2.85244 10.0201 3.79184 10.8484 4.83826 11.2086L5.57551 11.4607L4.93339 11.8448C3.98209 12.397 2.86433 12.7092 1.74656 12.7332C1.21146 12.7452 0.771484 12.7932 0.771484 12.8292C0.771484 12.9493 2.2222 13.6215 3.06648 13.8856C5.59929 14.666 8.60775 14.3298 10.8671 12.9973C12.4724 12.0489 14.0777 10.1641 14.8268 8.33939C15.2311 7.367 15.6354 5.59028 15.6354 4.73793C15.6354 4.18571 15.6711 4.11368 16.337 3.45341C16.7294 3.06926 17.098 2.64909 17.1694 2.52904C17.2883 2.30095 17.2764 2.30095 16.6699 2.50503C15.6592 2.86518 15.5165 2.81716 16.0159 2.27694C16.3846 1.89278 16.8245 1.1965 16.8245 0.992417C16.8245 0.956402 16.6462 1.01643 16.444 1.12447C16.23 1.24452 15.7543 1.42459 15.3976 1.53264L14.7555 1.73672L14.1728 1.34056C13.8517 1.12447 13.3999 0.884373 13.1621 0.812344C12.5556 0.644276 11.6281 0.668285 11.0811 0.860363C9.59472 1.40058 8.65531 2.79315 8.76234 4.31776Z" fill="#5A5471"/>
</svg>
