<svg width="18" height="14" viewBox="0 0 18 14" fill="none" xmlns="http://www.w3.org/2000/svg">
<path d="M8.76234 3.81783L8.79801 4.40606L8.20345 4.33403C6.03926 4.05792 4.14857 3.12154 2.54327 1.54891L1.75845 0.76859L1.5563 1.34482C1.12822 2.62934 1.40172 3.98589 2.29355 4.89826C2.7692 5.40247 2.66218 5.4745 1.84169 5.17437C1.5563 5.07834 1.30659 5.00631 1.2828 5.04232C1.19957 5.12636 1.48495 6.2188 1.71088 6.65097C2.02005 7.25122 2.65029 7.83945 3.33997 8.1876L3.92264 8.46371L3.23295 8.47571C2.56705 8.47571 2.54327 8.48772 2.61461 8.73982C2.85244 9.52013 3.79184 10.3485 4.83826 10.7086L5.57551 10.9607L4.93339 11.3449C3.98209 11.8971 2.86433 12.2092 1.74656 12.2332C1.21146 12.2452 0.771484 12.2933 0.771484 12.3293C0.771484 12.4493 2.2222 13.1216 3.06648 13.3857C5.59929 14.166 8.60775 13.8299 10.8671 12.4973C12.4724 11.549 14.0777 9.66419 14.8268 7.83945C15.2311 6.86706 15.6354 5.09034 15.6354 4.238C15.6354 3.68577 15.6711 3.61374 16.337 2.95347C16.7294 2.56932 17.098 2.14915 17.1694 2.0291C17.2883 1.80101 17.2764 1.80101 16.6699 2.00509C15.6592 2.36524 15.5165 2.31722 16.0159 1.777C16.3846 1.39284 16.8245 0.69656 16.8245 0.492478C16.8245 0.456463 16.6462 0.516487 16.444 0.624531C16.23 0.74458 15.7543 0.924653 15.3976 1.0327L14.7555 1.23678L14.1728 0.840619C13.8517 0.624531 13.3999 0.384434 13.1621 0.312405C12.5556 0.144337 11.6281 0.168346 11.0811 0.360424C9.59472 0.900643 8.65531 2.29321 8.76234 3.81783Z" fill="#5A5471"/>
</svg>
