<svg width="73" height="34" viewBox="0 0 73 34" fill="none" xmlns="http://www.w3.org/2000/svg">
<path d="M0 30.5436C0.300721 30.2494 0.601405 30.0288 0.902126 29.8081C2.63127 28.1902 4.8867 27.0871 7.21729 27.3813C8.26981 27.4548 9.32237 27.8225 10.0742 28.5579C11.3522 29.514 12.0288 31.0583 12.1792 32.6763C14.1338 30.1758 17.8929 29.1463 20.9753 30.0288C21.9527 30.3229 22.93 30.8377 23.7569 31.4996C24.1328 31.8673 24.5087 32.235 24.8846 32.6763C25.035 32.8969 25.7116 33.7058 25.6364 34C26.2379 32.5292 27.3656 31.2054 29.0196 30.5436C30.8991 29.8081 33.9815 29.8081 36.0114 30.3229C37.2142 30.6171 39.244 31.4996 40.3718 32.1615C39.9959 31.426 39.9207 30.5436 40.071 29.6611C40.7476 25.9104 45.1081 24.1454 48.6416 24.3661C49.9196 24.4396 51.1225 24.8809 52.4006 24.9544C52.0999 23.9984 51.724 23.1159 51.724 22.0127C51.724 20.9832 51.8744 20.0271 52.3254 19.0711C53.0021 17.4532 54.4305 16.2765 56.0093 15.5411C57.5129 14.8057 59.0916 14.4379 60.7456 14.1438C62.174 13.9232 63.6777 13.7761 65.1061 14.2173C64.5798 11.7169 64.655 9.14295 65.6323 6.78962C66.8352 3.84796 69.6921 0.906301 73 0.244427C72.6241 0.317969 71.8723 0.0973574 71.4964 0.0973574C67.5118 -0.27035 63.5273 0.465047 59.6179 1.274C55.5581 2.1565 51.5736 3.40672 47.8146 5.17172C47.0628 5.53943 46.4614 5.76004 46.0103 6.12775C46.0103 6.49546 46.0854 6.93671 46.0854 7.30442C46.1606 9.73129 46.0103 12.0846 45.1833 14.3644C44.8074 15.2469 44.3563 16.1294 43.83 17.0119C42.3264 19.3652 40.0711 21.4244 37.515 22.8217C37.4398 22.0863 37.0638 21.4244 36.5376 20.9096C36.4624 20.8361 36.312 20.7625 36.2368 20.689C36.2368 20.2477 36.0113 19.8065 35.7858 19.5123C35.5602 19.2182 35.2595 19.0711 34.9588 18.8505C34.8836 18.7769 34.8084 18.7769 34.7332 18.8505C34.6581 18.924 34.7332 18.9975 34.7332 19.0711C34.8836 19.5859 34.6581 20.0271 34.5078 20.5419C34.3574 20.6154 34.2822 20.6155 34.1319 20.689C33.6056 20.9096 33.0793 21.1302 32.553 21.3509C32.4778 21.3509 32.4027 21.4244 32.3275 21.4244C31.8764 21.2773 31.5005 21.1302 31.1998 20.7625C31.1246 20.689 31.0494 20.6154 30.9742 20.6154C30.7487 20.5419 30.5232 20.689 30.3728 20.8361C30.2977 21.0567 30.2977 21.2038 30.3728 21.4244C30.5232 21.7921 30.7487 22.0863 30.9742 22.3804C31.0494 22.454 31.1246 22.5275 31.275 22.6746C31.1998 22.9688 31.1998 23.3365 31.3501 23.6307C31.5005 24.0719 31.8012 24.4396 32.1019 24.8073C31.9516 24.8073 31.8012 24.8809 31.5757 24.8809C30.7487 25.0279 29.9217 25.0279 29.1699 25.0279C25.5612 24.9544 22.103 23.6306 19.4717 21.2038C18.9454 20.7625 18.4943 20.2477 18.1184 19.7329C18.0432 19.5859 17.4418 18.7034 17.2915 18.7034C13.6828 19.2917 10.2245 20.689 7.21729 22.7481C4.05971 24.5867 1.5036 27.3077 0 30.5436ZM34.9588 21.645C35.2595 21.5715 35.4099 22.0127 35.1091 22.1598C34.8084 22.2334 34.6581 21.7186 34.9588 21.645ZM32.8537 22.3804C33.1544 22.3069 33.3049 22.7482 33.0041 22.8952C32.7034 22.9688 32.553 22.454 32.8537 22.3804Z" fill="#FFDD00"/>
</svg>
