<svg width="144" height="151" viewBox="0 0 144 151" fill="none" xmlns="http://www.w3.org/2000/svg">
<path d="M-6.72018e-05 7.6884C4.02332 8.22978 8.01585 9.83305 11.4622 11.9521C17.6146 16.0626 22.1944 23.1038 21.1116 31.1506C20.9533 32.9529 20.4732 34.8524 19.5745 36.5271C19.8962 36.4301 19.9932 36.7516 20.3149 36.6546C22.1172 36.813 23.695 37.3901 25.6914 38.1918C31.6804 40.5969 37.0616 45.6416 39.3232 51.978C40.9059 56.0628 40.6556 61.0513 39.4709 65.2687C43.525 64.748 47.5483 65.2893 50.77 67.827C55.7633 71.5851 58.8317 79.4331 58.0043 85.9991C64.601 85.7645 72.0401 89.487 75.3945 94.7921C77.8451 98.2641 77.6253 102.19 77.0839 106.214C81.3627 105.274 86.448 105.846 90.119 107.547C96.2051 110.274 100.718 115.931 102.658 122.365C103.143 123.973 103.404 126 103.567 127.705C103.664 128.027 103.664 128.027 103.761 128.349C105.37 127.864 107.396 127.603 109.102 127.44C116.985 126.817 123.526 132.215 127.268 138.806C129.397 142.376 130.658 146.557 130.857 150.708C131.24 148.487 132.042 146.491 132.522 144.592C136.204 131.199 139.982 118.128 141.765 104.256C142.403 100.554 142.945 96.5305 143.905 92.7318C143.777 93.4721 135.056 93.6455 134.316 93.5178C117.42 93.3487 100.709 86.8074 87.3071 76.1101C88.8491 74.2414 89.9725 72.1481 90.6772 69.8301C91.2235 69.3144 91.6728 68.4769 91.9945 68.3799C92.7655 67.4456 93.5365 66.5113 93.9859 65.674C94.6599 64.418 95.0122 63.2589 95.3646 62.0999C94.2719 63.1312 92.7605 63.938 91.1521 64.423C90.8918 62.396 89.8911 60.2411 88.7627 58.8268C87.6344 57.4124 85.5412 56.2893 83.3201 55.9063C83.8972 54.3286 84.5713 53.0724 85.9856 51.9441C84.699 52.3321 83.4122 52.7201 82.1255 53.1081C81.1605 53.3991 79.9708 54.1086 79.1028 54.7213C78.7811 54.8183 77.913 55.4312 77.3667 55.9469C75.018 56.3042 72.8633 57.3047 70.8056 58.627C61.3246 44.6417 56.0867 27.2714 57.3178 10.4068C57.4455 9.66651 58.0126 1.07349 58.9776 0.782498C55.2452 1.20613 51.1913 1.72689 47.3619 1.82885C33.6221 2.81374 19.9485 5.18216 6.37195 7.8724C4.2786 6.74903 2.34863 7.33109 -6.72018e-05 7.6884ZM86.424 66.1996C87.0367 67.0676 85.9441 68.0992 85.0098 67.3282C84.3971 66.4601 85.8114 65.3316 86.424 66.1996ZM81.0734 60.0929C81.6861 60.961 80.5933 61.9921 79.659 61.2211C79.0463 60.3531 80.1391 59.3219 81.0734 60.0929Z" fill="#E8CA01"/>
</svg>
